<?xml version="1.0" standalone="no"?>
<!DOCTYPE svg PUBLIC "-//W3C//DTD SVG 20010904//EN"
 "http://www.w3.org/TR/2001/REC-SVG-20010904/DTD/svg10.dtd">
<svg version="1.0" xmlns="http://www.w3.org/2000/svg"
 width="804.000000pt" height="804.000000pt" viewBox="0 0 804.000000 804.000000"
 preserveAspectRatio="xMidYMid meet">
<metadata>
Created by potrace 1.11, written by Peter Selinger 2001-2013
</metadata>
<g transform="translate(0.000000,804.000000) scale(0.100000,-0.100000)"
fill="#000000" stroke="none">
<path d="M1175 7765 c-109 -51 -159 -127 -160 -246 0 -87 26 -150 82 -199 18
-16 33 -32 33 -35 0 -3 -25 -50 -56 -103 -31 -53 -68 -117 -82 -142 -14 -25
-90 -157 -170 -295 -80 -137 -157 -271 -171 -296 -14 -25 -75 -132 -136 -238
-109 -190 -110 -192 -140 -186 -133 25 -203 11 -278 -55 -177 -156 -79 -449
158 -467 38 -3 75 0 102 10 l42 14 70 -121 c190 -332 310 -540 568 -984 l95
-164 -40 -41 c-117 -119 -110 -297 14 -404 l26 -22 -35 -63 c-19 -35 -57 -101
-84 -148 -48 -82 -258 -444 -293 -505 -9 -16 -51 -88 -92 -160 -42 -71 -86
-148 -98 -170 -95 -170 -133 -226 -148 -220 -188 73 -387 -68 -376 -264 7
-114 97 -225 199 -245 72 -14 88 -14 138 -1 51 13 77 7 77 -16 0 -5 11 -28 25
-50 15 -22 77 -129 139 -237 63 -108 180 -312 261 -452 81 -140 179 -310 217
-378 l71 -123 -41 -41 c-109 -107 -107 -284 5 -390 105 -100 286 -91 383 19
36 41 70 115 70 152 0 15 74 16 757 16 l758 0 6 -36 c21 -132 149 -232 283
-222 166 13 282 171 244 333 -12 50 -55 118 -92 148 l-24 19 120 209 c188 328
606 1052 612 1061 1 1 22 -4 46 -11 55 -15 121 -12 176 9 39 15 45 15 90 -3
69 -25 131 -27 191 -4 97 37 155 99 179 192 l11 45 772 3 c424 1 771 -1 772
-5 12 -119 96 -214 214 -242 173 -41 335 86 337 264 1 74 -31 144 -91 198
l-41 37 133 228 c74 125 223 378 332 562 109 184 206 349 215 365 20 35 63
109 65 113 1 1 19 -4 41 -11 65 -23 141 -18 209 12 210 95 211 380 2 487 -45
24 -152 30 -205 11 -41 -14 -43 -14 -56 7 -50 81 -136 228 -136 232 0 3 -9 17
-19 32 -15 22 -173 287 -265 445 -25 44 -208 354 -268 455 l-49 82 45 43 c132
124 114 327 -38 424 -50 32 -67 36 -151 37 -84 0 -142 -24 -196 -81 -50 -52
-60 -73 -73 -153 -3 -13 -97 -15 -776 -15 l-773 0 -12 48 c-40 157 -212 246
-365 188 -49 -19 -51 -19 -102 1 -52 20 -117 21 -189 3 -24 -6 -30 1 -100 121
-41 71 -87 151 -102 179 -16 27 -64 111 -107 185 -43 74 -127 221 -188 325
-60 105 -143 249 -185 320 l-75 130 38 36 c84 79 107 197 61 305 -73 170 -296
214 -434 85 -34 -31 -64 -87 -75 -138 l-8 -38 -757 -3 c-602 -2 -757 0 -758
10 -3 57 -33 119 -81 167 -73 75 -198 99 -293 56z m201 -21 c73 -31 133 -107
148 -186 l5 -28 -128 0 -127 0 -15 -27 c-97 -171 -112 -192 -129 -183 -28 15
-72 79 -86 127 -59 197 141 377 332 297z m2069 -6 c157 -79 184 -298 50 -410
-25 -21 -27 -20 -95 99 -31 54 -61 99 -68 99 -7 1 -64 2 -128 3 l-116 1 7 38
c28 154 208 241 350 170z m-1925 -240 c0 -5 0 -18 0 -30 0 -51 -14 -52 -84
-12 -36 22 -66 42 -66 46 0 4 34 6 75 5 41 -1 75 -5 75 -9z m1555 -45 c12 -51
11 -52 -14 -65 -14 -7 -46 -25 -71 -40 -169 -99 -532 -308 -535 -308 -3 0 -29
-16 -59 -35 -64 -40 -64 -41 -82 -17 -12 16 -13 15 -14 -6 0 -22 -1 -22 -32
-6 -32 16 -180 101 -268 154 -25 15 -141 83 -258 150 l-213 123 7 31 c4 17 10
40 14 52 l8 20 753 0 752 -1 12 -52z m162 41 c-7 -7 -38 -26 -70 -43 l-57 -32
-10 26 c-11 29 -13 49 -5 57 3 3 39 5 80 4 56 -1 71 -4 62 -12z m-1816 -55
c38 -23 69 -44 69 -48 0 -4 -13 -22 -28 -39 l-29 -32 -28 52 c-15 29 -37 65
-47 81 -11 15 -16 27 -13 27 4 0 38 -19 76 -41z m1826 -1 c-42 -77 -62 -108
-69 -108 -3 0 -18 14 -33 32 l-26 31 33 20 c18 11 49 30 68 43 50 32 54 30 27
-18z m-1979 -68 c0 -50 -4 -93 -9 -96 -9 -5 -89 14 -89 22 0 7 91 164 95 164
1 0 3 -41 3 -90z m77 9 c48 -83 48 -97 5 -100 -8 0 -25 -2 -37 -5 -23 -4 -23
-2 -23 91 0 52 2 95 4 95 2 0 25 -37 51 -81z m1980 -11 c-1 -85 -3 -93 -21
-94 -28 0 -74 16 -74 27 0 12 83 158 90 159 3 0 5 -42 5 -92z m73 18 c23 -40
42 -78 42 -84 0 -11 -21 -20 -65 -28 -22 -4 -25 -1 -26 28 0 18 -1 61 -2 96
-1 34 0 62 3 62 3 0 24 -33 48 -74z m-1733 -88 c77 -45 220 -128 318 -185 98
-57 201 -117 230 -133 44 -25 52 -33 49 -55 -3 -23 -1 -25 16 -16 18 10 19 -2
18 -426 l-1 -437 -35 -8 c-19 -5 -43 -13 -52 -18 -13 -8 -21 -1 -41 33 -69
121 -333 576 -348 602 -11 17 -22 36 -25 44 -9 17 -201 351 -214 371 -6 8 -16
26 -22 40 -7 14 -15 27 -19 30 -6 5 -33 52 -34 60 0 3 -13 24 -28 47 -15 24
-27 45 -27 48 0 8 63 85 70 85 2 0 67 -37 145 -82z m1445 75 c0 -5 13 -23 29
-41 l29 -33 -26 -47 c-14 -26 -30 -48 -34 -50 -4 -2 -8 -8 -8 -13 0 -5 -25
-53 -57 -107 -89 -154 -343 -593 -368 -637 -261 -457 -241 -429 -310 -412 -11
3 -26 6 -32 6 -10 1 -13 95 -13 436 0 399 1 436 16 433 10 -2 19 3 21 10 3 6
-3 12 -12 12 -14 0 -15 3 -5 15 7 8 17 15 22 15 6 0 22 8 36 18 15 11 52 32
82 49 30 17 71 39 90 51 46 27 161 94 230 133 30 17 66 37 79 46 12 8 48 29
80 46 31 16 72 41 91 53 36 23 60 30 60 17z m-1895 -117 l50 -13 1 -432 c1
-351 -1 -429 -11 -421 -10 8 -15 8 -20 -1 -4 -6 -2 -15 5 -19 9 -6 6 -12 -11
-23 -24 -15 -501 -291 -569 -329 -19 -11 -60 -35 -91 -54 -31 -19 -60 -34 -64
-34 -4 0 -25 17 -46 37 l-38 37 24 40 c52 92 144 252 375 651 134 231 263 455
287 498 24 42 47 77 51 77 4 -1 30 -7 57 -14z m228 -47 c21 -34 37 -66 37 -70
0 -5 5 -9 10 -9 6 0 10 -4 10 -9 0 -7 168 -303 350 -616 127 -219 190 -329
190 -332 0 -3 14 -24 30 -49 17 -24 29 -44 26 -44 -3 0 7 -19 23 -42 l29 -43
-31 -36 c-18 -21 -36 -38 -41 -38 -7 -1 -750 422 -765 436 -3 2 1 9 7 15 18
18 14 30 -7 23 -19 -6 -20 3 -18 421 l2 427 45 12 c25 7 50 13 56 14 6 0 27
-27 47 -60z m1840 45 c20 -4 38 -9 38 -13 1 -3 2 -196 3 -429 1 -398 0 -423
-16 -418 -24 6 -33 -10 -12 -22 15 -8 14 -11 -7 -24 -25 -16 -291 -170 -394
-229 -33 -18 -73 -42 -90 -52 -16 -9 -38 -20 -47 -23 -10 -4 -18 -10 -18 -15
0 -5 -4 -9 -10 -9 -5 0 -47 -22 -94 -50 -47 -27 -88 -50 -92 -50 -4 0 -22 16
-41 35 l-33 34 77 136 c43 75 86 151 97 168 10 18 43 75 73 127 29 52 58 102
63 110 6 8 24 40 40 70 17 30 47 82 67 115 19 33 46 78 58 100 13 22 46 81 75
130 65 112 94 163 145 254 33 59 44 71 60 66 11 -3 37 -8 58 -11z m227 -61
c24 -43 80 -141 125 -218 45 -77 93 -160 107 -185 14 -25 92 -160 173 -300 81
-140 176 -305 211 -366 35 -62 62 -118 58 -125 -3 -8 -21 -27 -40 -42 l-34
-29 -67 39 c-36 21 -78 45 -92 53 -14 8 -107 62 -206 119 -402 233 -386 223
-365 236 15 9 2 25 -15 18 -17 -6 -16 -26 -16 540 -1 170 1 310 3 311 6 4 83
23 99 25 9 1 32 -29 59 -76z m-2223 -880 c6 22 24 22 56 -3 14 -11 28 -20 31
-20 4 0 160 -89 347 -197 330 -190 340 -197 333 -222 -4 -14 -8 -35 -10 -46
-1 -11 -3 -22 -3 -25 -1 -3 -336 -5 -746 -5 l-744 0 -16 47 c-8 26 -15 51 -15
56 0 9 25 27 108 74 56 31 341 197 437 253 50 30 115 67 145 83 l55 31 9 -22
c8 -19 10 -20 13 -4z m2101 8 c24 -17 311 -183 592 -344 58 -33 108 -63 112
-66 4 -3 -2 -31 -12 -61 l-19 -55 -736 0 c-483 0 -739 3 -744 10 -18 24 -29
84 -17 93 12 9 107 66 166 100 34 19 344 198 500 288 83 49 96 52 103 27 4
-15 6 -15 12 5 9 27 9 27 43 3z m-3040 -315 c17 -4 32 -12 32 -16 0 -10 -13
-34 -74 -137 -20 -34 -36 -71 -36 -83 0 -12 16 -48 35 -80 19 -32 35 -62 35
-66 0 -5 9 -20 20 -34 29 -37 25 -47 -27 -59 -165 -40 -316 90 -300 257 6 68
22 104 69 152 32 34 98 77 98 65 0 -3 7 -2 16 3 18 10 83 9 132 -2z m1949 -81
c0 -71 -2 -83 -13 -74 -8 6 -14 16 -14 21 0 5 -16 33 -35 63 -23 36 -31 57
-23 61 14 9 71 22 79 18 3 -2 6 -42 6 -89z m111 70 c3 -2 -16 -39 -42 -82
l-46 -78 0 91 0 92 42 -10 c23 -5 44 -11 46 -13z m2015 6 c33 -13 33 -20 3
-49 -30 -28 -65 -98 -68 -135 -1 -15 -5 -27 -8 -27 -3 0 -31 44 -62 98 -40 69
-53 101 -46 109 6 7 13 11 17 9 3 -2 15 0 26 5 24 9 101 4 138 -10z m320 -15
c57 -28 103 -79 123 -135 25 -70 27 -69 -102 -68 -92 1 -118 -2 -124 -13 -30
-53 -35 -52 -36 8 0 66 -30 138 -72 177 -30 28 -28 32 25 50 53 19 124 12 186
-19z m2097 4 c121 -62 170 -195 118 -320 -18 -41 -79 -110 -98 -110 -5 0 -38
51 -74 113 l-66 112 -121 -1 -121 -1 5 40 c10 73 88 156 172 184 46 15 139 7
185 -17z m-6392 -43 c12 -11 22 -25 22 -31 0 -6 -34 -30 -75 -53 -41 -23 -75
-38 -74 -35 0 4 9 21 20 37 10 17 29 49 41 72 22 43 27 44 66 10z m3803 -39
c23 -40 44 -77 47 -82 3 -6 -10 0 -29 11 -19 12 -53 31 -77 43 -23 12 -44 26
-47 30 -5 9 44 68 57 69 4 1 26 -32 49 -71z m269 25 c42 -47 60 -92 61 -151 2
-69 -19 -128 -63 -175 l-38 -42 -40 44 c-83 91 -85 225 -5 319 20 23 40 42 45
42 4 0 22 -17 40 -37z m-2317 -38 c20 -35 37 -66 37 -69 0 -6 -120 61 -134 74
-8 8 36 60 51 60 4 0 25 -29 46 -65z m290 37 l26 -28 -22 -13 c-12 -8 -47 -28
-77 -44 -54 -30 -54 -30 -39 -6 9 13 28 45 43 72 15 26 31 47 35 47 4 0 19
-12 34 -28z m-1985 -81 c7 -21 12 -42 12 -47 0 -5 -40 -9 -90 -9 -49 0 -90 2
-90 5 0 5 141 89 151 89 3 1 11 -16 17 -38z m3645 28 c12 -7 24 -15 27 -18 3
-3 23 -16 45 -28 22 -12 41 -25 42 -30 2 -5 -36 -8 -84 -8 -97 1 -99 3 -74 68
12 31 14 31 44 16z m-1955 -61 c12 -6 22 -14 22 -17 0 -8 -147 -8 -155 0 -3 4
1 23 9 44 l16 36 42 -26 c24 -14 53 -31 66 -37z m345 11 l2 -32 -78 -2 c-50
-1 -74 2 -68 8 23 23 127 75 134 67 5 -4 10 -23 10 -41z m-219 -60 c3 -3 -4
-5 -14 -6 -11 -1 -20 2 -20 7 0 8 25 8 34 -1z m2553 -25 c4 -12 -14 -74 -22
-74 -2 0 -36 20 -76 45 l-72 45 82 -1 c62 0 84 -4 88 -15z m1583 -37 c6 -27 9
-51 8 -52 -4 -3 -206 -119 -263 -150 -99 -56 -123 -69 -302 -171 -211 -121
-213 -122 -213 -100 0 20 -10 20 -25 0 -10 -15 -46 3 -306 151 -162 92 -319
181 -349 198 -30 17 -72 41 -93 54 -37 23 -37 23 -23 57 8 19 12 37 9 40 -22
22 61 24 776 24 l770 0 11 -51z m160 32 c-14 -10 -28 -19 -33 -19 -4 0 -25
-11 -47 -25 -43 -27 -48 -24 -60 30 l-7 33 85 0 86 0 -24 -19z m-6100 -11 c0
-14 -16 -62 -26 -77 -4 -5 -154 80 -154 87 0 4 40 7 90 7 78 0 90 -2 90 -17z
m1481 13 c33 -1 36 -4 50 -48 l14 -48 -110 -64 c-60 -35 -137 -79 -170 -99
-33 -19 -76 -43 -95 -54 -234 -133 -339 -194 -362 -210 -33 -23 -38 -23 -38 3
0 18 -2 19 -15 9 -8 -7 -12 -16 -9 -21 9 -15 -1 -11 -68 27 -34 20 -79 45 -98
56 -19 11 -87 51 -150 88 -63 37 -184 107 -268 155 -84 49 -155 92 -158 96 -9
15 21 102 38 108 13 5 1263 6 1439 2z m199 0 c30 -1 22 -8 -53 -50 l-57 -33
-16 38 c-21 51 -22 51 126 45z m332 0 c26 -1 27 -2 16 -33 -6 -18 -13 -36 -17
-40 -3 -4 -36 10 -74 31 -37 20 -65 39 -63 42 4 3 52 4 138 0z m1513 0 c16 -1
24 -12 33 -43 7 -24 15 -48 18 -55 3 -6 -16 -24 -43 -39 -26 -15 -100 -58
-163 -95 -63 -36 -132 -76 -152 -88 -21 -11 -53 -29 -70 -40 -18 -10 -89 -51
-158 -91 -69 -39 -129 -76 -135 -81 -14 -14 -25 -11 -25 6 0 8 -7 15 -16 15
-10 0 -14 -6 -11 -15 5 -12 1 -12 -21 -4 -15 6 -34 16 -42 22 -8 7 -30 20 -48
30 -17 10 -98 57 -180 104 -81 47 -172 99 -202 116 -30 16 -86 49 -125 72 -38
23 -89 52 -111 65 -40 21 -41 24 -32 54 5 17 10 37 12 44 1 8 7 17 13 20 8 5
1348 8 1458 3z m225 0 c8 -1 2 -9 -15 -19 -46 -28 -125 -72 -130 -72 -8 0 -24
37 -29 66 l-5 29 82 -2 c45 -1 89 -2 97 -2z m86 -14 c14 -66 32 -104 68 -138
14 -13 26 -29 26 -35 0 -24 -133 -38 -188 -20 l-32 11 19 35 c10 19 28 51 40
70 11 19 28 50 38 67 16 32 24 35 29 10z m414 -34 c67 -40 79 -55 58 -75 -44
-43 -43 -43 -87 33 -23 39 -41 73 -41 75 0 8 9 4 70 -33z m1872 5 c-10 -18
-29 -51 -42 -73 -13 -22 -25 -42 -27 -44 -4 -6 -43 31 -54 51 -8 14 3 24 58
57 38 22 72 40 76 41 5 0 0 -15 -11 -32z m-6232 -28 c5 0 10 -3 10 -8 0 -4 14
-13 31 -21 l31 -13 -33 -34 c-18 -18 -36 -31 -40 -28 -9 5 -89 139 -89 148 0
4 18 -5 40 -19 22 -14 44 -25 50 -25z m1821 24 c-12 -15 -21 -31 -21 -36 0 -4
-12 -26 -26 -48 l-26 -39 -23 22 c-13 12 -25 27 -27 34 -3 11 113 89 135 92 5
1 -1 -11 -12 -25z m262 -42 l29 -14 -33 -34 c-18 -19 -33 -33 -35 -31 -1 1
-20 35 -43 75 l-41 74 47 -28 c27 -15 61 -34 76 -42z m1775 8 c-18 -33 -40
-70 -50 -82 l-17 -23 -31 30 c-16 16 -29 33 -28 37 2 6 147 97 156 98 1 0 -13
-27 -30 -60z m2425 -131 c-7 -7 -78 12 -90 25 -3 3 16 42 43 88 l49 83 3 -94
c1 -52 -1 -98 -5 -102z m61 152 c6 -11 26 -45 44 -76 35 -60 35 -66 -1 -73
-74 -15 -72 -17 -74 92 -2 99 3 107 31 57z m-4458 -68 l-2 -88 -29 3 c-16 2
-37 8 -47 13 -17 9 -16 14 17 65 19 30 35 57 35 60 0 4 22 32 26 34 1 0 1 -39
0 -87z m111 -60 c4 -10 -51 -33 -79 -33 -5 0 -8 42 -8 93 l0 92 41 -70 c23
-38 43 -75 46 -82z m2226 65 c-1 -46 -2 -87 -2 -91 -1 -9 -66 -1 -86 11 -10 5
-2 26 33 85 26 42 49 77 52 77 3 0 4 -37 3 -82z m75 9 l42 -72 -36 -17 c-21
-9 -42 -14 -48 -12 -11 4 -17 174 -6 174 3 0 24 -33 48 -73z m1839 -62 c8 -7
-11 -48 -74 -155 -48 -80 -107 -181 -133 -225 -46 -78 -164 -279 -397 -672
-64 -109 -122 -208 -127 -221 -11 -23 -17 -24 -76 -8 -8 3 -23 5 -32 5 -17 1
-18 29 -18 442 0 291 3 438 10 434 6 -3 15 -3 21 1 8 4 7 9 -2 15 -7 4 -11 10
-8 13 5 5 424 246 524 301 33 19 103 58 155 87 l95 54 25 -31 c14 -16 30 -34
37 -40z m-1571 10 c53 -30 97 -55 98 -55 1 0 56 -31 122 -70 65 -38 136 -77
157 -86 20 -9 37 -20 37 -25 0 -5 4 -9 10 -9 5 0 62 -30 125 -66 99 -57 115
-69 109 -86 -5 -16 -2 -19 13 -14 19 6 19 -5 18 -421 -1 -236 -3 -433 -3 -439
-1 -6 -15 -14 -31 -17 -16 -3 -40 -9 -54 -12 -20 -5 -27 -2 -39 22 -18 35
-336 576 -389 660 -22 34 -39 65 -39 68 0 3 -11 22 -24 43 -13 20 -67 111
-121 202 -53 91 -112 191 -132 222 l-34 58 33 40 c18 22 37 40 41 40 4 0 51
-25 103 -55z m-2863 7 l37 -38 -24 -34 c-21 -33 -33 -53 -102 -177 -15 -27
-35 -60 -45 -75 -11 -14 -19 -29 -19 -32 0 -3 -43 -78 -95 -167 -52 -89 -95
-163 -95 -166 0 -2 -11 -20 -24 -41 -12 -20 -92 -156 -175 -302 -84 -146 -156
-268 -160 -273 -4 -4 -32 -1 -62 6 l-54 14 -2 427 c-1 269 1 424 7 421 6 -4
15 -3 22 1 8 5 6 10 -5 19 -13 10 -2 19 71 62 48 28 103 60 122 71 19 10 58
33 86 49 27 17 71 42 96 56 68 38 298 171 338 195 19 12 37 22 40 22 3 0 23
-17 43 -38z m496 2 c36 -20 91 -52 121 -70 57 -33 398 -231 460 -266 110 -63
121 -71 111 -81 -16 -16 -13 -28 6 -25 16 3 17 -25 18 -422 0 -272 -4 -425
-10 -425 -6 0 -32 -7 -58 -14 -26 -8 -49 -12 -50 -10 -3 3 -94 162 -237 409
-20 36 -62 108 -92 160 -31 52 -66 114 -79 137 -13 22 -47 81 -75 130 -28 48
-97 168 -153 265 l-102 178 33 35 c18 19 35 35 37 35 2 0 34 -16 70 -36z
m-1938 -69 c89 -52 163 -95 164 -95 1 0 75 -43 164 -95 89 -52 166 -95 171
-95 6 0 10 -4 10 -8 0 -5 16 -16 36 -25 28 -14 33 -21 25 -31 -13 -15 -5 -27
14 -20 10 4 13 -75 11 -423 l-1 -427 -45 -9 c-25 -5 -50 -13 -55 -17 -6 -5
-70 95 -167 263 -86 150 -216 376 -289 502 -73 127 -168 291 -210 365 l-77
135 36 37 c20 21 40 37 44 38 3 0 79 -43 169 -95z m3483 56 c34 -35 37 -41 25
-62 -7 -13 -68 -121 -137 -239 -69 -118 -138 -240 -155 -270 -17 -30 -48 -84
-69 -119 -21 -34 -38 -65 -38 -66 0 -2 -40 -72 -90 -156 -49 -83 -90 -153 -90
-155 0 -3 -20 -37 -43 -77 -24 -39 -55 -91 -68 -115 -19 -35 -27 -42 -44 -37
-11 3 -37 9 -57 12 l-38 6 -1 126 c0 145 0 709 0 730 1 10 4 11 14 2 17 -14
30 -2 17 14 -7 9 -6 15 2 22 7 6 164 97 348 203 184 106 344 199 355 206 28
18 27 18 69 -25z m336 -44 c0 -7 -6 -21 -14 -32 -7 -11 -23 -36 -34 -55 -25
-44 -129 -221 -299 -510 -44 -74 -149 -252 -233 -395 -84 -143 -156 -264 -161
-269 -4 -5 -25 -2 -49 8 -45 18 -135 21 -174 6 -14 -5 -26 -6 -26 -2 0 4 50
93 110 197 61 103 110 190 110 191 0 2 73 127 90 154 6 8 21 35 35 60 14 25
33 59 43 75 22 38 122 211 142 247 176 309 183 320 210 313 62 -18 155 -15
195 4 49 24 55 25 55 8z m470 -328 c107 -182 202 -342 210 -357 8 -15 39 -66
68 -113 28 -48 52 -92 52 -98 0 -6 4 -11 8 -11 4 0 18 -19 30 -42 12 -24 26
-50 32 -58 26 -39 147 -247 152 -261 4 -9 -8 -29 -33 -53 l-38 -38 -78 42
c-91 50 -93 51 -283 160 -80 45 -176 100 -213 121 -38 22 -73 39 -78 39 -5 0
-9 5 -9 10 0 6 -4 10 -9 10 -5 0 -30 12 -56 27 -42 23 -46 28 -31 39 19 13 7
27 -16 19 -11 -4 -13 67 -13 424 0 236 3 432 5 434 5 4 89 34 100 36 3 1 93
-148 200 -330z m1685 314 l55 -17 0 -424 c0 -419 0 -424 -20 -419 -21 5 -28
-7 -10 -18 16 -10 4 -21 -68 -61 -37 -21 -80 -45 -97 -55 -16 -9 -158 -89
-315 -178 l-285 -161 -38 38 -38 39 32 54 c18 30 37 63 43 74 6 11 57 97 112
190 166 280 278 469 290 490 9 17 126 216 201 340 13 22 33 59 45 83 12 23 25
42 30 42 4 0 32 -8 63 -17z m-4375 -13 l25 -6 1 -436 c1 -418 0 -435 -18 -430
-21 5 -24 -8 -6 -26 9 -9 9 -12 0 -12 -6 0 -35 -15 -64 -33 -29 -19 -60 -37
-68 -40 -8 -4 -31 -17 -50 -28 -42 -25 -323 -189 -371 -217 -117 -67 -156 -90
-176 -102 -12 -8 -23 -12 -25 -10 -2 3 -18 22 -36 42 l-34 36 26 47 c15 25 70
122 123 213 170 294 347 602 369 640 45 80 74 131 133 230 34 57 61 106 61
110 0 3 7 14 16 24 17 18 20 18 94 -2z m206 -62 c27 -46 54 -92 60 -103 9 -16
121 -211 217 -375 11 -19 30 -53 42 -75 13 -22 62 -107 110 -190 48 -82 96
-166 107 -185 10 -19 23 -42 28 -50 6 -8 37 -61 69 -118 l59 -103 -37 -40 -37
-41 -230 133 c-126 72 -295 170 -376 216 -82 46 -148 87 -148 92 0 4 5 12 12
19 9 9 7 12 -10 12 l-22 0 0 433 0 433 43 11 c23 5 47 11 53 12 5 0 32 -36 60
-81z m2156 42 c3 -12 2 -816 -1 -844 -1 -4 -8 -6 -16 -3 -19 8 -29 -10 -11
-20 10 -6 -97 -72 -362 -223 -207 -118 -382 -216 -389 -218 -13 -3 -83 61 -83
75 0 5 20 41 45 81 25 40 45 74 45 76 0 2 19 35 42 72 36 60 102 173 288 489
142 242 313 531 321 541 13 16 117 -6 121 -26z m2245 -7 c15 -27 34 -57 40
-68 6 -11 96 -163 200 -339 103 -175 233 -396 289 -490 55 -94 121 -205 146
-247 l45 -76 -38 -38 -39 -37 -42 25 c-24 13 -60 34 -80 46 -81 45 -118 66
-248 141 -74 42 -157 89 -185 104 -148 82 -227 130 -216 134 19 6 12 31 -8 25
-17 -4 -18 11 -17 418 l1 423 44 8 c24 4 46 10 49 13 14 14 32 1 59 -42z
m-156 -895 c10 27 -45 55 431 -217 l356 -203 -18 -44 c-11 -24 -16 -44 -12
-44 4 0 2 -4 -5 -8 -8 -5 -1452 -8 -1508 -3 -12 1 -46 91 -39 102 4 7 43 30
174 102 36 20 184 103 330 186 255 146 265 150 273 129 l9 -23 9 23z m-4425
-24 c-3 -8 1 -14 9 -14 8 0 15 7 15 15 0 8 3 15 7 15 3 0 52 -26 107 -59 56
-32 121 -70 146 -83 25 -14 72 -41 105 -61 68 -39 90 -52 273 -156 71 -41 128
-80 126 -85 -1 -6 -8 -29 -13 -51 l-10 -40 -752 0 -752 1 -13 49 c-9 38 -9 52
-1 58 7 4 80 46 162 95 83 48 159 92 170 99 11 7 29 17 40 22 11 6 99 57 195
114 96 57 179 102 183 99 5 -2 6 -10 3 -18z m2338 11 c-4 -10 0 -15 11 -15 11
0 15 5 11 15 -8 22 3 19 67 -20 32 -19 60 -35 63 -35 2 0 21 -10 42 -23 20
-13 66 -40 102 -59 78 -43 494 -279 498 -282 1 -2 -4 -22 -12 -44 -9 -23 -12
-42 -9 -42 4 0 2 -5 -5 -12 -9 -9 -199 -12 -767 -12 l-754 -1 -9 40 c-5 22
-11 46 -13 54 -4 14 139 99 681 404 19 11 44 26 55 33 26 18 46 18 39 -1z
m-3366 -395 c1 -49 0 -90 -2 -90 -6 0 -99 161 -95 164 7 6 84 23 90 20 4 -2 7
-44 7 -94z m97 80 l26 -10 -33 -58 c-68 -120 -67 -120 -67 -10 1 107 0 106 74
78z m1960 -81 c0 -49 -2 -89 -5 -89 -7 0 -90 147 -90 159 0 10 81 31 90 24 2
-2 5 -44 5 -94z m88 86 l28 -8 -29 -31 c-16 -17 -36 -42 -45 -56 -19 -27 -19
-29 -19 55 0 61 -5 58 65 40z m289 -6 c31 -14 31 -14 -36 -129 -40 -67 -51
-80 -57 -64 -4 10 -15 40 -24 67 -9 26 -32 64 -51 84 -19 20 -34 37 -34 39 0
2 15 8 33 13 39 12 134 7 169 -10z m1963 -72 c1 -48 0 -87 -2 -87 -1 0 -21 31
-44 70 -43 74 -45 96 -7 102 52 9 53 7 53 -85z m78 83 c7 0 18 -4 26 -9 11 -7
5 -24 -30 -86 l-44 -77 -3 78 c-3 88 2 109 24 100 9 -3 21 -6 27 -6z m2084 -5
c108 -32 181 -139 170 -253 -8 -97 -56 -163 -147 -205 -71 -32 -210 -23 -210
14 0 5 24 50 54 98 30 49 52 92 48 95 -3 3 -61 6 -129 6 -75 0 -123 4 -123 10
0 11 5 12 147 14 62 0 103 5 102 11 0 6 -23 49 -50 96 -27 48 -49 91 -49 96 0
12 51 28 99 31 18 2 58 -4 88 -13z m-4267 -138 c27 -63 28 -132 0 -193 -19
-44 -70 -104 -87 -104 -5 0 -34 45 -66 100 -65 113 -67 91 15 228 l50 84 34
-32 c18 -18 42 -55 54 -83z m2304 71 c18 -25 20 -23 -78 -77 l-59 -33 33 59
c53 94 52 93 71 82 10 -5 25 -19 33 -31z m1785 -26 c22 -38 41 -71 41 -75 0
-3 -31 12 -70 34 -38 23 -70 43 -70 47 0 5 51 62 56 62 1 0 20 -31 43 -68z
m-6437 -44 c49 -88 55 -104 44 -118 -7 -8 -32 -50 -56 -92 -23 -43 -47 -81
-52 -85 -6 -3 -28 12 -49 34 -68 73 -83 186 -38 276 22 42 65 87 83 87 6 0 37
-46 68 -102z m2589 55 c7 -13 10 -25 8 -26 -13 -12 -132 -77 -139 -77 -5 0 12
34 36 75 41 67 47 73 64 63 10 -7 24 -22 31 -35z m1760 4 c14 -23 36 -60 49
-81 l24 -39 -61 34 c-33 19 -71 41 -84 50 l-24 17 29 31 c17 17 32 31 35 31 3
0 18 -19 32 -43z m-4082 -9 c9 -15 9 -23 0 -34 -6 -8 -15 -14 -20 -14 -5 0
-30 -13 -55 -30 -26 -16 -49 -28 -52 -26 -2 3 15 36 37 75 37 62 44 69 60 59
10 -6 23 -20 30 -30z m1748 -30 c23 -40 40 -74 39 -76 -3 -3 -126 65 -138 76
-8 8 38 72 51 72 4 0 26 -33 48 -72z m166 7 c-9 -19 -18 -33 -21 -31 -4 5 26
66 33 66 3 0 -3 -16 -12 -35z m2523 -41 c10 -23 12 -39 6 -43 -11 -7 -161 -6
-168 1 -5 6 117 76 134 77 7 1 20 -15 28 -35z m1689 0 c36 -20 67 -39 69 -42
5 -8 -162 -7 -170 1 -8 7 18 77 28 77 4 0 37 -16 73 -36z m-3757 -26 c12 -43
19 -39 -83 -42 -33 -1 -66 0 -73 3 -8 2 19 23 60 47 40 23 76 39 80 36 3 -4
11 -24 16 -44z m1690 7 c39 -21 72 -42 72 -45 0 -4 -68 -5 -157 -1 -16 1 -23
7 -23 20 0 27 19 73 28 69 4 -2 40 -21 80 -43z m-4020 -5 c7 -29 7 -40 -2 -41
-31 -4 -132 -4 -140 -1 -7 4 109 79 125 81 4 1 11 -17 17 -39z m1713 -35 c-1
-10 -128 -12 -137 -2 -3 3 -1 21 6 41 l11 35 60 -33 c34 -18 60 -37 60 -41z
m2692 -14 c4 -1 7 -5 7 -11 0 -13 -237 -14 -245 -1 -3 5 5 11 17 13 19 2 192
2 221 -1z m1545 -9 c5 -15 -1503 -18 -1513 -3 -3 5 2 11 12 13 9 2 350 3 757
2 561 0 741 -3 744 -12z m-5947 -24 c4 -6 2 -25 -4 -43 l-10 -32 -68 39 c-38
22 -69 42 -69 44 0 9 145 1 151 -8z m1550 -31 c7 -27 8 -47 1 -57 -5 -8 -92
-63 -193 -121 -607 -349 -553 -321 -563 -296 l-9 22 -4 -22 c-3 -13 -8 -23
-12 -23 -4 0 -36 17 -72 38 -67 40 -563 328 -636 370 -54 30 -55 32 -41 73 6
19 12 40 14 46 3 10 166 13 753 12 l750 0 12 -42z m113 -1 c-74 -45 -81 -44
-89 13 l-3 30 80 0 81 0 -69 -43z m456 2 c0 -3 20 -39 45 -79 32 -52 42 -76
34 -85 -9 -11 -52 -23 -104 -29 -26 -4 -115 15 -115 23 0 4 16 22 35 41 33 33
56 81 70 145 6 27 7 27 20 10 8 -11 15 -22 15 -26z m210 16 c0 -13 -4 -34 -10
-48 l-10 -26 -65 40 c-36 22 -70 40 -76 40 -5 0 -8 3 -5 8 2 4 41 7 85 8 77 0
81 -1 81 -22z m1561 -29 c12 -37 14 -53 5 -62 -6 -6 -65 -42 -131 -79 -123
-69 -190 -106 -380 -214 -60 -34 -135 -76 -165 -93 -30 -16 -61 -34 -67 -40
-9 -7 -13 -5 -13 7 0 9 -7 16 -16 16 -10 0 -14 -6 -10 -15 3 -8 3 -15 0 -15
-4 0 -344 190 -394 220 -8 5 -99 57 -202 115 l-187 106 14 40 c14 39 15 42 15
57 0 4 341 7 758 7 l757 0 16 -50z m189 43 c0 -3 -12 -13 -27 -20 -16 -8 -49
-27 -75 -42 -36 -21 -49 -24 -52 -14 -2 7 -9 27 -14 45 -6 17 -9 33 -7 35 7 7
175 3 175 -4z m-4110 -104 c0 -5 -13 -22 -28 -37 l-28 -27 -42 73 c-23 40 -42
76 -42 79 0 11 139 -76 140 -88z m1743 25 c-21 -39 -44 -74 -51 -77 -8 -3 -25
8 -38 24 l-23 29 27 22 c15 13 31 23 35 23 4 0 25 11 45 25 20 14 38 25 40 25
1 0 -14 -32 -35 -71z m2689 62 c8 -1 -3 -39 -18 -65 -11 -18 -15 -17 -77 18
-37 20 -69 41 -72 46 -4 7 129 8 167 1z m1553 1 c-2 -2 4 -26 14 -53 l19 -48
-32 -16 c-17 -8 -38 -20 -46 -25 -17 -11 -91 -53 -171 -98 -30 -17 -161 -91
-293 -166 -212 -120 -239 -133 -243 -116 -7 25 -21 26 -25 1 -3 -17 -10 -15
-73 21 -38 22 -90 52 -115 66 -294 165 -576 326 -582 331 -3 3 1 29 9 57 l16
51 763 0 c420 0 762 -2 759 -5z m183 -14 c-13 -10 -26 -18 -31 -18 -4 0 -26
-12 -48 -26 -47 -29 -62 -23 -73 31 l-7 31 91 0 c90 0 91 0 68 -18z m-3850
-78 c5 -13 -36 -60 -52 -60 -6 0 -18 12 -27 28 -8 15 -28 49 -44 75 l-28 49
74 -40 c40 -23 75 -46 77 -52z m1815 78 c-6 -7 -25 -40 -43 -73 -18 -33 -36
-64 -40 -69 -8 -8 -70 45 -70 60 0 9 136 91 154 93 5 1 4 -5 -1 -11z m-4355
-93 c1 -92 0 -95 -21 -95 -12 1 -34 6 -49 13 l-28 12 46 83 c25 45 46 82 48
82 1 0 3 -43 4 -95z m72 17 c0 -4 12 -25 26 -45 14 -21 24 -40 22 -41 -15 -13
-51 -26 -72 -26 l-26 0 0 96 0 97 25 -37 c14 -20 25 -40 25 -44z m1985 -22
c-1 -43 -4 -82 -8 -86 -10 -10 -78 6 -83 20 -3 8 10 38 29 67 19 30 38 65 42
78 12 40 21 6 20 -79z m2468 57 c29 -18 60 -36 70 -40 16 -6 17 -8 2 -31 -20
-31 -45 -40 -61 -24 -18 19 -77 128 -69 128 3 0 29 -15 58 -33z m1861 -41
c-21 -36 -42 -66 -46 -66 -4 0 -20 11 -35 24 -21 19 -25 27 -16 37 14 14 127
78 131 74 2 -2 -14 -33 -34 -69z m-1988 -25 c0 -98 0 -98 -71 -71 l-25 9 37
63 c33 57 53 88 57 88 1 0 2 -40 2 -89z m73 16 c22 -37 41 -71 41 -75 0 -11
-61 -30 -78 -24 -8 2 -12 30 -12 90 0 47 2 83 4 81 2 -2 22 -34 45 -72z
m-2329 -14 c0 -5 -9 7 -20 25 -11 18 -20 38 -20 45 0 6 9 -5 20 -26 11 -20 20
-40 20 -44z m-50 28 c0 -4 16 -25 35 -45 19 -21 35 -41 35 -46 0 -10 -68 -25
-76 -18 -8 9 -10 118 -1 118 4 0 7 -4 7 -9z m-208 -70 c16 -13 15 -17 -9 -60
-45 -78 -113 -195 -123 -211 -6 -8 -13 -22 -17 -30 -4 -8 -33 -59 -65 -113
-32 -54 -58 -101 -58 -103 0 -2 -11 -21 -24 -42 -24 -38 -112 -189 -162 -278
-182 -323 -270 -464 -284 -458 -8 4 -31 10 -50 13 l-35 6 -3 438 c-1 293 1
436 8 432 18 -11 32 5 19 21 -14 17 -20 13 66 59 39 21 82 46 97 56 14 11 28
19 31 19 5 0 128 71 315 181 45 27 84 49 86 49 2 0 37 20 77 45 l74 44 20 -26
c11 -15 27 -34 37 -42z m-1548 18 c39 -23 85 -49 101 -59 17 -10 134 -77 260
-150 266 -154 325 -190 308 -190 -7 0 -13 -6 -13 -14 0 -8 8 -13 18 -12 16 1
17 -26 17 -434 l0 -435 -35 -6 c-19 -3 -43 -9 -52 -13 -16 -7 -60 58 -151 224
-17 30 -38 66 -47 80 -9 14 -30 50 -47 80 -17 30 -71 126 -122 212 -50 86 -91
162 -91 167 0 6 -3 11 -8 11 -4 0 -16 17 -27 38 -11 20 -36 66 -57 101 -21 34
-38 64 -38 66 0 1 -38 69 -85 149 l-86 147 33 39 c18 22 37 40 42 40 5 0 41
-19 80 -41z m2346 -21 c52 -30 117 -67 145 -82 27 -15 110 -63 185 -106 74
-42 153 -87 175 -99 22 -12 49 -27 60 -34 10 -6 37 -22 58 -35 32 -19 36 -26
27 -38 -12 -14 -8 -17 20 -15 13 1 15 -50 13 -411 0 -227 -2 -423 -2 -434 -1
-17 -9 -22 -43 -27 -24 -2 -49 -6 -57 -8 -14 -4 -27 16 -289 461 -63 107 -134
227 -157 265 -24 39 -52 86 -63 105 -21 37 -79 136 -185 318 -37 62 -67 116
-67 120 0 10 73 82 79 78 3 -2 49 -28 101 -58z m1533 14 l38 -38 -59 -100
c-259 -436 -332 -561 -421 -713 -56 -96 -111 -187 -122 -202 -10 -15 -19 -30
-19 -33 0 -7 -96 -171 -121 -207 l-18 -26 -53 18 -53 18 0 428 c1 399 2 428
18 427 9 -1 17 4 17 12 0 8 -5 14 -11 14 -16 0 -1 17 29 33 15 7 45 24 67 37
43 25 384 217 505 285 41 23 91 52 110 64 19 11 40 21 45 21 6 0 28 -17 48
-38z m817 -192 c206 -117 377 -214 379 -216 2 -2 -1 -10 -7 -17 -14 -16 -6
-28 14 -20 12 4 14 -59 14 -419 l0 -424 -47 -14 c-27 -8 -53 -16 -59 -17 -6
-2 -43 49 -81 114 -39 65 -107 181 -153 258 -46 77 -94 160 -108 185 -14 25
-33 57 -43 72 -11 14 -19 28 -19 31 0 4 -151 261 -209 357 -13 21 -143 243
-149 253 -5 11 70 77 83 73 6 -2 179 -99 385 -216z m1260 186 l37 -34 -120
-203 c-66 -112 -127 -217 -137 -234 -52 -90 -387 -656 -407 -687 -12 -21 -23
-40 -23 -42 0 -6 -62 -106 -66 -106 -1 0 -14 4 -28 10 -14 5 -41 10 -59 12
l-34 2 0 427 c0 417 1 426 20 421 16 -4 18 -1 12 16 -5 18 -1 24 22 34 15 6
35 17 43 24 8 6 40 25 70 41 88 47 520 293 570 324 25 15 49 28 54 28 5 1 25
-14 46 -33z m-3640 -336 c40 -69 105 -179 145 -245 39 -66 96 -162 126 -213
30 -51 61 -105 70 -120 9 -15 62 -106 119 -202 56 -96 107 -181 112 -187 15
-18 -2 -17 -70 6 -59 20 -127 20 -179 0 -14 -5 -27 -8 -28 -7 -4 5 -227 390
-253 438 -14 25 -57 99 -95 165 -72 124 -275 476 -334 578 -18 33 -33 61 -33
63 0 2 10 0 23 -5 33 -13 147 -6 187 11 l35 14 51 -85 c27 -47 83 -142 124
-211z m-2670 260 c17 0 18 -23 18 -429 0 -416 -1 -428 -19 -424 -20 6 -25 -7
-9 -23 9 -9 -54 -49 -264 -167 -28 -16 -72 -42 -99 -58 -26 -16 -50 -29 -52
-29 -3 0 -22 -11 -43 -24 -49 -31 -262 -156 -271 -159 -4 -1 -26 14 -48 34
-48 40 -53 21 42 184 32 55 69 120 83 145 14 25 28 50 32 55 4 6 18 30 32 55
14 25 90 158 170 295 80 138 180 311 223 385 43 74 85 147 92 162 14 26 14 27
55 12 22 -8 49 -14 58 -14z m187 -22 c17 -29 40 -70 52 -90 12 -21 29 -53 40
-70 10 -18 52 -91 93 -163 70 -122 102 -177 245 -422 31 -54 89 -154 128 -223
40 -69 90 -156 113 -194 l40 -69 -36 -38 c-26 -27 -40 -35 -51 -29 -9 4 -158
90 -331 190 -173 101 -337 195 -365 211 -47 26 -69 49 -46 49 6 0 11 7 11 16
0 13 -3 14 -13 5 -8 -6 -17 -8 -20 -4 -4 3 -7 197 -7 430 l0 423 23 0 c12 1
36 7 52 15 17 7 32 14 35 14 3 1 19 -23 37 -51z m1888 -409 l0 -424 -25 4
c-24 3 -24 2 -8 -16 17 -19 16 -20 -25 -43 -23 -13 -121 -69 -217 -126 -96
-56 -197 -114 -225 -129 -27 -15 -54 -31 -60 -35 -5 -4 -30 -19 -55 -32 -25
-14 -74 -42 -109 -62 -35 -20 -64 -35 -65 -34 -1 2 -16 19 -33 39 l-33 35 71
124 c94 166 95 166 222 385 60 105 119 206 130 225 22 41 221 384 278 481 l39
67 57 -18 58 -18 0 -423z m175 399 c0 -3 43 -79 95 -169 52 -89 95 -163 95
-165 0 -1 21 -38 46 -81 26 -43 99 -168 162 -278 119 -207 126 -219 186 -322
79 -137 106 -185 106 -189 0 -2 -17 -21 -39 -43 l-38 -38 -369 213 c-336 195
-398 234 -364 234 6 0 8 5 5 11 -4 6 -13 8 -21 5 -10 -4 -14 4 -15 32 -2 179
0 814 3 817 2 2 19 7 37 10 19 3 41 10 50 15 12 6 22 2 38 -18 12 -15 22 -30
23 -34z m2420 -148 c40 -69 108 -183 150 -255 42 -71 122 -206 177 -300 55
-93 109 -186 121 -205 21 -35 64 -108 146 -249 l43 -75 -38 -39 -37 -39 -94
52 c-51 29 -106 61 -123 70 -16 9 -129 73 -250 142 -121 68 -239 135 -262 148
-44 24 -51 34 -33 45 15 9 2 25 -15 18 -13 -4 -15 52 -15 431 0 408 1 436 18
437 9 0 33 6 52 12 35 13 35 12 61 -28 14 -22 59 -96 99 -165z m-299 187 l45
-12 -1 -430 c-1 -236 -3 -433 -4 -437 0 -3 -11 -4 -23 0 -21 5 -22 4 -8 -13
13 -16 13 -19 0 -27 -45 -27 -626 -356 -688 -390 l-74 -40 -15 21 c-8 12 -24
30 -35 41 l-21 19 59 98 c32 54 64 107 70 118 6 11 26 45 44 75 18 30 41 69
50 85 10 17 48 82 85 145 37 63 73 124 79 135 6 11 19 31 27 45 9 14 52 86 96
160 200 341 248 420 258 420 5 0 31 -6 56 -13z m-4340 -947 c5 0 9 7 9 16 0
11 5 14 16 10 15 -6 328 -186 614 -353 l146 -85 -16 -49 -15 -48 -745 0 -746
0 -2 25 c-1 13 -9 38 -17 53 -14 29 -14 30 23 51 20 13 150 88 287 167 334
193 386 224 410 238 17 11 20 10 23 -6 2 -11 8 -19 13 -19z m2574 -255 c94
-54 187 -109 207 -121 l37 -23 -19 -53 -18 -53 -741 -2 -740 -2 -14 47 c-8 26
-11 50 -8 54 3 3 76 47 161 96 148 85 313 180 503 291 91 52 109 59 105 40 -2
-6 3 -14 10 -16 7 -3 12 4 12 16 0 17 25 5 168 -78 92 -54 244 -142 337 -196z
m1830 248 c4 9 11 17 15 17 5 0 48 -23 97 -51 48 -28 113 -65 143 -82 150 -83
516 -291 523 -297 4 -3 3 -29 -3 -56 l-11 -50 -771 0 -771 1 -13 50 c-7 28
-12 51 -11 51 3 3 330 189 387 221 30 17 129 73 220 125 160 92 165 94 177 74
11 -19 12 -19 18 -3z m-1237 -303 c9 0 -2 -24 -24 -47 -29 -30 -64 -102 -67
-133 -2 -24 -15 -26 -24 -4 -3 8 -28 52 -54 96 -45 75 -48 83 -32 92 32 18
106 23 153 9 25 -7 46 -13 48 -13z m-4076 2 c7 -7 -7 -41 -48 -114 -33 -56
-59 -107 -59 -113 0 -5 27 -57 59 -113 44 -79 55 -107 47 -115 -20 -20 -160
-15 -203 7 -90 44 -133 117 -133 227 0 72 2 80 39 133 54 79 114 108 214 103
40 -2 78 -9 84 -15z m1924 -72 c0 -49 -3 -86 -7 -82 -4 4 -21 34 -39 67 -18
33 -37 65 -42 72 -10 12 29 31 68 32 20 1 21 -4 20 -89z m106 72 c7 -7 -54
-127 -76 -149 -3 -4 -6 33 -6 82 l0 88 37 -6 c20 -4 40 -10 45 -15z m2232 -75
c1 -48 -1 -87 -4 -87 -3 0 -26 36 -51 79 -46 77 -46 79 -25 88 11 6 34 10 50
9 l30 -1 0 -88z m98 71 c16 -8 15 -13 -13 -61 -16 -28 -35 -62 -41 -74 -6 -13
-14 -23 -17 -23 -5 0 -6 122 -2 168 1 13 39 8 73 -10z m1964 9 c3 -8 4 -53 2
-101 l-3 -87 -48 81 c-27 45 -47 83 -45 85 6 6 72 34 81 35 4 0 10 -6 13 -13z
m117 -2 c9 -4 17 -9 17 -12 0 -2 -20 -38 -45 -79 -25 -40 -45 -79 -45 -85 0
-7 -3 -9 -7 -5 -9 8 -15 163 -7 184 4 14 50 12 87 -3z m-2560 -95 c25 -44 43
-80 40 -80 -13 0 -153 85 -153 93 0 7 60 67 66 67 1 0 22 -36 47 -80z m-3804
41 c21 -22 26 -33 18 -39 -23 -17 -140 -83 -143 -80 -6 6 78 148 87 148 5 0
23 -13 38 -29z m6449 3 c67 -52 103 -185 70 -261 -38 -87 -91 -135 -175 -157
-65 -17 -117 -11 -182 22 -66 33 -104 80 -125 150 l-15 53 119 -2 c65 -1 123
1 128 5 5 3 37 53 71 111 34 58 64 105 68 105 3 0 22 -12 41 -26z m-4691 -59
c23 -42 39 -74 35 -72 -9 5 -136 80 -141 84 -5 4 50 63 58 63 3 0 25 -34 48
-75z m280 53 c13 -12 23 -27 23 -34 0 -10 -117 -84 -134 -84 -3 0 14 32 37 70
23 39 44 70 46 70 3 0 15 -10 28 -22z m2032 -5 c83 -96 82 -246 -2 -335 -32
-34 -47 -35 -74 -5 -89 95 -87 251 4 341 32 33 42 33 72 -1z m308 -19 l23 -31
-37 -19 c-21 -10 -40 -21 -43 -24 -12 -12 -70 -41 -70 -35 0 18 83 146 92 143
6 -2 22 -18 35 -34z m1790 -36 c23 -40 40 -74 39 -75 -5 -5 -146 79 -146 86 0
9 50 61 58 61 4 0 27 -33 49 -72z m-2379 -55 c17 -9 32 -20 32 -25 0 -4 -40
-8 -89 -8 l-90 0 5 25 c2 13 9 36 14 51 l10 26 43 -26 c23 -15 57 -34 75 -43z
m-3733 40 c4 -10 9 -30 12 -45 l4 -28 -93 0 -93 0 25 20 c14 11 30 20 37 20 6
0 13 3 15 8 4 10 60 41 74 42 7 0 15 -8 19 -17z m1618 -5 c15 -7 27 -16 27
-20 0 -5 6 -8 13 -8 6 0 23 -9 37 -20 l25 -20 -82 0 c-46 0 -83 3 -83 7 0 14
24 73 30 73 3 0 18 -6 33 -12z m417 -14 c20 -52 16 -54 -70 -53 -44 1 -80 3
-80 5 0 3 10 9 23 14 12 6 40 21 62 35 50 31 53 30 65 -1z m2331 -1 c0 -10 3
-30 5 -44 l4 -26 -85 1 c-47 0 -81 4 -77 8 11 11 135 77 145 78 4 0 7 -8 8
-17z m1686 -14 c96 -52 96 -57 4 -55 -45 0 -82 3 -83 6 -2 8 13 80 17 80 2 0
30 -14 62 -31z m-1937 -38 c0 -5 7 -17 16 -25 12 -13 39 -16 130 -16 l115 0
-4 -27 c-24 -152 -199 -249 -341 -189 l-39 16 25 19 c41 33 78 113 81 175 1
31 5 56 10 56 4 0 7 -4 7 -9z m-4100 -65 c0 -26 -22 -76 -33 -76 -7 1 -46 21
-87 45 l-75 45 98 0 c75 0 97 -3 97 -14z m1530 -35 c14 -44 14 -50 0 -59 -8
-5 -92 -53 -185 -107 -94 -54 -183 -105 -200 -115 -164 -95 -365 -210 -370
-210 -3 0 -5 7 -5 15 0 8 -4 15 -10 15 -5 0 -10 -7 -10 -15 0 -8 -4 -15 -8
-15 -4 0 -124 68 -266 150 -143 83 -262 150 -267 150 -4 0 -9 3 -11 8 -1 4
-16 14 -33 23 -16 9 -62 35 -102 58 l-72 41 19 45 c11 25 17 45 14 45 -3 0 -2
5 1 10 4 7 264 10 748 10 l742 0 15 -49z m117 9 c-38 -22 -72 -40 -77 -40 -8
0 -11 8 -26 63 -5 15 4 17 83 17 l88 0 -68 -40z m380 4 c-3 -20 -9 -39 -12
-42 -6 -7 -132 57 -141 71 -3 4 32 7 77 7 l82 0 -6 -36z m1534 -24 c10 -30 17
-55 16 -56 -23 -12 -401 -230 -507 -292 -221 -130 -229 -134 -240 -127 -6 3
-8 11 -5 16 4 5 2 9 -4 9 -5 0 -14 -7 -19 -16 -8 -14 -13 -13 -48 8 -21 14
-61 37 -89 53 -27 15 -151 86 -275 158 -124 71 -255 148 -293 169 -37 22 -66
42 -63 46 2 4 9 26 15 50 l12 42 741 -2 741 -3 18 -55z m199 56 c0 -2 -21 -16
-47 -31 -27 -15 -63 -36 -80 -47 l-33 -20 -10 27 c-5 14 -13 37 -16 50 l-6 25
96 0 c53 0 96 -2 96 -4z m77 -27 c6 -37 31 -85 64 -123 36 -42 32 -50 -29 -62
-36 -7 -134 0 -152 11 -10 6 6 39 73 152 32 54 39 57 44 22z m-3890 -87 c5
-12 -43 -62 -60 -62 -4 0 -11 8 -14 18 -4 9 -21 41 -40 70 -18 29 -33 55 -33
58 0 10 142 -71 147 -84z m1773 84 c0 -4 -68 -124 -77 -135 -2 -3 -18 10 -36
28 -36 36 -42 27 53 82 45 27 60 33 60 25z m277 -71 c2 -1 -11 -17 -27 -36
-25 -28 -31 -32 -40 -19 -24 35 -69 116 -70 123 0 6 93 -40 137 -68z m1762 38
c-12 -21 -31 -50 -41 -65 -10 -14 -18 -31 -18 -37 0 -19 -26 -12 -54 15 -14
15 -26 29 -26 33 0 7 140 90 153 90 5 1 -2 -16 -14 -36z m-1983 -69 c2 -85 -4
-93 -60 -74 l-34 11 41 74 c23 41 44 72 46 69 3 -3 6 -39 7 -80z m74 14 c22
-39 37 -75 33 -79 -4 -4 -25 -11 -45 -14 l-38 -7 0 86 c0 47 2 86 4 86 2 0 23
-32 46 -72z m-240 -102 c-9 -17 -43 -76 -75 -131 -90 -155 -242 -419 -308
-535 -33 -58 -68 -118 -78 -135 -21 -35 -86 -147 -130 -225 -32 -57 -130 -223
-133 -227 -4 -4 -92 21 -103 29 -9 7 -12 117 -12 429 0 408 1 419 20 419 21 0
26 16 7 23 -19 7 9 27 135 98 60 33 165 94 234 135 69 41 126 74 128 74 1 0
60 34 131 75 l128 75 37 -37 37 -37 -18 -30z m585 4 c132 -77 386 -224 497
-288 95 -54 97 -57 80 -76 -16 -18 -16 -19 6 -14 12 4 23 3 23 0 1 -4 2 -195
3 -425 1 -324 -2 -421 -11 -429 -7 -6 -13 -8 -13 -5 0 4 -19 -1 -42 -9 -23 -8
-45 -11 -49 -7 -13 13 -179 304 -179 314 0 5 -4 9 -10 9 -5 0 -10 4 -10 9 0 5
-36 71 -81 147 -44 77 -92 158 -105 182 -13 23 -84 147 -158 275 -73 127 -148
257 -165 287 l-30 55 35 37 36 36 42 -23 c22 -13 82 -47 131 -75z m-2059 -1
c179 -103 181 -104 319 -184 55 -32 109 -63 120 -69 111 -62 154 -91 145 -100
-16 -16 -11 -28 8 -21 18 5 19 -11 20 -420 0 -311 -3 -427 -11 -432 -12 -8
-101 -33 -103 -30 -4 4 -184 316 -309 532 -76 132 -146 254 -155 270 -10 17
-44 75 -75 130 -32 55 -73 126 -91 158 -19 31 -50 84 -69 117 l-34 61 37 38
c20 21 38 39 38 40 1 0 73 -40 160 -90z m3534 6 c0 -2 -66 -118 -147 -257 -80
-139 -163 -282 -183 -318 -20 -36 -61 -105 -90 -155 -29 -49 -64 -110 -78
-135 -14 -25 -63 -110 -109 -189 -45 -79 -83 -146 -83 -150 0 -3 -10 -19 -23
-35 -20 -24 -26 -27 -43 -18 -11 6 -32 12 -47 14 -14 2 -29 7 -32 10 -4 4 -7
181 -6 395 0 507 -2 463 15 457 8 -3 17 -1 21 5 3 6 1 11 -4 11 -32 0 9 29
202 140 116 68 260 152 320 187 59 35 111 63 116 63 5 0 11 3 13 8 2 4 21 17
42 29 l40 21 38 -39 c21 -21 38 -41 38 -44z m-1950 -19 l55 -13 1 -437 c1
-420 0 -437 -18 -433 -24 7 -33 -9 -11 -18 14 -5 8 -12 -30 -36 -26 -16 -50
-29 -53 -29 -3 0 -18 -8 -32 -19 -15 -10 -47 -29 -72 -43 -42 -24 -225 -130
-459 -266 l-103 -61 -27 32 c-14 18 -30 35 -35 39 -10 7 2 35 42 103 17 30
123 212 144 250 7 11 46 79 88 151 42 71 79 137 83 145 4 8 15 28 26 44 10 17
28 48 41 70 41 73 207 359 254 438 25 43 46 83 46 88 0 5 1 9 3 9 1 -1 27 -7
57 -14z m335 -241 c76 -132 145 -253 155 -270 9 -16 58 -102 108 -190 50 -88
96 -165 102 -172 5 -7 10 -14 10 -17 0 -3 38 -70 84 -149 47 -79 96 -164 109
-188 l25 -44 -36 -42 -37 -42 -160 93 c-88 51 -243 141 -345 199 -102 59 -192
111 -200 117 -8 6 -26 15 -39 20 -23 10 -23 11 -6 24 13 9 15 15 7 20 -7 4
-16 4 -22 1 -7 -4 -10 144 -10 436 0 243 2 440 6 437 3 -3 26 0 52 7 26 7 50
9 53 6 3 -3 68 -114 144 -246z m-279 -710 c-3 -9 0 -15 9 -15 7 0 15 7 17 15
2 12 7 12 25 2 63 -34 373 -213 403 -232 19 -12 103 -61 186 -109 l151 -86
-12 -48 -12 -47 -755 -3 -755 -2 -12 52 c-6 29 -8 54 -3 56 5 1 67 37 138 79
71 41 143 83 159 93 17 9 107 61 200 115 94 54 188 109 210 122 47 27 59 29
51 8z m-1028 -385 c-1 -49 -4 -90 -7 -90 -3 0 -25 36 -49 79 -47 88 -46 95 22
99 l34 3 0 -91z m91 79 c18 -6 31 -14 29 -18 -17 -37 -84 -151 -89 -151 -4 0
-7 41 -7 90 -1 100 0 102 67 79z m1966 -79 c0 -49 -2 -90 -6 -90 -6 0 -89 142
-89 153 0 11 40 26 70 26 26 1 26 1 25 -89z m104 76 c16 -11 14 -20 -21 -78
-17 -29 -37 -64 -45 -78 -11 -22 -13 -15 -13 73 l0 99 34 -5 c19 -2 39 -8 45
-11z m-2269 -35 c0 -5 25 -52 56 -105 42 -72 62 -96 78 -97 11 -1 64 -3 116
-4 52 -1 100 -3 107 -4 29 -3 -21 -124 -70 -167 -105 -93 -270 -81 -360 27
-29 36 -57 114 -57 161 0 44 37 128 72 165 30 31 58 43 58 24z m2353 -23 c150
-161 38 -419 -182 -418 -110 1 -228 100 -234 198 l-2 37 110 1 c61 1 117 2
125 3 8 0 42 48 74 106 33 58 64 105 69 105 5 0 23 -15 40 -32z m-2023 -47 c0
-4 -10 -13 -22 -19 -13 -6 -47 -25 -77 -42 l-53 -32 27 44 c15 24 29 51 32 61
3 9 9 17 13 17 4 0 11 10 14 23 6 22 7 21 36 -11 17 -18 30 -36 30 -41z m1739
-8 c21 -38 38 -70 36 -72 -4 -3 -109 53 -132 71 -9 8 -7 17 9 39 12 16 27 29
34 29 7 0 31 -30 53 -67z m-1705 -79 c5 -24 4 -24 -82 -24 l-87 0 75 44 c82
48 82 48 94 -20z m1664 19 l67 -38 -79 -3 c-43 -2 -80 -1 -83 2 -8 8 9 76 19
76 5 0 40 -17 76 -37z"/>
</g>
</svg>
