<?xml version="1.0" standalone="no"?>
<!DOCTYPE svg PUBLIC "-//W3C//DTD SVG 20010904//EN"
 "http://www.w3.org/TR/2001/REC-SVG-20010904/DTD/svg10.dtd">
<svg version="1.0" xmlns="http://www.w3.org/2000/svg"
 width="700.000000pt" height="700.000000pt" viewBox="0 0 700.000000 700.000000"
 preserveAspectRatio="xMidYMid meet">
<metadata>
Created by potrace 1.11, written by Peter Selinger 2001-2013
</metadata>
<g transform="translate(0.000000,700.000000) scale(0.100000,-0.100000)"
fill="#000000" stroke="none">
<path d="M1570 6650 l0 -130 66 0 65 0 447 -433 c246 -238 567 -549 715 -691
l267 -259 0 -64 0 -63 48 0 c26 0 84 3 130 7 l83 6 -6 76 c-35 451 -162 761
-433 1060 -335 369 -787 584 -1289 615 l-93 6 0 -130z"/>
<path d="M3600 3515 l0 -3265 130 0 130 0 0 1509 0 1509 78 7 c122 11 284 34
413 60 l119 24 678 -273 c372 -150 686 -276 696 -280 18 -6 10 -16 -56 -83
l-77 -77 105 -109 c57 -60 111 -121 118 -135 8 -15 163 -380 346 -812 l332
-785 14 -130 c7 -71 16 -159 19 -195 l6 -65 87 7 c48 3 104 7 126 7 l38 1 -7
92 c-33 464 -126 888 -272 1243 -135 329 -311 601 -583 906 -36 40 -58 69 -50
64 26 -15 143 -107 212 -168 37 -32 71 -56 76 -53 5 3 43 46 86 95 l76 90
-106 88 c-145 121 -327 252 -497 358 -166 104 -492 272 -660 340 -65 27 -114
51 -110 55 4 3 35 17 68 30 123 48 375 168 510 244 277 155 517 322 762 533
l33 28 -82 96 -83 97 -65 -57 c-117 -103 -237 -191 -295 -217 -32 -13 -59 -23
-60 -22 -2 2 19 30 47 63 435 521 653 1096 694 1831 l7 121 -69 6 c-38 4 -94
7 -125 7 l-57 0 -6 -97 c-19 -261 8 -183 -348 -1002 l-323 -743 -109 -109
-108 -109 43 -47 c39 -43 41 -47 23 -55 -10 -4 -252 -102 -537 -217 l-518
-208 -87 18 c-120 26 -330 57 -434 65 l-88 7 0 1488 0 1489 -130 0 -130 0 0
-3265z m340 25 c25 -8 24 -8 -5 -9 -16 -1 -40 -4 -52 -7 -17 -5 -23 -2 -23 10
0 18 36 20 80 6z"/>
<path d="M528 6271 c-301 -320 -442 -688 -425 -1110 13 -323 106 -613 283
-877 64 -96 187 -245 261 -316 l39 -38 89 90 89 90 -46 47 -45 48 -34 942 -33
943 39 40 39 40 -90 91 -91 90 -75 -80z"/>
<path d="M1610 4292 l0 -702 -40 0 -40 0 0 -910 0 -910 105 0 105 0 0 793 0
793 506 208 c279 114 510 204 514 199 4 -4 116 -229 248 -499 236 -479 242
-493 242 -553 l0 -61 60 0 60 0 0 960 0 960 -37 0 c-21 0 -47 3 -59 6 -18 5
-22 -2 -38 -58 -23 -83 -91 -225 -152 -318 -54 -84 -186 -222 -252 -265 l-43
-28 -47 45 c-40 38 -1043 962 -1109 1021 l-23 20 0 -701z"/>
<path d="M2656 2861 l-89 -90 48 -44 49 -44 47 -854 c26 -470 50 -896 53 -947
l6 -92 -40 -38 -40 -37 90 -90 91 -90 74 76 c206 215 358 497 425 794 30 130
37 359 16 490 -57 345 -227 645 -548 963 l-93 92 -89 -89z"/>
<path d="M183 1853 l-63 -4 0 -64 c0 -127 38 -333 87 -475 94 -271 239 -497
456 -707 311 -301 683 -467 1126 -503 73 -6 135 -9 136 -8 1 2 6 60 9 131 l8
127 -70 0 -69 0 -709 686 c-390 377 -712 693 -716 702 -4 10 -7 41 -7 70 l-1
52 -62 -2 c-35 -1 -91 -3 -125 -5z"/>
</g>
</svg>
