<svg xmlns="http://www.w3.org/2000/svg" width="791" height="530" viewBox="0 0 791 530"><defs><radialGradient id="a" cx="97.065%" cy="94.096%" r="91.131%" fx="97.065%" fy="94.096%"><stop stop-color="#FFF" stop-opacity="0" offset="0%"/><stop stop-color="#090C00" offset="100%"/></radialGradient></defs><g fill="none" fill-rule="evenodd"><path d="M192.112 377.56v51.802m44.86-25.9l-44.86 25.9m44.86-25.9l-44.86-25.9m44.86 25.9h-31.08m-13.79-25.92l15.546 26.912m-15.536 24.908l15.6-26.883m29.34-51.54v51.8m-44.86-25.9l44.86 25.9m-44.86-25.9l44.86-25.9m-44.86 25.9h31.08m13.79-25.92l-15.546 26.91m15.536 24.91l-15.598-26.89m-29.34.25v-51.8m44.86 25.9l-44.86-25.9m44.86 25.9l-44.86 25.9m44.86-25.9h-31.08m-13.79 25.92l15.546-26.92m-15.54-24.9l15.6 26.88m-16.32 26.37v51.8m-44.86-25.9l44.86 25.9m-44.86-25.9l44.86-25.9m-44.86 25.9h31.08m13.79-25.92l-15.55 26.91m15.538 24.9L175.8 402.48m-29.342-51.536v51.8m44.86-25.9l-44.86 25.9m44.86-25.9l-44.86-25.9m44.86 25.9h-31.08m-13.79-25.92l15.546 26.912m-15.536 24.91l15.6-26.884m29.34.248v-51.8m-44.86 25.9l44.86-25.9m-44.86 25.9l44.86 25.9m-44.86-25.9h31.08m13.79 25.92l-15.547-26.913m15.54-24.907l-15.6 26.88" stroke="#979797" stroke-linecap="square"/><g stroke="#11FF1A" transform="rotate(-90 287.893 148.306)"><ellipse cx="6.734" cy="52.163" transform="matrix(1 0 0 -1 0 104.327)" rx="6.734" ry="6.734"/><ellipse cx="59.364" cy="52.163" transform="matrix(1 0 0 -1 0 104.327)" rx="6.734" ry="6.734"/><ellipse cx="111.89" cy="52.163" transform="matrix(1 0 0 -1 0 104.327)" rx="6.734" ry="6.734"/><ellipse cx="85.989" cy="6.89" transform="matrix(1 0 0 -1 0 13.78)" rx="6.734" ry="6.734"/><circle cx="32.738" cy="6.89" r="6.734" transform="matrix(1 0 0 -1 0 13.78)"/><ellipse cx="85.989" cy="97.463" transform="matrix(1 0 0 -1 0 194.927)" rx="6.734" ry="6.734"/><ellipse cx="32.738" cy="97.463" transform="matrix(1 0 0 -1 0 194.927)" rx="6.734" ry="6.734"/></g><path d="M101.538 377.56v51.802m44.86-25.9l-44.86 25.9m44.86-25.9l-44.86-25.9m44.86 25.9h-31.08m-13.79-25.92l15.546 26.912m-15.536 24.908l15.6-26.883m29.34-51.54v51.8m-44.86-25.9l44.86 25.9m-44.86-25.9l44.86-25.9m-44.86 25.9h31.08m13.79-25.92l-15.546 26.91m15.536 24.91l-15.598-26.88m-29.34.25v-51.8m44.86 25.9l-44.86-25.9m44.86 25.9l-44.86 25.9m44.86-25.9h-31.08m-13.792 25.92l15.547-26.92m-15.535-24.9l15.598 26.88m-16.314 26.37v51.8m-44.86-25.9l44.86 25.9m-44.86-25.9l44.86-25.9m-44.86 25.9h31.08m13.792-25.92l-15.548 26.91m15.536 24.9l-15.598-26.88m-29.342-51.53v51.8m44.86-25.9l-44.86 25.9m44.86-25.9l-44.86-25.9m44.86 25.9h-31.08m-13.79-25.92l15.546 26.91m-15.536 24.91l15.6-26.89m29.34.24v-51.8m-44.86 25.9l44.86-25.9m-44.86 25.9l44.86 25.9m-44.86-25.9h31.08m13.79 25.92L85.287 349.2m15.536-24.906l-15.598 26.88" stroke="#979797" stroke-linecap="square"/><g stroke="#11FF1A" transform="rotate(-90 242.606 193.593)"><ellipse cx="6.734" cy="52.163" transform="matrix(1 0 0 -1 0 104.327)" rx="6.734" ry="6.734"/><ellipse cx="59.364" cy="52.163" transform="matrix(1 0 0 -1 0 104.327)" rx="6.734" ry="6.734"/><ellipse cx="111.89" cy="52.163" transform="matrix(1 0 0 -1 0 104.327)" rx="6.734" ry="6.734"/><ellipse cx="85.989" cy="6.89" transform="matrix(1 0 0 -1 0 13.78)" rx="6.734" ry="6.734"/><circle cx="32.738" cy="6.89" r="6.734" transform="matrix(1 0 0 -1 0 13.78)"/><ellipse cx="85.989" cy="97.463" transform="matrix(1 0 0 -1 0 194.927)" rx="6.734" ry="6.734"/><ellipse cx="32.738" cy="97.463" transform="matrix(1 0 0 -1 0 194.927)" rx="6.734" ry="6.734"/></g><path d="M373.286 377.56v51.802m44.86-25.9l-44.86 25.9m44.86-25.9l-44.86-25.9m44.86 25.9h-31.08m-13.79-25.92l15.546 26.912m-15.536 24.908l15.6-26.883m29.34-51.54v51.8m-44.86-25.9l44.86 25.9m-44.86-25.9l44.86-25.9m-44.86 25.9h31.08m13.79-25.92l-15.546 26.91m15.536 24.91l-15.598-26.89m-29.34.25v-51.8m44.86 25.9l-44.86-25.9m44.86 25.9l-44.86 25.9m44.86-25.9h-31.08m-13.79 25.92l15.545-26.92m-15.536-24.9l15.6 26.88m-16.315 26.37v51.8m-44.86-25.9l44.86 25.9m-44.86-25.9l44.86-25.9m-44.86 25.9h31.08m13.792-25.92l-15.548 26.91m15.536 24.91l-15.598-26.88m-29.342-51.53v51.8m44.86-25.9l-44.86 25.9m44.86-25.9l-44.86-25.9m44.86 25.9h-31.08m-13.79-25.92l15.546 26.91m-15.536 24.91l15.6-26.89m29.338.25v-51.8m-44.86 25.9l44.86-25.9m-44.86 25.9l44.86 25.9m-44.86-25.9h31.08m13.792 25.92l-15.547-26.92m15.536-24.91l-15.59 26.88" stroke="#979797" stroke-linecap="square"/><g stroke="#11FF1A" transform="rotate(-90 378.48 57.72)"><ellipse cx="6.734" cy="52.163" transform="matrix(1 0 0 -1 0 104.327)" rx="6.734" ry="6.734"/><ellipse cx="59.364" cy="52.163" transform="matrix(1 0 0 -1 0 104.327)" rx="6.734" ry="6.734"/><ellipse cx="111.89" cy="52.163" transform="matrix(1 0 0 -1 0 104.327)" rx="6.734" ry="6.734"/><ellipse cx="85.989" cy="6.89" transform="matrix(1 0 0 -1 0 13.78)" rx="6.734" ry="6.734"/><circle cx="32.738" cy="6.89" r="6.734" transform="matrix(1 0 0 -1 0 13.78)"/><ellipse cx="85.989" cy="97.463" transform="matrix(1 0 0 -1 0 194.927)" rx="6.734" ry="6.734"/><ellipse cx="32.738" cy="97.463" transform="matrix(1 0 0 -1 0 194.927)" rx="6.734" ry="6.734"/></g><path d="M282.712 377.56v51.802m44.86-25.9l-44.86 25.9m44.86-25.9l-44.86-25.9m44.86 25.9h-31.08m-13.79-25.92l15.546 26.912m-15.536 24.908l15.6-26.883m29.34-51.54v51.8m-44.86-25.9l44.86 25.9m-44.86-25.9l44.86-25.9m-44.86 25.9h31.08m13.79-25.92l-15.546 26.91m15.536 24.91l-15.598-26.89m-29.34.25v-51.8m44.86 25.9l-44.86-25.9m44.86 25.9l-44.86 25.9m44.86-25.9h-31.08m-13.79 25.92l15.546-26.92m-15.54-24.9l15.6 26.88m-16.32 26.37v51.8m-44.86-25.9l44.86 25.9m-44.86-25.9l44.86-25.9m-44.86 25.9h31.08M282 377.53l-15.55 26.913m15.537 24.907L266.4 402.48m-29.342-51.536v51.8m44.86-25.9l-44.86 25.9m44.86-25.9l-44.86-25.9m44.86 25.9h-31.08m-13.79-25.92l15.546 26.912m-15.536 24.91l15.6-26.884m29.34.248v-51.8m-44.86 25.9l44.86-25.9m-44.86 25.9l44.86 25.9m-44.86-25.9h31.08m13.79 25.92l-15.547-26.913M282 324.31l-15.6 26.88" stroke="#979797" stroke-linecap="square"/><g stroke="#11FF1A" transform="rotate(-90 333.193 103.006)"><ellipse cx="6.734" cy="52.163" transform="matrix(1 0 0 -1 0 104.327)" rx="6.734" ry="6.734"/><ellipse cx="59.364" cy="52.163" transform="matrix(1 0 0 -1 0 104.327)" rx="6.734" ry="6.734"/><ellipse cx="111.89" cy="52.163" transform="matrix(1 0 0 -1 0 104.327)" rx="6.734" ry="6.734"/><ellipse cx="85.989" cy="6.89" transform="matrix(1 0 0 -1 0 13.78)" rx="6.734" ry="6.734"/><circle cx="32.738" cy="6.89" r="6.734" transform="matrix(1 0 0 -1 0 13.78)"/><ellipse cx="85.989" cy="97.463" transform="matrix(1 0 0 -1 0 194.927)" rx="6.734" ry="6.734"/><ellipse cx="32.738" cy="97.463" transform="matrix(1 0 0 -1 0 194.927)" rx="6.734" ry="6.734"/></g><path d="M56.238 456.712v51.8m44.86-25.9l-44.86 25.9m44.86-25.9l-44.86-25.9m44.86 25.9H70.02m-13.79-25.92l15.546 26.913M56.24 508.513l15.6-26.883m29.338-51.535v51.8m-44.86-25.9l44.86 25.9m-44.86-25.9l44.86-25.9m-44.86 25.9h31.08m13.79-25.92l-15.546 26.912m15.536 24.91L85.58 455.012m-29.34.248v-51.8m44.86 25.9l-44.86-25.9m44.86 25.9l-44.86 25.9m44.86-25.9H70.02m-13.792 25.92l15.547-26.912M56.24 403.46l15.598 26.883m-16.314 26.37v51.8m-44.86-25.9l44.86 25.9m-44.86-25.9l44.86-25.9m-44.86 25.9h31.08m13.792-25.92l-15.548 26.912m15.536 24.908L39.926 481.63m-29.342-51.535v51.8m44.86-25.9l-44.86 25.9m44.86-25.9l-44.86-25.9m44.86 25.9h-31.08m-13.79-25.92l15.546 26.912m-15.536 24.91l15.6-26.884m29.34.247v-51.8m-44.86 25.9l44.86-25.9m-44.86 25.9l44.86 25.9m-44.86-25.9h31.08m13.79 25.92l-15.547-26.912m15.536-24.908l-15.598 26.883" stroke="#979797" stroke-linecap="square"/><g stroke="#11FF1A" transform="rotate(-90 259.53 255.818)"><ellipse cx="6.734" cy="52.163" transform="matrix(1 0 0 -1 0 104.327)" rx="6.734" ry="6.734"/><ellipse cx="59.364" cy="52.163" transform="matrix(1 0 0 -1 0 104.327)" rx="6.734" ry="6.734"/><ellipse cx="111.89" cy="52.163" transform="matrix(1 0 0 -1 0 104.327)" rx="6.734" ry="6.734"/><ellipse cx="85.989" cy="6.89" transform="matrix(1 0 0 -1 0 13.78)" rx="6.734" ry="6.734"/><circle cx="32.738" cy="6.89" r="6.734" transform="matrix(1 0 0 -1 0 13.78)"/><ellipse cx="85.989" cy="97.463" transform="matrix(1 0 0 -1 0 194.927)" rx="6.734" ry="6.734"/><ellipse cx="32.738" cy="97.463" transform="matrix(1 0 0 -1 0 194.927)" rx="6.734" ry="6.734"/></g><path d="M146.812 456.712v51.8m44.86-25.9l-44.86 25.9m44.86-25.9l-44.86-25.9m44.86 25.9h-31.08m-13.79-25.92l15.546 26.913m-15.536 24.908l15.6-26.883m29.34-51.535v51.8m-44.86-25.9l44.86 25.9m-44.86-25.9l44.86-25.9m-44.86 25.9h31.08m13.79-25.92l-15.546 26.912m15.536 24.91l-15.598-26.884m-29.34.247v-51.8m44.86 25.9l-44.86-25.9m44.86 25.9l-44.86 25.9m44.86-25.9h-31.08m-13.79 25.92l15.545-26.912m-15.54-24.908l15.6 26.883m-16.32 26.37v51.8m-44.86-25.9l44.86 25.9m-44.86-25.9l44.86-25.9m-44.86 25.9h31.08m13.79-25.92l-15.55 26.912m15.53 24.908L130.5 481.63m-29.342-51.535v51.8m44.86-25.9l-44.86 25.9m44.86-25.9l-44.86-25.9m44.86 25.9h-31.08m-13.79-25.92l15.546 26.912m-15.536 24.91l15.6-26.884m29.34.247v-51.8m-44.86 25.9l44.86-25.9m-44.86 25.9l44.86 25.9m-44.86-25.9h31.08m13.79 25.92l-15.547-26.912m15.54-24.908l-15.6 26.883" stroke="#979797" stroke-linecap="square"/><g stroke="#11FF1A" transform="rotate(-90 304.818 210.53)"><ellipse cx="6.734" cy="52.163" transform="matrix(1 0 0 -1 0 104.327)" rx="6.734" ry="6.734"/><ellipse cx="59.364" cy="52.163" transform="matrix(1 0 0 -1 0 104.327)" rx="6.734" ry="6.734"/><ellipse cx="111.89" cy="52.163" transform="matrix(1 0 0 -1 0 104.327)" rx="6.734" ry="6.734"/><ellipse cx="85.989" cy="6.89" transform="matrix(1 0 0 -1 0 13.78)" rx="6.734" ry="6.734"/><circle cx="32.738" cy="6.89" r="6.734" transform="matrix(1 0 0 -1 0 13.78)"/><ellipse cx="85.989" cy="97.463" transform="matrix(1 0 0 -1 0 194.927)" rx="6.734" ry="6.734"/><ellipse cx="32.738" cy="97.463" transform="matrix(1 0 0 -1 0 194.927)" rx="6.734" ry="6.734"/></g><path d="M327.934 456.712v51.8m44.86-25.9l-44.86 25.9m44.86-25.9l-44.86-25.9m44.86 25.9h-31.08m-13.79-25.92l15.546 26.913m-15.536 24.908l15.6-26.883m29.34-51.535v51.8m-44.86-25.9l44.86 25.9m-44.86-25.9l44.86-25.9m-44.86 25.9h31.08m13.79-25.92l-15.546 26.912m15.536 24.91l-15.598-26.884m-29.34.247v-51.8m44.86 25.9l-44.86-25.9m44.86 25.9l-44.86 25.9m44.86-25.9h-31.08m-13.79 25.92l15.545-26.912m-15.53-24.908l15.6 26.883m-16.31 26.37v51.8m-44.86-25.9l44.86 25.9m-44.86-25.9l44.86-25.9m-44.86 25.9h31.08m13.8-25.92l-15.55 26.912m15.54 24.908l-15.6-26.883m-29.34-51.535v51.8m44.86-25.9l-44.86 25.9m44.86-25.9l-44.86-25.9m44.86 25.9h-31.08m-13.79-25.92l15.55 26.912m-15.53 24.91l15.6-26.884m29.34.247v-51.8m-44.86 25.9l44.86-25.9m-44.86 25.9l44.86 25.9m-44.86-25.9h31.08m13.79 25.92l-15.55-26.912m15.54-24.908l-15.6 26.883" stroke="#979797" stroke-linecap="square"/><g stroke="#11FF1A" transform="rotate(-90 395.38 119.97)"><ellipse cx="6.734" cy="52.163" transform="matrix(1 0 0 -1 0 104.327)" rx="6.734" ry="6.734"/><ellipse cx="59.364" cy="52.163" transform="matrix(1 0 0 -1 0 104.327)" rx="6.734" ry="6.734"/><ellipse cx="111.89" cy="52.163" transform="matrix(1 0 0 -1 0 104.327)" rx="6.734" ry="6.734"/><ellipse cx="85.989" cy="6.89" transform="matrix(1 0 0 -1 0 13.78)" rx="6.734" ry="6.734"/><circle cx="32.738" cy="6.89" r="6.734" transform="matrix(1 0 0 -1 0 13.78)"/><ellipse cx="85.989" cy="97.463" transform="matrix(1 0 0 -1 0 194.927)" rx="6.734" ry="6.734"/><ellipse cx="32.738" cy="97.463" transform="matrix(1 0 0 -1 0 194.927)" rx="6.734" ry="6.734"/></g><path d="M237.438 456.712v51.8m44.86-25.9l-44.86 25.9m44.86-25.9l-44.86-25.9m44.86 25.9h-31.08m-13.79-25.92l15.546 26.913m-15.536 24.908l15.6-26.883m29.34-51.535v51.8m-44.86-25.9l44.86 25.9m-44.86-25.9l44.86-25.9m-44.86 25.9h31.08m13.79-25.92l-15.546 26.912m15.536 24.91l-15.598-26.884m-29.34.247v-51.8m44.86 25.9l-44.86-25.9m44.86 25.9l-44.86 25.9m44.86-25.9h-31.08m-13.792 25.92l15.547-26.912M237.44 403.46l15.598 26.883m-16.314 26.37v51.8m-44.86-25.9l44.86 25.9m-44.86-25.9l44.86-25.9m-44.86 25.9h31.08m13.792-25.92l-15.548 26.912m15.536 24.908l-15.598-26.883m-29.342-51.535v51.8m44.86-25.9l-44.86 25.9m44.86-25.9l-44.86-25.9m44.86 25.9h-31.08m-13.79-25.92l15.546 26.912m-15.536 24.91l15.6-26.884m29.34.247v-51.8m-44.86 25.9l44.86-25.9m-44.86 25.9l44.86 25.9m-44.86-25.9h31.08m13.79 25.92l-15.547-26.912m15.536-24.908l-15.598 26.883" stroke="#979797" stroke-linecap="square"/><g stroke="#11FF1A" transform="rotate(-90 350.13 165.218)"><ellipse cx="6.734" cy="52.163" transform="matrix(1 0 0 -1 0 104.327)" rx="6.734" ry="6.734"/><ellipse cx="59.364" cy="52.163" transform="matrix(1 0 0 -1 0 104.327)" rx="6.734" ry="6.734"/><ellipse cx="111.89" cy="52.163" transform="matrix(1 0 0 -1 0 104.327)" rx="6.734" ry="6.734"/><ellipse cx="85.989" cy="6.89" transform="matrix(1 0 0 -1 0 13.78)" rx="6.734" ry="6.734"/><circle cx="32.738" cy="6.89" r="6.734" transform="matrix(1 0 0 -1 0 13.78)"/><ellipse cx="85.989" cy="97.463" transform="matrix(1 0 0 -1 0 194.927)" rx="6.734" ry="6.734"/><ellipse cx="32.738" cy="97.463" transform="matrix(1 0 0 -1 0 194.927)" rx="6.734" ry="6.734"/></g><path d="M56.238 297.11v-51.8m44.86 25.9l-44.86-25.9m44.86 25.9l-44.86 25.9m44.86-25.9H70.02m-13.79 25.92l15.546-26.912M56.238 245.31l15.6 26.883m29.34 51.535v-51.8m-44.86 25.9l44.86-25.9m-44.86 25.9l44.86 25.9m-44.86-25.9h31.08m13.79 25.92l-15.546-26.912m15.536-24.91L85.58 298.81m-29.34-.248v51.8m44.86-25.9l-44.86 25.9m44.86-25.9l-44.86-25.9m44.86 25.9H70.02m-13.792-25.92l15.547 26.913M56.24 350.363l15.598-26.883m-16.314-26.37v-51.8m-44.86 25.9l44.86-25.9m-44.86 25.9l44.86 25.9m-44.86-25.9h31.08m13.792 25.92l-15.548-26.91m15.536-24.908l-15.598 26.883m-29.342 51.533v-51.8m44.86 25.9l-44.86-25.9m44.86 25.9l-44.86 25.9m44.86-25.9h-31.08m-13.79 25.92l15.546-26.912m-15.536-24.91l15.6 26.884m29.34-.248v51.8m-44.86-25.9l44.86 25.9m-44.86-25.9l44.86-25.9m-44.86 25.9h31.08m13.79-25.92l-15.547 26.913m15.536 24.908L39.925 323.48" stroke="#979797" stroke-linecap="square"/><g stroke="#11FF1A" transform="matrix(0 1 1 0 3.713 238.473)"><ellipse cx="6.734" cy="52.163" transform="matrix(1 0 0 -1 0 104.327)" rx="6.734" ry="6.734"/><ellipse cx="59.364" cy="52.163" transform="matrix(1 0 0 -1 0 104.327)" rx="6.734" ry="6.734"/><ellipse cx="111.89" cy="52.163" transform="matrix(1 0 0 -1 0 104.327)" rx="6.734" ry="6.734"/><ellipse cx="85.989" cy="6.89" transform="matrix(1 0 0 -1 0 13.78)" rx="6.734" ry="6.734"/><circle cx="32.738" cy="6.89" r="6.734" transform="matrix(1 0 0 -1 0 13.78)"/><ellipse cx="85.989" cy="97.463" transform="matrix(1 0 0 -1 0 194.927)" rx="6.734" ry="6.734"/><ellipse cx="32.738" cy="97.463" transform="matrix(1 0 0 -1 0 194.927)" rx="6.734" ry="6.734"/></g><path d="M146.812 297.11v-51.8m44.86 25.9l-44.86-25.9m44.86 25.9l-44.86 25.9m44.86-25.9h-31.08m-13.79 25.92l15.546-26.912m-15.536-24.908l15.6 26.883m29.34 51.535v-51.8m-44.86 25.9l44.86-25.9m-44.86 25.9l44.86 25.9m-44.86-25.9h31.08m13.79 25.92l-15.546-26.912m15.536-24.91l-15.598 26.884m-29.34-.248v51.8m44.86-25.9l-44.86 25.9m44.86-25.9l-44.86-25.9m44.86 25.9h-31.08m-13.79-25.92l15.545 26.913m-15.54 24.908l15.6-26.883m-16.31-26.37v-51.8m-44.86 25.9l44.86-25.9m-44.86 25.9l44.86 25.9m-44.86-25.9h31.08m13.79 25.92l-15.55-26.912m15.54-24.908l-15.6 26.883m-29.35 51.535v-51.8m44.86 25.9l-44.86-25.9m44.86 25.9l-44.86 25.9m44.86-25.9h-31.08m-13.79 25.92l15.54-26.912m-15.54-24.91l15.6 26.884m29.34-.248v51.8m-44.86-25.9l44.86 25.9m-44.86-25.9l44.86-25.9m-44.86 25.9h31.08m13.79-25.92l-15.55 26.913m15.54 24.908l-15.6-26.883" stroke="#979797" stroke-linecap="square"/><g stroke="#11FF1A" transform="matrix(0 1 1 0 94.287 238.473)"><ellipse cx="6.734" cy="52.163" transform="matrix(1 0 0 -1 0 104.327)" rx="6.734" ry="6.734"/><ellipse cx="59.364" cy="52.163" transform="matrix(1 0 0 -1 0 104.327)" rx="6.734" ry="6.734"/><ellipse cx="111.89" cy="52.163" transform="matrix(1 0 0 -1 0 104.327)" rx="6.734" ry="6.734"/><ellipse cx="85.989" cy="6.89" transform="matrix(1 0 0 -1 0 13.78)" rx="6.734" ry="6.734"/><circle cx="32.738" cy="6.89" r="6.734" transform="matrix(1 0 0 -1 0 13.78)"/><ellipse cx="85.989" cy="97.463" transform="matrix(1 0 0 -1 0 194.927)" rx="6.734" ry="6.734"/><ellipse cx="32.738" cy="97.463" transform="matrix(1 0 0 -1 0 194.927)" rx="6.734" ry="6.734"/></g><path d="M327.934 297.11v-51.8m44.86 25.9l-44.86-25.9m44.86 25.9l-44.86 25.9m44.86-25.9h-31.08m-13.79 25.92l15.546-26.912m-15.536-24.908l15.6 26.883m29.34 51.535v-51.8m-44.86 25.9l44.86-25.9m-44.86 25.9l44.86 25.9m-44.86-25.9h31.08m13.79 25.92l-15.546-26.912m15.536-24.91l-15.598 26.884m-29.34-.248v51.8m44.86-25.9l-44.86 25.9m44.86-25.9l-44.86-25.9m44.86 25.9h-31.08m-13.79-25.92l15.545 26.913m-15.53 24.908l15.6-26.883m-16.31-26.37v-51.8m-44.86 25.9l44.86-25.9m-44.86 25.9l44.86 25.9m-44.86-25.9h31.08m13.8 25.92l-15.55-26.912m15.54-24.908l-15.59 26.883m-29.35 51.535v-51.8m44.86 25.9l-44.86-25.9m44.86 25.9l-44.86 25.9m44.86-25.9h-31.08m-13.79 25.92l15.55-26.912m-15.53-24.91l15.6 26.884m29.34-.248v51.8m-44.86-25.9l44.86 25.9m-44.86-25.9l44.86-25.9m-44.86 25.9h31.08m13.79-25.92l-15.55 26.913m15.54 24.908l-15.6-26.883" stroke="#979797" stroke-linecap="square"/><g stroke="#11FF1A" transform="matrix(0 1 1 0 275.41 238.473)"><ellipse cx="6.734" cy="52.163" transform="matrix(1 0 0 -1 0 104.327)" rx="6.734" ry="6.734"/><ellipse cx="59.364" cy="52.163" transform="matrix(1 0 0 -1 0 104.327)" rx="6.734" ry="6.734"/><ellipse cx="111.89" cy="52.163" transform="matrix(1 0 0 -1 0 104.327)" rx="6.734" ry="6.734"/><ellipse cx="85.989" cy="6.89" transform="matrix(1 0 0 -1 0 13.78)" rx="6.734" ry="6.734"/><circle cx="32.738" cy="6.89" r="6.734" transform="matrix(1 0 0 -1 0 13.78)"/><ellipse cx="85.989" cy="97.463" transform="matrix(1 0 0 -1 0 194.927)" rx="6.734" ry="6.734"/><ellipse cx="32.738" cy="97.463" transform="matrix(1 0 0 -1 0 194.927)" rx="6.734" ry="6.734"/></g><path d="M237.438 297.11v-51.8m44.86 25.9l-44.86-25.9m44.86 25.9l-44.86 25.9m44.86-25.9h-31.08m-13.79 25.92l15.546-26.912m-15.536-24.908l15.6 26.883m29.34 51.535v-51.8m-44.86 25.9l44.86-25.9m-44.86 25.9l44.86 25.9m-44.86-25.9h31.08m13.79 25.92l-15.546-26.912m15.536-24.91L266.78 298.81m-29.34-.248v51.8m44.86-25.9l-44.86 25.9m44.86-25.9l-44.86-25.9m44.86 25.9h-31.08m-13.792-25.92l15.547 26.913m-15.536 24.908l15.59-26.883m-16.31-26.37v-51.8m-44.86 25.9l44.86-25.9m-44.86 25.9l44.86 25.9m-44.86-25.9h31.08m13.79 25.92l-15.55-26.912m15.53-24.908l-15.6 26.883m-29.34 51.535v-51.8m44.86 25.9l-44.86-25.9m44.86 25.9l-44.86 25.9m44.86-25.9h-31.08m-13.79 25.92l15.54-26.912m-15.54-24.91l15.6 26.884m29.34-.248v51.8m-44.86-25.9l44.86 25.9m-44.86-25.9l44.86-25.9m-44.86 25.9h31.08m13.79-25.92l-15.55 26.913m15.53 24.908L221.1 323.48" stroke="#979797" stroke-linecap="square"/><g stroke="#11FF1A" transform="matrix(0 1 1 0 184.913 238.473)"><ellipse cx="6.734" cy="52.163" transform="matrix(1 0 0 -1 0 104.327)" rx="6.734" ry="6.734"/><ellipse cx="59.364" cy="52.163" transform="matrix(1 0 0 -1 0 104.327)" rx="6.734" ry="6.734"/><ellipse cx="111.89" cy="52.163" transform="matrix(1 0 0 -1 0 104.327)" rx="6.734" ry="6.734"/><ellipse cx="85.989" cy="6.89" transform="matrix(1 0 0 -1 0 13.78)" rx="6.734" ry="6.734"/><circle cx="32.738" cy="6.89" r="6.734" transform="matrix(1 0 0 -1 0 13.78)"/><ellipse cx="85.989" cy="97.463" transform="matrix(1 0 0 -1 0 194.927)" rx="6.734" ry="6.734"/><ellipse cx="32.738" cy="97.463" transform="matrix(1 0 0 -1 0 194.927)" rx="6.734" ry="6.734"/></g><path d="M554.4 377.658v51.8m44.86-25.9l-44.86 25.9m44.86-25.9l-44.86-25.9m44.86 25.9h-31.08m-13.792-25.92l15.547 26.913M554.4 429.46l15.598-26.884m29.342-51.536v51.802m-44.862-25.9l44.86 25.9m-44.86-25.9l44.86-25.9m-44.86 25.9h31.08m13.792-25.92l-15.547 26.91m15.536 24.91l-15.6-26.883m-29.34.24v-51.8m44.86 25.9l-44.86-25.9m44.86 25.9l-44.86 25.9m44.86-25.9h-31.08m-13.79 25.92l15.54-26.92m-15.53-24.9l15.6 26.89m-16.32 26.36v51.8m-44.86-25.9l44.86 25.9m-44.86-25.9l44.86-25.9m-44.86 25.9h31.08m13.79-25.92l-15.54 26.92m15.53 24.91l-15.6-26.89m-29.34-51.54v51.8m44.86-25.9l-44.86 25.9m44.86-25.9l-44.86-25.9m44.86 25.9h-31.08m-13.79-25.92l15.54 26.91m-15.53 24.91l15.6-26.88m29.34.24v-51.8m-44.86 25.9l44.86-25.9m-44.86 25.9l44.86 25.9m-44.86-25.9h31.08m13.79 25.92l-15.55-26.91m15.54-24.91l-15.6 26.88" stroke="#979797" stroke-linecap="square"/><g stroke="#11FF1A" transform="rotate(-90 469.085 -32.79)"><ellipse cx="6.734" cy="52.163" transform="matrix(1 0 0 -1 0 104.327)" rx="6.734" ry="6.734"/><ellipse cx="59.364" cy="52.163" transform="matrix(1 0 0 -1 0 104.327)" rx="6.734" ry="6.734"/><ellipse cx="111.89" cy="52.163" transform="matrix(1 0 0 -1 0 104.327)" rx="6.734" ry="6.734"/><ellipse cx="85.989" cy="6.89" transform="matrix(1 0 0 -1 0 13.78)" rx="6.734" ry="6.734"/><circle cx="32.738" cy="6.89" r="6.734" transform="matrix(1 0 0 -1 0 13.78)"/><ellipse cx="85.989" cy="97.463" transform="matrix(1 0 0 -1 0 194.927)" rx="6.734" ry="6.734"/><ellipse cx="32.738" cy="97.463" transform="matrix(1 0 0 -1 0 194.927)" rx="6.734" ry="6.734"/></g><path d="M463.825 377.658v51.8m44.86-25.9l-44.86 25.9m44.86-25.9l-44.86-25.9m44.86 25.9h-31.08m-13.79-25.92l15.546 26.913m-15.53 24.91l15.6-26.88m29.34-51.53v51.81m-44.86-25.9l44.86 25.9m-44.86-25.9l44.86-25.9m-44.86 25.9h31.08m13.79-25.92l-15.54 26.91m15.54 24.91l-15.6-26.88m-29.34.25v-51.8m44.86 25.9l-44.86-25.9m44.86 25.9l-44.86 25.9m44.86-25.9h-31.08m-13.79 25.92l15.55-26.91m-15.53-24.91l15.6 26.89m-16.31 26.37v51.8m-44.86-25.9l44.86 25.9m-44.86-25.9l44.86-25.9m-44.86 25.9h31.08m13.8-25.92l-15.552 26.9m15.53 24.91l-15.594-26.89m-29.35-51.54v51.81m44.86-25.9l-44.86 25.9m44.86-25.9l-44.86-25.9m44.86 25.9h-31.08m-13.79-25.92l15.55 26.91M418.2 402.86l15.6-26.883m29.34.243v-51.8m-44.86 25.9l44.86-25.9m-44.86 25.9l44.86 25.9m-44.86-25.9h31.08m13.79 25.92l-15.55-26.914m15.54-24.91l-15.59 26.88" stroke="#979797" stroke-linecap="square"/><g stroke="#11FF1A" transform="rotate(-90 423.798 12.498)"><ellipse cx="6.734" cy="52.163" transform="matrix(1 0 0 -1 0 104.327)" rx="6.734" ry="6.734"/><ellipse cx="59.364" cy="52.163" transform="matrix(1 0 0 -1 0 104.327)" rx="6.734" ry="6.734"/><ellipse cx="111.89" cy="52.163" transform="matrix(1 0 0 -1 0 104.327)" rx="6.734" ry="6.734"/><ellipse cx="85.989" cy="6.89" transform="matrix(1 0 0 -1 0 13.78)" rx="6.734" ry="6.734"/><circle cx="32.738" cy="6.89" r="6.734" transform="matrix(1 0 0 -1 0 13.78)"/><ellipse cx="85.989" cy="97.463" transform="matrix(1 0 0 -1 0 194.927)" rx="6.734" ry="6.734"/><ellipse cx="32.738" cy="97.463" transform="matrix(1 0 0 -1 0 194.927)" rx="6.734" ry="6.734"/></g><path d="M735.573 377.658v51.8m44.86-25.9l-44.86 25.9m44.86-25.9l-44.86-25.9m44.86 25.9h-31.08m-13.79-25.92l15.546 26.913m-15.54 24.91l15.6-26.88m29.34-51.53v51.81m-44.86-25.9l44.86 25.9m-44.86-25.9l44.86-25.9m-44.86 25.9h31.08m13.79-25.92l-15.55 26.91m15.53 24.91l-15.6-26.88m-29.34.25v-51.8m44.86 25.9l-44.86-25.9m44.86 25.9l-44.86 25.9m44.86-25.9h-31.08m-13.79 25.92l15.54-26.92m-15.54-24.91l15.6 26.89m-16.31 26.37v51.8m-44.87-25.9l44.86 25.9M690 403.56l44.86-25.9M690 403.56h31.08m13.793-25.92l-15.547 26.913m15.536 24.91l-15.6-26.884m-29.342-51.54v51.8m44.86-25.9l-44.86 25.9m44.86-25.9l-44.86-25.9m44.86 25.9H703.7m-13.792-25.92l15.547 26.91m-15.536 24.91l15.59-26.89m29.34.24v-51.8m-44.86 25.9l44.86-25.9m-44.86 25.9l44.86 25.9m-44.86-25.9h31.08m13.79 25.92l-15.54-26.91m15.53-24.91l-15.6 26.89" stroke="#979797" stroke-linecap="square"/><g stroke="#11FF1A" transform="rotate(-90 559.672 -123.376)"><ellipse cx="6.734" cy="52.163" transform="matrix(1 0 0 -1 0 104.327)" rx="6.734" ry="6.734"/><ellipse cx="59.364" cy="52.163" transform="matrix(1 0 0 -1 0 104.327)" rx="6.734" ry="6.734"/><ellipse cx="111.89" cy="52.163" transform="matrix(1 0 0 -1 0 104.327)" rx="6.734" ry="6.734"/><ellipse cx="85.989" cy="6.89" transform="matrix(1 0 0 -1 0 13.78)" rx="6.734" ry="6.734"/><circle cx="32.738" cy="6.89" r="6.734" transform="matrix(1 0 0 -1 0 13.78)"/><ellipse cx="85.989" cy="97.463" transform="matrix(1 0 0 -1 0 194.927)" rx="6.734" ry="6.734"/><ellipse cx="32.738" cy="97.463" transform="matrix(1 0 0 -1 0 194.927)" rx="6.734" ry="6.734"/></g><path d="M645 377.658v51.8m44.86-25.9L645 429.46m44.86-25.9L645 377.66m44.86 25.9h-31.08m-13.792-25.92l15.547 26.913M645 429.46l15.598-26.884m29.342-51.536v51.802m-44.862-25.9l44.86 25.9m-44.86-25.9l44.86-25.9m-44.86 25.9h31.08m13.792-25.92l-15.547 26.91m15.536 24.91l-15.6-26.883m-29.34.24v-51.8m44.86 25.9L645 324.4m44.86 25.9L645 376.2m44.86-25.9h-31.08m-13.79 25.92l15.54-26.913m-15.53-24.9l15.6 26.882m-16.315 26.36v51.8m-44.86-25.9l44.86 25.9m-44.86-25.9l44.86-25.9m-44.86 25.9h31.08m13.792-25.92l-15.547 26.92m15.535 24.91l-15.598-26.89m-29.342-51.54v51.8m44.86-25.9l-44.86 25.9m44.86-25.9l-44.86-25.9m44.86 25.9h-31.08m-13.79-25.92l15.546 26.91m-15.53 24.91l15.6-26.88m29.34.24v-51.8m-44.86 25.9l44.86-25.9m-44.86 25.9l44.86 25.9m-44.86-25.9h31.08m13.79 25.92l-15.55-26.91m15.54-24.91l-15.6 26.88" stroke="#979797" stroke-linecap="square"/><g stroke="#11FF1A" transform="rotate(-90 514.385 -78.09)"><ellipse cx="6.734" cy="52.163" transform="matrix(1 0 0 -1 0 104.327)" rx="6.734" ry="6.734"/><ellipse cx="59.364" cy="52.163" transform="matrix(1 0 0 -1 0 104.327)" rx="6.734" ry="6.734"/><ellipse cx="111.89" cy="52.163" transform="matrix(1 0 0 -1 0 104.327)" rx="6.734" ry="6.734"/><ellipse cx="85.989" cy="6.89" transform="matrix(1 0 0 -1 0 13.78)" rx="6.734" ry="6.734"/><circle cx="32.738" cy="6.89" r="6.734" transform="matrix(1 0 0 -1 0 13.78)"/><ellipse cx="85.989" cy="97.463" transform="matrix(1 0 0 -1 0 194.927)" rx="6.734" ry="6.734"/><ellipse cx="32.738" cy="97.463" transform="matrix(1 0 0 -1 0 194.927)" rx="6.734" ry="6.734"/></g><path d="M418.525 456.81v51.8m44.86-25.9l-44.86 25.9m44.86-25.9l-44.86-25.9m44.86 25.9h-31.08m-13.79-25.92l15.546 26.913m-15.53 24.907l15.6-26.88m29.34-51.535v51.8m-44.86-25.9l44.86 25.9m-44.86-25.9l44.86-25.9m-44.86 25.9h31.08m13.79-25.92l-15.54 26.912m15.54 24.91l-15.6-26.884m-29.34.25V403.56m44.86 25.9l-44.86-25.9m44.86 25.9l-44.86 25.9m44.86-25.9h-31.08m-13.79 25.92l15.55-26.912m-15.54-24.908l15.6 26.883m-16.32 26.367v51.8m-44.86-25.9l44.86 25.9m-44.86-25.9l44.86-25.9m-44.86 25.9h31.08m13.8-25.92l-15.55 26.913m15.54 24.908l-15.59-26.88m-29.35-51.53V482m44.87-25.9L372.88 482m44.86-25.9l-44.86-25.9m44.86 25.9h-31.08m-13.792-25.92l15.548 26.912M372.878 482l15.6-26.885m29.34.25V403.56m-44.86 25.9l44.86-25.9m-44.86 25.9l44.86 25.9m-44.86-25.9h31.08m13.79 25.92l-15.546-26.912m15.536-24.908l-15.598 26.883" stroke="#979797" stroke-linecap="square"/><g stroke="#11FF1A" transform="rotate(-90 440.724 74.724)"><ellipse cx="6.734" cy="52.163" transform="matrix(1 0 0 -1 0 104.327)" rx="6.734" ry="6.734"/><ellipse cx="59.364" cy="52.163" transform="matrix(1 0 0 -1 0 104.327)" rx="6.734" ry="6.734"/><ellipse cx="111.89" cy="52.163" transform="matrix(1 0 0 -1 0 104.327)" rx="6.734" ry="6.734"/><ellipse cx="85.989" cy="6.89" transform="matrix(1 0 0 -1 0 13.78)" rx="6.734" ry="6.734"/><circle cx="32.738" cy="6.89" r="6.734" transform="matrix(1 0 0 -1 0 13.78)"/><ellipse cx="85.989" cy="97.463" transform="matrix(1 0 0 -1 0 194.927)" rx="6.734" ry="6.734"/><ellipse cx="32.738" cy="97.463" transform="matrix(1 0 0 -1 0 194.927)" rx="6.734" ry="6.734"/></g><path d="M509.1 456.81v51.8m44.86-25.9l-44.86 25.9m44.86-25.9l-44.86-25.9m44.86 25.9h-31.08m-13.792-25.92l15.547 26.913M509.1 508.61l15.598-26.882m29.342-51.535v51.8m-44.862-25.9l44.86 25.9m-44.86-25.9l44.86-25.9m-44.86 25.9h31.08m13.792-25.92l-15.547 26.912m15.536 24.91l-15.6-26.884m-29.34.25v-51.8m44.86 25.9l-44.86-25.9m44.86 25.9l-44.86 25.9m44.86-25.9h-31.08m-13.79 25.92l15.54-26.91m-15.54-24.91l15.6 26.89m-16.32 26.37v51.8m-44.86-25.9l44.86 25.9m-44.86-25.9l44.86-25.9m-44.86 25.9h31.08m13.79-25.92l-15.55 26.92m15.53 24.91l-15.6-26.88m-29.32-51.55V482m44.86-25.9L463.44 482m44.86-25.9l-44.86-25.9m44.86 25.9h-31.08m-13.79-25.92l15.545 26.91M463.445 482l15.6-26.885m29.337.25V403.56m-44.86 25.9l44.86-25.9m-44.86 25.9l44.86 25.9m-44.86-25.9h31.08m13.79 25.92l-15.546-26.912m15.536-24.908l-15.598 26.883" stroke="#979797" stroke-linecap="square"/><g stroke="#11FF1A" transform="rotate(-90 486.01 29.437)"><ellipse cx="6.734" cy="52.163" transform="matrix(1 0 0 -1 0 104.327)" rx="6.734" ry="6.734"/><ellipse cx="59.364" cy="52.163" transform="matrix(1 0 0 -1 0 104.327)" rx="6.734" ry="6.734"/><ellipse cx="111.89" cy="52.163" transform="matrix(1 0 0 -1 0 104.327)" rx="6.734" ry="6.734"/><ellipse cx="85.989" cy="6.89" transform="matrix(1 0 0 -1 0 13.78)" rx="6.734" ry="6.734"/><circle cx="32.738" cy="6.89" r="6.734" transform="matrix(1 0 0 -1 0 13.78)"/><ellipse cx="85.989" cy="97.463" transform="matrix(1 0 0 -1 0 194.927)" rx="6.734" ry="6.734"/><ellipse cx="32.738" cy="97.463" transform="matrix(1 0 0 -1 0 194.927)" rx="6.734" ry="6.734"/></g><path d="M690.22 456.81v51.8m44.862-25.9l-44.86 25.9m44.86-25.9l-44.86-25.9m44.86 25.9h-31.08m-13.792-25.92l15.547 26.913M690.22 508.61l15.6-26.882m29.34-51.535v51.8m-44.86-25.9l44.86 25.9m-44.86-25.9l44.86-25.9m-44.86 25.9h31.08m13.792-25.92l-15.547 26.912m15.536 24.91l-15.59-26.885m-29.34.25v-51.8m44.86 25.9l-44.86-25.9m44.86 25.9l-44.86 25.9m44.86-25.9h-31.08m-13.79 25.92l15.55-26.91m-15.53-24.91l15.6 26.884m-16.31 26.368v51.8m-44.86-25.9l44.86 25.9m-44.86-25.9l44.86-25.9m-44.86 25.9h31.08m13.79-25.92l-15.55 26.914m15.54 24.908l-15.6-26.88M644.57 430.2V482m44.86-25.9L644.57 482m44.86-25.9l-44.86-25.9m44.86 25.9h-31.08m-13.79-25.92l15.544 26.91M644.566 482l15.6-26.885m29.34.25V403.56m-44.86 25.9l44.86-25.9m-44.86 25.9l44.86 25.9m-44.86-25.9h31.08m13.79 25.92l-15.547-26.912m15.53-24.908l-15.6 26.883" stroke="#979797" stroke-linecap="square"/><g stroke="#11FF1A" transform="rotate(-90 576.572 -61.124)"><ellipse cx="6.734" cy="52.163" transform="matrix(1 0 0 -1 0 104.327)" rx="6.734" ry="6.734"/><ellipse cx="59.364" cy="52.163" transform="matrix(1 0 0 -1 0 104.327)" rx="6.734" ry="6.734"/><ellipse cx="111.89" cy="52.163" transform="matrix(1 0 0 -1 0 104.327)" rx="6.734" ry="6.734"/><ellipse cx="85.989" cy="6.89" transform="matrix(1 0 0 -1 0 13.78)" rx="6.734" ry="6.734"/><circle cx="32.738" cy="6.89" r="6.734" transform="matrix(1 0 0 -1 0 13.78)"/><ellipse cx="85.989" cy="97.463" transform="matrix(1 0 0 -1 0 194.927)" rx="6.734" ry="6.734"/><ellipse cx="32.738" cy="97.463" transform="matrix(1 0 0 -1 0 194.927)" rx="6.734" ry="6.734"/></g><path d="M599.725 456.81v51.8m44.86-25.9l-44.86 25.9m44.86-25.9l-44.86-25.9m44.86 25.9h-31.08m-13.79-25.92l15.546 26.913m-15.53 24.907l15.6-26.88m29.34-51.535v51.8m-44.86-25.9l44.86 25.9m-44.86-25.9l44.86-25.9m-44.86 25.9h31.08m13.79-25.92l-15.54 26.912m15.54 24.91l-15.6-26.884m-29.34.25V403.56m44.86 25.9l-44.86-25.9m44.86 25.9l-44.86 25.9m44.86-25.9h-31.08m-13.79 25.92l15.55-26.912m-15.54-24.908l15.6 26.883m-16.32 26.367v51.8m-44.86-25.9l44.86 25.9m-44.86-25.9l44.86-25.9m-44.86 25.9h31.08m13.8-25.92l-15.55 26.913m15.54 24.908l-15.59-26.88m-29.35-51.53V482m44.87-25.9L554.08 482m44.86-25.9l-44.86-25.9m44.86 25.9h-31.08m-13.792-25.92l15.548 26.912M554.078 482l15.6-26.885m29.34.25V403.56m-44.86 25.9l44.86-25.9m-44.86 25.9l44.86 25.9m-44.86-25.9h31.08m13.79 25.92l-15.546-26.912m15.536-24.908l-15.598 26.883" stroke="#979797" stroke-linecap="square"/><g stroke="#11FF1A" transform="rotate(-90 531.324 -15.876)"><ellipse cx="6.734" cy="52.163" transform="matrix(1 0 0 -1 0 104.327)" rx="6.734" ry="6.734"/><ellipse cx="59.364" cy="52.163" transform="matrix(1 0 0 -1 0 104.327)" rx="6.734" ry="6.734"/><ellipse cx="111.89" cy="52.163" transform="matrix(1 0 0 -1 0 104.327)" rx="6.734" ry="6.734"/><ellipse cx="85.989" cy="6.89" transform="matrix(1 0 0 -1 0 13.78)" rx="6.734" ry="6.734"/><circle cx="32.738" cy="6.89" r="6.734" transform="matrix(1 0 0 -1 0 13.78)"/><ellipse cx="85.989" cy="97.463" transform="matrix(1 0 0 -1 0 194.927)" rx="6.734" ry="6.734"/><ellipse cx="32.738" cy="97.463" transform="matrix(1 0 0 -1 0 194.927)" rx="6.734" ry="6.734"/></g><path d="M418.525 297.21v-51.802m44.86 25.9l-44.86-25.9m44.86 25.9l-44.86 25.9m44.86-25.9h-31.08m-13.79 25.92l15.546-26.912m-15.53-24.908l15.6 26.883m29.34 51.54v-51.8m-44.86 25.9l44.86-25.9m-44.86 25.9l44.86 25.9m-44.86-25.9h31.08m13.79 25.92l-15.54-26.91m15.54-24.91l-15.6 26.88m-29.34-.25v51.8m44.86-25.9l-44.86 25.9m44.86-25.9l-44.86-25.9m44.86 25.9h-31.08m-13.79-25.92l15.55 26.92m-15.53 24.91l15.6-26.88m-16.32-26.37v-51.8m-44.86 25.9l44.86-25.9m-44.86 25.9l44.86 25.9m-44.86-25.9h31.08m13.79 25.92l-15.55-26.91m15.54-24.91l-15.6 26.88m-29.34 51.54v-51.8m44.86 25.9l-44.86-25.9m44.86 25.9l-44.86 25.9m44.86-25.9h-31.08m-13.79 25.92l15.55-26.91m-15.53-24.91l15.6 26.89m29.34-.25v51.8m-44.86-25.9l44.86 25.9m-44.86-25.9l44.86-25.9m-44.86 25.9h31.08m13.79-25.92l-15.55 26.92m15.53 24.91l-15.59-26.88" stroke="#979797" stroke-linecap="square"/><g stroke="#11FF1A" transform="matrix(0 1 1 0 366 238.57)"><ellipse cx="6.734" cy="52.163" transform="matrix(1 0 0 -1 0 104.327)" rx="6.734" ry="6.734"/><ellipse cx="59.364" cy="52.163" transform="matrix(1 0 0 -1 0 104.327)" rx="6.734" ry="6.734"/><ellipse cx="111.89" cy="52.163" transform="matrix(1 0 0 -1 0 104.327)" rx="6.734" ry="6.734"/><ellipse cx="85.989" cy="6.89" transform="matrix(1 0 0 -1 0 13.78)" rx="6.734" ry="6.734"/><ellipse cx="32.738" cy="6.89" transform="matrix(1 0 0 -1 0 13.78)" rx="6.734" ry="6.734"/><ellipse cx="85.989" cy="97.463" transform="matrix(1 0 0 -1 0 194.927)" rx="6.734" ry="6.734"/><ellipse cx="32.738" cy="97.463" transform="matrix(1 0 0 -1 0 194.927)" rx="6.734" ry="6.734"/></g><path d="M509.1 297.21v-51.802m44.86 25.9l-44.86-25.9m44.86 25.9l-44.86 25.9m44.86-25.9h-31.08m-13.792 25.92l15.547-26.912M509.1 245.408l15.598 26.883m29.342 51.54v-51.8m-44.862 25.9l44.86-25.9m-44.86 25.9l44.86 25.9m-44.86-25.9h31.08m13.792 25.92l-15.547-26.91m15.536-24.91l-15.6 26.89m-29.34-.25v51.8m44.86-25.9l-44.86 25.9m44.86-25.9l-44.86-25.9m44.86 25.9h-31.08m-13.79-25.92l15.54 26.92m-15.53 24.9l15.6-26.88m-16.32-26.37v-51.8m-44.86 25.9l44.86-25.9m-44.86 25.9l44.86 25.9m-44.86-25.9h31.08m13.79 25.92l-15.55-26.91m15.53-24.91l-15.6 26.88m-29.34 51.54v-51.8m44.86 25.9l-44.86-25.9m44.86 25.9l-44.86 25.9m44.86-25.9h-31.08m-13.79 25.92l15.54-26.91m-15.54-24.91l15.6 26.89m29.33-.25v51.8m-44.86-25.9l44.86 25.9m-44.86-25.9l44.86-25.9m-44.86 25.9h31.08m13.79-25.92l-15.55 26.92m15.53 24.91l-15.58-26.89" stroke="#979797" stroke-linecap="square"/><g stroke="#11FF1A" transform="matrix(0 1 1 0 456.574 238.57)"><ellipse cx="6.734" cy="52.163" transform="matrix(1 0 0 -1 0 104.327)" rx="6.734" ry="6.734"/><ellipse cx="59.364" cy="52.163" transform="matrix(1 0 0 -1 0 104.327)" rx="6.734" ry="6.734"/><ellipse cx="111.89" cy="52.163" transform="matrix(1 0 0 -1 0 104.327)" rx="6.734" ry="6.734"/><ellipse cx="85.989" cy="6.89" transform="matrix(1 0 0 -1 0 13.78)" rx="6.734" ry="6.734"/><ellipse cx="32.738" cy="6.89" transform="matrix(1 0 0 -1 0 13.78)" rx="6.734" ry="6.734"/><ellipse cx="85.989" cy="97.463" transform="matrix(1 0 0 -1 0 194.927)" rx="6.734" ry="6.734"/><ellipse cx="32.738" cy="97.463" transform="matrix(1 0 0 -1 0 194.927)" rx="6.734" ry="6.734"/></g><path d="M690.22 297.21v-51.802m44.862 25.9l-44.86-25.9m44.86 25.9l-44.86 25.9m44.86-25.9h-31.08m-13.792 25.92l15.547-26.912m-15.536-24.908l15.6 26.883m29.34 51.54v-51.8m-44.86 25.9l44.86-25.9m-44.86 25.9l44.86 25.9m-44.86-25.9h31.08m13.8 25.92l-15.54-26.91m15.54-24.91l-15.59 26.89m-29.34-.25v51.8m44.86-25.9l-44.86 25.9m44.86-25.9l-44.86-25.9m44.86 25.9h-31.08m-13.79-25.92l15.55 26.92m-15.54 24.9l15.6-26.88m-16.32-26.37v-51.8m-44.86 25.9l44.86-25.9m-44.86 25.9l44.86 25.9m-44.86-25.9h31.08m13.79 25.92l-15.55-26.91m15.54-24.91l-15.6 26.88m-29.342 51.53v-51.8m44.86 25.9l-44.86-25.9m44.86 25.9l-44.86 25.9m44.86-25.9h-31.08m-13.79 25.92l15.546-26.91m-15.535-24.91l15.6 26.88m29.34-.24v51.8m-44.86-25.9l44.86 25.9m-44.86-25.9l44.86-25.9m-44.86 25.9h31.08m13.79-25.92l-15.55 26.92m15.537 24.91L673.93 323.6" stroke="#979797" stroke-linecap="square"/><g stroke="#11FF1A" transform="matrix(0 1 1 0 637.696 238.57)"><ellipse cx="6.734" cy="52.163" transform="matrix(1 0 0 -1 0 104.327)" rx="6.734" ry="6.734"/><ellipse cx="59.364" cy="52.163" transform="matrix(1 0 0 -1 0 104.327)" rx="6.734" ry="6.734"/><ellipse cx="111.89" cy="52.163" transform="matrix(1 0 0 -1 0 104.327)" rx="6.734" ry="6.734"/><ellipse cx="85.989" cy="6.89" transform="matrix(1 0 0 -1 0 13.78)" rx="6.734" ry="6.734"/><ellipse cx="32.738" cy="6.89" transform="matrix(1 0 0 -1 0 13.78)" rx="6.734" ry="6.734"/><ellipse cx="85.989" cy="97.463" transform="matrix(1 0 0 -1 0 194.927)" rx="6.734" ry="6.734"/><ellipse cx="32.738" cy="97.463" transform="matrix(1 0 0 -1 0 194.927)" rx="6.734" ry="6.734"/></g><path d="M599.725 297.21v-51.802m44.86 25.9l-44.86-25.9m44.86 25.9l-44.86 25.9m44.86-25.9h-31.08m-13.79 25.92l15.546-26.912m-15.53-24.908l15.6 26.883m29.34 51.54v-51.8m-44.86 25.9l44.86-25.9m-44.86 25.9l44.86 25.9m-44.86-25.9h31.08m13.79 25.92l-15.54-26.91m15.54-24.91l-15.6 26.88m-29.34-.25v51.8m44.86-25.9l-44.86 25.9m44.86-25.9l-44.86-25.9m44.86 25.9h-31.08m-13.79-25.92l15.55 26.92m-15.53 24.91l15.6-26.88m-16.32-26.37v-51.8m-44.86 25.9l44.86-25.9m-44.86 25.9l44.86 25.9m-44.86-25.9h31.08m13.79 25.92l-15.55-26.91m15.54-24.91l-15.6 26.88m-29.34 51.54v-51.8m44.86 25.9l-44.86-25.9m44.86 25.9l-44.86 25.9m44.86-25.9h-31.08m-13.79 25.92l15.55-26.91m-15.53-24.91l15.6 26.89m29.34-.25v51.8m-44.86-25.9l44.86 25.9m-44.86-25.9l44.86-25.9m-44.86 25.9h31.08m13.79-25.92l-15.55 26.92m15.53 24.91l-15.59-26.88" stroke="#979797" stroke-linecap="square"/><g stroke="#11FF1A" transform="matrix(0 1 1 0 547.2 238.57)"><ellipse cx="6.734" cy="52.163" transform="matrix(1 0 0 -1 0 104.327)" rx="6.734" ry="6.734"/><ellipse cx="59.364" cy="52.163" transform="matrix(1 0 0 -1 0 104.327)" rx="6.734" ry="6.734"/><ellipse cx="111.89" cy="52.163" transform="matrix(1 0 0 -1 0 104.327)" rx="6.734" ry="6.734"/><ellipse cx="85.989" cy="6.89" transform="matrix(1 0 0 -1 0 13.78)" rx="6.734" ry="6.734"/><ellipse cx="32.738" cy="6.89" transform="matrix(1 0 0 -1 0 13.78)" rx="6.734" ry="6.734"/><ellipse cx="85.989" cy="97.463" transform="matrix(1 0 0 -1 0 194.927)" rx="6.734" ry="6.734"/><ellipse cx="32.738" cy="97.463" transform="matrix(1 0 0 -1 0 194.927)" rx="6.734" ry="6.734"/></g><path d="M599.06 139.004v-51.8m-44.86 25.9l44.86-25.9m-44.86 25.9l44.86 25.9m-44.86-25.9h31.08m13.792 25.92l-15.547-26.913m15.535-24.9l-15.593 26.89m-29.345 51.53v-51.8m44.863 25.9l-44.86-25.9m44.86 25.9l-44.86 25.9m44.86-25.9h-31.08m-13.792 25.92l15.548-26.91m-15.53-24.91l15.6 26.89m29.34-.25v51.8m-44.86-25.9l44.86 25.9m-44.86-25.9l44.86-25.9m-44.86 25.9h31.08m13.79-25.92l-15.54 26.91m15.54 24.91l-15.6-26.88m16.32-26.37v-51.8m44.86 25.9l-44.86-25.9m44.86 25.9l-44.86 25.9m44.86-25.9h-31.08m-13.79 25.92l15.55-26.91m-15.56-24.92l15.6 26.89m29.34 51.54v-51.8m-44.86 25.9l44.86-25.9m-44.86 25.9l44.86 25.9m-44.86-25.9h31.08m13.79 25.92l-15.54-26.91m15.54-24.91l-15.6 26.88m-29.34-.25v51.8m44.86-25.9l-44.86 25.9m44.86-25.9l-44.86-25.9m44.86 25.9h-31.08m-13.79-25.92l15.54 26.91m-15.532 24.91l15.596-26.89" stroke="#979797" stroke-linecap="square"/><g stroke="#11FF1A" transform="rotate(90 285.61 365.976)"><ellipse cx="6.734" cy="52.163" transform="matrix(1 0 0 -1 0 104.327)" rx="6.734" ry="6.734"/><ellipse cx="59.364" cy="52.163" transform="matrix(1 0 0 -1 0 104.327)" rx="6.734" ry="6.734"/><ellipse cx="111.89" cy="52.163" transform="matrix(1 0 0 -1 0 104.327)" rx="6.734" ry="6.734"/><ellipse cx="85.989" cy="6.89" transform="matrix(1 0 0 -1 0 13.78)" rx="6.734" ry="6.734"/><circle cx="32.738" cy="6.89" r="6.734" transform="matrix(1 0 0 -1 0 13.78)"/><ellipse cx="85.989" cy="97.463" transform="matrix(1 0 0 -1 0 194.927)" rx="6.734" ry="6.734"/><ellipse cx="32.738" cy="97.463" transform="matrix(1 0 0 -1 0 194.927)" rx="6.734" ry="6.734"/></g><path d="M689.635 139.004v-51.8m-44.86 25.9l44.86-25.9m-44.86 25.9l44.86 25.9m-44.86-25.9h31.08m13.79 25.92L674.1 112.11m15.535-24.907l-15.6 26.883m-29.34 51.534v-51.8m44.86 25.9l-44.86-25.9m44.86 25.9l-44.86 25.9m44.86-25.9h-31.08m-13.79 25.92l15.546-26.91m-15.53-24.91l15.6 26.883m29.34-.248v51.8m-44.86-25.9l44.86 25.9m-44.86-25.9l44.86-25.9m-44.86 25.9h31.08m13.79-25.92l-15.55 26.913m15.54 24.908l-15.6-26.883m16.32-26.37v-51.8m44.86 25.9l-44.86-25.9m44.86 25.9l-44.86 25.9m44.86-25.9h-31.08m-13.79 25.92l15.55-26.912m-15.53-24.9l15.6 26.89m29.34 51.54v-51.8m-44.86 25.9l44.86-25.9m-44.86 25.9l44.86 25.9m-44.86-25.9h31.08m13.79 25.92l-15.54-26.91m15.54-24.91l-15.6 26.89m-29.34-.24v51.8m44.86-25.9l-44.86 25.9m44.86-25.9l-44.86-25.9m44.86 25.9h-31.08m-13.79-25.92l15.54 26.91m-15.532 24.91l15.59-26.89" stroke="#979797" stroke-linecap="square"/><g stroke="#11FF1A" transform="rotate(90 330.897 411.263)"><ellipse cx="6.734" cy="52.163" transform="matrix(1 0 0 -1 0 104.327)" rx="6.734" ry="6.734"/><ellipse cx="59.364" cy="52.163" transform="matrix(1 0 0 -1 0 104.327)" rx="6.734" ry="6.734"/><ellipse cx="111.89" cy="52.163" transform="matrix(1 0 0 -1 0 104.327)" rx="6.734" ry="6.734"/><ellipse cx="85.989" cy="6.89" transform="matrix(1 0 0 -1 0 13.78)" rx="6.734" ry="6.734"/><circle cx="32.738" cy="6.89" r="6.734" transform="matrix(1 0 0 -1 0 13.78)"/><ellipse cx="85.989" cy="97.463" transform="matrix(1 0 0 -1 0 194.927)" rx="6.734" ry="6.734"/><ellipse cx="32.738" cy="97.463" transform="matrix(1 0 0 -1 0 194.927)" rx="6.734" ry="6.734"/></g><path d="M417.887 139.004v-51.8m-44.86 25.9l44.86-25.9m-44.86 25.9l44.86 25.9m-44.86-25.9h31.08m13.79 25.92L402.35 112.11m15.538-24.906l-15.6 26.883m-29.34 51.533v-51.8m44.86 25.9l-44.86-25.9m44.86 25.9l-44.86 25.9m44.86-25.9h-31.08m-13.79 25.92l15.545-26.91m-15.536-24.91l15.598 26.883m29.34-.248v51.8m-44.86-25.9l44.86 25.9m-44.86-25.9l44.86-25.9m-44.86 25.9h31.08m13.79-25.92l-15.545 26.913m15.536 24.908l-15.6-26.883m16.314-26.37v-51.8m44.862 25.9l-44.86-25.9m44.86 25.9l-44.86 25.9m44.86-25.9h-31.08m-13.793 25.92l15.54-26.912m-15.53-24.9l15.6 26.89m29.34 51.54v-51.8m-44.86 25.9l44.86-25.9m-44.86 25.9l44.86 25.9m-44.86-25.9h31.08m13.79 25.92L448 138.74m15.536-24.91l-15.59 26.882m-29.34-.247v51.8m44.86-25.9l-44.86 25.9m44.86-25.9l-44.86-25.9m44.86 25.9h-31.08m-13.79-25.92l15.544 26.912m-15.536 24.91l15.597-26.884" stroke="#979797" stroke-linecap="square"/><g stroke="#11FF1A" transform="rotate(90 195.023 275.39)"><ellipse cx="6.734" cy="52.163" transform="matrix(1 0 0 -1 0 104.327)" rx="6.734" ry="6.734"/><ellipse cx="59.364" cy="52.163" transform="matrix(1 0 0 -1 0 104.327)" rx="6.734" ry="6.734"/><ellipse cx="111.89" cy="52.163" transform="matrix(1 0 0 -1 0 104.327)" rx="6.734" ry="6.734"/><ellipse cx="85.989" cy="6.89" transform="matrix(1 0 0 -1 0 13.78)" rx="6.734" ry="6.734"/><circle cx="32.738" cy="6.89" r="6.734" transform="matrix(1 0 0 -1 0 13.78)"/><ellipse cx="85.989" cy="97.463" transform="matrix(1 0 0 -1 0 194.927)" rx="6.734" ry="6.734"/><ellipse cx="32.738" cy="97.463" transform="matrix(1 0 0 -1 0 194.927)" rx="6.734" ry="6.734"/></g><path d="M508.46 139.004v-51.8m-44.86 25.9l44.86-25.9m-44.86 25.9l44.86 25.9m-44.86-25.9h31.08m13.792 25.92l-15.547-26.913m15.535-24.9l-15.593 26.89m-29.345 51.53v-51.8m44.863 25.9l-44.86-25.9m44.86 25.9l-44.86 25.9m44.86-25.9h-31.08m-13.792 25.92l15.548-26.91m-15.53-24.91l15.6 26.89m29.34-.25v51.8m-44.86-25.9l44.86 25.9m-44.86-25.9l44.86-25.9m-44.86 25.9h31.08m13.79-25.92l-15.54 26.91m15.54 24.91l-15.6-26.88m16.32-26.37v-51.8m44.86 25.9l-44.86-25.9m44.86 25.9l-44.86 25.9m44.86-25.9h-31.08m-13.79 25.92l15.55-26.91m-15.56-24.92l15.6 26.89m29.34 51.54v-51.8m-44.86 25.9l44.86-25.9m-44.86 25.9l44.86 25.9m-44.86-25.9h31.08m13.79 25.92l-15.54-26.91m15.54-24.91l-15.6 26.88m-29.34-.25v51.8m44.86-25.9l-44.86 25.9m44.86-25.9l-44.86-25.9m44.86 25.9h-31.08m-13.79-25.92l15.54 26.91m-15.532 24.91l15.596-26.89" stroke="#979797" stroke-linecap="square"/><g stroke="#11FF1A" transform="rotate(90 240.31 320.676)"><ellipse cx="6.734" cy="52.163" transform="matrix(1 0 0 -1 0 104.327)" rx="6.734" ry="6.734"/><ellipse cx="59.364" cy="52.163" transform="matrix(1 0 0 -1 0 104.327)" rx="6.734" ry="6.734"/><ellipse cx="111.89" cy="52.163" transform="matrix(1 0 0 -1 0 104.327)" rx="6.734" ry="6.734"/><ellipse cx="85.989" cy="6.89" transform="matrix(1 0 0 -1 0 13.78)" rx="6.734" ry="6.734"/><circle cx="32.738" cy="6.89" r="6.734" transform="matrix(1 0 0 -1 0 13.78)"/><ellipse cx="85.989" cy="97.463" transform="matrix(1 0 0 -1 0 194.927)" rx="6.734" ry="6.734"/><ellipse cx="32.738" cy="97.463" transform="matrix(1 0 0 -1 0 194.927)" rx="6.734" ry="6.734"/></g><path d="M734.935 59.853v-51.8m-44.86 25.9l44.86-25.9m-44.86 25.9l44.86 25.9m-44.86-25.9h31.08m13.79 25.92L719.4 32.96m15.535-24.908l-15.6 26.883m-29.34 51.535v-51.8m44.86 25.9l-44.86-25.9m44.86 25.9l-44.86 25.9m44.86-25.9h-31.08m-13.79 25.92l15.546-26.912M690 34.668l15.598 26.884m29.34-.248v51.8m-44.86-25.9l44.86 25.9m-44.86-25.9l44.86-25.9m-44.86 25.9h31.08m13.79-25.92L719.4 88.197m15.536 24.908l-15.6-26.883m16.314-26.37v-51.8m44.86 25.9l-44.86-25.9m44.86 25.9l-44.86 25.9m44.86-25.9h-31.08m-13.793 25.92l15.548-26.912M735.65 8.052l15.597 26.883M780.59 86.47v-51.8m-44.862 25.9l44.86-25.9m-44.86 25.9l44.86 25.9m-44.86-25.9h31.08M780.6 86.49l-15.547-26.912m15.536-24.91l-15.6 26.884m-29.34-.248v51.8m44.86-25.9l-44.86 25.9m44.86-25.9l-44.86-25.9m44.86 25.9h-31.08m-13.79-25.92l15.54 26.913m-15.54 24.908l15.59-26.883" stroke="#979797" stroke-linecap="square"/><g stroke="#11FF1A" transform="rotate(90 393.123 394.337)"><ellipse cx="6.734" cy="52.163" transform="matrix(1 0 0 -1 0 104.327)" rx="6.734" ry="6.734"/><circle cx="59.364" cy="52.163" r="6.734" transform="matrix(1 0 0 -1 0 104.327)"/><ellipse cx="111.89" cy="52.163" transform="matrix(1 0 0 -1 0 104.327)" rx="6.734" ry="6.734"/><ellipse cx="85.989" cy="6.89" transform="matrix(1 0 0 -1 0 13.78)" rx="6.734" ry="6.734"/><ellipse cx="32.738" cy="6.89" transform="matrix(1 0 0 -1 0 13.78)" rx="6.734" ry="6.734"/><ellipse cx="85.989" cy="97.463" transform="matrix(1 0 0 -1 0 194.927)" rx="6.734" ry="6.734"/><ellipse cx="32.738" cy="97.463" transform="matrix(1 0 0 -1 0 194.927)" rx="6.734" ry="6.734"/></g><path d="M644.36 59.853v-51.8m-44.86 25.9l44.86-25.9m-44.86 25.9l44.86 25.9m-44.86-25.9h31.08m13.792 25.92L628.825 32.96M644.36 8.052l-15.598 26.883M599.42 86.47v-51.8m44.862 25.9l-44.86-25.9m44.86 25.9l-44.86 25.9m44.86-25.9h-31.08M599.41 86.49l15.547-26.912m-15.536-24.91l15.6 26.884m29.34-.248v51.8m-44.86-25.9l44.86 25.9m-44.86-25.9l44.86-25.9m-44.86 25.9h31.08m13.79-25.92l-15.54 26.913m15.54 24.908l-15.6-26.883m16.32-26.37v-51.8m44.86 25.9l-44.86-25.9m44.86 25.9l-44.86 25.9m44.86-25.9h-31.08m-13.79 25.92l15.54-26.912M645.08 8.052l15.6 26.883m29.34 51.535v-51.8m-44.86 25.9l44.86-25.9m-44.86 25.9l44.86 25.9m-44.86-25.9h31.08m13.79 25.92l-15.55-26.912m15.535-24.91l-15.6 26.884m-29.34-.248v51.8m44.86-25.9l-44.86 25.9m44.86-25.9l-44.86-25.9m44.86 25.9h-31.08m-13.79-25.92l15.547 26.913m-15.536 24.908l15.598-26.883" stroke="#979797" stroke-linecap="square"/><g stroke="#11FF1A" transform="rotate(90 347.836 349.05)"><ellipse cx="6.734" cy="52.163" transform="matrix(1 0 0 -1 0 104.327)" rx="6.734" ry="6.734"/><circle cx="59.364" cy="52.163" r="6.734" transform="matrix(1 0 0 -1 0 104.327)"/><ellipse cx="111.89" cy="52.163" transform="matrix(1 0 0 -1 0 104.327)" rx="6.734" ry="6.734"/><ellipse cx="85.989" cy="6.89" transform="matrix(1 0 0 -1 0 13.78)" rx="6.734" ry="6.734"/><ellipse cx="32.738" cy="6.89" transform="matrix(1 0 0 -1 0 13.78)" rx="6.734" ry="6.734"/><ellipse cx="85.989" cy="97.463" transform="matrix(1 0 0 -1 0 194.927)" rx="6.734" ry="6.734"/><ellipse cx="32.738" cy="97.463" transform="matrix(1 0 0 -1 0 194.927)" rx="6.734" ry="6.734"/></g><path d="M463.24 59.853v-51.8m-44.862 25.9l44.86-25.9m-44.86 25.9l44.86 25.9m-44.86-25.9h31.08m13.792 25.92L447.703 32.96M463.24 8.052l-15.6 26.883M418.3 86.47v-51.8m44.86 25.9l-44.86-25.9m44.86 25.9l-44.86 25.9m44.86-25.9h-31.08m-13.792 25.92l15.547-26.912M418.3 34.668l15.597 26.884m29.34-.248v51.8m-44.86-25.9l44.86 25.9m-44.86-25.9l44.86-25.9m-44.86 25.9h31.08m13.79-25.92l-15.545 26.913m15.536 24.908l-15.6-26.883m16.315-26.37v-51.8m44.86 25.9l-44.86-25.9m44.86 25.9l-44.86 25.9m44.86-25.9h-31.08m-13.792 25.92l15.55-26.912M463.96 8.052l15.598 26.883M508.9 86.47v-51.8m-44.86 25.9l44.86-25.9m-44.86 25.9l44.86 25.9m-44.86-25.9h31.08m13.79 25.92l-15.55-26.912m15.536-24.91l-15.6 26.884m-29.34-.248v51.8m44.86-25.9l-44.86 25.9m44.86-25.9l-44.86-25.9m44.86 25.9h-31.08m-13.79-25.92l15.547 26.913m-15.535 24.908l15.598-26.883" stroke="#979797" stroke-linecap="square"/><g stroke="#11FF1A" transform="rotate(90 257.275 258.49)"><ellipse cx="6.734" cy="52.163" transform="matrix(1 0 0 -1 0 104.327)" rx="6.734" ry="6.734"/><circle cx="59.364" cy="52.163" r="6.734" transform="matrix(1 0 0 -1 0 104.327)"/><ellipse cx="111.89" cy="52.163" transform="matrix(1 0 0 -1 0 104.327)" rx="6.734" ry="6.734"/><ellipse cx="85.989" cy="6.89" transform="matrix(1 0 0 -1 0 13.78)" rx="6.734" ry="6.734"/><ellipse cx="32.738" cy="6.89" transform="matrix(1 0 0 -1 0 13.78)" rx="6.734" ry="6.734"/><ellipse cx="85.989" cy="97.463" transform="matrix(1 0 0 -1 0 194.927)" rx="6.734" ry="6.734"/><ellipse cx="32.738" cy="97.463" transform="matrix(1 0 0 -1 0 194.927)" rx="6.734" ry="6.734"/></g><path d="M553.735 59.853v-51.8m-44.86 25.9l44.86-25.9m-44.86 25.9l44.86 25.9m-44.86-25.9h31.08m13.79 25.92L538.2 32.96m15.535-24.908l-15.6 26.883m-29.34 51.535v-51.8m44.86 25.9l-44.86-25.9m44.86 25.9l-44.86 25.9m44.86-25.9h-31.08m-13.79 25.92l15.546-26.912m-15.53-24.91l15.6 26.884m29.34-.248v51.8m-44.86-25.9l44.86 25.9m-44.86-25.9l44.86-25.9m-44.86 25.9h31.08m13.79-25.92L538.2 88.197m15.536 24.908l-15.6-26.883m16.314-26.37v-51.8m44.86 25.9l-44.86-25.9m44.86 25.9l-44.86 25.9m44.86-25.9h-31.08m-13.793 25.92l15.548-26.912M554.45 8.052l15.597 26.883M599.39 86.47v-51.8m-44.862 25.9l44.86-25.9m-44.86 25.9l44.86 25.9m-44.86-25.9h31.08M599.4 86.49l-15.547-26.912m15.536-24.91l-15.6 26.884m-29.34-.248v51.8m44.86-25.9l-44.86 25.9m44.86-25.9l-44.86-25.9m44.86 25.9h-31.08m-13.79-25.92l15.54 26.913m-15.54 24.908l15.59-26.883" stroke="#979797" stroke-linecap="square"/><g stroke="#11FF1A" transform="rotate(90 302.522 303.737)"><ellipse cx="6.734" cy="52.163" transform="matrix(1 0 0 -1 0 104.327)" rx="6.734" ry="6.734"/><circle cx="59.364" cy="52.163" r="6.734" transform="matrix(1 0 0 -1 0 104.327)"/><ellipse cx="111.89" cy="52.163" transform="matrix(1 0 0 -1 0 104.327)" rx="6.734" ry="6.734"/><ellipse cx="85.989" cy="6.89" transform="matrix(1 0 0 -1 0 13.78)" rx="6.734" ry="6.734"/><ellipse cx="32.738" cy="6.89" transform="matrix(1 0 0 -1 0 13.78)" rx="6.734" ry="6.734"/><ellipse cx="85.989" cy="97.463" transform="matrix(1 0 0 -1 0 194.927)" rx="6.734" ry="6.734"/><ellipse cx="32.738" cy="97.463" transform="matrix(1 0 0 -1 0 194.927)" rx="6.734" ry="6.734"/></g><path d="M734.935 219.454v51.8m-44.86-25.9l44.86 25.9m-44.86-25.9l44.86-25.9m-44.86 25.9h31.08m13.79-25.92L719.4 246.347m15.535 24.908l-15.6-26.883m-29.34-51.535v51.8m44.86-25.9l-44.86 25.9m44.86-25.9l-44.86-25.9m44.86 25.9h-31.08m-13.79-25.92l15.546 26.912M690 244.63l15.598-26.883m29.34.25v-51.8m-44.86 25.9l44.86-25.9m-44.86 25.9l44.86 25.9m-44.86-25.9h31.08m13.79 25.92L719.4 191.11m15.536-24.908l-15.6 26.883m16.314 26.37v51.8m44.86-25.9l-44.86 25.9m44.86-25.9l-44.86-25.9m44.86 25.9h-31.08m-13.793-25.92l15.548 26.912m-15.536 24.908l15.59-26.883m29.34-51.535v51.8m-44.87-25.9l44.86 25.9m-44.86-25.9l44.86-25.9m-44.86 25.9h31.08m13.79-25.92l-15.54 26.913m15.53 24.906l-15.6-26.883m-29.34.25v-51.8m44.86 25.9l-44.86-25.9m44.86 25.9l-44.86 25.9m44.86-25.9h-31.08m-13.79 25.92l15.54-26.914m-15.53-24.91l15.6 26.88" stroke="#979797" stroke-linecap="square"/><g stroke="#11FF1A" transform="matrix(0 -1 -1 0 787.46 278.092)"><ellipse cx="6.734" cy="52.163" transform="matrix(1 0 0 -1 0 104.327)" rx="6.734" ry="6.734"/><circle cx="59.364" cy="52.163" r="6.734" transform="matrix(1 0 0 -1 0 104.327)"/><ellipse cx="111.89" cy="52.163" transform="matrix(1 0 0 -1 0 104.327)" rx="6.734" ry="6.734"/><ellipse cx="85.989" cy="6.89" transform="matrix(1 0 0 -1 0 13.78)" rx="6.734" ry="6.734"/><ellipse cx="32.738" cy="6.89" transform="matrix(1 0 0 -1 0 13.78)" rx="6.734" ry="6.734"/><ellipse cx="85.989" cy="97.463" transform="matrix(1 0 0 -1 0 194.927)" rx="6.734" ry="6.734"/><ellipse cx="32.738" cy="97.463" transform="matrix(1 0 0 -1 0 194.927)" rx="6.734" ry="6.734"/></g><path d="M644.36 219.454v51.8m-44.86-25.9l44.86 25.9m-44.86-25.9l44.86-25.9m-44.86 25.9h31.08m13.792-25.92l-15.547 26.913m15.536 24.908l-15.59-26.883m-29.34-51.535v51.8m44.87-25.9l-44.86 25.9m44.86-25.9l-44.86-25.9m44.86 25.9h-31.08m-13.79-25.92l15.55 26.912m-15.53 24.9l15.6-26.89m29.34.25v-51.8m-44.86 25.9l44.86-25.9m-44.86 25.9l44.86 25.9m-44.86-25.9h31.08m13.79 25.92l-15.55-26.92m15.54-24.91l-15.6 26.88m16.31 26.37v51.8m44.86-25.9l-44.86 25.9m44.86-25.9l-44.86-25.9m44.86 25.9h-31.08m-13.79-25.92l15.55 26.91m-15.53 24.91l15.6-26.89m29.34-51.54v51.8m-44.86-25.9l44.86 25.9m-44.86-25.9l44.86-25.9m-44.86 25.9h31.08m13.79-25.92l-15.55 26.92m15.54 24.907l-15.6-26.88m-29.34.25v-51.8m44.86 25.9l-44.86-25.9m44.86 25.9L645.08 218m44.86-25.9h-31.08m-13.79 25.92l15.547-26.912m-15.536-24.91l15.6 26.884" stroke="#979797" stroke-linecap="square"/><g stroke="#11FF1A" transform="matrix(0 -1 -1 0 696.886 278.092)"><ellipse cx="6.734" cy="52.163" transform="matrix(1 0 0 -1 0 104.327)" rx="6.734" ry="6.734"/><circle cx="59.364" cy="52.163" r="6.734" transform="matrix(1 0 0 -1 0 104.327)"/><ellipse cx="111.89" cy="52.163" transform="matrix(1 0 0 -1 0 104.327)" rx="6.734" ry="6.734"/><ellipse cx="85.989" cy="6.89" transform="matrix(1 0 0 -1 0 13.78)" rx="6.734" ry="6.734"/><ellipse cx="32.738" cy="6.89" transform="matrix(1 0 0 -1 0 13.78)" rx="6.734" ry="6.734"/><ellipse cx="85.989" cy="97.463" transform="matrix(1 0 0 -1 0 194.927)" rx="6.734" ry="6.734"/><ellipse cx="32.738" cy="97.463" transform="matrix(1 0 0 -1 0 194.927)" rx="6.734" ry="6.734"/></g><path d="M463.24 219.454v51.8m-44.862-25.9l44.86 25.9m-44.86-25.9l44.86-25.9m-44.86 25.9h31.08m13.792-25.92l-15.547 26.913m15.536 24.908l-15.6-26.883m-29.34-51.535v51.8m44.86-25.9l-44.86 25.9m44.86-25.9l-44.86-25.9m44.86 25.9h-31.08m-13.8-25.92l15.54 26.912m-15.53 24.9l15.59-26.89m29.34.25v-51.8m-44.86 25.9l44.86-25.9m-44.86 25.9l44.86 25.9m-44.86-25.9h31.08m13.79 25.92L447.7 191.1m15.535-24.91l-15.6 26.884m16.315 26.37v51.8m44.86-25.9l-44.86 25.9m44.86-25.9l-44.86-25.9m44.86 25.9h-31.08m-13.79-25.92l15.55 26.915m-15.53 24.91l15.6-26.88m29.34-51.54v51.8m-44.86-25.9l44.86 25.9m-44.86-25.9l44.86-25.9m-44.86 25.9h31.08m13.79-25.92l-15.545 26.91m15.535 24.91l-15.6-26.89m-29.34.25v-51.8m44.86 25.9l-44.86-25.9m44.86 25.9l-44.86 25.9m44.86-25.9h-31.08m-13.79 25.92l15.546-26.92m-15.535-24.91l15.6 26.88" stroke="#979797" stroke-linecap="square"/><g stroke="#11FF1A" transform="matrix(0 -1 -1 0 515.764 278.092)"><ellipse cx="6.734" cy="52.163" transform="matrix(1 0 0 -1 0 104.327)" rx="6.734" ry="6.734"/><circle cx="59.364" cy="52.163" r="6.734" transform="matrix(1 0 0 -1 0 104.327)"/><ellipse cx="111.89" cy="52.163" transform="matrix(1 0 0 -1 0 104.327)" rx="6.734" ry="6.734"/><ellipse cx="85.989" cy="6.89" transform="matrix(1 0 0 -1 0 13.78)" rx="6.734" ry="6.734"/><ellipse cx="32.738" cy="6.89" transform="matrix(1 0 0 -1 0 13.78)" rx="6.734" ry="6.734"/><ellipse cx="85.989" cy="97.463" transform="matrix(1 0 0 -1 0 194.927)" rx="6.734" ry="6.734"/><ellipse cx="32.738" cy="97.463" transform="matrix(1 0 0 -1 0 194.927)" rx="6.734" ry="6.734"/></g><path d="M553.735 219.454v51.8m-44.86-25.9l44.86 25.9m-44.86-25.9l44.86-25.9m-44.86 25.9h31.08m13.79-25.92L538.2 246.347m15.535 24.908l-15.6-26.883m-29.34-51.535v51.8m44.86-25.9l-44.86 25.9m44.86-25.9l-44.86-25.9m44.86 25.9h-31.08m-13.79-25.92l15.546 26.912m-15.53 24.9l15.6-26.89m29.34.25v-51.8m-44.86 25.9l44.86-25.9m-44.86 25.9l44.86 25.9m-44.86-25.9h31.08m13.79 25.92L538.2 191.1m15.54-24.91l-15.6 26.885m16.317 26.37v51.8m44.86-25.9l-44.86 25.9m44.86-25.9l-44.86-25.9m44.86 25.9h-31.08m-13.79-25.92l15.547 26.912m-15.54 24.906l15.594-26.883m29.344-51.533v51.8m-44.862-25.9l44.86 25.9m-44.86-25.9l44.86-25.9m-44.86 25.9h31.08m13.792-25.92l-15.548 26.92m15.536 24.905l-15.6-26.883m-29.34.25v-51.8m44.86 25.9l-44.86-25.9m44.86 25.9L554.45 218m44.86-25.9h-31.08m-13.79 25.92l15.546-26.916m-15.536-24.91l15.598 26.88" stroke="#979797" stroke-linecap="square"/><g stroke="#11FF1A" transform="matrix(0 -1 -1 0 606.26 278.092)"><ellipse cx="6.734" cy="52.163" transform="matrix(1 0 0 -1 0 104.327)" rx="6.734" ry="6.734"/><circle cx="59.364" cy="52.163" r="6.734" transform="matrix(1 0 0 -1 0 104.327)"/><ellipse cx="111.89" cy="52.163" transform="matrix(1 0 0 -1 0 104.327)" rx="6.734" ry="6.734"/><ellipse cx="85.989" cy="6.89" transform="matrix(1 0 0 -1 0 13.78)" rx="6.734" ry="6.734"/><ellipse cx="32.738" cy="6.89" transform="matrix(1 0 0 -1 0 13.78)" rx="6.734" ry="6.734"/><ellipse cx="85.989" cy="97.463" transform="matrix(1 0 0 -1 0 194.927)" rx="6.734" ry="6.734"/><ellipse cx="32.738" cy="97.463" transform="matrix(1 0 0 -1 0 194.927)" rx="6.734" ry="6.734"/></g><path d="M236.774 138.907v-51.8m-44.86 25.9l44.86-25.9m-44.86 25.9l44.86 25.9m-44.86-25.9h31.08m13.79 25.92l-15.546-26.913m15.536-24.908l-15.6 26.883m-29.34 51.53v-51.8m44.86 25.9l-44.86-25.9m44.86 25.9l-44.86 25.9m44.86-25.9h-31.08m-13.79 25.92l15.546-26.91m-15.536-24.91l15.598 26.88m29.34-.25v51.8m-44.86-25.9l44.86 25.9m-44.86-25.9l44.86-25.9m-44.86 25.9h31.08m13.79-25.92l-15.545 26.91m15.536 24.91l-15.6-26.89m16.315-26.37V87.1m44.86 25.9l-44.86-25.9m44.86 25.9l-44.86 25.9m44.86-25.9h-31.08m-13.792 25.92l15.548-26.912M237.488 87.1l15.598 26.883m29.342 51.532v-51.8m-44.86 25.9l44.86-25.9m-44.86 25.9l44.86 25.9m-44.86-25.9h31.08m13.79 25.92l-15.546-26.912m15.536-24.91l-15.6 26.885m-29.338-.246v51.8m44.86-25.9l-44.86 25.9m44.86-25.9l-44.86-25.9m44.86 25.9h-31.08m-13.792-25.92l15.547 26.913m-15.536 24.91l15.59-26.883" stroke="#979797" stroke-linecap="square"/><g stroke="#11FF1A" transform="rotate(90 104.515 184.784)"><ellipse cx="6.734" cy="52.163" transform="matrix(1 0 0 -1 0 104.327)" rx="6.734" ry="6.734"/><ellipse cx="59.364" cy="52.163" transform="matrix(1 0 0 -1 0 104.327)" rx="6.734" ry="6.734"/><ellipse cx="111.89" cy="52.163" transform="matrix(1 0 0 -1 0 104.327)" rx="6.734" ry="6.734"/><ellipse cx="85.989" cy="6.89" transform="matrix(1 0 0 -1 0 13.78)" rx="6.734" ry="6.734"/><circle cx="32.738" cy="6.89" r="6.734" transform="matrix(1 0 0 -1 0 13.78)"/><ellipse cx="85.989" cy="97.463" transform="matrix(1 0 0 -1 0 194.927)" rx="6.734" ry="6.734"/><ellipse cx="32.738" cy="97.463" transform="matrix(1 0 0 -1 0 194.927)" rx="6.734" ry="6.734"/></g><path d="M327.348 138.907v-51.8m-44.86 25.9l44.86-25.9m-44.86 25.9l44.86 25.9m-44.86-25.9h31.08m13.79 25.92l-15.546-26.913m15.536-24.908l-15.6 26.883m-29.34 51.53v-51.8m44.86 25.9l-44.86-25.9m44.86 25.9l-44.86 25.9m44.86-25.9h-31.08m-13.79 25.92l15.546-26.91m-15.536-24.91l15.598 26.88m29.34-.25v51.8m-44.86-25.9l44.86 25.9m-44.86-25.9l44.86-25.9m-44.86 25.9h31.08m13.79-25.92l-15.546 26.92m15.54 24.91l-15.6-26.89m16.312-26.37V87.1m44.86 25.9l-44.86-25.9m44.86 25.9l-44.86 25.9m44.86-25.9h-31.08m-13.792 25.92l15.548-26.912M328.062 87.1l15.598 26.883m29.342 51.53v-51.8m-44.86 25.9l44.86-25.9m-44.86 25.9l44.86 25.9m-44.86-25.9h31.08m13.79 25.92l-15.546-26.91m15.536-24.91l-15.6 26.88m-29.34-.25v51.8m44.86-25.9l-44.86 25.9m44.86-25.9l-44.86-25.9m44.86 25.9h-31.08m-13.79-25.92l15.548 26.92m-15.538 24.91l15.598-26.883" stroke="#979797" stroke-linecap="square"/><g stroke="#11FF1A" transform="rotate(90 149.802 230.07)"><ellipse cx="6.734" cy="52.163" transform="matrix(1 0 0 -1 0 104.327)" rx="6.734" ry="6.734"/><ellipse cx="59.364" cy="52.163" transform="matrix(1 0 0 -1 0 104.327)" rx="6.734" ry="6.734"/><ellipse cx="111.89" cy="52.163" transform="matrix(1 0 0 -1 0 104.327)" rx="6.734" ry="6.734"/><ellipse cx="85.989" cy="6.89" transform="matrix(1 0 0 -1 0 13.78)" rx="6.734" ry="6.734"/><circle cx="32.738" cy="6.89" r="6.734" transform="matrix(1 0 0 -1 0 13.78)"/><ellipse cx="85.989" cy="97.463" transform="matrix(1 0 0 -1 0 194.927)" rx="6.734" ry="6.734"/><ellipse cx="32.738" cy="97.463" transform="matrix(1 0 0 -1 0 194.927)" rx="6.734" ry="6.734"/></g><path d="M55.6 138.907v-51.8m-44.86 25.9l44.86-25.9m-44.86 25.9l44.86 25.9m-44.86-25.9h31.08m13.79 25.92l-15.546-26.913M55.6 87.106L40 113.99m-29.34 51.534v-51.8m44.86 25.9l-44.86-25.9m44.86 25.9l-44.86 25.9m44.86-25.9H24.44m-13.79 25.92l15.546-26.912m-15.536-24.91l15.598 26.884m29.342-.248v51.8m-44.862-25.9l44.86 25.9m-44.86-25.9l44.86-25.9m-44.86 25.9h31.08m13.792-25.92L40.063 167.25M55.6 192.16L40 165.275m16.314-26.368v-51.8m44.86 25.9l-44.86-25.9m44.86 25.9l-44.86 25.9m44.86-25.9h-31.08m-13.792 25.92l15.548-26.913M56.314 87.106l15.598 26.883m29.342 51.53v-51.8m-44.86 25.9l44.86-25.9m-44.86 25.9l44.86 25.9m-44.86-25.9h31.08m13.79 25.92L85.72 138.63m15.536-24.91l-15.6 26.884m-29.34-.248v51.8m44.86-25.9l-44.86 25.9m44.86-25.9l-44.86-25.9m44.86 25.9h-31.08m-13.79-25.92L71.85 167.25m-15.534 24.91l15.598-26.883" stroke="#979797" stroke-linecap="square"/><g stroke="#11FF1A" transform="rotate(90 13.928 94.197)"><ellipse cx="6.734" cy="52.163" transform="matrix(1 0 0 -1 0 104.327)" rx="6.734" ry="6.734"/><ellipse cx="59.364" cy="52.163" transform="matrix(1 0 0 -1 0 104.327)" rx="6.734" ry="6.734"/><ellipse cx="111.89" cy="52.163" transform="matrix(1 0 0 -1 0 104.327)" rx="6.734" ry="6.734"/><ellipse cx="85.989" cy="6.89" transform="matrix(1 0 0 -1 0 13.78)" rx="6.734" ry="6.734"/><circle cx="32.738" cy="6.89" r="6.734" transform="matrix(1 0 0 -1 0 13.78)"/><ellipse cx="85.989" cy="97.463" transform="matrix(1 0 0 -1 0 194.927)" rx="6.734" ry="6.734"/><ellipse cx="32.738" cy="97.463" transform="matrix(1 0 0 -1 0 194.927)" rx="6.734" ry="6.734"/></g><path d="M146.174 138.907v-51.8m-44.86 25.9l44.86-25.9m-44.86 25.9l44.86 25.9m-44.86-25.9h31.08m13.79 25.92l-15.546-26.913m15.536-24.908l-15.6 26.883m-29.34 51.53v-51.8m44.86 25.9l-44.86-25.9m44.86 25.9l-44.86 25.9m44.86-25.9h-31.08m-13.79 25.92l15.546-26.91m-15.536-24.91l15.598 26.88m29.34-.25v51.8m-44.86-25.9l44.86 25.9m-44.86-25.9l44.86-25.9m-44.86 25.9h31.08m13.79-25.92l-15.545 26.91m15.536 24.91l-15.6-26.89m16.315-26.37V87.1m44.86 25.9l-44.86-25.9m44.86 25.9l-44.86 25.9m44.86-25.9h-31.08m-13.792 25.92l15.548-26.912M146.888 87.1l15.598 26.883m29.342 51.532v-51.8m-44.86 25.9l44.86-25.9m-44.86 25.9l44.86 25.9m-44.86-25.9h31.08m13.79 25.92l-15.546-26.912m15.536-24.91l-15.6 26.885m-29.338-.246v51.8m44.86-25.9l-44.86 25.9m44.86-25.9l-44.86-25.9m44.86 25.9h-31.08m-13.792-25.92l15.547 26.913m-15.536 24.91l15.59-26.883" stroke="#979797" stroke-linecap="square"/><g stroke="#11FF1A" transform="rotate(90 59.215 139.484)"><ellipse cx="6.734" cy="52.163" transform="matrix(1 0 0 -1 0 104.327)" rx="6.734" ry="6.734"/><ellipse cx="59.364" cy="52.163" transform="matrix(1 0 0 -1 0 104.327)" rx="6.734" ry="6.734"/><ellipse cx="111.89" cy="52.163" transform="matrix(1 0 0 -1 0 104.327)" rx="6.734" ry="6.734"/><ellipse cx="85.989" cy="6.89" transform="matrix(1 0 0 -1 0 13.78)" rx="6.734" ry="6.734"/><circle cx="32.738" cy="6.89" r="6.734" transform="matrix(1 0 0 -1 0 13.78)"/><ellipse cx="85.989" cy="97.463" transform="matrix(1 0 0 -1 0 194.927)" rx="6.734" ry="6.734"/><ellipse cx="32.738" cy="97.463" transform="matrix(1 0 0 -1 0 194.927)" rx="6.734" ry="6.734"/></g><path d="M372.648 59.755v-51.8m-44.86 25.9l44.86-25.9m-44.86 25.9l44.86 25.9m-44.86-25.9h31.08m13.79 25.92l-15.546-26.913m15.536-24.908l-15.6 26.883m-29.34 51.535v-51.8m44.86 25.9l-44.86-25.9m44.86 25.9l-44.86 25.9m44.86-25.9h-31.08m-13.79 25.92l15.546-26.912m-15.536-24.91l15.598 26.884m29.34-.248v51.8m-44.86-25.9l44.86 25.9m-44.86-25.9l44.86-25.9m-44.86 25.9h31.08m13.79-25.92L357.113 88.1m15.537 24.907l-15.6-26.883m16.312-26.37v-51.8m44.86 25.9l-44.86-25.9m44.86 25.9l-44.86 25.9m44.86-25.9h-31.08m-13.792 25.92l15.548-26.912M373.362 7.954l15.598 26.883m29.342 51.535v-51.8m-44.86 25.9l44.86-25.9m-44.86 25.9l44.86 25.9m-44.86-25.9h31.08m13.79 25.92L402.767 59.48m15.536-24.91l-15.6 26.884m-29.34-.248v51.8m44.86-25.9l-44.86 25.9m44.86-25.9l-44.86-25.9m44.86 25.9h-31.08m-13.79-25.92L388.898 88.1m-15.537 24.907l15.6-26.883" stroke="#979797" stroke-linecap="square"/><g stroke="#11FF1A" transform="rotate(90 212.028 213.145)"><ellipse cx="6.734" cy="52.163" transform="matrix(1 0 0 -1 0 104.327)" rx="6.734" ry="6.734"/><circle cx="59.364" cy="52.163" r="6.734" transform="matrix(1 0 0 -1 0 104.327)"/><ellipse cx="111.89" cy="52.163" transform="matrix(1 0 0 -1 0 104.327)" rx="6.734" ry="6.734"/><ellipse cx="85.989" cy="6.89" transform="matrix(1 0 0 -1 0 13.78)" rx="6.734" ry="6.734"/><ellipse cx="32.738" cy="6.89" transform="matrix(1 0 0 -1 0 13.78)" rx="6.734" ry="6.734"/><ellipse cx="85.989" cy="97.463" transform="matrix(1 0 0 -1 0 194.927)" rx="6.734" ry="6.734"/><ellipse cx="32.738" cy="97.463" transform="matrix(1 0 0 -1 0 194.927)" rx="6.734" ry="6.734"/></g><path d="M282.074 59.755v-51.8m-44.86 25.9l44.86-25.9m-44.86 25.9l44.86 25.9m-44.86-25.9h31.08m13.79 25.92L266.54 32.862m15.536-24.908l-15.6 26.883m-29.342 51.535v-51.8m44.86 25.9l-44.86-25.9m44.86 25.9l-44.86 25.9m44.86-25.9h-31.08m-13.79 25.92L252.67 59.48m-15.536-24.91l15.598 26.884m29.34-.248v51.8m-44.86-25.9l44.86 25.9m-44.86-25.9l44.86-25.9m-44.86 25.9h31.08m13.79-25.92L266.54 88.1m15.536 24.907l-15.6-26.883m16.312-26.37v-51.8m44.86 25.9l-44.86-25.9m44.86 25.9l-44.86 25.9m44.86-25.9h-31.08m-13.792 25.92l15.548-26.912M282.788 7.954l15.598 26.883m29.342 51.535v-51.8m-44.86 25.9l44.86-25.9m-44.86 25.9l44.86 25.9m-44.86-25.9h31.08m13.79 25.92L312.193 59.48m15.536-24.91l-15.6 26.884m-29.34-.248v51.8m44.86-25.9l-44.86 25.9m44.86-25.9l-44.86-25.9m44.86 25.9h-31.08m-13.8-25.92L298.32 88.1m-15.536 24.907l15.594-26.883" stroke="#979797" stroke-linecap="square"/><g stroke="#11FF1A" transform="rotate(90 166.74 167.858)"><ellipse cx="6.734" cy="52.163" transform="matrix(1 0 0 -1 0 104.327)" rx="6.734" ry="6.734"/><circle cx="59.364" cy="52.163" r="6.734" transform="matrix(1 0 0 -1 0 104.327)"/><ellipse cx="111.89" cy="52.163" transform="matrix(1 0 0 -1 0 104.327)" rx="6.734" ry="6.734"/><ellipse cx="85.989" cy="6.89" transform="matrix(1 0 0 -1 0 13.78)" rx="6.734" ry="6.734"/><ellipse cx="32.738" cy="6.89" transform="matrix(1 0 0 -1 0 13.78)" rx="6.734" ry="6.734"/><ellipse cx="85.989" cy="97.463" transform="matrix(1 0 0 -1 0 194.927)" rx="6.734" ry="6.734"/><ellipse cx="32.738" cy="97.463" transform="matrix(1 0 0 -1 0 194.927)" rx="6.734" ry="6.734"/></g><path d="M100.952 59.755v-51.8m-44.86 25.9l44.86-25.9m-44.86 25.9l44.86 25.9m-44.86-25.9h31.08m13.79 25.92L85.417 32.862m15.536-24.908l-15.6 26.883m-29.34 51.535v-51.8m44.86 25.9l-44.86-25.9m44.86 25.9l-44.86 25.9m44.86-25.9h-31.08m-13.79 25.92L71.546 59.48M56.012 34.57L71.61 61.455m29.34-.25v51.8m-44.86-25.9l44.86 25.9m-44.86-25.9l44.86-25.9m-44.86 25.9h31.08m13.792-25.92L85.415 88.1m15.536 24.907L85.36 86.124m16.312-26.37v-51.8m44.86 25.9l-44.86-25.9m44.86 25.9l-44.86 25.9m44.86-25.9h-31.08m-13.793 25.92l15.54-26.912M101.66 7.954l15.6 26.883m29.34 51.535v-51.8m-44.86 25.9l44.86-25.9m-44.86 25.9l44.86 25.9m-44.86-25.9h31.08m13.79 25.92L131.07 59.48m15.536-24.91l-15.6 26.884m-29.34-.248v51.8m44.86-25.9l-44.86 25.9m44.86-25.9l-44.86-25.9m44.86 25.9h-31.08m-13.79-25.92L117.203 88.1m-15.536 24.907l15.598-26.883" stroke="#979797" stroke-linecap="square"/><g stroke="#11FF1A" transform="rotate(90 76.18 77.297)"><ellipse cx="6.734" cy="52.163" transform="matrix(1 0 0 -1 0 104.327)" rx="6.734" ry="6.734"/><circle cx="59.364" cy="52.163" r="6.734" transform="matrix(1 0 0 -1 0 104.327)"/><ellipse cx="111.89" cy="52.163" transform="matrix(1 0 0 -1 0 104.327)" rx="6.734" ry="6.734"/><ellipse cx="85.989" cy="6.89" transform="matrix(1 0 0 -1 0 13.78)" rx="6.734" ry="6.734"/><ellipse cx="32.738" cy="6.89" transform="matrix(1 0 0 -1 0 13.78)" rx="6.734" ry="6.734"/><ellipse cx="85.989" cy="97.463" transform="matrix(1 0 0 -1 0 194.927)" rx="6.734" ry="6.734"/><ellipse cx="32.738" cy="97.463" transform="matrix(1 0 0 -1 0 194.927)" rx="6.734" ry="6.734"/></g><path d="M191.448 59.755v-51.8m-44.86 25.9l44.86-25.9m-44.86 25.9l44.86 25.9m-44.86-25.9h31.08m13.79 25.92l-15.546-26.913m15.536-24.908l-15.6 26.883m-29.34 51.535v-51.8m44.86 25.9l-44.86-25.9m44.86 25.9l-44.86 25.9m44.86-25.9h-31.08m-13.79 25.92l15.546-26.912m-15.536-24.91l15.598 26.884m29.34-.248v51.8m-44.86-25.9l44.86 25.9m-44.86-25.9l44.86-25.9m-44.86 25.9h31.08m13.79-25.92L175.913 88.1m15.537 24.907l-15.6-26.883m16.312-26.37v-51.8m44.86 25.9l-44.86-25.9m44.86 25.9l-44.86 25.9m44.86-25.9h-31.08m-13.792 25.92l15.548-26.912M192.162 7.954l15.598 26.883m29.342 51.535v-51.8m-44.86 25.9l44.86-25.9m-44.86 25.9l44.86 25.9m-44.86-25.9h31.08m13.79 25.92L221.567 59.48m15.536-24.91l-15.6 26.884m-29.34-.248v51.8m44.86-25.9l-44.86 25.9m44.86-25.9l-44.86-25.9m44.86 25.9h-31.08m-13.79-25.92L207.698 88.1m-15.537 24.907l15.6-26.883" stroke="#979797" stroke-linecap="square"/><g stroke="#11FF1A" transform="rotate(90 121.428 122.545)"><ellipse cx="6.734" cy="52.163" transform="matrix(1 0 0 -1 0 104.327)" rx="6.734" ry="6.734"/><circle cx="59.364" cy="52.163" r="6.734" transform="matrix(1 0 0 -1 0 104.327)"/><ellipse cx="111.89" cy="52.163" transform="matrix(1 0 0 -1 0 104.327)" rx="6.734" ry="6.734"/><ellipse cx="85.989" cy="6.89" transform="matrix(1 0 0 -1 0 13.78)" rx="6.734" ry="6.734"/><ellipse cx="32.738" cy="6.89" transform="matrix(1 0 0 -1 0 13.78)" rx="6.734" ry="6.734"/><ellipse cx="85.989" cy="97.463" transform="matrix(1 0 0 -1 0 194.927)" rx="6.734" ry="6.734"/><ellipse cx="32.738" cy="97.463" transform="matrix(1 0 0 -1 0 194.927)" rx="6.734" ry="6.734"/></g><path d="M372.648 219.356v51.8m-44.86-25.9l44.86 25.9m-44.86-25.9l44.86-25.9m-44.86 25.9h31.08m13.79-25.92l-15.546 26.913m15.536 24.9l-15.6-26.89m-29.34-51.54v51.8m44.86-25.9l-44.86 25.9m44.86-25.9l-44.86-25.9m44.86 25.9h-31.08m-13.79-25.92l15.546 26.91m-15.536 24.91l15.598-26.89m29.34.25v-51.8m-44.86 25.9l44.86-25.9m-44.86 25.9l44.86 25.9m-44.86-25.9h31.08m13.79 25.92L357.11 191m15.54-24.91l-15.6 26.885m16.312 26.37v51.8m44.86-25.9l-44.86 25.9m44.86-25.9l-44.86-25.9m44.86 25.9h-31.08m-13.792-25.92l15.548 26.915m-15.536 24.903l15.598-26.884m29.342-51.54v51.8m-44.86-25.9l44.86 25.9m-44.86-25.9l44.86-25.9m-44.86 25.9h31.08m13.79-25.92l-15.546 26.91m15.536 24.91l-15.6-26.89m-29.34.24v-51.8m44.86 25.9l-44.86-25.9m44.86 25.9l-44.86 25.9m44.86-25.9h-31.08m-13.79 25.92L388.9 191m-15.54-24.9l15.6 26.884" stroke="#979797" stroke-linecap="square"/><g stroke="#11FF1A" transform="matrix(0 -1 -1 0 425.173 277.994)"><ellipse cx="6.734" cy="52.163" transform="matrix(1 0 0 -1 0 104.327)" rx="6.734" ry="6.734"/><ellipse cx="59.364" cy="52.163" transform="matrix(1 0 0 -1 0 104.327)" rx="6.734" ry="6.734"/><ellipse cx="111.89" cy="52.163" transform="matrix(1 0 0 -1 0 104.327)" rx="6.734" ry="6.734"/><ellipse cx="85.989" cy="6.89" transform="matrix(1 0 0 -1 0 13.78)" rx="6.734" ry="6.734"/><circle cx="32.738" cy="6.89" r="6.734" transform="matrix(1 0 0 -1 0 13.78)"/><ellipse cx="85.989" cy="97.463" transform="matrix(1 0 0 -1 0 194.927)" rx="6.734" ry="6.734"/><ellipse cx="32.738" cy="97.463" transform="matrix(1 0 0 -1 0 194.927)" rx="6.734" ry="6.734"/></g><path d="M282.074 219.356v51.8m-44.86-25.9l44.86 25.9m-44.86-25.9l44.86-25.9m-44.86 25.9h31.08m13.79-25.92L266.54 246.25m15.536 24.907l-15.6-26.883m-29.342-51.534v51.8m44.86-25.9l-44.86 25.9m44.86-25.9l-44.86-25.9m44.86 25.9h-31.08m-13.79-25.92l15.546 26.91m-15.536 24.91l15.598-26.883m29.34.248v-51.8m-44.86 25.9l44.86-25.9m-44.86 25.9l44.86 25.9m-44.86-25.9h31.08m13.79 25.92l-15.545-26.913m15.536-24.908l-15.6 26.883m16.315 26.37v51.8m44.86-25.9l-44.86 25.9m44.86-25.9l-44.86-25.9m44.86 25.9h-31.08m-13.792-25.92l15.548 26.912m-15.536 24.9l15.598-26.89m29.342-51.54v51.8m-44.86-25.9l44.86 25.9m-44.86-25.9l44.86-25.9m-44.86 25.9h31.08m13.79-25.92l-15.546 26.91m15.536 24.91l-15.6-26.89m-29.338.25v-51.8m44.86 25.9l-44.86-25.9m44.86 25.9l-44.86 25.9m44.86-25.9h-31.08m-13.792 25.92l15.547-26.9m-15.535-24.9l15.594 26.88" stroke="#979797" stroke-linecap="square"/><g stroke="#11FF1A" transform="matrix(0 -1 -1 0 334.6 277.994)"><ellipse cx="6.734" cy="52.163" transform="matrix(1 0 0 -1 0 104.327)" rx="6.734" ry="6.734"/><ellipse cx="59.364" cy="52.163" transform="matrix(1 0 0 -1 0 104.327)" rx="6.734" ry="6.734"/><ellipse cx="111.89" cy="52.163" transform="matrix(1 0 0 -1 0 104.327)" rx="6.734" ry="6.734"/><ellipse cx="85.989" cy="6.89" transform="matrix(1 0 0 -1 0 13.78)" rx="6.734" ry="6.734"/><circle cx="32.738" cy="6.89" r="6.734" transform="matrix(1 0 0 -1 0 13.78)"/><ellipse cx="85.989" cy="97.463" transform="matrix(1 0 0 -1 0 194.927)" rx="6.734" ry="6.734"/><ellipse cx="32.738" cy="97.463" transform="matrix(1 0 0 -1 0 194.927)" rx="6.734" ry="6.734"/></g><path d="M100.952 219.356v51.8m-44.86-25.9l44.86 25.9m-44.86-25.9l44.86-25.9m-44.86 25.9h31.08m13.79-25.92L85.417 246.25m15.536 24.907l-15.6-26.883m-29.34-51.534v51.8m44.86-25.9l-44.86 25.9m44.86-25.9l-44.86-25.9m44.86 25.9h-31.08m-13.79-25.92l15.545 26.91m-15.536 24.91l15.598-26.883m29.34.248v-51.8m-44.86 25.9l44.86-25.9m-44.86 25.9l44.86 25.9m-44.86-25.9h31.08m13.792 25.92l-15.547-26.913m15.536-24.908l-15.59 26.883m16.32 26.37v51.8m44.86-25.9l-44.86 25.9m44.86-25.9l-44.86-25.9m44.86 25.9h-31.08m-13.79-25.92l15.55 26.912m-15.53 24.9l15.6-26.89m29.34-51.54v51.8m-44.86-25.9l44.86 25.9m-44.86-25.9l44.86-25.9m-44.86 25.9h31.08m13.79-25.92l-15.55 26.91m15.54 24.91l-15.6-26.89m-29.34.24v-51.8m44.86 25.9l-44.86-25.9m44.86 25.9l-44.86 25.9m44.86-25.9h-31.08m-13.79 25.92l15.54-26.91m-15.53-24.91l15.6 26.88" stroke="#979797" stroke-linecap="square"/><g stroke="#11FF1A" transform="matrix(0 -1 -1 0 153.477 277.994)"><ellipse cx="6.734" cy="52.163" transform="matrix(1 0 0 -1 0 104.327)" rx="6.734" ry="6.734"/><ellipse cx="59.364" cy="52.163" transform="matrix(1 0 0 -1 0 104.327)" rx="6.734" ry="6.734"/><ellipse cx="111.89" cy="52.163" transform="matrix(1 0 0 -1 0 104.327)" rx="6.734" ry="6.734"/><ellipse cx="85.989" cy="6.89" transform="matrix(1 0 0 -1 0 13.78)" rx="6.734" ry="6.734"/><circle cx="32.738" cy="6.89" r="6.734" transform="matrix(1 0 0 -1 0 13.78)"/><ellipse cx="85.989" cy="97.463" transform="matrix(1 0 0 -1 0 194.927)" rx="6.734" ry="6.734"/><ellipse cx="32.738" cy="97.463" transform="matrix(1 0 0 -1 0 194.927)" rx="6.734" ry="6.734"/></g><path d="M191.448 219.356v51.8m-44.86-25.9l44.86 25.9m-44.86-25.9l44.86-25.9m-44.86 25.9h31.08m13.79-25.92l-15.546 26.913m15.536 24.9l-15.6-26.89m-29.34-51.54v51.8m44.86-25.9l-44.86 25.9m44.86-25.9l-44.86-25.9m44.86 25.9h-31.08m-13.79-25.92l15.546 26.91m-15.536 24.91l15.598-26.89m29.34.25v-51.8m-44.86 25.9l44.86-25.9m-44.86 25.9l44.86 25.9m-44.86-25.9h31.08m13.79 25.92L175.91 191m15.54-24.91l-15.6 26.885m16.312 26.37v51.8m44.86-25.9l-44.86 25.9m44.86-25.9l-44.86-25.9m44.86 25.9h-31.08m-13.792-25.92l15.548 26.915m-15.536 24.903l15.598-26.884m29.342-51.54v51.8m-44.86-25.9l44.86 25.9m-44.86-25.9l44.86-25.9m-44.86 25.9h31.08m13.79-25.92l-15.546 26.91m15.536 24.91l-15.6-26.89m-29.34.24v-51.8m44.86 25.9l-44.86-25.9m44.86 25.9l-44.86 25.9m44.86-25.9h-31.08m-13.79 25.92L207.7 191m-15.54-24.9l15.6 26.884" stroke="#979797" stroke-linecap="square"/><g stroke="#11FF1A" transform="matrix(0 -1 -1 0 243.973 277.994)"><ellipse cx="6.734" cy="52.163" transform="matrix(1 0 0 -1 0 104.327)" rx="6.734" ry="6.734"/><ellipse cx="59.364" cy="52.163" transform="matrix(1 0 0 -1 0 104.327)" rx="6.734" ry="6.734"/><ellipse cx="111.89" cy="52.163" transform="matrix(1 0 0 -1 0 104.327)" rx="6.734" ry="6.734"/><ellipse cx="85.989" cy="6.89" transform="matrix(1 0 0 -1 0 13.78)" rx="6.734" ry="6.734"/><circle cx="32.738" cy="6.89" r="6.734" transform="matrix(1 0 0 -1 0 13.78)"/><ellipse cx="85.989" cy="97.463" transform="matrix(1 0 0 -1 0 194.927)" rx="6.734" ry="6.734"/><ellipse cx="32.738" cy="97.463" transform="matrix(1 0 0 -1 0 194.927)" rx="6.734" ry="6.734"/></g><path fill="url(#a)" d="M38.322 17.143h789.446v525.26H38.322z" transform="translate(-37.458 -13)"/></g></svg>