<svg xmlns="http://www.w3.org/2000/svg" width="312" height="137" viewBox="22 20 312 137"><path d="M334 145c0 6.627-5.373 12-12 12H34c-6.627 0-12-5.373-12-12V32c0-6.627 5.373-12 12-12h288c6.627 0 12 5.373 12 12v113z"/><g fill="#FFF"><path d="M68.663 96.064c2.696 0 5.168.975 7.086 2.586l2.61-3.111a15.021 15.021 0 0 0-9.696-3.538c-8.322 0-15.093 6.771-15.093 15.093s6.771 15.094 15.093 15.094c3.689 0 7.072-1.332 9.696-3.539l-2.61-3.11a10.979 10.979 0 0 1-7.086 2.585c-6.081 0-11.029-4.948-11.029-11.029 0-6.081 4.948-11.031 11.029-11.031zM152.215 92.873h-8.127c-1.122 0-2.032.91-2.032 2.031v24.381a2.03 2.03 0 0 0 2.032 2.031h8.127c7.842 0 14.222-6.379 14.222-14.223 0-7.842-6.38-14.22-14.222-14.22zm0 24.381h-6.096V96.938h6.096c5.602 0 10.159 4.557 10.159 10.158s-4.558 10.158-10.159 10.158zM177.438 94.904v24.381a2.03 2.03 0 0 0 2.032 2.031h16.932v-4.063h-14.899v-8.127h9.481v-4.063h-9.481v-8.127h14.899v-4.062H179.47a2.031 2.031 0 0 0-2.032 2.03zM238.941 94.904v24.381a2.03 2.03 0 0 0 2.031 2.031h16.932v-4.063h-14.899v-8.127h9.481v-4.063h-9.481v-8.127h14.899v-4.062h-16.932a2.031 2.031 0 0 0-2.031 2.03zM219.604 92.873H210.8c-1.122 0-2.032.91-2.032 2.031v26.414h4.063v-12.191h6.772c4.48 0 8.127-3.646 8.127-8.127s-3.644-8.127-8.126-8.127zm0 12.189h-6.771v-8.127h6.771a4.066 4.066 0 0 1 4.063 4.063 4.065 4.065 0 0 1-4.063 4.064zM289.67 92.873v20.801l-16.725-20.07a2.031 2.031 0 1 0-3.594 1.301v26.414h4.063v-20.801l16.726 20.069a2.028 2.028 0 0 0 2.252.608 2.03 2.03 0 0 0 1.342-1.91V92.873h-4.064zM130.514 100.168a2.531 2.531 0 0 0-.033-.156c-.008-.031-.02-.06-.029-.091-.015-.046-.029-.091-.047-.136-.014-.031-.027-.061-.042-.09-.021-.043-.041-.084-.063-.125l-.054-.086c-.024-.039-.051-.075-.078-.112l-.064-.08c-.029-.035-.061-.067-.092-.101l-.075-.073c-.033-.031-.069-.06-.105-.089-.027-.021-.055-.043-.084-.063-.01-.008-.02-.017-.031-.022l-19.81-13.208a1.86 1.86 0 0 0-2.065 0L88.029 98.941c-.011.008-.02.017-.03.023-.029.02-.057.042-.085.064a1.439 1.439 0 0 0-.179.16 2.301 2.301 0 0 0-.156.182 1.759 1.759 0 0 0-.079.113l-.053.086a1.789 1.789 0 0 0-.063.123l-.042.091c-.018.044-.033.09-.048.136-.01.031-.021.061-.028.092-.014.051-.023.102-.033.155l-.015.08a1.797 1.797 0 0 0-.017.244v13.207c0 .081.006.163.017.243l.015.08c.01.053.02.104.033.155.008.031.019.06.028.091.015.047.03.092.048.137.014.031.027.061.042.091a2.062 2.062 0 0 0 .116.21c.025.039.051.076.079.113.021.027.041.054.063.08.03.035.061.067.093.102a1.668 1.668 0 0 0 .179.16c.028.021.056.044.085.064.011.008.02.017.03.022l19.811 13.207a1.855 1.855 0 0 0 2.065 0l19.81-13.207c.012-.007.021-.017.031-.022l.084-.064a1.481 1.481 0 0 0 .18-.16c.031-.033.062-.066.092-.102a1.6 1.6 0 0 0 .064-.08c.027-.037.054-.074.078-.113.019-.028.036-.057.054-.086.022-.041.043-.082.063-.124.015-.03.028-.06.042-.091.018-.045.032-.09.047-.137.01-.031.021-.06.029-.091.014-.051.023-.103.033-.155l.015-.08c.01-.08.017-.162.017-.243V100.49c0-.083-.007-.163-.017-.244l-.013-.078zm-21.642 11.333l-6.587-4.405 6.587-4.406 6.588 4.406-6.588 4.405zm-1.862-12.047l-8.075 5.401-6.518-4.36 14.593-9.729v8.688zm-11.425 7.642l-4.66 3.116v-6.233l4.66 3.117zm3.35 2.24l8.075 5.4v8.688l-14.593-9.729 6.518-4.359zm11.799 5.4l8.075-5.4 6.519 4.359-14.594 9.729v-8.688zm11.426-7.64l4.66-3.117v6.232l-4.66-3.115zm-3.35-2.242l-8.075-5.4v-8.688l14.594 9.729-6.519 4.359z"/></g><g fill="#F1F2F2"><path d="M96.977 66.056h-.11l-7.039-10.323v15.623h-2.125V52.033h2.208l7.039 10.545 7.039-10.545h2.208v19.322h-2.181V55.704l-7.039 10.352zM131.652 71.355h-2.346l-2.264-5.106h-10.517l-2.291 5.106h-2.236l8.805-19.46h2.042l8.807 19.46zm-9.854-16.92l-4.417 9.854h8.806l-4.389-9.854zM144.162 71.355h-6.708V52.033h6.708c6.073 0 10.268 4.168 10.268 9.634 0 5.465-4.195 9.688-10.268 9.688zm0-17.307h-4.527v15.293h4.527c4.886 0 8.005-3.312 8.005-7.619 0-4.306-3.119-7.674-8.005-7.674zM175 54.021h-11.786v6.598h10.544v1.987h-10.544v6.763h11.924v1.987h-14.105V52.033H175v1.988zM205.674 54.048h-11.703v6.901h10.461v1.987h-10.461v8.419h-2.182V52.033h13.885v2.015zM220.448 71.687c-5.879 0-9.826-4.609-9.826-9.965 0-5.354 4.002-10.02 9.882-10.02 5.879 0 9.826 4.609 9.826 9.965 0 5.354-4.002 10.02-9.882 10.02zm0-17.97c-4.416 0-7.563 3.533-7.563 7.95 0 4.416 3.202 8.005 7.619 8.005 4.416 0 7.562-3.533 7.562-7.95 0-4.416-3.201-8.005-7.618-8.005zM250.237 71.355l-5.604-7.508h-5.521v7.508h-2.181V52.033h8.309c4.251 0 6.983 2.291 6.983 5.77 0 3.229-2.208 5.106-5.244 5.658l5.935 7.895h-2.677zm-5.161-17.307h-5.963v7.84h5.935c2.898 0 4.969-1.49 4.969-4.003 0-2.402-1.822-3.837-4.941-3.837z"/></g></svg>