<svg width="50" height="50" viewBox="0 0 50 50"><title>CodePen-logo</title><g fill="none" fill-rule="evenodd"><circle fill="#000" cx="25" cy="25" r="25"/><path d="M45.97 18.288a2.453 2.453 0 0 0-.031-.151c-.008-.03-.02-.058-.028-.088-.015-.045-.028-.089-.046-.132-.013-.03-.026-.06-.04-.087l-.061-.122-.053-.083c-.023-.038-.05-.073-.075-.108l-.062-.078c-.028-.034-.06-.065-.09-.098a2.502 2.502 0 0 0-.072-.07c-.032-.03-.067-.059-.102-.087-.026-.02-.053-.041-.081-.06-.01-.009-.02-.017-.03-.022L26.002 4.303a1.803 1.803 0 0 0-2 0L4.801 17.1c-.01.008-.019.016-.029.022-.028.02-.055.04-.082.062a1.394 1.394 0 0 0-.174.155 2.23 2.23 0 0 0-.15.177 1.704 1.704 0 0 0-.077.11l-.052.082c-.022.04-.042.08-.06.12l-.041.088a1.923 1.923 0 0 0-.047.132c-.01.03-.02.059-.027.089-.014.05-.022.099-.032.15l-.015.077A1.74 1.74 0 0 0 4 18.6v12.798c0 .078.006.158.016.235l.015.078c.01.051.02.1.032.15.008.03.018.058.027.088.015.046.03.09.047.133l.04.088a1.998 1.998 0 0 0 .113.203c.024.038.05.074.076.11l.061.077c.03.034.06.065.09.1a1.616 1.616 0 0 0 .174.154c.027.02.054.043.082.062.01.008.02.017.03.022l19.196 12.797a1.795 1.795 0 0 0 2.002 0l19.196-12.797c.011-.007.02-.017.03-.022.028-.02.055-.041.081-.062.035-.027.07-.055.102-.085a2.215 2.215 0 0 0 .224-.246 1.69 1.69 0 0 0 .075-.11c.019-.027.035-.055.053-.083l.06-.12.041-.088c.018-.044.031-.087.046-.133.01-.03.02-.058.028-.088.014-.05.022-.1.032-.15l.015-.078a1.91 1.91 0 0 0 .016-.235V18.6c0-.08-.007-.158-.016-.237-.003-.022-.01-.049-.013-.075zM25 29.27L18.617 25 25 20.731l6.383 4.27L25 29.27zm-1.805-11.674L15.37 22.83l-6.316-4.225 14.141-9.428v8.419zm-11.07 7.405l-4.516 3.02v-6.04L12.124 25zm3.245 2.17l7.825 5.233v8.42l-14.14-9.428 6.315-4.224zm11.434 5.233l7.825-5.232 6.317 4.224-14.142 9.427v-8.419zm11.072-7.403l4.515-3.02v6.039L37.876 25zM34.63 22.83l-7.825-5.233V9.177l14.142 9.428-6.317 4.224z" fill="#FFF"/></g></svg>
