<?xml version="1.0" encoding="UTF-8"?>
<svg width="400px" height="400px" viewBox="0 0 400 400" version="1.1" xmlns="http://www.w3.org/2000/svg" xmlns:xlink="http://www.w3.org/1999/xlink">
    <!-- Generator: Sketch 46 (44423) - http://www.bohemiancoding.com/sketch -->
    <title>Github_Logo_White</title>
    <desc>Created with Sketch.</desc>
    <defs></defs>
    <g id="Page-1" stroke="none" stroke-width="1" fill="none" fill-rule="evenodd">
        <g id="Github_Logo_White" fill-rule="nonzero" fill="#D45454">
            <g id="mark-github" transform="translate(74.000000, 75.000000)">
                <path d="M125,0 C55.9375,0 0,55.9375 0,125 C0,180.3125 35.78125,227.03125 85.46875,243.59375 C91.71875,244.6875 94.0625,240.9375 94.0625,237.65625 C94.0625,234.6875 93.90625,224.84375 93.90625,214.375 C62.5,220.15625 54.375,206.71875 51.875,199.6875 C50.46875,196.09375 44.375,185 39.0625,182.03125 C34.6875,179.6875 28.4375,173.90625 38.90625,173.75 C48.75,173.59375 55.78125,182.8125 58.125,186.5625 C69.375,205.46875 87.34375,200.15625 94.53125,196.875 C95.625,188.75 98.90625,183.28125 102.5,180.15625 C74.6875,177.03125 45.625,166.25 45.625,118.4375 C45.625,104.84375 50.46875,93.59375 58.4375,84.84375 C57.1875,81.71875 52.8125,68.90625 59.6875,51.71875 C59.6875,51.71875 70.15625,48.4375 94.0625,64.53125 C104.0625,61.71875 114.6875,60.3125 125.3125,60.3125 C135.9375,60.3125 146.5625,61.71875 156.5625,64.53125 C180.46875,48.28125 190.9375,51.71875 190.9375,51.71875 C197.8125,68.90625 193.4375,81.71875 192.1875,84.84375 C200.15625,93.59375 205,104.6875 205,118.4375 C205,166.40625 175.78125,177.03125 147.96875,180.15625 C152.5,184.0625 156.40625,191.5625 156.40625,203.28125 C156.40625,220 156.25,233.4375 156.25,237.65625 C156.25,240.9375 158.59375,244.84375 164.84375,243.59375 C214.21875,227.03125 250,180.15625 250,125 C250,55.9375 194.0625,0 125,0 L125,0 Z" id="Shape"></path>
            </g>
        </g>
    </g>
</svg>