<svg xmlns="http://www.w3.org/2000/svg" viewbox="0 0 680 770" xmlns:xlink="http://www.w3.org/1999/xlink"><defs><linearGradient id="i"><stop offset="0" stop-color="#e26400"/><stop offset="1" stop-color="#ffb900"/></linearGradient><linearGradient id="h"><stop offset="0" stop-color="#9b4400"/><stop offset="1" stop-color="#e56300"/></linearGradient><linearGradient id="g"><stop offset="0" stop-color="#f48200" stop-opacity="0"/><stop offset=".59" stop-color="#f48200" stop-opacity=".73"/><stop offset=".82" stop-color="#cc5f00"/><stop offset="1" stop-color="#a43d00"/></linearGradient><linearGradient id="f"><stop offset="0" stop-color="#a1abb2"/><stop offset=".08" stop-color="#eaeced"/><stop offset="1" stop-color="#c6ccd0"/></linearGradient><linearGradient id="e"><stop offset="0" stop-color="#7a8288"/><stop offset=".53" stop-color="#9fa3a7"/><stop offset="1" stop-color="#7d858b"/></linearGradient><linearGradient id="d"><stop offset="0" stop-color="#a1abb2"/><stop offset=".15" stop-color="#eaeced"/><stop offset="1" stop-color="#c6ccd0"/></linearGradient><linearGradient id="c"><stop offset="0" stop-color="#7a8288"/><stop offset=".08" stop-color="#9fa3a7"/><stop offset="1" stop-color="#7d858b"/></linearGradient><linearGradient id="b"><stop offset="0" stop-color="#ffb900"/><stop offset="1" stop-color="#ffd76b"/></linearGradient><linearGradient id="r" x1="236.65" x2="236.05" y1="158.48" y2="162.89" xlink:href="#a" gradientUnits="userSpaceOnUse" gradientTransform="translate(-181.875 -35.717)" spreadMethod="reflect"/><linearGradient id="a"><stop offset="0" stop-color="#f68000"/><stop offset="1" stop-color="#fd9800"/></linearGradient><filter id="s" color-interpolation-filters="sRGB"><feGaussianBlur stdDeviation="1.14"/></filter><linearGradient id="q" x1="-113.89" x2="412.23" y1="461.92" y2="463.26" xlink:href="#b" gradientUnits="userSpaceOnUse" gradientTransform="translate(175.364 255.41) scale(1.23516)"/><linearGradient id="p" x1="107.21" x2="151.35" y1="-.64" y2="12.7" xlink:href="#c" gradientUnits="userSpaceOnUse" gradientTransform="translate(174.752 255.36) scale(1.23516)"/><linearGradient id="o" x1="104.89" x2="164.76" y1="12.64" y2="27.39" xlink:href="#d" gradientUnits="userSpaceOnUse" gradientTransform="translate(175.364 255.41) scale(1.23516)"/><linearGradient id="n" x1="18.88" x2="334.03" y1="252.48" y2="268.42" xlink:href="#e" gradientUnits="userSpaceOnUse" gradientTransform="translate(175.364 255.41) scale(1.23516)"/><linearGradient id="m" x1="44.1" x2="278.43" y1="228.6" y2="290.7" xlink:href="#f" gradientUnits="userSpaceOnUse" gradientTransform="translate(175.364 255.41) scale(1.23516)"/><linearGradient id="l" x1="115.2" x2="261.62" y1="70.11" y2="55.36" xlink:href="#g" gradientUnits="userSpaceOnUse" gradientTransform="translate(175.364 255.41) scale(1.23516)"/><linearGradient id="k" x1="64.75" x2="93.52" y1="102.28" y2="108.99" xlink:href="#h" gradientUnits="userSpaceOnUse" gradientTransform="translate(175.364 255.41) scale(1.23516)"/><linearGradient id="j" x1="40.78" x2="44.38" y1="100.34" y2="125.32" xlink:href="#i" gradientUnits="userSpaceOnUse" gradientTransform="matrix(4.37655 0 0 4.4651 175.365 249.18)"/></defs><path fill="#cb5600" fill-rule="evenodd" d="M18.4 714.97s-10.8 11.65-13.66 21.1c-2 6.62-2.77 16.48.83 22.37 2.65 4.32 6.1 8.7 11.18 8.7 220.3.03 463.9.35 635.32.82 5.8.02 16.8-1 21.32-7.45 4.6-6.5 4.4-21.2 1.2-28.5-3.4-7.7-19.5-11.2-19.5-11.2L18.4 715z"/><path fill="url(#j)" fill-rule="evenodd" d="M152.2 563.3c-10.06 0-20.5 7.76-23.43 17.42L58.45 813.67c-2.92 9.66 2.82 17.45 12.9 17.45h648.53c7.67 0 12.06-5.9 9.84-13.27l-72.87-241.27c-2.22-7.36-10.17-13.27-17.84-13.27H152.2z" transform="translate(-52.625 -80.754)"/><path fill="url(#k)" fill-rule="evenodd" d="M392.52 83.38c-16.73-.17-26.57 1.07-36.44 8.5-4.5 3.37-8.06 11.4-10.2 17.2L174.22 675.83s4 25.6 28.3 48.9c16.37 15.68 47.42 27.3 66.93 31.54 50.07 10.85 90.22 13.44 135.62 12.75 46.64-.7 93.24-9.87 138.08-22.7 66.9-19.14 69.02-72.85 69.02-72.85L435.55 98.55c-.72-2.37-2.5-4.12-3.9-5.45-10.48-9.94-26.38-9.6-39.13-9.72z" transform="translate(-52.625 -80.754)"/><path fill="url(#l)" fill-rule="evenodd" d="M392.52 83.38c-16.73-.17-26.57 1.07-36.44 8.5-4.5 3.37-8.06 11.4-10.2 17.2L174.22 675.83s7.56 49.02 68.32 72.9c42.05 16.55 85.46 18.74 153 19.46 75.24.8 105.88-6.6 155.05-23.8 23.1-8.1 35.1-18.6 46.1-30.2 15.8-16.9 15.4-40.8 15.4-40.8L435.5 98.5c-1.2-2.18-2.5-4.13-3.9-5.46-10.5-9.95-26.4-9.6-39.13-9.73z" transform="translate(-52.625 -80.754)"/><path fill="url(#m)" fill-rule="evenodd" d="M236.9 468.94L197.63 598.5c47.6 40.15 117.47 65.5 195.35 65.5 78.23 0 148.35-25.57 195.97-66l-39.53-128.73c-36.38 29.03-92.78 47.67-156.1 47.67-63.5 0-120.05-18.8-156.43-47.98z" transform="translate(-52.625 -80.754)"/><path fill="url(#n)" d="M237.55 470.56l-2.32 7.64c-.03 1.68-.07 3.35-.08 5.02l-1.46.15-2.1 6.8.7-.12 2.5 2.4c0 2.17-.1 4.35-.1 6.52-1.5.15-2.9.36-4.3.46v.2l-1.4-1.33-.3 1 1.6 1.6v3.4l-3.3.5-.4 1.4 4.8-.7c1 1 2 1.9 3 2.8-.1 2.2-.1 4.38-.1 6.54-1.3.2-2.6.37-3.9.5l-5.2-4.8-.4 1.1 5.1 4.75c0 1.2-.1 2.5-.1 3.8l-5.1.7v-.1l-2.1-1.9-3.3 11v2.5h-.7l-2 6.8c.8.8 1.6 1.5 2.5 2.4-.1 2.2-.1 4.3-.2 6.5-1.5.1-3 .1-4.5.3v.9l-.8-.8-.3 1 1.1 1c0 .8-.1 1.6-.1 2.4l-2.1.3-.5 1.4 3.5-.5 3.3 3c-.1 2.2 0 4.4-.1 6.6-1.5.1-3 .3-4.4.4v.3l-4.1-4-.4 1.1 4.4 4.2c-.1.8-.1 1.6-.1 2.4l-6.6.8-2 6.7c.7-.1 1.4-.1 2.1-.2l6 5.8-.1 3.5-6 .8-3-2.9.1-4.6-3.4 11.4 1.9 1.7-.3 6.6c-1.5.1-2.9.3-4.3.4l-.2.7c3 2.6 6.1 5 9.4 7.4 0-1.4.1-2.8.2-4.2l-1-.9 6.2-.9v.2c1.3 1.4 2.7 2.7 4.2 4-.1 2.2-.1 4.3-.1 6.5l-2.9.3c2.6 1.8 5.2 3.6 7.9 5.3v-.9l5.6-1.1 3.8 3.3-.1 4.4c.4.2.8.5 1.2.7l.2-4.9 3.7-.6 5.4 4.7v4l-2.6.5 1.8 1 1.8-.4c1 .9 2.1 1.7 3.1 2.5v.5l1.3.6v-.9c1-.2 2.1-.3 3.1-.5l6 4.8v.9c3.1 1.4 6.3 2.8 9.5 4.1l.1-2.3 6.2-1.8 3.3 2.4c-.1 1.8-.1 3.6-.1 5.3.4.2.9.3 1.3.5 0-1.9 0-3.8.1-5.7l2.8-.6 6.3 4.7c-.1 1.1-.1 2.1-.1 3.1l-2.8.8 2 .7.8-.3v.1l1.1.8c1.9.6 3.9 1.3 5.9 1.9l2-.6 2.8 2 3.2.8-5.5-3.9c.1-1.3.1-2.6.1-4l-.4-.2 6.1-2 3.7 2.6-.1 6.4c-1.2.4-2.4.7-3.6 1.1 3.6 1 7.3 1.9 11 2.8l4.7-1.7c.9.6 1.9 1.2 2.8 1.8v1.6l1.3.3V654l3.6-1.3 5.6 3.6c0 .4 0 .8-.1 1.2 3.1.6 6.3 1.1 9.5 1.6 0-.5.1-.9.1-1.4l6.1-2.6c1.1.6 2.2 1.23 3.3 1.9v3.32c.5.1.9.1 1.4.2v-3.5c1-.4 2-.9 3.1-1.3l6.1 3.5c-.1.7-.1 1.5-.1 2.3 3.2.3 6.4.5 9.6.7v-3l5.9-2.9c1.2.6 2.3 1.3 3.5 1.8 0 1.5-.1 3-.1 4.5l1.3.1v-4l4.2-2.1v-.7l5.7 2.8-.5.2c-.1 1.4-.2 2.8-.2 4.2l-.6.3h3.8c2.2 0 4.4 0 6.6-.1v-.23l.6.3 2.5-.1-3-1.4c0-1 0-1.9.1-2.8l5.4-3c1.3.6 2.6 1.2 4 1.8v5.1l1.3-.1v-5c1.4-.7 2.7-1.5 4-2.3v-.4l5.3 2.4c-.1 1.6 0 3.2 0 4.8l.4.2c2.9-.2 5.9-.5 8.8-.8l.2-.1.1.1 2.5-.3-2.6-1.1v-2l6.5-4.1 2.9 1.2v5.3l1.3-.2v-5.3c1.4-.9 2.8-1.7 4.1-2.5v-.4l5.2 2v2.8L445 660l2.6-.45 1.35-.9v.67c.1 0 .1.05.1.06 3.77-.6 7.46-1.3 11.1-2l-1.5-.56v-3.7l-1-.3 6.1-4.18v1.03c1.36.52 2.8 1 4.2 1.5v4.5l1.2-.3-.06-4.5c1.4-1 2.8-1.88 4.3-2.8l5.2 1.6c-.1 1.15 0 2.3 0 3.4 3.2-.85 6.4-1.7 9.6-2.64v-2.3l5.6-4.4c1.3.4 2.6.7 3.9 1.06v2.7c.4-.1.8-.3 1.2-.4v-2.8l4-3.1c0-.6 0-1.2-.1-1.9l6.8 1.7-1.6 1.2v1.7c3.2-1.2 6.4-2.4 9.6-3.7v-.5c-.2-.1-.3-.1-.5-.1l5.5-4.7v.6l3.8.9 2.8-1.3 3-2.5V631l4 .8 1.9-.9-5.9-1.15c0-.68-.1-1.3-.1-1.96l-.9-.2 5.9-5.3c1.3.2 2.8.5 4.2.7 0 2.1 0 4.1.1 6.2.4-.2.8-.5 1.3-.7 0-2-.1-3.9-.1-5.9l4.1-3.6v-1l6.9 1.2c-.6.5-1.1 1-1.7 1.5v2.6c3.7-2.2 7.3-4.4 10.8-6.6l5.4-5.2 1.9.2c1.9-1.3 3.7-2.6 5.6-4l.3-.3v-.6l.8.1 1.5-1.1-2.4-.3V604l6.1-6.2 2.9.27v2.7l1.3-1.14c0-.7-.1-1.3-.1-2l1.1-1.06-2.6-8.64v.9l-1.5 1.5-7.6-.8v-3.27c-.2-.03-.3 0-.5-.04l5.6-5.7v.8l2.1.1-1.7-5.7-.5.46c-.1 1-.1 2-.1 2.95L574 586l-2.5-.3c-.04-2.27 0-4.53-.07-6.8 1.3-1.23 2.55-2.5 3.9-3.8l5.9.6-.4-1.4-5.3-.57c0-1.05-.1-2.1-.1-3.14l3.3-3.4-.3-1.1-3.52 3.7-3.6-.4c0-2.3-.1-4.6-.1-6.9 1.2-1.3 2.5-2.5 3.9-3.7l1.3.1-.3-1.3-.5-.1v-1.9l-.7-2.2h-.6l.4-.4-.3-1.1-1.3 1.3-1.8-.3c0-2.3-.1-4.6-.1-6.8l1.2-1.2-2.7-9c0 .5.1.9.1 1.4-1.2 1.1-2.3 2.2-3.5 3.4l-5.6-.6v-4.3h-.2l5.9-6 1.8.2-2.1-6.9-5.5-.5V520l3.4-3.6-.3-1-4.2 4.35c-1.1-.1-2.2-.1-3.2-.28v-6.85c1.4-1.33 2.8-2.7 4.1-4.04v-.02l1.3.1-.5-1.5-.9-.07c0-1-.1-2-.1-3l-.3-1.2-.5.5c-1.1-.1-2.3-.1-3.4-.2l-.1-6.8 1.5-1.6-3-9.7v2.7c-.9.8-1.8 1.6-2.7 2.5l-6.5-.5c0-1.5-.1-2.9-.1-4.4h-.1l5.2-5.2v.4c.9.1 1.8.1 2.7.2l-1.9-6-.1.1-5.9-.6v-1.8c-2.7 2-5.5 3.9-8.4 5.8l3 .3c0 2.3.1 4.6.1 6.9l-3.3 3.1-5.8-.8c0-1.2-.1-2.5 0-3.8h-.1l5.3-5.2-4.1 2.5-2.6 2.5-1.3-.2c-2.4 1.3-4.7 2.6-7.2 3.9h.5v3.7l-5.8 5.4c-1.1-.2-2.2-.3-3.3-.5V492l-1.2.6v4.2l-3.3 3-5.8-1.36v-1.7c-3 1.3-6.1 2.5-9.3 3.64l.1 1.1-5.9 4.8c-1.1-.3-2.3-.6-3.4-.92v-2l-1.1.4v2c-1 .8-2 1.52-3.1 2.27l-5.8-1.63c-3.3.9-6.6 1.8-10 2.6l-5.7 4.2c-1.1-.3-2.2-.7-3.2-1.1V511c-.4.1-.8.16-1.2.24v1.2l-4.2 2.9v.15l-5-1.8v-.8c-3.1.5-6.2.9-9.4 1.4v.8c1.3.6 2.7 1.1 4.1 1.6v6.6l-3.4 2.1-5.9-2.4.2-.1c0-1.6-.1-3.1 0-4.7l-.6-.3 5.7-3.8-2.4.3-4.6 3c-.7-.3-1.4-.5-2.1-.9V515l-1.2.1v1.5c-1.4.87-2.8 1.64-4.2 2.4v.1l-5.1-2.3v-.9c-3.1.2-6.2.35-9.4.47v.6l-5.8 3.36c-1.1-.5-2.3-1.05-3.3-1.6v-2.14H395v2.1l-4 2.1-5.2-2.6v-1.8c-3.2-.1-6.3-.2-9.5-.4v1.1l-6.3 3.1c-1-.5-1.9-1-2.8-1.6v-3.4l-1.2-.1c0 1.1-.1 2.2-.1 3.3l-3.8 1.7-5.56-3.2c0-.9 0-1.9.1-2.8-3.2-.4-6.3-.8-9.4-1.3-.1 1-.1 2-.1 3l-5.8 2.4c-1.1-.7-2.2-1.4-3.3-2v-4.9l-1.2-.3v4.9c-1.3.5-2.6 1-3.86 1.4L327 514c-.06-1.26 0-2.54.1-3.8l1.1-.4-2.2-.5-.08-.03c-2.1-.5-4.26-.96-6.3-1.48l-1.2.3-1.5-1.1c-.94-.2-1.87-.5-2.8-.8l3.47 2.5-.1 3.5-5.8 2-3.3-2.4V505l.8-.25c-1.4-.4-2.7-.8-4.1-1.23.6.46 1.3.93 1.9 1.42-.1 2.1-.1 4.2-.1 6.3l-3.5 1-6-4.4c0-.97 0-1.9.1-2.9l6.1-1.9-2.1-.7-4.6 1.45c-1.1-.8-2.3-1.7-3.3-2.6v-1.6l-1.3-.5v1.8c-1 .3-1.9.5-2.9.7l-6.5-5.1.1-1.2c-3.2-1.3-6.3-2.7-9.4-4.1v3.1l.4.3-6 1.4c-1.2-1-2.4-2-3.5-3 0-2.2 0-4.3.1-6.5-.6-.3-1.2-.6-1.8-1 .2.1.3.3.5.5v6.4l-3.1.5-6.4-5.5.1-2.3 6-1.3-1.7-.9-4.3.9v-.7c-1.3-1.2-2.5-2.3-3.8-3.4v-1l-1.3-.8v2c-1.2.1-2.4.3-3.5.5l-5.9-5.3c0-1.2.1-2.4.1-3.5-1-.5-1.9-1-2.9-1.5zm306 5.13l6.5.7c-.04.9-.06 1.8-.05 2.7l-6.36 6.3-2.78-.3c-.02-2.3-.04-4.6-.04-6.9l2.74-2.6zm-303.38.9l5.25 4.7c0 1.4 0 2.9-.08 4.4l.85.6-6.1 1.1c-1.3-1.3-2.6-2.5-3.8-3.7 0-2.3.1-4.6.1-6.9 1.2-.1 2.4-.2 3.7-.4zm7.3 10.9l2.12 1.8c-.1 2.2-.2 4.3-.2 6.5l-3 .4-6.3-5.7v-1.9l7.2-1.3zm6.48 1.5l5.83 5.1c-.07 1.6 0 3.1-.08 4.7l-5.1 1v-.2c-1.26-1.1-2.57-2.3-3.8-3.4 0-2.3.02-4.7.06-7l3.1-.5zm276.4.2l5.3.7c-.03 1.1-.02 2.1 0 3.2l-6.95 6.5-2.24-.3c0-2.2-.06-4.5-.08-6.8 1.3-1.1 2.63-2.3 3.98-3.5zm13.85 1.8l6 .7v4.9l-5 5v-.2l-4.1-.5V494c1.1-1 2.2-2.05 3.3-3.1zm-304 .7l5.1 4.6h-.1c0 1.6 0 3.2-.1 4.8l.3.2-5.8 1c-1.1-1.1-2.22-2.1-3.4-3.1l.1-6.9c1.4-.2 2.6-.3 4-.5v-.2zm281.2.7l3.7.6c0 2.3.1 4.6.1 6.9l-2.6 2.2-6.3-1.1c-.02-1.3-.05-2.5-.05-3.8l5.33-5zm14.5 1.8c1.3.1 2.6.3 3.9.4l.17 6.9-3.17 2.8-5.98-.9c0-1.2 0-2.4.05-3.6l-.74-.1L536 494zm-259.8 2c.9.7 1.8 1.3 2.68 2-.04 2.1-.1 4.2-.12 6.4l-3.65.7-5.8-4.8.2-2.8 6.9-1.8zm275.3.5l2.9.3c.1 2.3.1 4.6.2 7-.8.7-1.6 1.5-2.4 2.3l-6.64-.9-.1-2.7 6.1-6.1zm-268.3.9l5.9 4.7c-.03 0-.04 0-.07.1-.06 1.5-.06 2.9-.1 4.4l-5.14 1.3c-1.3-1-2.6-2-3.9-3.1 0-2.3.1-4.6.2-6.9l3-.6zm218.27 1.9l5.5 1.1c-.05 1.2-.06 2.5 0 3.7l-6.4 5.5c-1-.2-1.9-.5-2.84-.7v-6.8c1.26-1 2.5-2 3.8-3.1zm-240.35.1c1 .9 2.04 1.8 3.1 2.6l-.1 6.5-2.4.4-6.9-6c0-.8 0-1.5.03-2.3l6.3-1.3zm8.16 2.1l5.13 4.2v4.3l.4.3-6 1.5c-1.1-.9-2.3-1.9-3.4-2.9.1-2.3.1-4.5.1-6.8 1.3-.2 2.5-.5 3.8-.8zm223.37.5c1.2.3 2.5.5 3.8.7v6.9l-2.2 1.7-7-1.7c0-1.1-.02-2.2 0-3.2l5.4-4.6zm23 0l5.9.9c-.05 1.2-.06 2.2-.04 3.3l-6.3 5.8-2.8-.5c0-2.2 0-4.4-.1-6.6 1.1-1 2.3-2 3.5-3zm-268.63.2l2.66 2.3-.14 6.4-4.34.7v.4l-5.2-4.6c.1 0 .15-.1.23-.1 0-1.3.05-2.7.1-4l6.7-1.2zm7.56 1.7l5.85 5c-.16 0-.35.1-.5.1-.1 1.5-.06 3.1-.12 4.6l-5.1 1c-1.3-1.1-2.5-2.2-3.8-3.3.1-2.3.1-4.5.1-6.8 1.3-.2 2.5-.4 3.7-.7zm276.35.5l5.1.8c0 1.5.06 3 .06 4.6h.4l-5.9 5.6c-1.3-.2-2.5-.4-3.7-.7 0-2.3-.1-4.5-.1-6.8 1.4-1.2 2.7-2.3 4-3.5v-.1zm-23.2.3c1.1.3 2.2.5 3.3.7 0 2.2.06 4.4.1 6.6l-2.86 2.4-6.36-1.5c0-1.1 0-2.1.1-3.2h-.1l6-5.2zm37.2 1.8l5.9.7c-.02 0-.1.1-.2.1 0 1.4.1 2.8.16 4.2l-5.5 5.5c-1.3-.2-2.5-.3-3.7-.5 0-2.3-.1-4.6-.1-7l3.4-3.2zm-72.15.7l5.13 1.3c-.1 1.4 0 2.9 0 4.3l-6 4.8c-1-.3-2.1-.5-3.1-.8v-6.6l4.1-3.1zm-182.92.3c1.1.8 2.26 1.6 3.36 2.4l-.14 6.4-2.63.7-6.6-5.2c0-.9 0-1.9.04-2.8l6-1.7zm-51.1 0l6.4 5.8c.06 1 .1 2.1 0 3.1l.3.2-5.9 1-3.4-3.2.1-6.8 2.55-.3zm282.8.1v.3c1.35.2 2.64.5 3.97.7l.15 6.8-2.14 1.9-6.9-1.2c0-1.3-.1-2.6-.1-3.9l5.1-4.8zM298 509.6l5.2 3.9c-.02 1.38-.05 2.74-.05 4.13l-6.05 1.9c-1.02-.72-2.02-1.4-3-2.17l.06-6.68c1.3-.36 2.55-.7 3.84-1.1zm165.33.4c1.24.46 2.52.85 3.86 1.2v6.67c-1.3.94-2.6 1.83-3.8 2.67l-6-1.93.5-.3c0-1.4-.1-2.8 0-4.3l5.3-3.9zm74.2.7c.8.1 1.6.22 2.42.3.02 2.32.1 4.6.1 6.9-.8.77-1.67 1.54-2.48 2.3l-6.68-1V517l6.6-6.32zm-50.8.84l5.98 1.5-.4.35-.1 3.6-5.9 4.9c-1-.3-2.1-.5-3.2-.9v-6.7c1.3-1 2.5-2 3.8-3zm-211.06.27l2.7 2.2c0 2.2-.05 4.4-.1 6.5l-2.9.6-6.4-5.2c0-.7.03-1.5.08-2.3l6.64-1.7zm275.58 1.3c1.12.2 2.2.3 3.32.4l.15 7-1.9 1.8-7.18-.9c0-.9-.07-1.7-.08-2.6l5.66-5.6zm-268.3.3l5.95 4.7-.2.1c0 1.4-.05 2.7-.06 3.9l-5.77 1.7c-1.1-.9-2.13-1.8-3.23-2.6l.04-6.8c1.1-.2 2.2-.4 3.3-.7zm35.32.3c1.2.9 2.4 1.8 3.66 2.6-.05 2.2-.07 4.3-.08 6.5l-2.7.9-6.6-4.6c0-1 0-2.2.07-3.3l5.64-2zm160.33.3l3.16.9.07 6.5c-1.35 1.1-2.7 2.1-4.1 3.1v.3l-5.12-1.4c0-1.5 0-3 .1-4.6l6-4.6zm-36.28.7l6.17 2.2v2.7l-6.4 4.5c-1-.3-1.9-.6-2.8-.9v-6.6l2.9-1.8zm59.36.5l5.2 1.1c-.06 1.3 0 2.6 0 3.8l-6.84 5.9c-.8-.1-1.6-.3-2.36-.5-.04-2.2-.05-4.4-.1-6.6l4.1-3.3v-.2zm-174.95.1l5.6 3.9c-.05 1.2-.04 2.3-.08 3.5l-6.3 2.4-2.8-1.9c.03-2.2.08-4.4.1-6.6 1.17-.4 2.32-.7 3.48-1.1zm-66.16.3l3.2 2.9c-.05 2.2-.04 4.3-.08 6.4l-4.3.8-5.9-5 .7-.1V517l6.2-1.32zm8.4 1.7l5.1 4.2-.16 4.7-6.1 1.5c-1-.7-2-1.5-2.9-2.3l.1-6.7c1.4-.2 2.7-.4 4-.8v-.4zm78.24.5l3.9 2.3c0 2.2-.1 4.4-.1 6.5l-3 1.3-6.2-3.8c0-1.2 0-2.5.1-3.7l5.6-2.3zm66.3.4l6.1 2.7v1.9l-7.5 4.6c-.5-.2-1.1-.5-1.7-.7V520c1.1-.6 2.1-1.15 3.1-1.76zm102.7 0l5.9 1.1-.5.5c0 1.7 0 3.3.1 4.9l-5.1 4.7v-.2l-4.1-.7-.1-6.8 4-3.3zm-23.6.3c1.3.3 2.6.6 3.9.8 0 2.3 0 4.5.1 6.7l-3.5 2.9-5.8-1.5c.1 0 .1-.1.1-.1v-4.4l5.4-4.4zm-86.9.1c1.2.6 2.4 1.1 3.7 1.6 0 2.2-.1 4.4-.1 6.6-1.1.6-2.2 1.3-3.2 1.9l-6-2.7c0-1.4.1-2.7.1-4l5.6-3.3zm-159 .1l2.7 2.4-.2 6.5-4.2.8-5-4.6c0-1.2 0-2.5.1-3.8l6.7-1.2zm109.4.1l5.4 3.2v3l-6.8 3.2-2.2-1.3V520c1.2-.48 2.4-.98 3.6-1.44zm-51.7.1l3.3 2.4c0 2.2-.1 4.3-.1 6.4l-3.3 1-5.9-4.5c0-1.1 0-2.2.1-3.3l6.1-1.9zm71.8.3v.2c1.3.8 2.8 1.5 4.2 2.2v6.5l-3.1 1.4-6.2-3.3c0-1.5 0-2.9.1-4.4v-.1l5-2.5zm8.6.7l6 3v3.3l-6.1 3.3-3.2-1.4c0-2.2.1-4.4.1-6.6l3.2-1.6zm71.8 0l6.9 2.2c0 1-.1 2.1-.1 3.1l-5.7 4.2-3.4-1.2v-6.6l2.4-1.7zm-144.2.5l5.9 4.1h-.2v3.8l-5.9 2.1-3.2-2.4c0-2.2.1-4.5.1-6.7 1.1-.3 2.3-.6 3.4-1zm137.3.3c1.1.4 2.3.8 3.4 1.2v6.6l-3.8 2.6-5.4-1.9c0-1.3.1-2.7.1-4.1 0 0-.1-.1-.2-.1l6-4.2zm-196.9.3l7 6.2v2.8l-5.6 1.2-3.4-2.8.1-7c.7-.1 1.3-.3 1.9-.4zm278.6.1l5.4.9-.2.1v4.9l-5.9 5.6-3.3-.6v-6.8c1.4-1.1 2.8-2.3 4.1-3.5v-.7zm-23.8.4c1.3.4 2.5.7 3.8 1 .1 2.2.1 4.5.1 6.7-1.3 1.1-2.6 2.2-4 3.2l-5.1-1.2v-4.5c-.2 0-.4-.1-.6-.1l6-5.1zm-275.8.1l3.2 2.9c0 2.2-.1 4.3-.1 6.5l-3.7.5-5.8-5.3h.1c.1-1.1.1-2.2.1-3.4l6.3-1.1zM546 523l5.93.8c-.26.27-.5.5-.77.75-.03 1.47 0 2.8 0 4.2l-5.6 5.4c-1.3-.1-2.5-.3-3.7-.44-.02-2.2-.1-4.5-.1-6.8l4.16-3.8v-.1zm-256.7.57c1.24.94 2.55 1.9 3.8 2.8l-.13 6.5-2.03.6-7.2-5.6c0-.9 0-1.8.02-2.7l5.55-1.6zm44.04.2c1.1.8 2.3 1.53 3.5 2.2 0 2.13 0 4.3-.05 6.4-1 .43-2.1.8-3.1 1.13L327 529c-.03-1.1 0-2.2.1-3.25 0-.02 0-.07-.03-.08l5.86-2.24zm86.5.4v.3c1.3.7 2.7 1.26 4.1 1.8 0 2.2.04 4.33.04 6.5-1.33.8-2.67 1.6-4 2.3l-5.3-2.35c0-1.4.06-2.84.2-4.3-.4-.14-.8-.3-1.2-.5l6.1-3.76zm-180.7.06l5.8 5.33v3.37l-6.1 1.1c-1-.9-2-1.7-2.9-2.6 0-2.3 0-4.6.03-6.87 1-.1 2.1-.17 3.1-.3zm188.8.04l6.45 2.6v3.1l-5.9 4c-1.1-.4-2.2-.82-3.3-1.3V526c.9-.5 1.8-1.1 2.7-1.7zm43.93.3l6.1 1.7v3l-6.3 5c-1-.23-1.98-.5-2.9-.8l-.08-6.5c1-.7 2-1.5 3.1-2.3zm-130.8.2l5.92 3.8v3.2l-6.3 2.7c-.9-.56-1.8-1.15-2.7-1.7V526l3-1.2zm219.4.08l5.5.5-.3.3c0 1.4.02 2.9.06 4.3l-6.54 6.7-2.9-.26c0-2.3 0-4.5-.1-6.8 1.4-1.3 2.7-2.7 4.1-4.1v-.7zm-37.5.23c.9.17 1.82.33 2.74.47 0 2.33.1 4.66.2 7l-3.3 2.8-5.9-1.2.1-.03c-.1-1.1 0-2.2-.1-3.37l6.3-5.8zm-224.8.4l5 3.63c0 1.4 0 2.8-.06 4.2l-6.3 2c-.9-.6-1.8-1.3-2.7-2 .1-2.2.1-4.4.1-6.7 1.3-.3 2.6-.7 3.9-1.1zm165.62.6c1.2.4 2.5.8 3.7 1.13v6.6c-1.1.8-2.1 1.6-3.2 2.3l-6.1-2v-4l5.6-4.1zm-240 .1l6.4 5.9c-.1 1.15-.1 2.3-.1 3.47l-5.7.9c-1.2-1.04-2.3-2.1-3.4-3.14l.2-6.9c.8-.1 1.6-.1 2.4-.3zm138.1.03c1.2.7 2.5 1.5 3.8 2.2v6.4l-3.6 1.7-5.8-3.4c0-1.2 0-2.4.1-3.6-.2-.1-.3-.3-.6-.4l6-2.7zm36.8.6l6.5 3.1v2l-7 4.1-2.1-1v-7c.9-.4 1.8-.9 2.7-1.4zm-7 .1c1 .5 2 1 3.1 1.5v6.5c-1.2.7-2.4 1.2-3.6 1.8l-5.8-2.8c0-1.2 0-2.4.1-3.6l6.1-3.4zm-21.8.1l6.1 3.3c-.1 1.2 0 2.5 0 3.8l-5.6 2.7c-1.2-.6-2.4-1.2-3.5-1.9V528c1-.4 2-.8 3-1.3zm167.4.2l3 .3.1 6.8c-1.2 1.2-2.5 2.4-3.7 3.5l-5.5-.9c-.1-1.3 0-2.7 0-4.1l6-5.6zm-262.3.3l3.3 2.5v6.5l-4.5.9v.5l-5.1-4.2h.1c0-1.5 0-3 .1-4.6l6.1-1.6zm210.8 1.1l6.7 1.7c0 .8-.1 1.7-.1 2.5L486 538l-2.8-.8c0-2.2-.04-4.4-.1-6.6.9-.7 1.8-1.3 2.68-2zm-202.4.6l5.9 4.7-.8.3-.1 3.8-5.8 1.7-3.1-2.5c0-2.3 0-4.6.1-6.9 1.3-.2 2.5-.5 3.8-.8v-.1zm34.6.3c1.2 1 2.6 1.8 3.9 2.7l-.1 6.4-2.6.9-6.8-4.7c-.1-1.1-.1-2.2 0-3.3l5.4-1.9zm233.3.3c1.2.2 2.4.3 3.6.4l.1 7.1c-1 1-2.1 1.9-3.1 2.9l-6-.8c0-1.3-.1-2.7-.1-4.1l5.6-5.4zm-72.7.4c1.1.3 2.2.6 3.3.8 0 2.2.1 4.5.1 6.7-1.2 1-2.5 1.9-3.7 2.8l-5.6-1.6c0-1.3-.1-2.6 0-4.1l5.9-4.5zm-35.7.1l5.8 2.1v3.4l-6.2 4.4-2.9-1.1c-.1-2.2-.1-4.4-.1-6.6l3.4-2.1zm-115.7.7l5 3.4c0 1.2 0 2.4-.1 3.6l-6.8 2.5-2.2-1.5v-7l4-1.2v-.1zm107.2.3c1.2.6 2.5 1 3.8 1.5 0 2.2.1 4.4.1 6.6-1.1.7-2.2 1.4-3.3 2l-6-2.4v-4.1l5.4-3.6zM260 531l3.68 3.2c-.1 2.1-.1 4.3-.16 6.4l-3.78.6-5.76-5h.05c0-1.3.1-2.65.2-4l5.66-1.2zm241 1.1l6 1.4c0 1.2.06 2.34.06 3.5l.54.15-5.9 5.05-3.9-.9c-.06-2.2-.07-4.4-.07-6.6l3.17-2.6zm-154.22.65v.2c1.4.86 2.8 1.65 4.2 2.5 0 2.2-.07 4.34-.08 6.5l-2.6 1-6.6-4.13c0-1.3-.02-2.54 0-3.8l5.1-2.2zm58.3.07v.9c1.3.6 2.7 1.2 4 1.8.05 2.2.14 4.4.14 6.57l-2.9 1.6-6.45-3c0-1.4 0-2.8.1-4.2l-.7-.4 5.8-3.4zm8.6.66l6 2.6v3.2L413 543c-.95-.4-1.87-.83-2.8-1.23v-6.54c1.14-.64 2.2-1.3 3.27-1.97zm-146.2.22l6.3 5.1v2.8l-6.28 1.6-2.7-2.2.1-6.77 2.67-.5zm225.05.1v.3l4.1.95c0 2.22.04 4.45.1 6.7-1 .8-1.9 1.6-2.9 2.35l-6.3-1.6V538c-.07 0-.14 0-.2-.04l5.25-4.3zm-246.8.04l3.2 2.8c0 2.15-.03 4.26-.07 6.4-1.4.25-2.7.5-4.1.7l-5.23-4.7c.07-1.33.07-2.7.18-4l6.1-1.2zm110.4.1l5.25 3.08c0 1.35.04 2.7.05 4l-6.24 2.9c-1-.6-2-1.25-2.9-1.86v-6.6l3.8-1.43zm-52.07.2c1.1.8 2.3 1.6 3.4 2.4 0 2.15-.02 4.3-.1 6.5l-2.6.73-6.7-4.94c0-.9 0-1.85.04-2.8l6-1.9zm72.58.64c1.2.7 2.3 1.3 3.5 1.9 0 2.2 0 4.3-.04 6.5-.97.5-1.84 1-2.75 1.4l-6.5-3.5c0-1.2.03-2.3.06-3.5l5.7-2.8zm8.36 0l5.63 2.7v2.4l-7.5 4.1c-.57-.3-1.2-.5-1.77-.8v-6.5c1.23-.6 2.44-1.2 3.63-1.86zm72 0l6.36 2.2c0 1.1.1 2.28.1 3.4l-5.73 4.26c-1.2-.34-2.3-.74-3.4-1.1-.1-2.2-.2-4.47-.2-6.7.9-.6 1.9-1.25 2.8-1.9zm58.2.4l6.67 1.2c-.05 1.2-.06 2.5 0 3.7l-5.3 4.8c-1.37-.25-2.6-.5-3.9-.7l-.07-6.7c.86-.73 1.7-1.5 2.6-2.3zm-202.96.3l5.8 4.1c-.1.1-.3.1-.4.2V543l-6.55 2c-.9-.65-1.8-1.24-2.7-1.87v-6.8c1.2-.32 2.3-.7 3.6-1.07zm137.5.5c1.06.4 2.1.8 3.2 1.1l.1 6.6-3.6 2.5-5.68-1.92c0-1.3-.08-2.52 0-3.9l6-4.3zm-197 .4l6.5 5.6v3.2l-5.8 1.2c-1.1-.9-2.2-1.8-3.3-2.73l.2-6.82 2.4-.43zm-22.1.15c1.17 1.1 2.4 2.2 3.7 3.34-.1 2.2-.2 4.37-.2 6.53-1.1.13-2.1.3-3.2.42l-6.15-5.7c0-1.27 0-2.48.1-3.7l5.7-.95zm278.36.9l2.35.5c0 2.26.07 4.5.1 6.73l-3.5 2.9-5.9-1.5c0-.9.07-1.9.1-2.9l6.76-5.8zm21.7.47l5.85.92v3.63l-6.15 5.7-3.04-.6-.06-6.8 3.46-2.94zm-198.1.76c1.3.9 2.66 1.8 3.97 2.57-.06 2.2-.06 4.3-.07 6.46-1 .4-1.94.7-2.94 1.1l-6.4-4.3c0-1.1 0-2.1.1-3.2l-.5-.3 5.85-2.3zm-43.8.2c1.26 1 2.6 1.94 3.95 2.9l-.1 6.52c-1.3.3-2.6.62-3.83 1l-6-4.67.54-.1c0-1.3.1-2.7.2-4.2l5.37-1.5zm139.2.62l6.3 2.43v3.6l-5.6 3.8c-1.2-.4-2.4-.9-3.5-1.3-.04-2.2-.05-4.4-.05-6.6.95-.5 1.9-1.2 2.88-1.8zm44.4.2l5.7 1.6v2.9l-6.8 5.3c-.8-.2-1.6-.47-2.37-.7v-6.5c1.2-.9 2.33-1.8 3.54-2.7zm-233.6 0l5.7 5.16c0 1.15 0 2.3-.04 3.4l-6.4 1.2-2.7-2.43.2-6.9c1.05-.1 2.1-.2 3.2-.4zm102.6.1l5.85 3.64c-.1.06-.2.06-.35.12v4.1l-5.6 2.32c-1.2-.73-2.4-1.42-3.54-2.12.07-2.2.08-4.5.08-6.72 1.2-.43 2.37-.9 3.6-1.33zm79.15.3c1.1.5 2.27.94 3.4 1.4 0 2.2 0 4.4.05 6.6-1.12.65-2.24 1.24-3.36 1.9l-5.9-2.66c0-1.2-.03-2.4 0-3.64l5.9-3.64zm124.28.02l6.5.94c0 1.1 0 2.2-.02 3.26l-6 5.7c-1-.14-2.1-.3-3.2-.4 0-2.3 0-4.6-.1-6.9.9-.84 1.9-1.7 2.9-2.6zm-246.73.1l5.2 3.9-.3.1c-.06 1.3-.04 2.6-.1 3.85l-6.8 2.18-2.3-1.7c.06-2.2.07-4.5.08-6.7 1.37-.37 2.68-.7 4-1.1v-.5zm224.6.5c1.1.2 2.17.4 3.3.57.03 2.37.1 4.7.14 7-.9.8-1.8 1.57-2.75 2.3l-6.4-1.2c0-1.13 0-2.3-.1-3.4l5.8-5.2zm-131.96.5v.27c1.32.77 2.8 1.38 4.12 2.07v6.5c-1.1.6-2.2 1.15-3.4 1.7l-5.9-2.9v-3.7l-1.1-.54 6.26-3.4zm73.2.2c1.2.43 2.43.82 3.7 1.2 0 2.23.1 4.46.1 6.67-1 .75-2 1.46-3 2.14l-6.3-2.1v-3.9l5.5-3.9zm-239.9.2l5.9 5.5c0 1.3-.08 2.6-.1 3.87l-5.8.98-3.2-2.83c.05-2.4.06-4.7.13-7.1 1-.1 2-.3 3.06-.4zm175.33.03l5.9 2.77v3.6l-6 3.48c-1.05-.46-2.1-1-3.1-1.5v-6.73l3.2-1.64zm-36.84.1c1.07.6 2.2 1.16 3.27 1.8 0 2.12-.04 4.3-.06 6.43l-3 1.34-6.3-3.6v-3.06l6.1-2.9zm7.7.2l5.9 3.3v2.6l-6.9 3.44c-.75-.4-1.53-.8-2.25-1.2v-6.66l3.3-1.4zm190 .1l5.76.55c-.1 1.4-.1 2.75 0 4.1.1 0 .3 0 .4.04l-5.9 6c-1.3-.18-2.6-.28-3.9-.4 0-2.26-.1-4.5-.1-6.8 1.2-1.1 2.4-2.3 3.6-3.5zm-285.4.67l3.4 2.67-.14 6.4c-1.4.3-2.8.5-4.2.9l-5.3-4.3c0-1.38.1-2.76.2-4.1l6.1-1.58zm262.8.2c1 .17 2 .23 3.1.35 0 2.36.07 4.67.1 7l-3.15 2.9-6.1-1.07v-3.5l6.06-5.64zm-50.9.74l6.17 1.6c-.07 1.58-.1 3.1-.1 4.6l-5 4.1v-.2c-1.4-.34-2.8-.62-4.2-1.03-.05-2.2 0-4.4.02-6.7l3.1-2.3zm-169 .7v.22c1.4 1 2.8 1.9 4.2 2.77l-.1 6.52-1.95.6-7.3-5.1c0-1.07 0-2.1.08-3.18v-.1l5.14-1.9zm-36.1.6l6.8 5.33-.04 2.3-6.3 1.7c-1-.7-1.9-1.34-2.8-2.1 0-2.3.1-4.53.1-6.82l2.2-.5zm196.8.4c1.3.34 2.5.7 3.9 1.03.02 2.2 0 4.4 0 6.5-1.17.9-2.3 1.8-3.48 2.67l-5.74-1.68c0-1.3.1-2.6.1-3.9l-.5-.1 5.8-4.6zm-35.1 0l5.67 2c-.06 1.2-.1 2.4-.1 3.56l-6.3 4.4c-.95-.35-1.9-.7-2.8-1.08 0-2.2-.06-4.4-.06-6.57 1.2-.7 2.4-1.42 3.6-2.2zm108.07.16c1.32.2 2.65.4 3.95.5l.1 7.05c-.8.8-1.6 1.6-2.5 2.4l-6.6-.97c0-1.3-.1-2.6-.14-3.9l5.2-5zm-224.25.3l5.14 3.43c-.1 1.5-.2 3-.1 4.5l-6.1 2.36c-1.1-.7-2.1-1.4-3.2-2.2 0-2.2 0-4.4.1-6.6 1.3-.4 2.7-.8 4-1.3v-.3zm-67.54.6l3.9 3.2-.1 6.5c-1.2.25-2.3.5-3.4.7l-6-5.2c.1-1.26.1-2.6.2-3.95l5.6-1.2zm175.2.1c1.2.5 2.4 1 3.7 1.43v6.6l-2.6 1.6-6.6-2.6c0-1.1.1-2.2.2-3.34l5.6-3.7zm132.9.43c.8.1 1.6.2 2.4.24l.2 7c-.9 1-1.9 1.93-2.9 2.93l-6.2-.73v-2.7l6.7-6.75zm-65.7.5l5.5 1.3v4.16h.1l-6 4.9-3.3-.8v-6.7c1.3-1.1 2.6-2.1 3.8-3.1zm-87.4 1.2l5.4 2.3c0 1.36-.1 2.68-.1 4l-6.1 3.8c-1-.44-2-.9-3-1.3v-6.6c1.4-.76 2.7-1.45 3.9-2.2zm-67.1.05l3.6 2.2v6.5c-.8.3-1.6.63-2.4.94l-6.9-4.3c0-1 .1-1.96.1-2.94l5.6-2.4zm9 .26l5.1 3v3.08l-7.5 3.54-1.7-1c0-2.2.1-4.34.1-6.54 1.4-.5 2.7-1.1 4.1-1.6v-.4zm19.7.18v.9c1.3.8 2.7 1.5 4.1 2.2v6.45c-.8.38-1.5.75-2.3 1.1l-7-3.8.1-3.62-.7-.34 5.8-2.8zm-108.1.06l5.8 4.8-.1 2.73-6.8 1.8c-.7-.6-1.5-1.2-2.2-1.9l.1-6.7c1.1-.2 2.2-.4 3.2-.7zm35.5.2l3.9 2.7v6.33c-1.4.5-2.8.9-4.3 1.3v.3l-5.1-3.8c0-1.5 0-3 .1-4.6l-.4-.3 5.9-1.9zm102 0c1.3.6 2.7 1.1 4 1.7v6.52c-.9.46-1.8 1-2.7 1.5l-6.5-3.1c0-1.2.1-2.4.1-3.6l5.3-3.1zm-160 .1l3.3 2.83c0 2.2 0 4.4-.1 6.6l-3.5.6-5.9-5.2c.1-1.2.1-2.4.1-3.6l6.1-1.1zm140 .6l5.3 2.6c0 1.24-.1 2.5-.1 3.74l-6.4 3.6c-.9-.45-1.9-.9-2.8-1.4 0-2.1.1-4.3.1-6.5 1.3-.7 2.7-1.3 4-2zm108.5.05l3 .7c.1 2.3.1 4.57.1 6.85-.9.75-1.8 1.4-2.7 2.14l-6.4-1.7V555l6.2-5.1zm-36.5.2l6.3 2.1c-.1 1-.1 2-.1 3.05l-6.2 4.5c-1-.3-2-.6-3-.93v-6.6l3-2.17zm58.8.25l6 1.1v4.16l-5.5 4.98c-1.2-.24-2.5-.45-3.8-.7v-6.67l3.4-2.8zm-203.7.1l6.2 4.25-.9.28c-.1 1.4 0 2.7 0 4.1l-5.7 2-3.5-2.4c.1-2.2.1-4.5.1-6.7 1.4-.3 2.6-.6 3.9-1.1v-.3zm137.2 1.04c1.2.4 2.4.7 3.5 1 0 2.2 0 4.4.1 6.6-1 .7-2.1 1.4-3.1 2.06l-6.2-2.2.1-3.4 5.8-4.1zm-197 .3l6.4 5.35c0 1 0 2-.1 2.97l-6.3 1.4c-.9-.8-1.8-1.6-2.8-2.4.1-2.3.1-4.54.2-6.83l2.7-.4zm-22.4.25l3.8 3.4-.1 6.56c-1.5.2-3 .4-4.4.5v.3l-6-5.5 1-.14c.1-1.4 0-2.8.1-4.2l5.7-1zm278.5.97c1 .2 1.9.44 3 .6v6.7l-3.2 2.7-5.9-1.4v-3.3l6.3-5.3zm22.8.2l5.4.97c0 1.3-.1 2.5 0 3.7l-6.6 6.1c-.9-.1-1.8-.3-2.6-.5l-.1-6.7c1.4-1.1 2.7-2.3 4-3.5zm-243.2.5v.2c1.3 1.06 2.8 2.1 4.2 3.15l-.1 6.4-3.3.9-6-4.7.2-4.6 5.1-1.4zm140.3.7l6 2.3c0 .03-.1.1-.2.1-.1 1.27-.1 2.5-.1 3.75l-5.8 3.8c-1.1-.4-2.3-.8-3.3-1.3l-.1-6.6c1.2-.7 2.3-1.4 3.5-2.2zm-95.4.02c1.1.7 2.2 1.35 3.3 2 0 2.1-.1 4.2-.1 6.3l-2.5.9-6.7-4.46V557l6.1-2.4zm8.3.5l5.9 3.65-.6.2v2.6l-6.8 2.9c-.7-.4-1.5-.9-2.2-1.3.1-2.2.1-4.4.1-6.7 1.3-.5 2.5-1 3.8-1.4zm131.3 0l5.6 1.6c-.1 1.4-.1 2.8-.1 4.1l.5.1-5.9 4.6c-1.3-.36-2.5-.66-3.8-1.05V558l3.8-2.8zm-233.6.2l5.2 4.53c-.1 1.2-.1 2.3-.1 3.5l-6.8 1.3-2.2-2.1c.1-2.3.1-4.6.2-6.8 1.3-.2 2.7-.3 3.9-.6zm181.6.2l3.2 1.37v6.4c-1 .7-2.1 1.3-3.1 1.9l-6.1-2.63c0-1.1 0-2.2.1-3.3l6-3.7zm125 .06l5.9.9-.1.05c0 1.7 0 3.4.1 5l-5 4.78v-.06l-4.2-.6c0-2.3-.1-4.6-.1-6.9 1.2-1 2.3-2.1 3.5-3.1zm-184.2.6v.3c1.4.77 2.8 1.58 4.3 2.3v6.4l-2.8 1.3-6.5-3.7.1-2.94-1.2-.74 6.3-3zm-64.7.3l6.2 4.6c0 1-.1 2.1-.1 3.1l-6 1.95c-1.1-.7-2.1-1.4-3.1-2.2l.1-6.7 2.8-.75zm226.1.05c1.1.2 2.2.5 3.3.7.1 2.3.2 4.6.2 6.9-.8.78-1.8 1.5-2.6 2.2l-6.5-1.24c0-1.1-.1-2.22-.1-3.35l5.7-5.1zm-59.2.1v.2c1.4.45 2.7.9 4.1 1.3 0 2.3 0 4.5.1 6.75l-2.4 1.6-6.9-2.2v-3.9l5.1-3.7zm-64 .3l5.9 2.78-.2.17v3.8l-5.8 3.36c-1.2-.5-2.3-1.1-3.4-1.6v-6.6c1.2-.6 2.3-1.2 3.5-1.8zm-28.9.1l5.9 3.2-.5.3v3.6l-5.9 3-3.3-1.74c.1-2.2.1-4.37.1-6.6 1.3-.56 2.5-1.12 3.8-1.73zm20.8.3c1.2.6 2.3 1.1 3.4 1.6v6.5l-2.8 1.5-6.5-3.26c0-1 0-2 .1-3v-.1l6-3.2zm-169.1.3l7.2 6.6c0 .7 0 1.3-.1 2l-6.3 1.1-2.7-2.46.2-7c.6 0 1.1-.1 1.7-.2zm338.8.1l5.2.6v2.5l-7.8 7.9-1.3-.15-.2-6.74 4.2-3.92v-.07zm-287 .07c1.2 1 2.5 2 3.8 3 0 2.2 0 4.35-.1 6.5-1.4.27-2.6.56-3.9.84l-5.3-4.3c.1-1.3 0-2.66.1-4.03l-.5-.4 6.1-1.6zM538 558.9c1.1.2 2.3.4 3.55.5.1 2.3.16 4.7.2 7-1 .9-1.96 1.8-2.9 2.7L532 568c0-1.18-.06-2.3 0-3.5-.1 0-.25 0-.35-.06l5.9-5.5zm-50.3.4l6 1.6h-.1c-.1 1.4 0 2.8 0 4.2l-5.5 4.4c-1.3-.3-2.6-.7-3.9-1.1v-6.6l3.5-2.5zm-168.9 1c1.1.8 2.3 1.6 3.6 2.4 0 2.2-.1 4.4-.1 6.5l-3.9 1.3-5.7-4c.1 0 .13 0 .2-.1 0-1.3.07-2.6.1-4l5.7-2.1zm-36.3.1l6.4 5-.1 3.7-5.6 1.6-3.5-2.7c.1-2.3.1-4.6.16-6.9l2.64-.6zm161.9 0l5.3 1.9c-.05 1.2-.1 2.4-.1 3.6l-6.8 4.7-2.3-.9V563c1.3-.83 2.7-1.7 4-2.6v-.3zm-116.7.3l5.6 3.7-.4.2c-.1 1.1-.1 2.2-.17 3.2l-7.55 2.9c-.5-.3-1-.7-1.6-1.1.07-2.2.07-4.4.08-6.6 1.4-.4 2.8-.9 4.1-1.4v-.8zm153 .7c.8.3 1.54.5 2.33.7 0 2.3 0 4.5.05 6.7-.94.7-1.9 1.5-2.9 2.2l-6.9-2 .07-2.2 6.88-5.3zm-221.1.3v.1c1.33 1.2 2.8 2.4 4.23 3.6l-.1 6.4c-1.06.2-2 .4-3 .6l-6.5-5.5.1-4 5.2-1.1zm293.83.3l2.84.3c0 2.3.07 4.7.16 7-.8.8-1.6 1.5-2.4 2.2l-6.7-1-.07-2.6 6.2-5.9zm-118.1 0c1.2.5 2.5 1 3.8 1.5v6.7l-2.4 1.6-6.9-2.7c0-1.1.1-2.1.1-3.2l5.44-3.7zm131.6.5v.7c1.3.2 2.7.3 4.1.5l.2 7c-1 1-1.9 1.9-2.9 2.8l-6.5-.7c-.04-1.1-.05-2.3-.05-3.4l-1.6-.1 6.6-6.5zm-219.5.6v.8c1.3.8 2.7 1.7 4.1 2.5v6.5l-1.8.8-7.6-4.6v-3.3l-.5-.3 5.7-2.4zm155.5.2l5.36 1.3c-.1 1.5-.1 2.9 0 4.2l-6 5.1-3.2-.7c-.1-2.2-.1-4.4-.1-6.6 1.3-1 2.6-2.1 4-3.2zm-87.6.8l5.2 2.3c-.05 1.4-.04 2.7-.1 4.1l-6.3 3.9c-1-.4-1.9-.8-2.9-1.2v-6.5l4.1-2.4zm-58.4.1l5.3 3.1-.1.1-.13 4.2-6.37 3-2.7-1.6v-7c1.3-.5 2.6-1 4-1.5v-.6zm-111.7.5c1.2 1.2 2.6 2.2 3.8 3.4-.1 2.1-.1 4.3-.1 6.5l-4.5.7v.6l-5.33-4.7h.4c.1-1.6.1-3.2.2-4.8l-.44-.4 6-1.2zm23.2 0l5.66 4.6v3.8l-6.1 1.6c-1.1-.8-2.1-1.6-3.1-2.4 0-2.2.1-4.5.1-6.7 1.1-.2 2.3-.5 3.4-.8zm137.86.2l3.8 1.6v6.6l-2.2 1.1-7.3-3.3c0-.9.1-1.9.1-2.9l5.5-3.2zm-20.2.1l5.3 2.7c-.1 1.5-.1 3.1-.2 4.5l-6.2 3.4-3-1.5v-6.6c1.4-.7 2.8-1.4 4.1-2.1v-.4zm-81.4.3c1 .8 2 1.4 3.1 2.2l-.1 6.4-3.9 1.2-5.5-4c0-1.3.1-2.5.2-3.8l6.2-2zm72.2.2c1.3.7 2.6 1.5 4 2.1v6.5l-2.2 1-7.3-3.9.1-3 5.3-2.7zm81.9 0l6 2-.3.2c-.1 1.6 0 3.2 0 4.8L459 576v-.3c-1.4-.45-2.7-.9-4.05-1.37l-.04-6.6 3.6-2.5zm35.6.3l3.4.8v6.8c-.7.6-1.4 1.2-2.2 1.8l-6.9-1.8c-.1-.9-.1-1.8-.1-2.8l5.8-4.7zm22.8.5l5.9 1.2-.1.1c0 1.3.1 2.5.1 3.7l-6.1 5.3c-1.1-.1-2.2-.3-3.3-.5v-6.7c1.2-.9 2.3-1.9 3.4-2.9zm-205.7.5l6.6 4.6v1.9l-7 2.5-2.2-1.5.1-6.7 2.4-.7zm138.5.2c1.2.5 2.5.9 3.8 1.3v6.6c-1 .7-2 1.4-3 2l-6.4-2.3c0-1 0-2.1.1-3.2l-.6-.2 6-4.1zm-196.4.6l5.8 5h-.2v4.2l-5.5 1.3c-1.2-.95-2.3-1.9-3.5-2.9.1-2.3.1-4.64.1-7l3.3-.5zm-23.6.1c1.3 1.3 2.8 2.6 4.2 3.8 0 2.2-.1 4.4-.1 6.6-1.3.2-2.6.4-4 .55l-5.8-5.3c.1 0 .2-.06.4-.07 0-1.6 0-3.1.2-4.7l5.1-.9zm102.6 1.4v.3c1.4.9 2.8 1.8 4.3 2.7-.1 2.2-.1 4.34-.1 6.5l-4.2 1.46v.1l-5.2-3.4c0-1.45 0-2.9.1-4.43l-1.1-.75 6.1-2.4zm176.7 0l3.1.7v6.6l-2.7 2.3-6.6-1.6v-3l6.1-5.1zm23.1.3l5.3.9v4.7c.2 0 .3.1.4.1l-5.9 5.4c-1.2-.28-2.5-.5-3.7-.76-.1-2.3-.1-4.5-.1-6.8l4.1-3.4v-.2zm-103 .7l6 2.4c-.1.07-.2.1-.3.2v3.2l-6.4 4.2c-1-.4-2-.8-2.9-1.2V572c1.2-.7 2.4-1.47 3.6-2.27zm-213.7 0c1.2 1.2 2.5 2.47 3.8 3.67l-.2 6.5c-1.5.1-2.9.3-4.4.4l-5-4.8c0-1.5.1-3.1.2-4.6l-.4-.33 6-.7zm73.6.08l3.6 2.7c0 2.14 0 4.3-.1 6.5l-3.3.9-6.2-4.8c.1-1.2.1-2.4.1-3.6l5.8-1.7zm52.9 0l6.4 3.9c-.4.2-.8.3-1.2.5 0 1.2-.1 2.4-.1 3.6l-5.9 2.6c-1.1-.7-2.2-1.3-3.3-2 0-2.2 0-4.47.1-6.7 1.3-.46 2.7-.95 4-1.5v-.4zm131.6.2l5.2 1.6c-.1 1.6-.1 3.2 0 4.7l-6 4.4c-1.2-.3-2.3-.6-3.4-.9 0-2.2-.1-4.3-.1-6.5 1.4-1 2.7-2.03 4.1-3.03v-.3zm-52.5.8c1.1.5 2.2 1 3.3 1.4v6.5l-2.6 1.5-6.6-2.9v-2.9l5.9-3.7zm-183.4.3l6.6 5.9c0 .9-.1 1.9-.1 2.8l-6 1.2-2.9-2.6.1-6.9c.8-.1 1.6-.2 2.4-.36zm308.9.3l6 1-.3.3c-.1.8 0 1.6 0 2.3l-7.4 6.9c-.6 0-1.3-.1-1.9-.2v-7c1.1-1.1 2.3-2.24 3.6-3.3zm-249.3.2l5.8 4.2c-.1.8 0 1.6-.1 2.4l-7.4 2.4-1.8-1.2.1-6.7 3.3-.9zm103.1.3l6 2.8-.7.4v3.8l-5.9 3.4c-1.1-.5-2.2-1.1-3.3-1.6 0-2.3 0-4.5.1-6.8 1.2-.62 2.6-1.25 3.8-2zm-29.3.3l6 3.3-.7.3c0 1.3-.1 2.6-.1 3.9l-5.6 2.8c-1.2-.6-2.4-1.3-3.6-2V574c1.3-.63 2.7-1.24 4-1.85v-.04zm-8.6 0c1.1.6 2.2 1.2 3.3 1.9v6.4c-.8.35-1.5.7-2.3 1.1l-7.1-4.1c0-.8 0-1.6.1-2.4l-.1-.06 5.9-2.8zm160.3.1c1.3.3 2.6.5 3.9.7 0 2.3.1 4.6.2 7l-2.1 1.6-7.2-1.5V577l5-4.5zm-130.8.4c1 .5 2 1 3.1 1.5 0 2.2 0 4.3-.1 6.5l-2.7 1.3L386 579c0-.9 0-1.74.1-2.6l6.1-3.4zm73.3.1l2.9.9c0 2.2.1 4.5.1 6.7l-2.2 1.4-7-2.36v-2.2l6.2-4.6zm-242.6.5l6.8 6.2c0 1.1-.1 2.1-.1 3.2l-5.5 1-3.4-3.1c.1-2.4 0-4.8.1-7.13l2.1-.3zm339 .4l5.3.6v4.7l-6 5.9-3.3-.3c-.1-2.2-.1-4.5-.1-6.7l4.2-3.9v-.3zM275 574c1 .8 2.04 1.6 3.1 2.4-.06 2.1-.1 4.2-.1 6.3l-3.5.9-6.07-4.8c.04-1 .1-2.1.16-3.1l6.4-1.7zm213.2.4l5.83 1.53-.55.5c-.08 1.4-.06 2.8-.06 4.1l-5.6 4.5c-1.25-.3-2.5-.62-3.7-1.04l-.1-6.6 4.12-2.9zm-170.5.03c0 .3-.06.6-.07.8 1.36 1 2.8 1.9 4.2 2.8 0 2.2-.04 4.3-.1 6.5-1.06.36-2.13.77-3.2 1.1l-6.14-4.3c0-1.42 0-2.92.1-4.32l-.6-.5 5.8-2zm221.4.6l2.6.4v6.9l-2.4 2.2-6.8-1.2c0-.66-.03-1.33-.03-2l6.6-6.13zm-94.85.6l5.3 1.87v.1c-.1 1.6-.1 3.2-.1 4.7l.56.2-6 4.17-3.8-1.5c0-2.2 0-4.37-.1-6.57 1.3-.9 2.7-1.7 4-2.6v-.4zm-162 .17l6.07 4.8-.07 2.4-7 2c-.7-.5-1.36-1.1-2.04-1.7 0-2.2.1-4.5.1-6.8 1-.2 1.9-.5 2.9-.7zm270 .7v1.4c1.3.2 2.7.5 4.06.6 0 2.38.1 4.7.2 7l-1.8 1.6-7.4-1.2v-3.45c-.4-.04-.7-.1-1.1-.1l6.1-5.8zM480 577l2.8.73c0 2.2 0 4.4.05 6.6l-2.7 2.1-6.57-2c0-.84 0-1.7.05-2.6l6.36-4.9zm-45.3.1v.2c1.25.5 2.62 1.03 4.1 1.54v6.63l-1.9 1.14-7.4-2.9c-.06-1-.05-2.1 0-3.2l5.16-3.4zm-108.6.1l6.1 4.1c-.06 1-.1 2-.1 2.94l-6.24 2.4c-.93-.64-1.92-1.25-2.9-1.9.08-2.2.1-4.4.1-6.6 1-.35 2.06-.66 3.07-1zm-66.55.7l3.6 2.9-.1 6.5c-1.43.3-2.87.6-4.36.83v.1l-6-5 .9-.2c0-1.26 0-2.55.1-3.87l5.8-1.3zm243.3.3l5.4 1.36-.1.08c-.04 1.4-.1 2.8-.05 4.18l-7 5.3c-.92-.2-1.8-.43-2.7-.7-.04-2.2-.06-4.4-.08-6.6 1.36-1.06 2.77-2.14 4.06-3.3V578zm-87.84.5l5.4 2.4-.2.1v3.9l-6.8 4.1c-.8-.3-1.6-.6-2.4-1v-6.6c1.4-.8 2.7-1.43 4.1-2.23v-.7zm-58.5.2l5.8 3.3-.7.3v4.4l-6.3 2.9-2.9-1.7c.1-2.14.1-4.34.1-6.6 1.4-.5 2.7-1.1 4-1.6v-1zm-9.2.3c1.2.7 2.5 1.5 3.8 2.3 0 2.2 0 4.4-.1 6.54l-3.5 1.35-5.9-3.5c.1 0 .2-.1.2-.1 0-1.4-.1-2.8 0-4.2l5.5-2.4zm220.8.2c1 .1 2 .3 3 .4 0 2.37.1 4.7.1 7.06l-2.3 2.1-6.9-.9v-2.6l6.1-6.05zm-265.2.3v.16c1.4 1 2.9 2 4.3 3l-.1 6.45c-1.2.4-2.4.8-3.7 1.1l-5.7-4.1c0-1.2.1-2.6.2-3.8l-1-.7 6.1-1.9zm-34.5.43l5.2 4.03v2.9l-7.5 2-1.6-1.3.2-6.73c1.4-.27 2.7-.57 3.9-.94zm137.5 0c1.2.5 2.5 1.1 3.9 1.7 0 2.2.1 4.4 0 6.53-.6.34-1.3.65-1.9 1l-7.4-3.4v-2.66l5.5-3.2zm-20.1 0l5.4 2.7-.2.1c-.1 1.43-.1 2.9 0 4.3l-5.4 3-3.8-1.96v-5.5c1.3-.7 2.7-1.46 4-2.2v-.5zm-9 .75c1.2.65 2.5 1.3 3.8 1.96v5.7l-2.2 1.2-7.2-3.82c0-.7 0-1.4.1-2.1l5.6-2.85zm82 0l5.9 1.96-.4.37v4.3l-5.4 3.9c-1.3-.4-2.5-.9-3.7-1.3v-6.7c1.3-.8 2.5-1.6 3.8-2.5zM245 581l3.2 2.7-.1 6.4-4.4.9v.03l-5.1-4.4c0-1.43.07-2.9.1-4.3l6.3-1.26zm248.7.46c1.2.3 2.4.55 3.68.83.04 2.2.05 4.5.1 6.7-.7.5-1.37 1.1-2.06 1.6l-7.2-2-.02-2.8 5.56-4.5zm23.8.14l5.9 1.25c-.2.2-.4.4-.68.6-.1 1.7-.1 3.3 0 4.85v.1l-5.15 4.4v-.2c-1.4-.3-2.8-.5-4.16-.77l-.1-6.65c1.4-1.13 2.7-2.3 4.2-3.5zm-206.3.4l6.1 4.14v3.6l-6 2.1c-1.05-.7-2.1-1.42-3.1-2.14 0-2.3.1-4.6.1-6.9 1-.26 2-.5 2.94-.8zm139.8.94l2.4.8v6.57c-.8.6-1.6 1.1-2.4 1.6l-6.9-2.4.03-1.7 6.9-4.7zm-199.7.5l7.2 6.06v1.5l-6.85 1.5c-.74-.68-1.55-1.2-2.3-1.8l.2-6.98 1.77-.3zm-21.4.54l3.5 3.1c-.06 2.2-.1 4.4-.08 6.6l-3.9.6-5.9-5.2c.1-.05.2-.05.3-.07 0-1.3.05-2.6.1-3.9l5.96-1.1zm58.1.2v.9l4.2 3v6.6l-2.6.74-6.8-5.1c0-1.3-.06-2.6.1-3.94-.2-.1-.4-.26-.6-.4l5.75-1.64zm220.6.4c1.14.3 2.4.58 3.6.87l.05 6.62c-.8.7-1.64 1.35-2.5 2l-6.9-1.66v-2.9h-.22l5.95-4.9zm23.7 0l5.4 1c-.1.1-.14.2-.24.3v2.8l-7.88 7.1-1.4-.3-.1-6.65c1.35-1.1 2.7-2.3 4.1-3.4v-.72zm-102.9.37l6.1 2.4-.9.5v4.8l-5.2 3.4v-.3c-1.4-.5-2.7-1.1-4.04-1.6v-6.7c1.35-.8 2.7-1.56 4.04-2.43v-.12zm-96.52.2c1.1.7 2.2 1.42 3.4 2.1 0 2.14 0 4.3-.08 6.4l-3.6 1.33-5.7-3.74c0-1.28.02-2.54.1-3.84v-.05l5.84-2.2zm140.54.5l5.33 1.6h-.04c-.1 1.6-.1 3.1-.1 4.63l-6.1 4.66c-1.1-.3-2.2-.6-3.2-.95V589l4.1-2.92v-.5zm-53.1.43c1.2.57 2.5 1.15 3.77 1.65 0 2.18.1 4.35.1 6.5-.8.5-1.6.97-2.4 1.44l-6.9-3.08v-2.7l-.4-.2 5.9-3.6zm-80.2.15l6.5 3.96v3.3l-5.7 2.5-3.5-2.1c0-2.2.03-4.4.04-6.7l2.6-1zm-124.7.13c1.1.93 2.17 1.9 3.2 2.84-.07 2.2-.2 4.37-.23 6.56-1.4.1-2.7.3-3.9.43l-5.5-5.3c0-1.3 0-2.5.1-3.7l6.3-.9zm22.07.5l6.2 5.4-.1 1.88-7.4 1.5c-.6-.5-1.2-.92-1.7-1.4 0-2.3.1-4.62.1-6.95.9-.1 1.9-.3 2.8-.4zm133.3.1l6 3.28-.5.25v4.2l-6.3 3.1c-1.1-.6-2.1-1.2-3.1-1.8v-6.7l3.9-1.8v-.6zm176.2.1l6.1 1c-.3.3-.6.6-1 .87v4.1l-5.6 5.3-3.6-.6c-.1-2.25-.1-4.54-.1-6.8l4.1-3.67v-.15zm-146.9.06l6 2.9-.9.44v3.3l-6.4 3.67c-1-.42-1.9-.9-2.9-1.4v-6.54c1.4-.7 2.7-1.4 4.1-2.2v-.3zm-103.2.05l5.6 4.04c-.1 1.2-.1 2.4-.1 3.6l-6.4 2.1-2.8-2c0-2.2.1-4.4.2-6.6l3.4-1zm65.3.5l3.3 1.8v6.3l-4.1 1.9-5.4-3.04.2-4.17 6.1-2.84zm29.2.26c1.1.55 2.2 1.04 3.3 1.58v6.6c-.7.4-1.4.7-2.1 1l-6.9-3.4V591l5.6-3zm73.2.2l3.3 1.07v6.7l-1.7 1.03-7.7-2.5v-2.16l5.9-4.2zm-191.5.14v.16c1.4 1.2 2.9 2.3 4.3 3.45 0 2.16-.1 4.3-.2 6.4-1.5.3-3 .7-4.4 1v.5l-5.2-4.12.2-.05c0-1.6 0-3.1.1-4.7l-1.1-.9 6.2-1.7zm250.6.16l2.9.6c0 2.28.1 4.58.2 6.87l-1.8 1.5-7.5-1.6c0-.65-.1-1.3-.1-1.94l6.2-5.48zm-301.6.67l6.6 5.85c0 .7 0 1.35-.1 2l-6.9 1.34-2.1-1.9c0-2.3.1-4.7.2-7l2.3-.3zm339.5.25l5.7.7-.4.4c0 1.2 0 2.38.1 3.53l-7.4 7.1-2-.3-.2-6.8c1.4-1.24 2.8-2.53 4.2-3.83v-.8zm-73.5.5l6 1.6-.8.6c-.1 1.2-.1 2.4-.1 3.58l-6 4.86c-1.1-.3-2.1-.6-3.2-1 0-2.2-.1-4.4-.1-6.7l4.2-3zm49.2 0v.84c1.4.2 2.7.5 4.1.7l.1 6.9c-.7.6-1.5 1.2-2.2 1.9l-7-1.3v-2.7l-1.7-.3 6.6-6zm-93.4.64l5.7 2.1-.5.3c-.1 1.6-.1 3.2-.1 4.7l-5.9 4.1-3.3-1.3v-6.6c1.3-.9 2.7-1.7 4-2.6v-.9zm-126.5.3c1.2.9 2.5 1.7 3.9 2.6-.1 2.2-.1 4.3-.1 6.4-1 .4-2.1.7-3.1 1l-6.4-4.3c0-1.2 0-2.5.1-3.8l5.4-1.9zm-35.4.2l5.9 4.5-.5.1c0 1.2 0 2.5-.1 3.7l-5.9 1.7-3.2-2.4c0-2.3 0-4.6.1-6.9 1.1-.3 2.3-.6 3.5-.8zm294.3 0l6.3.7-1.1 1c-.1 1.7 0 3.3-.1 4.9l-5.1 5.1-4.2-.6c-.1-2.3-.2-4.6-.2-6.9 1.4-1.3 2.7-2.6 4.2-3.9v-.4zm-368.2.6l5.7 5.4v2.5l-7.4 1.1c-.6-.6-1.2-1.1-1.8-1.7l.2-7 3.4-.3zm50 .3v.7c1.3 1.1 2.8 2.2 4.2 3.4l-.1 6.5c-1.3.2-2.6.4-3.8.7l-5.9-4.9c.1 0 .1-.1.1-.1 0-1.6.1-3.3.2-4.9l-.5-.4 5.7-1.3zm67.9.1l5.5 3.7c-.1 1.3-.1 2.6-.1 3.8l-6.1 2.3-3.1-2c0-2.2 0-4.4.1-6.6l3.6-1.3zm153.4.1l3 .9c0 2.2 0 4.4.1 6.5-.8.5-1.5 1.1-2.3 1.6l-7.1-2.1v-2l6.2-4.8zm-44 .7c.9.3 1.9.7 2.9 1v6.7c-.6.3-1.1.6-1.7 1l-7.7-3V597l6.5-4.2zm67 .6l5.6 1.3c-.1 0-.2.1-.3.2-.1 1.6 0 3.3 0 4.9l.4.1-5.9 4.9c-1.3-.3-2.5-.6-3.8-1-.1-2.2-.2-4.4-.2-6.7l4.1-3.2v-.7zm-88 .2l5.6 2.4-.4.2c-.2 1.6-.1 3.2-.1 4.7l.5.2-5.9 3.6c-1.3-.6-2.6-1.2-3.9-1.7v-6.6c1.4-.8 2.8-1.5 4.1-2.3v-.8zm138 0c1.1.2 2.3.4 3.5.5l.1 7-1.6 1.3-7.7-1.3c0-.8-.1-1.6-.1-2.4l5.7-5.2zm-205.6.7c1.1.6 2.4 1.3 3.6 2 0 2.2-.1 4.3-.1 6.6l-3.1 1.2-6.3-3.9c0-1.1 0-2.3.1-3.5l5.8-2.5zm38.7.3l5.6 2.8c-.3.1-.6.3-.8.4-.1 1.3-.1 2.6-.1 3.9l-6.9 3.6-2.3-1.2v-6.8l4.4-2.3v-.5zm19.5 0v.2c1.3.5 2.6 1.2 4.1 1.9v6.5c-.5.2-.9.5-1.4.7l-8-3.7v-2.7l5.2-3zm161.7.3v.2c1.3.2 2.7.3 4 .5 0 2.3.1 4.6.1 6.9l-2.1 2-7.1-1c0-.8-.1-1.7-.1-2.5l-1-.1 6.1-5.9zm-323.5.1v.2c1.4 1.2 2.9 2.3 4.3 3.6l-.2 6.5c-1.4.2-2.8.5-4.2.7l-5.3-4.6c0-1.5.1-2.9.1-4.3l-1-.9 6.2-1.3zm111.8.1l5.8 3.3c-.1 1.1-.1 2.2-.1 3.4l-6.4 2.8-2.8-1.8c.1-2.1.1-4.3.1-6.5l3.4-1.3zm21.5.2l3.3 1.7v7l-3.6 1.6-6-3.3c0-1.4 0-2.7.1-4l6.1-3.1zm-73.5 0c1.1.8 2.2 1.7 3.3 2.5l-.1 6.3c-1.1.4-2.1.7-3.2 1l-6.2-4.5c0-1.1 0-2.2.1-3.3l6.1-2zm155.3 0l6.3 2.2c-.4.2-.7.4-1 .7-.1 1.4-.1 2.8-.1 4.2l-5.4 3.8-3.8-1.2c0-2.3 0-4.5-.1-6.7l4-2.8v-.3zm-192.3.2l6.4 5.1-.1 2.7-6.4 1.6-2.7-2.2.2-6.7 2.5-.6zm227 .9c1.3.3 2.6.6 4 1l.1 6.8-1.5 1.1-7.9-2.1c0-.9 0-1.8-.1-2.7l5.2-4.1zm24.2.3l6.1 1.2-.9.7-.1 2.3-7.3 6.4c-.6-.1-1.3-.2-1.9-.4l-.1-6.7c1.4-1.1 2.8-2.2 4.2-3.4v-.1zm-206.5 0l5.9 4.1c0 1.3-.1 2.6-.1 4l-5.6 2c-1.2-.8-2.4-1.6-3.5-2.5 0-2.2 0-4.5.1-6.7 1-.3 2.1-.6 3.1-1zm139.3.9c.9.3 1.9.7 2.8 1v6.6l-2.1 1.4-7.2-2.6c0-.7.1-1.4.1-2l6.3-4.4zm-221.8.1v.7c1.3 1.2 2.8 2.4 4.3 3.7-.1 2.2-.1 4.4-.2 6.6l-3.3.4-6.1-5.5c-.1-1.5 0-3 .1-4.6l-.4-.4 5.6-1.1zm22.8.5l6.6 5.5-.1 3.1-5.9 1.3c-1.1-.9-2.2-1.7-3.3-2.6 0-2.3 0-4.6.1-6.9l2.4-.4zm177.8 1.3l6.3 2.5-1.1.6c-.1 1.4-.1 2.8-.1 4.2l-5.4 3.4c-1.3-.5-2.6-1-3.8-1.6 0-2.2-.1-4.3-.1-6.5 1.3-.8 2.6-1.7 4-2.5v-.3zm103.1.1l5.6 1c-.2.1-.3.3-.5.4-.1 1.6 0 3.2 0 4.7l-6.1 5.5-3.2-.7-.1-6.7c1.3-1.2 2.7-2.3 4.1-3.5v-.9zm-199.7.3c1.1.7 2.2 1.3 3.3 1.9 0 2.2 0 4.3-.1 6.5-1.2.4-2.3.8-3.5 1.2l-5.9-3.9c0-1.2 0-2.3.1-3.5l6.1-2.3zm177 0c.9.2 1.7.3 2.5.6l.2 6.7c-.7.5-1.3 1.1-2 1.6l-7.4-1.9v-1.5l6.8-5.6zm-36.2 0l5.8 1.7c-.2.1-.3.3-.5.4-.1 1.5-.1 2.9-.1 4.3l-6.5 4.9-2.9-.8-.1-6.5 4.1-3v-1zm-185.5.1c1.3.9 2.6 1.8 3.9 2.8 0 2.2-.1 4.3-.1 6.5l-4.1 1.2-6-4.5.7-.2.1-4.2 5.4-1.6zm52.5.6l5.9 3.6v3.8l-5.7 2.4c-1.2-.7-2.3-1.3-3.4-2 0-2.3 0-4.5.1-6.8l3.1-1.2zm59.6.6l6.8 3.2-1.7.9v4.7l-5.2 2.8v-.1l-4.1-1.9v-6.7c1.3-.7 2.6-1.4 4.1-2.1v-.9zm21.5.3c.8.3 1.6.7 2.5 1v6.5l-1.8 1-7.5-3.3v-1l6.8-4.2zm-124.5.2l5.1 3.6c-.1 1.5-.1 3-.1 4.5l-6.1 2-3-2.1c0-2.3.1-4.5.1-6.7l3.9-1.2v-.2zm-59.9.2l5.9 5.1c-.1 1.1-.1 2.2-.1 3.3l-6.4 1.2-2.8-2.4c0-2.3.1-4.6.2-6.8 1-.1 2-.3 3.1-.5zm285.5.2v1.4c1.3.2 2.7.5 4 .7 0 2.3.1 4.6.1 7-.5.3-.9.7-1.3 1l-7.9-1.7V608c-.4-.07-.7-.17-1.1-.24l6.1-5.3zm-160.8.2c1.1.6 2.3 1.2 3.4 1.8 0 2.1-.1 4.3-.1 6.4l-3.6 1.5-5.9-3.5c.1-1.2.1-2.3.1-3.5v-.1l6-2.8zm185.2 0l6.3 1-1.1.9c-.1 1-.1 2-.1 3l-6.7 6.1-2.5-.3c-.1-2.3-.1-4.6-.1-6.9l4.1-3.7v-.3zm-156.4 0c1.2.6 2.5 1.3 3.8 1.9v6.6c-1.3.6-2.5 1.3-3.9 1.9l-5.6-2.8c0-1.3 0-2.7.1-4.1l-.5-.2 5.9-3.3zm-21.5.3l6.4 3.5v2.9l-6.3 3.1-2.8-1.5v-6.7c.9-.4 1.8-.8 2.7-1.3zm95.2.2c1.1.4 2.3.8 3.4 1.1 0 2.3 0 4.5.1 6.7l-1.5 1-7.8-2.6v-2l5.8-4.1zm-242.6 1l6.1 5.4c0 1.2 0 2.5-.1 3.7l-5.8 1.1c-1.1-.9-2.1-1.9-3.2-2.8 0-2.4.1-4.7.2-7.1l2.8-.4zm51.5 0c1.1.9 2.2 1.7 3.4 2.6 0 2.1 0 4.3-.1 6.4-1.5.3-2.9.7-4.4 1l-5.1-4.1c0-1.4 0-2.9.1-4.3l6.1-1.6zm214.5.2l6.6 1.8c-.4.4-.9.8-1.4 1.1v4.7l-5.1 3.9c-1.4-.4-2.8-.8-4.1-1.2l-.2-6.6 4.1-2.9v-.6zm73.8.4l5.8.8-.6.6c-.1 1.7 0 3.5 0 5.1l.3.1-5.9 5.7-3.8-.6-.1-6.8c1.4-1.3 2.8-2.5 4.2-3.8v-1zm-118 .5l5.9 2.2c-.2.1-.4.2-.6.4 0 1.6 0 3.2-.1 4.7l-6 4.1-3.1-1.2V609c1.4-.8 2.7-1.63 4-2.47v-1.05zm-126.5.5l3.8 2.4c0 2.1-.1 4.3-.1 6.4-.8.3-1.6.5-2.5.8l-6.9-4.6c0-.9.1-1.9.1-2.9l5.7-2.1zm221.1.5l3.2.6.1 6.9c-.5.5-1.1 1-1.7 1.5l-7.6-1.4v-2l6.1-5.5zm-258.1.1l7.1 5.4c-.1.9-.1 1.9-.1 2.8l-5.7 1.7c-1.2-.9-2.4-1.8-3.5-2.8l.1-6.8 2-.4zm46 .6l5.3 3.5c-.1 1.3-.1 2.6-.2 3.9l-6.2 2.4c-1-.7-2.1-1.3-3-2V608l4-1.24zm152.9.3l3.5 1.1c0 2.2 0 4.4.1 6.6l-2 1.5-7.3-2.3v-2.3h-.1l5.9-4.5zm-44 .5l3.3 1.2v6.6c-.4.2-.8.4-1.2.7l-8.2-3.2c0-.5 0-1.1.1-1.6l6-3.9zm-20.6.3l6.3 2.8c-.4.2-.8.4-1.1.6-.1 1.6-.1 3.2-.1 4.7l-5.9 3.6c-1.2-.6-2.4-1.1-3.6-1.6v-6c1.4-.8 2.8-1.5 4.3-2.4V608zm-156.4.1c1.2 1 2.5 2.1 3.9 3.1l-.2 6.4-3.7.7-5.9-4.9h.1c0-1.3.1-2.7.2-4.1l5.6-1.3zm244.5.1l6.2 1.6c-.3.2-.6.4-.9.7v2.8l-7.8 6.3-1.5-.3v-6c1.3-1 2.8-2.1 4.1-3.2v-1.2zm49.4.5v.6c1.4.2 2.7.5 4.1.7 0 2.4.1 4.7.1 7.1l-.9.8-8.3-1.4v-2.7h-.4l5.4-5zm-205.7.5c1.2.7 2.5 1.5 3.8 2.3-.1 2.2-.1 4.3-.1 6.5-.9.4-1.9.7-2.9 1.1l-6.5-4c0-1.2 0-2.3.1-3.5l5.5-2.4zm9 .7l5.3 3.1c-.1 1.1-.1 2.3-.1 3.4l-6.8 3.1-2.4-1.4v-6.6c1.3-.5 2.6-1.1 3.9-1.6zm20 .5v.1c1.3.7 2.8 1.5 4.1 2.1v6.4L376 620l-6.6-3.6c0-1.3.1-2.7.16-4l5.1-2.6zm83 .1l6.5 2.2-1.4.9c-.1 1.2-.1 2.3 0 3.5l-6.1 4.3c-1.1-.4-2.1-.7-3.2-1.1v-6c1.3-.9 2.7-1.8 4-2.7v-.5zm-52.4 0l2.7 1.2v6.6c-1.1.5-2.1 1.1-3.2 1.7l-6.1-2.8v-3l6.5-3.7zm-139.9.2l5.9 4.7v3.3l-6.2 1.7c-1-.8-2.1-1.6-3-2.4.1-2.3.1-4.5.2-6.8 1-.3 2-.4 3-.7zm36.6 0c1 .7 2.1 1.4 3.2 2.2l-.2 6.4c-1.5.4-2.9.9-4.3 1.3v.3l-5.2-3.7c0-1.6.1-3.1.1-4.6l6.2-2zm81.4.1l5.8 2.9c-.1 1.3-.1 2.6-.1 3.8l.6.3-6 3.2c-1.3-.7-2.6-1.3-3.9-1.9l.1-6.5 3.4-1.8zm-140.8.5l3.5 2.8-.1 6.4-3.7.6-5.9-4.9c0-1.3.1-2.5.2-3.8v-.1l6-1.3zm273.9.4l6.6 1.5-1.5 1.2v4.2l-5.5 4.7c-1.3-.3-2.5-.5-3.7-.8-.1-2.3-.2-4.5-.2-6.8 1.3-1.1 2.7-2.2 4.2-3.3v-.8zm-206.3 0l5.8 4-.6.1c0 1.3-.1 2.6-.1 3.9l-5.9 2.1c-1.1-.7-2.1-1.5-3.2-2.2 0-2.3 0-4.6.1-6.8 1.2-.4 2.5-.8 3.7-1.2zm183.1.4l2.9.7v6.8l-1.2.9-8-2.2v-1l6.3-5.1zm-44.3.7c1 .3 2 .6 3 1 0 2.2.1 4.4.1 6.6l-1.7 1.1-7.7-2.9c0-.6 0-1.1.1-1.6l6.2-4.2zm-199.2.8l6.5 5.5c0 1.2 0 2.3-.1 3.4l-5.6 1.3-3.4-2.8c0-2.3.1-4.6.1-7l2.5-.5zm178.1.4l7 2.9-1.7 1c-.1 1.4 0 2.8 0 4.1l-5.6 3.6c-1.3-.5-2.5-1-3.6-1.6v-6c1.3-.8 2.6-1.5 3.8-2.4v-1zm78.9.4v.8c1.4.4 2.8.7 4.2 1 0 2.2 0 4.4.1 6.6-.6.5-1.3.9-1.9 1.4l-7.6-1.9v-2l-1.6-.3 6.6-5.4zm24.3.4l6.3 1.2c-.4.3-.7.6-1.1.9 0 1.2 0 2.3.1 3.4l-7.2 6.5c-.7-.1-1.4-.3-2-.4 0-2.3-.1-4.5-.2-6.8 1.3-1.1 2.7-2.2 4.1-3.4v-1zm-200 .2c1.1.7 2.2 1.5 3.4 2.2l-.1 6.3c-1 .4-2 .8-3 1.1l-6.5-4.2c0-1 0-2 .1-3l6.1-2.4zm141.1.2l5.9 1.8-.8.6c-.1 1.6 0 3.2 0 4.8.2.1.3.1.5.1l-6 4.5c-1.3-.4-2.7-.8-3.9-1.2V619l4.2-2.9V615zm-185.7.3c1.2.9 2.4 1.7 3.6 2.6-.1 2.2-.1 4.4-.2 6.6-1.1.3-2.3.7-3.4 1l-5.9-4.6c0-1.3 0-2.6.1-3.9l5.8-1.7zm52.5.3l6 3.6c-.1 0-.1.1-.2.1v3.3l-6.3 2.7-2.9-1.8v-6.7l3.4-1.3zm80.7.7c1 .4 2.1.8 3.1 1.2v6.3c-1.3.8-2.6 1.5-3.9 2.2l-5.3-2v-3l6.4-4zm-59.8.7c1.3.7 2.7 1.4 4 2.1 0 2.1-.1 4.2-.1 6.3l-3.3 1.5-6.2-3.5.1-3.5-.6-.4 6-2.8zm-65.8.3l6.3 4.6c-.1.9-.1 1.9-.1 2.8l-6.4 2.1-2.8-2 .1-6.8c.9-.3 1.8-.5 2.8-.8zm74.3.2l5.9 3.2-.1.1c0 1.6 0 3.1-.1 4.7l.2.1-5.3 2.6v-.4c-1.5-.7-2.8-1.5-4.1-2.2 0-2.2.1-4.5.1-6.7 1.1-.5 2.2-.9 3.4-1.4zm29.1 0l6.1 2.9v4.1l-5.5 3.1c-1.4-.6-2.6-1.3-3.8-1.9 0-2.2.1-4.4.1-6.6 1-.5 2-1 3-1.6zm65.1.4c1.3.5 2.6 1 3.9 1.4 0 2.3.1 4.5.1 6.7l-.9.6-8.4-2.8v-2l5.3-3.8zm-71.9.2l2.3 1.2c0 2.2 0 4.3.1 6.4-1.2.5-2.3 1.1-3.4 1.6l-6.1-3c0-.8.1-1.6.1-2.5l6.8-3.7zm131.3 1c1.2.3 2.4.5 3.6.7v7.1c-.3.2-.7.5-1 .8l-8-1.8c0-.7-.1-1.3-.1-2l5.6-4.8zm-249.8.3l3.1 2.5c-.1 2.1-.2 4.3-.2 6.4l-4.2.9-5.3-4.2c0-1.3.1-2.6.2-4l6.4-1.7zm214.6.1l6.6 1.9c-.5.3-.9.7-1.4 1v2.2l-7.5 5.8c-.6-.2-1.3-.4-1.9-.6 0-2.3-.1-4.5-.1-6.7 1.4-1 2.7-2 4.2-2.9v-.7zm-44.3.2l6.5 2.4-1.3.8c-.1 1.4-.1 2.8-.1 4.1l-6.7 4.5-2.6-1V624c1.4-.8 2.7-1.6 4.1-2.46V620zm-126.8.9c1.2.8 2.4 1.7 3.7 2.5 0 2.2 0 4.3-.1 6.5-1.4.4-2.6.9-3.9 1.3l-6-4 .4-.1c0-1.4 0-2.8.1-4.1l5.7-2.1zm-36.6.7l6.5 4.9c0 1.1-.1 2.2-.2 3.3l-5.8 1.7-3.3-2.4c0-2.3.1-4.6.2-6.9l2.5-.6zm45.7.1l5.2 3.6c-.1 1.3-.1 2.6-.1 3.9l-6.4 3-2.4-1.6c.1-2.2.1-4.4.1-6.7 1.4-.4 2.7-.9 4.1-1.4v-.4zm109 1.3c1.1.5 2.3 1 3.5 1.4v6.7l-3 1.8-6.4-2.5v-3.5l5.9-3.8zm45.3.1l2.4.8c0 2.2 0 4.4.1 6.7l-1.5 1.1-7.9-2.4v-1l6.8-5.1zm-222.3.8c1.2 1 2.4 2 3.6 2.9l-.1 6.5c-1.1.2-2.1.4-3.1.6l-6.4-5.2V625l5.9-1.45zm244.9.1l6.1 1.5c-.3.2-.6.5-.9.7v4.8l-6.1 4.9c-1.1-.3-2.2-.5-3.3-.8 0-2.2-.1-4.4-.1-6.6 1.4-1.1 2.8-2.1 4.2-3.2v-1zM345 624v.1l4.2 2.4-.1 6.5-2.2.9-7.13-4.4c0-1.1 0-2.16.1-3.3l5.17-2.2zm68.1.7l5.6 2.5c-.1 1.3 0 2.6 0 3.9l-6.1 3.64-3.2-1.43c0-2.2.06-4.4.07-6.6 1.2-.7 2.4-1.3 3.64-2zm-58.5.1l5.2 3.1-.12 4.2.64.4-6 2.74c-1.3-.7-2.68-1.5-3.9-2.2V627c1.37-.6 2.8-1.1 4.1-1.7v-.1zm103.1.25l7.1 2.47c-.6.4-1.22.8-1.9 1.3v4.9l-5.2 3.7v-.3c-1.5-.5-2.9-.9-4.4-1.4v-6c1.5-1 2.9-1.96 4.38-2.9v-1.16zm-52.9.3c1.1.5 2.2 1.06 3.3 1.56 0 2.2 0 4.4-.1 6.6l-2.6 1.4-6.8-3.2c0-.9.1-1.8.1-2.8l6-3.5zm-20.9.24l5.4 2.8c-.1 1.4-.12 2.8-.12 4.3v.1l-5.9 3.2-3.4-1.7c.04-2.1.03-4.3.04-6.5 1.4-.6 2.7-1.3 4.1-2.1zm-82.2.2c1.1.7 2.2 1.5 3.3 2.3-.1 2.1-.1 4.2-.13 6.3l-4.1 1.2-5.3-3.8c0-1.4 0-2.8.1-4.1l6.2-2zm-36.5.1l5.86 4.5c0 1.2-.1 2.4-.1 3.5l-6.3 1.7c-1-.8-2-1.6-2.9-2.4.1-2.3.13-4.5.2-6.7 1.1-.3 2.13-.5 3.2-.7zm227.2 0v1.3c1.34.4 2.7.7 4.1 1.1.04 2.3.1 4.5.1 6.7l-.7.5-8.7-2.5v-2l-1-.3 6.3-4.8zm-116.7.2l2.94 1.5c-.1 2.2-.1 4.3-.1 6.5-.9.4-1.7.8-2.5 1.2l-6.9-3.6c0-.8.1-1.6.1-2.3l6.4-3.2zm141.06 1l6.8 1.5-1.7 1.3v2.9l-6.8 5.8-2.5-.6c0-2.3 0-4.5-.1-6.8l4.3-3.3v-.8zm-208.3.1l6.8 4.7v2.4l-6.3 2.2c-.9-.6-1.9-1.2-2.8-1.8 0-2.2.1-4.5.1-6.8.8-.2 1.5-.4 2.3-.7zm140.1.5c1.1.4 2.3.8 3.4 1.2v6.7l-3.2 2.1-6-2.3c0-1.2 0-2.5.1-3.7l-.26-.1 5.94-4.1zm-118 2c1.3.9 2.5 1.7 3.8 2.5v6.3c-1.4.5-2.9 1.1-4.3 1.5v.2l-5.2-3.4c0-1.5.1-3.1.1-4.5l-.4-.3 6.1-2.4zm141.9.2l6.6 2-1.4 1c-.04.9-.1 1.9-.1 2.8l-7.86 5.9c-.4-.1-.8-.2-1.2-.4V635c1.2-.9 2.5-1.8 3.8-2.65v-1.7zm-186.4.7l3.9 2.7c0 2.2-.04 4.3-.1 6.5l-3.3.9-6-4.6c0-1.3 0-2.7.1-4l5.5-1.6zm53.5 0l5.9 3.6-.6.3c0 1.6 0 3.2-.1 4.7h.1l-5.2 2.3v-.3l-4.05-2.3v-6c1.4-.5 2.7-1 4-1.5zm87.6 0l6.26 2.4c-.1 1.2-.1 2.4-.1 3.5l-6.1 3.9-3.24-1.4c-.07-2.2-.07-4.4 0-6.6 1-.6 2-1.3 3.1-1.9zm81.1.2l3.1.7c0 2.2.1 4.5.1 6.7-.4.3-.8.7-1.24 1l-8.1-2.1c0-.5-.1-.9-.1-1.4l6.1-5zm-88.4.6l3 1.3v6.4c-1.1.6-2.1 1.3-3.2 1.9l-6.2-2.8v-3l6.4-3.8zm-125.2 1l5.9 4.2c-.02.9-.1 1.9-.1 2.8l-6.8 2.3-2.4-1.7.1-6.7 3.3-.9zm103.6 0l5.9 2.7c-.1.1-.2.1-.3.2v4.1l-5.5 3.2-3.6-1.7v-6l3.6-1.8zm-29.4.2l5.9 3.2-.3.2v4.3l-5.4 2.6c-1.3-.7-2.6-1.4-3.8-2-.1-2.3 0-4.5 0-6.7 1.1-.5 2.3-1.1 3.5-1.6zm-7.3.4l2.44 1.4v6.4l-2 1.9-6.67-3.8v-1.8l7-3.4zm29 .1c1 .4 1.9.9 2.9 1.4v6.4c-1.05.6-2.1 1.1-3.2 1.6l-6.3-3.1c0-1 0-1.9.1-2.9l6.5-3.5zm73.6.6c1.1.3 2.1.7 3.2 1.1v6.4c-1.1.7-2.1 1.4-3.1 2l-6.5-2.2v-2l6.3-4.4zm23.1.5l7.4 2.2-2 1.6c-.1 1.3-.1 2.6-.1 3.9l-5.8 4.5c-1.2-.4-2.4-.7-3.6-1.1V639l4.2-3v-1zm-171.9 1.4l4.3 2.8-.1 6.4-3.4 1.1-6.03-4c0-1.5.1-3 .16-4.5l5.2-1.8zm127.5 1.1l5.4 2.1v4.1l.6.3-6.1 4c-1.23-.5-2.6-1-3.8-1.5v-6c1.3-.8 2.7-1.6 3.9-2.4zm34.9.3v.7c1.34.5 2.7.9 4.16 1.3v6.7c-1.04.7-2.1 1.5-3.2 2.2l-6.1-1.8c0-1.2 0-2.4.08-3.7l-1.66-.4 6.68-5zM324 638l6.25 4.1c-.05 1.1-.1 2.2-.1 3.3.2.17.5.27.7.4l-6 2.37c-1.3-.8-2.62-1.6-3.9-2.5.05-2.2.06-4.4.1-6.6 1-.38 1.97-.7 2.96-1zm109.7.3l4 1.6.04 6.6-2.46 1.4-7-2.75c0-1.1 0-2.3.03-3.4l5.3-3.5zm-79.1 1.6l5.44 3.1-.2.1c-.05 1.6-.06 3.2-.06 4.77l.04.02-6.1 2.9-3.2-2v-6.6c1.4-.5 2.8-1 4.1-1.6v-.6zm59 .1l5.3 2.38v3.9l-6.5 3.9-2.8-1.2v-6.5c1.36-.7 2.7-1.5 4-2.3v-.1zm-67.2.4l2.73 1.7v6.56c-1.3.5-2.5 1-3.7 1.5l-6.1-3.6c.1-.1.2-.16.3-.2 0-1 .1-2.06.1-3.1l6.6-2.84zm58.3.6l3.5 1.56v6.5l-2.4 1.2-6.9-3.2v-2.88l5.8-3.3zm-20.6.1l5.2 2.6v4.53l-6 3.2c-1.1-.6-2.26-1.1-3.3-1.7.03-2.2.03-4.34.03-6.5 1.4-.7 2.9-1.36 4.2-2.06v-.1zm-8.7.46l3.3 1.8c0 2.1 0 4.3-.05 6.5l-2 .9-7.4-4c0-.8.07-1.5.1-2.2l6-3.1zm81.74.97l6.04 2.1-.1 2.3-7.5 5.1-1.86-.6c0-2.26-.1-4.5-.1-6.75l3.4-2.15zM309 643l6.3 4.24c0 1.43 0 2.87-.1 4.3l.2.13-5.3 1.9v-.3l-4-2.7c0-2.3.1-4.5.16-6.8l2.8-.9zm141.02 1.1l2.4.9v6.5l-2.9 1.8-6.5-2.5v-2l6.8-4.7zm-22 2.1l6 2.44-.5.23c-.1 1.6 0 3.14-.1 4.7h.1l-5.2 3.3v-.2l-4.17-1.6v-6.7c1.3-.73 2.55-1.4 3.8-2.2zm-96 .35c.8.5 1.6.9 2.4 1.35 0 2.13-.1 4.3-.1 6.43-1.3.5-2.6 1-3.9 1.4l-5.6-3.6.1-2.9 7.1-2.75zm6 .5l6.8 4.1c0 1.2 0 2.3-.1 3.5l-5.2 2.24c-1.3-.8-2.6-1.5-3.9-2.3V648c.8-.3 1.5-.5 2.3-.8zm81.4.1c1.1.5 2.3 1 3.45 1.45v6.54l-2.8 1.6-6.52-2.8c0-1.05.03-2.1.03-3.1v-.1l5.9-3.6zm-50.3.9l6.2 3.3c-.3.2-.7.3-1 .4 0 1.4 0 2.8-.07 4.15l-5.6 2.75-3.7-2v-6.6l4-1.8v-.2zm29.4.2l5.9 2.8-.5.3c0 1.26-.1 2.5-.1 3.7l-6 3.3c-1.1-.45-2.16-.9-3.2-1.4v-6.7c1.26-.6 2.54-1.2 3.83-1.9zm-37.6.3c.93.54 1.83 1.1 2.83 1.6-.08 2.2-.1 4.3-.1 6.4-1.4.66-2.8 1.3-4.1 1.9l-5.3-3.14.2-3.8 6.56-3.1zm29.4.3l3.1 1.56c-.1 2.1-.1 4.2-.1 6.4-.9.4-1.7.8-2.6 1.2l-6.9-3.4c0-.8.06-1.6.1-2.4l6.4-3.4z" opacity=".59" transform="translate(-52.625 -80.754)"/><path fill="url(#o)" fill-rule="evenodd" d="M463.8 190.6c-18.5 6.22-43.83 10.08-71.78 10.08-27.5 0-52.47-3.73-70.9-9.77L279.7 327.7c27.84 14.57 68.6 23.77 114.06 23.77 44.55 0 84.64-8.8 112.43-22.88l-42.4-138z" transform="translate(-52.625 -80.754)"/><path fill="url(#p)" d="M321.35 190.5l-.27.78 1.78 1.5c.05.95.03 1.88.03 2.87l-3.2.15-.4 1.04 3.7-.1c1.1.97 2.5 1.98 3.8 2.96l-.2 5.2-2.8.1-5.7-4.68-.3.85 4.5 3.78c0 1.05-.1 2.13-.1 3.2l-5.5.2-.9-.78-1.5 4.83c.9.03 1.8.07 2.6.04l5.6 4.82h-.6c0 .98-.1 1.95-.1 2.94l-5.7.1-3.2-2.58v-1.35l-2.2 7.14.7.7c-.1 1.7-.2 3.3-.2 5-.7 0-1.5 0-2.2-.1l-1.3 4.2 3.3 3c-.1 1.7-.1 3.4-.1 5-1.2 0-2.5-.1-3.6-.1l-1.5-1.4-.3.9 1.1 1.1c-.1 1.1 0 2.1 0 3.2l.6.6-3.2-.2-.3 1 4.7.3 2.2 2c-.1 1.7-.1 3.5-.1 5.1l-3.2-.3-4.6-4.2-.3.8 3.8 3.5c-.1 1.2-.2 2.4-.2 3.5l.1.2-5.8-.4h-.1L299 261c.34 0 .7.1 1 .1l5.84 5.5c-.03.9-.1 1.8-.1 2.7h.17l-6-.5-2.5-2.4-1.9 6.5v4.2l.2.2-1.4-.2-1.4 4.7c.8.8 1.7 1.6 2.5 2.4l-.2 5 .5.27c-1-.17-1.9-.4-2.9-.56l-1.5-1.7-.2.8.6.6-.5-.1c-.1 1.3-.1 2.4-.2 3.7.1 0 .1.1.1.1l-1.2-.2-.3.9 2.8.5 2.7 2.7c-.1 1-.2 3.2-.3 5.2-.7-.1-1.4-.2-2.2-.4l-4-4.4-.2.7 3.1 3.3c-.2 0-.5 0-.7-.1l-.1 1.8-3.6-.7-.3 1 3.9.8-.1.9c1.3 1.4 2.6 2.8 4 4.1-.1 1-.2 3.1-.4 5.1-1.1-.2-2.2-.4-3.3-.7l-5.4-5.8-.2.8 4.9 5.2-.2 2.9-5.4-1.1c-.4-.3-.7-.7-1-1.1l-1.4 4.5c.4.2.8.3 1.2.4l6 6.4-.1 2.1-6.6-1.4c-.8-.8-1.5-1.6-2.2-2.4l-1.7 5.8 1.9.9c.9.3 1.8.5 2.7.8l.6.7 1.6.7-1.7-1.7c.1-1 .1-2.1.2-3.1 0 0-.1-.1-.1-.2l5.4 1.2v.3c1.3 1.4 2.6 2.9 4 4.3l-.1 2.3 1.3.5.2-2.2c1.2.3 2.4.5 3.7.8l4.5 4.4 1.4.4-5.7-5.5.3-2.9-.8-.8 6 .8c1.4 1.3 2.7 2.6 4.1 3.8-.1 1.7-.2 3.4-.2 5.2-1.2-.2-2.4-.4-3.7-.5l5.7 1.8-.7-.6.3-5.4 2.8.3 6.2 5.6-.1 2.6c3.2.8 6.4 1.6 9.6 2.3v-.3l7-.5 2.5 1.9v.9l1.2.3v-.8l4-.4v-.3l4.1 2.8 2.1.3-6.1-4.1.1-1.3 6.4-1c1.06.7 2.05 1.3 3 2l-.06 5 1.4.2.1-4.9c1.4-.2 2.7-.5 4.1-.8v-.8l5.7 3.3c-.2.1-.4.1-.5.2-.1 1.3-.1 2.5-.1 3.7.1.1.3.3.5.3 2.9.3 5.9.5 8.9.7v-.1l.2.1 2.67.2-2.8-1.3v-2l6.45-2.4c1.1.5 2.1 1.1 3.1 1.5v3.9l1.2.1.05-4 4.2-1.6v-.4l5.3 2.1-.1.1v3.9l.4.1h.6c2.5 0 5 0 7.5-.1l1.1-.5 1.3.5c.9 0 1.8 0 2.8-.1l-4.1-1.4c0-.6 0-1.2.1-1.8l6.1-3.2c1 .4 2.1.7 3.2 1v5.2l1.3-.1v-6c1.4-.8 2.8-1.5 4.2-2.2l-.1-.3 5.3 1.3c-.1 1.3 0 2.5 0 3.7l-4.2 2.6 1.9-.1 3.5-2.1c1 .3 2.1.5 3.1.7v.7l1.3-.1v-1c1.3-.8 2.6-1.6 3.9-2.5l6.1 1-.7.5v.8c3.2-.5 6.4-.9 9.6-1.5v-1l7.1-5.5 2 .1c.1 1.5.1 3 .1 4.58.4-.1.9-.15 1.3-.25l-.1-4.9 3.3-2.6 6.2.1c-.1 0-.1.2-.2.2 0 1.2 0 2.6.1 3.8l-2.2 1.9 1.8-.5 1.7-1.4c1 0 2 0 3 .1v.1c.4-.1.8-.3 1.2-.4v-.3l4-3.6v-.2l5.3-.4v1.7c3.9-1.2 7.8-2.6 11.5-4l-2 .3c0-.7 0-1.4-.1-2.1l5.8-6c1-.2 2.1-.5 3.1-.7.2 1.9.3 3.6.3 5.4l-.3.3c1.6-.6 3.1-1.3 4.6-1.9-1 .2-2 .4-2.9.6 0-1.8-.1-3.4-.2-5.4l3.2-3.3-1.3-4.3c-.8.1-1.6.3-2.3.4-.1-1.8-.1-3.4-.3-5.2l.9-1-2.7-9 .2 3.5c-.65.7-1.2 1.3-1.8 1.9l-7.3 1-.1-1 6.4-6.7 2.1-.4-1.3-5.3-.1.1-7.1 1-.1-2.2 5.3-5.5-.5-1.6v.9l-5.5 5.5c-1.2.1-2.4.3-3.5.4 0-1.8 0-3.6-.1-5.3 1.15-1.1 2.25-2.1 3.35-3.2l5-.7-.3-1-4.2.6v-2l2.8-2.8-.3-.8-2.7 2.6c-1.3.2-2.6.4-3.9.5-.03-1.8 0-3.6-.03-5.4 1.4-1.2 2.6-2.4 4-3.8v-.7l.63-.1-.3-1-.4.1c0-.3.1-.6.1-1l-.4-1.1c-1.3.2-2.5.3-3.7.4 0-1.8-.1-3.6-.1-5.4.6-.5 1.2-1.1 1.8-1.6l-1.7-5.5v-.1l-1.4-4.6.1 5.3-2.3 2-6.9.4c0-.8 0-1.5.1-2.4l-.8.1 5.8-5.5c1.4-.1 2.7-.1 4-.2l-1.7-5.6-1 .8-6.4.3v-2.3l5.5-5-.6-2v1.5l-5.9 5.4-3.2.1c0-1.7-.1-3.4 0-5.2 1.4-1.1 2.8-2.3 4.2-3.5l4.3-.2-.3-.9-4.1.2c0-.9 0-1.9.1-2.9-.56.1-1 0-1.6.1l3.75-3.5-.2-.8-4.7 4.3c-.4 0-.9.1-1.4.1v-5.2c1.3-1.2 2.7-2.4 4-3.5v-1.4h.4l-.3-1v-.1l-.4-1.4h-4v-5c.5-.5 1.1-1 1.7-1.4l-3-9.7c0 1.5.1 3.1.1 4.6l-1.4 1.2-7.5-.4v-1.7l5.6-4.7c1 0 2.1.2 3.1.2L467 198l-7-.3c0-.6 0-1.1-.1-1.7l5.2-4.3-.3-.8-5.1 4.3c-1.2-.1-2.5-.1-3.7-.1v-3l-1.3.3v3.3c-.7.6-1.4 1.2-2.2 1.8l-6.8-.5v-1.4l1.7-1.3c-3.7.9-7.6 1.7-11.5 2.4l1.5.2-.9.6v3.9h.1l-5.1 3.6v-.2c-1.3-.2-2.6-.4-3.9-.7 0-1.8.1-3.6.2-5.4l1.5-1c-1.8.2-3.6.5-5.4.7l2.7.6v5.1l-2.4 1.5-6.7-1.6c0-.8 0-1.5.1-2.2-.1-.1-.3-.1-.4-.1l5-3.2-1.93.2-4.3 2.7-2.3-.5v-1.5l-1.2.1v1.6c-.6.3-1.2.6-1.8 1l-6.6-2.1c-3.2.2-6.5.3-9.8.3v1l-6.1 2.9c-1-.3-2-.7-2.9-1.1l.1-3c-.4 0-.8-.1-1.2-.1l-.2 3c-.4.1-.9.4-1.3.5l-8-3.6v-.3c-3-.2-6.1-.4-9-.7v1.2l-6.2 1.7c-.9-.6-1.9-1.1-2.7-1.7v-2l-1.3-.2-.1 2.3-3.3.7-5.7-3.7c0-.07.1 0 .2 0v-.8c-3.5-.6-6.8-1.33-10.2-2.1l-5.2.54c-1-.7-1.9-1.47-2.8-2.17v-.4l-1.2-.32v.36c-1 0-2 .1-3.1.1l-2.6-2.1-.1-.1zm16.6 4.84c1.07.8 2.18 1.67 3.28 2.43-.03 1.75-.1 3.45-.12 5.13-1.2.13-2.4.3-3.5.4l-5.4-4.14c.1-1.03.1-2.1.2-3.17l5.7-.7zm7.1 2.28l6.14 4.05c0 .9-.1 1.82-.1 2.74l-5.6 1.3c-1.1-.8-2.2-1.5-3.2-2.3l.1-5.4 2.6-.3zm100.47.3l5.56.5-.58.5c0 1.25-.08 2.5-.08 3.7l-5.75 4.6c-1.04-.12-2.1-.24-3.12-.42.02-1.77.06-3.56.04-5.32 1.2-.88 2.5-1.85 3.9-2.78v-.78zm14.13 1.08l6.18.2c-.32.26-.6.56-.97.85-.05 1.15-.1 2.25-.08 3.32l-5.4 4.44c-1.18 0-2.36 0-3.5-.1-.04-1.7-.04-3.5-.1-5.3 1.3-1 2.54-2.1 3.87-3.1v-.3zm-128.1.74l5.43 4.2c-.1 1.03-.18 2.03-.23 3.05l-5.87.5-2.9-2.2c.06-1.8.06-3.6.1-5.4l3.46-.3zm71.32 1.43l6.1 1.93c-.34.2-.74.44-1.08.6v2.48l-6.4 3.48c-.9-.3-1.8-.6-2.6-.93 0-1.8.1-3.57.1-5.36 1.2-.6 2.4-1.22 3.7-1.9v-.3zm-36.67.3c1.07.6 2.17 1.2 3.32 1.82-.05 1.6-.04 3.3-.04 5l-3.82 1.2-5.32-3 .15-3.4c-.1 0-.1-.1-.1-.1l5.8-1.7zm8.34.04l6.3 3.1c-.45.1-.88.3-1.32.4 0 1.1-.02 2.1.04 3.1l-5.64 2.2c-1.12-.5-2.18-1-3.2-1.6 0-1.8.05-3.6.08-5.4 1.28-.4 2.48-.7 3.74-1.2v-.4zm63 0c.88.2 1.83.3 2.77.4.1 1.9 0 3.7 0 5.5-.5.4-1 .8-1.6 1.2l-7.4-1.1c.1-.4 0-.7.1-1.2l6.3-4.6zm-42.97.9c1.02.5 2.12.9 3.17 1.2 0 1.8-.02 3.6-.04 5.4l-2 .9-6.92-2.7c0-.6.05-1.2.08-1.8l5.7-2.8zm57.05.5l2.74.2c.05 1.8.13 3.6.16 5.3-.66.5-1.28 1-1.93 1.6l-7.1-.5v-1.7l6-4.7zm-34.4 2.6l5.37 1.4c-.2.1-.3.1-.4.2-.2 1.4-.3 2.6-.3 3.8.2.1.4.1.6.1l-5.7 3.7-3.8-.9c-.1-1.8-.1-3.6-.1-5.4 1.3-.7 2.7-1.4 4-2.2v-.6zm-65.53.1l3.5 2.3-.2 5.3c-1 .2-2 .3-2.9.5l-6.2-4.1v-2.7l5.6-1.2zm8.1 1.8l5.5 3.3c-.1.9-.2 1.7-.2 2.6l-6.2 1.8c-1-.5-1.9-1.1-2.8-1.7.1-1.8.2-3.4.2-5.1l3.3-.7zm48.1 0v.3c1.2.4 2.6.7 3.9 1.1v5.4c-.4.3-.8.4-1.3.6l-7.9-2.3v-2l5.1-2.9zm-70.2.6c1 .8 2.1 1.6 3.1 2.3 0 1.8-.1 3.5-.1 5.2l-3.5.3-5.7-4.2c0-.9.1-1.8.1-2.8l5.9-.6zm50.9.2l5.8 2.3c-.3.1-.6.3-.8.4-.1 1.1-.1 2.1-.1 3.1l-6.7 3.2c-.7-.3-1.5-.6-2.3-.9v-5.2l3.9-1.8v-1zm42.4.5l6.2.9-1 .7c-.1 1.2-.1 2.3-.1 3.5l-5.2 3.8c-1.3-.1-2.6-.4-3.8-.6v-5.3c1.2-.8 2.5-1.7 3.8-2.6v-.2zm-51.4.5c1.2.7 2.4 1.3 3.7 1.9 0 1.8-.1 3.5-.1 5.3l-3.4 1.2-5.8-2.9c0-1.1 0-2.2.2-3.3l5.2-2.1zm-56.9.1c1.3 1 2.5 2 3.7 2.9-.1 1.8-.1 3.5-.2 5.2-.8 0-1.5 0-2.2.1l-6.9-5.6c0-.7.1-1.5.1-2.2l5.4-.2zm22.3.8l5.7 3.8c0 1-.1 2-.1 3l-5.6 1.2c-1.2-.7-2.2-1.4-3.2-2.1v-5.4c1-.1 2-.3 3-.4zm100.3.5l5.7.5-.7.6c-.1 1.2 0 2.4-.1 3.7l-5.9 4.6-3-.3c-.1-1.8-.1-3.6 0-5.4 1.3-.9 2.6-1.7 3.9-2.7 0-.3-.1-.6 0-.9zm-21.8.9l2.3.6v5.2l-1.8 1.1-7.2-1.7v-.9l6.6-4.4zm36 .1l6.3.2c-.4.3-.8.8-1.3 1.1-.1 1 0 1.9 0 2.8l-6 5c-1 0-2 0-3-.1V215l4-3.15v-.4zm-128.2.8l5.1 3.9c-.1 1.1-.1 2.1-.1 3.2l-6.2.6-2.9-2.1c0-1.7.1-3.5.1-5.3 1.2 0 2.5-.1 3.8-.2zm71.2 1.1l6.7 2.1c-.6.3-1.2.6-1.7.9 0 1.3-.1 2.5 0 3.7l-5.1 2.8v-.1c-1.3-.4-2.6-.8-3.9-1.3 0-1.7.1-3.5.1-5.3 1.2-.6 2.4-1.3 3.8-1.8v-.8zm-36.9.7c1.1.6 2.2 1.3 3.4 1.9-.1 1.8-.1 3.5-.1 5.2l-3.3 1-5.9-3.5c.1-.9.1-1.8.1-2.7-.1 0-.2-.1-.3-.1l5.9-1.7zm71.1.2c1 .2 2.1.2 3.2.3v5.5c-.4.2-.8.5-1.1.8l-8-1 .1-1.3 6-4.3zm-43.2.6c1.1.5 2.4.9 3.7 1.4v5.2c-1.2.6-2.4 1.3-3.7 1.8l-5.4-2.1V218l-.5-.1 5.8-2.83zm-20.7.1l6.2 3v2.3l-6.2 2.3-2.8-1.4.1-5.3c.9-.3 1.8-.6 2.6-.9zm78.2.6c1 .1 1.9.2 2.9.2 0 1.8.1 3.6.1 5.3-.5.4-1.1.8-1.6 1.2l-7.5-.7v-1.2l5.9-4.7zm13.4 1.1c1.3 0 2.6.1 3.9.1v5.4l-.8.7-8.2-.1V221l5.1-4.3zm-47.8.9l6 1.6c-.3.2-.7.4-1.1.7-.1 1.3-.1 2.6-.1 3.8l.1.1-5.9 3.7-3.3-.9v-5.3l3.9-2.4v-1.2zm-65.9.5c1.1.8 2.4 1.5 3.6 2.4 0 1.8-.1 3.4-.1 5.2-.9.2-1.8.4-2.8.5l-6.3-4.2c0-.9 0-1.8.2-2.7l5.2-1.1zm8.8 1.7l4.9 3c-.1.9-.1 1.8-.1 2.7L358 227c-.75-.5-1.5-.9-2.2-1.38-.05-1.8-.07-3.5 0-5.3 1.36-.3 2.64-.6 3.95-.84zm-22.6.6c1.1.8 2.1 1.6 3.2 2.4-.1 1.7-.1 3.4-.2 5.1-1 .2-2 .2-2.9.3l-6.2-4.8c0-.8.1-1.5.1-2.3l5.9-.6zm71.4.2c1 .3 2 .6 3 .8v5.3c-1.1.6-2.1 1.3-3.1 1.8l-6.2-1.9c0-.8.1-1.6.1-2.4l6.2-3.5zm22.3.1l6.8 1-1.7 1.1c-.1 1.2 0 2.3 0 3.4l-5.5 4c-1.2-.1-2.4-.3-3.5-.6 0-1.7-.1-3.5-.1-5.3 1.3-.8 2.6-1.6 4-2.5v-.9zm-108.7.8c1.2 1 2.4 2 3.7 3 0 1.7-.1 3.4-.1 5.1l-3.6.2-5.7-4.9h.2c.1-1.1.1-2.2.2-3.3l5.3-.1zm56.9.1c1.3.8 2.7 1.5 4 2.1 0 1.8-.1 3.5-.1 5.2-1 .4-1.8.7-2.7 1l-6.4-3.2c0-1 .1-2.1.1-3.1l5-1.9zm8.6.5l5.4 2.2c-.1 1-.1 2.1-.1 3.1l.6.2-5.8 2.8c-1.3-.5-2.5-.9-3.7-1.5l.1-5.2 3.4-1.5zm-42.8.6l5.7 3.7c-.1 0-.3.1-.4.1v2.6l-6.1 1.2c-.9-.7-1.9-1.3-2.8-1.9 0-1.8.1-3.7.1-5.5 1.1-.1 2.2-.1 3.3-.2zm100.2.1l6.3.5-1.3 1c-.1 1.1-.1 2.1-.1 3.2l-6.5 5.1c-.9-.1-1.7-.3-2.5-.4 0-1.7 0-3.5.1-5.3l3.9-2.8V223zm14.3.9l6.9.3c-.6.5-1.2.9-1.7 1.4-.1 1.3-.1 2.5-.1 3.8l-5 4.2v-.1c-1.3 0-2.7-.1-4-.1 0-1.8-.1-3.6-.1-5.4 1.3-1 2.6-2 4-3.2v-.8zm-36.6.3c1 .3 2 .4 2.9.6v5.2c-1.2.8-2.4 1.6-3.6 2.3l-5.6-1.4V228l6.2-3.9zm-91.8.4l5.1 4c-.2 1.1-.2 2.1-.2 3.1l-6.6.6-2.3-1.7c.1-1.8.1-3.6.1-5.4 1.3 0 2.6-.1 3.9-.2v-.3zm-18.2.6l2.3.1 6.5 5.5-.1 1.9-6.2.1c-.9-.8-1.8-1.5-2.6-2.2l.1-5.4zm52.5 1c1.2.7 2.6 1.4 3.9 2.1-.1 1.7-.1 3.5-.1 5.2-1 .3-2 .7-3 1l-6.2-3.5c0-.9-.1-1.8 0-2.7l-.6-.3 5.9-1.6zm71.6.5c1.1.2 2.2.2 3.3.3 0 1.8 0 3.7-.1 5.5-1 .7-1.9 1.4-2.9 2l-6.3-.8c0-.9-.1-1.8 0-2.8l5.8-4.1zm-35.1.3l5.9 1.9c0 1.1.1 2.1.1 3.2l-5.6 3.1c-1.2-.4-2.4-.8-3.5-1.3l.1-5.4c1-.5 2-.9 3-1.4zm-28.1.2l5.7 2.8c-.1 0-.1.1-.1.1 0 1.3-.1 2.6-.2 3.8 0 0 .1 0 .1.1l-5.1 1.9v-.2c-1.4-.6-2.7-1.3-4-2 0-1.8 0-3.6.1-5.3 1.1-.3 2.2-.8 3.3-1.1zm21.5.6c.7.3 1.5.5 2.2.8v5.3c-1.1.5-2.2 1-3.2 1.5L388 233c0-.7.06-1.4.1-2.1l6.63-3.2zm55.7.2l3.4.3c0 1.8.1 3.5.1 5.3L451 236l-5.9-.5c0-.9 0-1.9.1-2.8-.1 0-.3-.1-.4-.1l5.8-4.5zm14.9 1.1l3 .2v5.4l-2.7 2.1-6.3-.2c0-.8-.1-1.6-.1-2.4l5.9-5.1zm-115.3.9c1.4.8 2.6 1.7 4 2.6l-.1 5.3c-.7.2-1.4.3-2.1.4l-7-4.5c0-.9 0-1.8.1-2.8l4.9-1zm65.9 1.4l5.5 1.4c-.1 1.1 0 2.1 0 3.1l-5.9 3.7c-1.1-.2-2.2-.5-3.3-.7v-5.3c1.2-.7 2.3-1.5 3.5-2.1zm-56.7.5l5.1 3c-.1 1.3-.1 2.4-.2 3.6.2.1.4.2.5.3l-5.8 1.7-3.7-2.3v-5.3c1.3-.2 2.7-.5 3.9-.7v-.1zm-23.2.3c1.2 1 2.5 1.9 3.7 2.8-.1 1.7-.2 3.4-.2 5.1-1.4.2-2.8.2-4.2.2 0 .1.1.2 0 .2l-4.9-3.8c0-1.2 0-2.4.1-3.6l-.6-.3 5.9-.5zm71.7.7l3.4.9c0 1.8-.1 3.6-.1 5.4-.8.5-1.6.9-2.4 1.4l-6.7-2.1c0-.7-.1-1.5 0-2.2l5.8-3.3zm-86.5.4v.1c1.4 1.2 2.7 2.2 4.1 3.3-.1 1.7-.1 3.4-.1 5.1-1.1 0-2.1.1-3.1.1l-6.1-5c0-1.1.1-2.3.2-3.5l4.9-.1zm66.4.8l5.1 2c-.2 1.2-.2 2.3-.1 3.6l-5.8 2.8-3.3-1.3c.1-1.7.1-3.5.1-5.2 1.3-.6 2.6-1.1 3.9-1.7zm41.9.4l6 1c-.1 1-.1 1.9-.1 2.9l-5.9 4.2c-1.1-.1-2.1-.3-3.1-.5v-5.4c1.1-.6 2.1-1.3 3.1-2.1zm-49.9.1c.9.5 1.8.9 2.7 1.4 0 1.7 0 3.5-.1 5.3l-2.4.9-6.6-3.1c0-.6 0-1.3.1-2l6.2-2.4zm-35 .2l5.8 3.8c-.3.1-.5.1-.7.2 0 1.3-.1 2.5-.3 3.8h.1l-5.1.9v-.2c-1.4-.9-2.6-1.7-3.9-2.6 0-1.7 0-3.5.1-5.3 1.3-.1 2.6-.3 3.9-.5zm78 1.3c1 .3 1.9.5 2.9.7v5.2c-1 .7-2.1 1.3-3.1 1.9l-6-1.4c0-.8 0-1.6.1-2.4l6.1-3.9zm22.4.2l5.1.5c0 1.3-.1 2.4-.1 3.6.1 0 .2.1.3.1l-5.7 4.5c-1.3-.1-2.5-.2-3.7-.4V239c1.3-.92 2.6-1.84 3.9-2.82zm-132.5.4l2.6.2 6 5.2c-.1 1.2 0 2.3-.1 3.4l.1.1-5.1.1v-.2c-1.3-1.1-2.6-2.3-3.8-3.4l.1-5.3zm17.2.1l5.9 4.7c-.1.9 0 1.8 0 2.6l.6.6-5.7.5c-1.3-1-2.5-2-3.8-3l.2-5.3 3-.1zm128.9.7l5.8.2v1.8l-7.2 6c-.6 0-1.3 0-1.9-.1V240l3.3-2.64zm-22.8 1.5l3.9.6v5.3l-2.3 1.6-6.7-.9v-2.8l5.2-3.8zm-34.1.2l5.8 1.9c-.1.1-.3.2-.4.3v3.3l-5.4 3c-1.1-.4-2.2-.9-3.4-1.3v-5.4c1.2-.5 2.3-1.1 3.5-1.6zm-35.7.2c.8.5 1.6.9 2.4 1.3-.1 1.8-.1 3.5-.1 5.2l-2.6.8-6.5-3.6c0-.5-.1-1 0-1.5l6.8-2zm7 .1l5.7 2.9c-.1.1-.2.2-.3.2 0 1.2-.1 2.3-.1 3.5l-5.2 1.9c-1.2-.7-2.4-1.2-3.7-1.8v-5.5c1.1-.4 2.2-.7 3.4-1.1zm20.9.6c1 .4 1.9.7 2.9 1.1v5.1c-1 .5-2 1-3.1 1.5l-6.1-2.4.1-2.3 6.1-2.9zm57.5.5c.8.1 1.7.1 2.5.1 0 1.8-.1 3.6-.1 5.3-1 .7-1.9 1.5-2.8 2.2l-6.3-.7v-1.8l6.5-5.2zm12.8.1v1h3.9v5.4l-2 1.7-6.9-.2-.1-2.9c-.4 0-.7.1-1.1 0l6-4.9zm-113 2.6l2.8 1.9-.1 5.2c-1.2.3-2.5.5-3.7.7l-5.8-3.9.2-.1v-2.5l6.4-1.3zm65.2.4l5.1 1.2c-.1 1.1 0 2.2 0 3.3l-6.3 3.9-2.7-.7V246c1.3-.8 2.7-1.6 3.9-2.4v-.1zm-57.2.3l5.5 3.2c-.2.1-.3.1-.5.1-.1 1.3-.1 2.6-.1 3.8l-5.9 1.6c-1.1-.7-2.1-1.3-3.1-2 0-1.8 0-3.6.1-5.5 1.3-.3 2.6-.5 3.8-.8v-.6zm48.5 1.5c1.1.3 2.3.5 3.5.8v5.3c-.8.4-1.6.7-2.3 1.2l-6.8-2.1V248l5.5-3.1zm-70.4.2l2.3 1.7c-.1 1.7-.1 3.3-.1 5.1l-3.7.3-5.4-4.1V246l6.7-.6zm50.5.8l4.9 1.9c-.1 1.2 0 2.5 0 3.7l-5.9 2.7c-1.1-.5-2.2-.9-3.2-1.4V248c1.3-.6 2.7-1.2 4-1.9zm42.6.1l5.7.9-.4.3-.2 3.8s.1-.1.1 0l-5 3.6v-.1c-1.4-.2-2.7-.5-4-.7v-5.4c1.2-.8 2.5-1.6 3.7-2.5zm-108.1 0c.9.8 1.8 1.5 2.8 2.2 0 1.7-.1 3.5-.1 5.2h-3l-6.1-5.2v-2.2l6.3-.2zm56.9.1l3.2 1.6c0 1.7 0 3.5-.1 5.3-.7.2-1.3.4-1.9.7l-7.2-3.6v-1.8l5.8-2.3zm-36.1.5l6.5 4.3v2.9l-5.3.9c-1.2-.8-2.5-1.7-3.6-2.5 0-1.8 0-3.6.1-5.5l2.3-.3zm101.8 1.3l5.1.5h-.1c-.1.7-.1 1.4-.1 2.1l-7.7 6-1.4-.2c0-1.8 0-3.6.1-5.3 1.3-1 2.7-1.9 4-2.9v-.3zm-23 0c1.1.3 2.2.5 3.3.7 0 1.7-.1 3.5 0 5.2-1 .6-1.9 1.2-2.8 1.7l-6.4-1.4V252l5.7-3.7zm-110 .3c.9.1 1.9.2 2.9.2l5.9 5.1c-.1 1.1-.1 2.2-.1 3.3h-5l-3.7-3.2c0-1.8 0-3.6.1-5.4zm17.8.2l5.4 4.3c-.1.9-.1 1.9-.1 2.9 0 .1.1.2.2.3l-5.8.4-3.5-2.5c0-1.8.1-3.6.1-5.3 1.1-.1 2.3 0 3.5-.1zm149 .2h-.1c-.1 1-.1 1.9 0 2.8l-7 6.5c-.7 0-1.5.1-2.1.1V253c1.3-1.1 2.6-2.2 4-3.43v-.48l5.1-.3zm-19.8.2l5.8.1-.5.4c-.1 1.1-.1 2.3-.1 3.4l-5.5 4.5-3.6-.2c0-1.8-.1-3.5-.1-5.3l3.7-3zm-93.8 1.9c1 .5 2 1 3 1.6 0 1.7-.1 3.4-.1 5.1-1.4.4-2.7.7-4 1.1l-5.3-3.1c.1-1 .1-2 .1-3.1l6.2-1.7zm36.5 0l5.7 1.8c-.2.1-.4.3-.6.4 0 1-.1 1.9-.1 2.8l-5.9 3.2c-1-.4-2.1-.7-3.1-1.1 0-1.8.1-3.6.1-5.5 1.2-.6 2.4-1.1 3.6-1.7zm35.1.1c.9.1 1.8.3 2.7.4v5.3c-.7.5-1.4 1.1-2.1 1.6l-7-1.1c0-.6-.1-1.1 0-1.7l6.3-4.6zm-63.6 0l6 2.9c-.3 0-.6.2-.9.3 0 1.1 0 2.2-.1 3.3l-5.4 1.9-3.6-1.8v-5.4l3.9-1.2v-.1zm76.6.5v.5c1.3.2 2.7.3 4 .3v5.4l-2.3 1.8-6.8-.6v-2c-.5-.1-1-.1-1.5-.2l6.4-5.1zm-56.1.1c1 .4 2 .8 3 1.1-.1 1.7-.1 3.5-.1 5.2l-2.6 1.2-6.6-2.6v-1.9l6.1-3zm71.1 1.6h3.4v5.4l-1.9 1.5-7.2-.2v-2l5.6-4.7zM351 255c1.1.7 2.18 1.4 3.28 2.13-.03 1.73-.07 3.5-.04 5.25-1.05.2-2.07.4-3.1.58l-6.17-4.17c0-.9.12-1.8.2-2.6L351 255zm65.8.63l5.22 1.2c-.13 1.3-.12 2.65-.12 3.9.16.04.33.04.54.1l-5.7 3.64-3.83-.9v-5.36c1.3-.7 2.7-1.5 3.9-2.2v-.3zm-57.97 1.12l5.83 3.43c-.1.96-.16 1.87-.16 2.78l-5.82 1.62c-1.05-.65-2.06-1.3-3.05-1.93 0-1.74-.03-3.5 0-5.32 1.1-.18 2.18-.36 3.2-.58zm-21.58.54c.92.7 1.83 1.4 2.74 2-.1 1.7-.1 3.4-.2 5.1-1.2.1-2.4.2-3.6.2l-5.6-4.4c0-.9 0-1.8.1-2.6l6.4-.6zm70.37 0c1.4.4 2.7.8 4.05 1.1v5.3l-1.58.8-7.6-2.3c0-.8 0-1.6.1-2.3l5-2.8zm-105.68.2l6.36.4 2.78 2.4c-.02 1.7-.04 3.4-.04 5.1-1.38-.1-2.8-.2-4.16-.4l-5.06-4.7c.03-1 .04-2 .12-3zm86.26.6l5.45 2.1c-.13 0-.3.2-.4.2-.12 1.1-.07 2.2-.07 3.3l-6.37 2.9c-.8-.3-1.7-.7-2.7-1.1 0-1.8 0-3.5.1-5.3 1.4-.6 2.8-1.1 4.1-1.7v-.5zm-66 .1c1.1.9 2.23 1.8 3.36 2.7l-.16 5.1h-2.43l-6.7-5.7c0-.8 0-1.5.06-2.2l5.87-.1zm108.85.5l5.83.9-.58.4c-.03.6.02 1.2 0 1.8l-7.22 5.1-1.85-.3v-5.4c1.25-.8 2.48-1.7 3.82-2.5zm-51.38.1c1.1.6 2.24 1 3.28 1.5-.02 1.8-.06 3.5-.1 5.3l-3.45 1.2-5.83-2.8.24-.1c0-1 .1-2 .1-3l5.9-2.2zm-35.5.3l6 4c0 1.1-.1 2.1-.14 3.2l-5.3.9c-1.22-.9-2.43-1.6-3.58-2.4-.02-1.8 0-3.7.04-5.5 1-.1 2-.3 2.9-.4zm101.43 1.4l5.4.5-.3.2c-.08 1.2-.08 2.4-.08 3.6l-5.98 4.7c-1.03-.2-2.1-.3-3.1-.4V264c1.37-.93 2.7-1.83 4.06-2.8v-.55zm-133.2.2c1.17.1 2.34.1 3.55.2l5.8 5c-.2-.1-.36-.1-.52-.1 0 1.1.02 2.2-.03 3.2l-5.4-.1-3.48-3c0-1.8.05-3.6.08-5.4zm17.9.3l5.5 4.3c-.1 1-.05 2.1-.05 3.2l-5.95.4c-1.02-.8-2.08-1.6-3.12-2.5.05-1.8.07-3.5.07-5.3 1.18-.1 2.35-.1 3.56-.2zm93.34 0c.76.2 1.54.3 2.35.5v5.2l-2.4 1.5-6.9-1.7c0-.5 0-.9.1-1.3l6.7-4.2zm56.16.2c-.13.1-.2.2-.3.3-.1 1.4-.1 2.6-.1 3.8h.5l-5.8 5.3c-1.3.1-2.5.2-3.76.2-.08-1.7-.1-3.5-.08-5.2 1.4-1.2 2.7-2.4 4.06-3.6v-.6l5.48-.3zm-19.8.3l5.83.1c-.2.2-.48.4-.74.6l-.1 2.4-6.6 5.5c-.9 0-1.7-.1-2.5-.1v-5.3c1.3-1.1 2.6-2.2 4-3.3zm-23.78 1.2v1.1c1.3.1 2.7.3 4.05.4v5.4c-.47.3-1 .6-1.46.9l-7.6-1 .1-2.4-1-.2 6-4.3zm-33.7.5l6.33 2-1.2.6c-.07 1.2-.07 2.5-.07 3.7l-4.98 2.7c.03-.1 0-.1 0-.1-1.4-.5-2.74-.9-4.05-1.4.02-1.8.08-3.6.08-5.4l3.9-1.9v-.3zm-36.86.3l3 1.6c0 1.7 0 3.4-.03 5.1l-3.55.9-5.68-3.3.17-2.7 6.14-1.7zm6.76.8l6.44 3.1c-.02.8-.04 1.7-.04 2.5l-5.7 2.1-3.2-1.6V265c.82-.3 1.66-.54 2.5-.8zm21.53 0c1.13.4 2.25.9 3.4 1.3-.02 1.7 0 3.4-.04 5.1l-3.9 1.8-5.3-2.2c0-1.1 0-2.3.1-3.4 0 0-.1 0-.1-.1l5.9-2.8zm89.52.7c0 1.8.08 3.6.1 5.3-.62.6-1.26 1.1-1.92 1.7l-7.3.5c0-.4.08-.8.08-1.1l6.76-6.3c.7-.1 1.4-.1 2.2-.2zm-31.85.1l3.05.1c.03 1.7.05 3.5 0 5.3-.63.5-1.25 1-1.93 1.5l-7.14-.7c0-.6-.03-1.1 0-1.7l6.02-4.7zm13.4.5v.4c1.28.1 2.67.1 4 .1-.02 1.8.02 3.6.05 5.3-.45.3-.88.7-1.35 1.1l-7.72-.2c0-.8-.03-1.6-.08-2.3-.1 0-.14 0-.27-.1l5.37-4.5zm-114.18 1.5l3.36 2.1c-.03 1.7-.04 3.5-.04 5.3-.97.1-1.9.2-2.86.4l-6.33-4.3c-.02-.9.03-1.8.08-2.7l5.8-1zm65.97.2l5.7 1.3-.4.3c0 .7-.1 1.5-.1 2.3l-7.7 4.8c-.4-.2-.9-.3-1.4-.4v-5.3c1.4-.8 2.7-1.5 4-2.3v-.7zm-57.7 1.4l5.5 3.2v2.8l-6.5 1.6c-.8-.5-1.7-1.1-2.5-1.6l.1-5.4 3.6-.7zm-22.1.5c1 .7 1.9 1.5 2.9 2.2v5.1c-1 .1-2 .1-3 .2l-6.1-4.7c0-.8.1-1.6.1-2.3l6.3-.5zm-35.2 0l6.4.5c1 .8 2 1.7 2.8 2.5 0 1.6-.1 3.3-.1 4.9-1.1 0-2.3 0-3.5-.2l-5.5-5.2c0-.8 0-1.7.1-2.6zm107.1.6c1 .3 1.9.6 2.9.8v5.3l-3.2 1.7-6-2c.1-.9.1-1.7.1-2.6l6.2-3.4zm-92.6.2h5.7c1.1 1 2.3 2 3.5 2.8v5.2c-1.2 0-2.5-.1-3.7-.2l-5.6-4.8c.1-1 .1-2.1.1-3.1zm115 .3l6.4 1c-.4.3-.8.6-1.2.8 0 1.1-.1 2.2-.1 3.3l-5.4 3.9c-1.2-.2-2.4-.4-3.5-.6v-5.4c1.3-.8 2.6-1.7 3.9-2.6v-.5zm-52 .4c1.2.6 2.5 1.1 3.7 1.7v5.4c-.9.4-1.8.7-2.7 1l-6.3-3c.1-1 .1-2 .1-3l5.4-1.9zm8.3.3l5.9 2.2v3c.2.1.4.1.5.2l-5.9 2.7c-1.2-.5-2.5-1-3.8-1.6 0-1.7.1-3.5.1-5.3 1.2-.4 2.3-.9 3.3-1.4zm-43.2.1l5.9 3.9c0 .9-.1 1.9-.1 2.9l-5.9 1-3-2.1v-5.4l3.2-.3zm-46.5.6l3.7.6 5.3 4.9c0 .9-.1 1.9-.1 2.8l-6.3-.6-2.8-2.8.3.1c.1-1.7.1-3.4.1-5.1zm148 .4l5.9.6c-.2.3-.6.4-.9.6 0 .9-.1 1.9 0 2.7l-7 5.4c-.7-.1-1.3-.2-1.9-.2V276c1.3-.9 2.7-1.7 4.1-2.7 0-.3-.1-.6 0-1zm-23.5 0v.5l4 .9v5.3c-1.2.7-2.4 1.5-3.7 2.2l-5.4-1.3c0-1.1 0-2.2.1-3.4l-1.4-.3 6.5-4zm-109.7.3c.8 0 1.6.1 2.4.2l6.4 5.6c0 .7-.1 1.5-.1 2.3l-5.7-.1c-1-1-2.1-1.8-3.1-2.8l.3-5.3zm18.3.2l5.1 3.9c-.1 1.1-.1 2.2-.1 3.2l-6.4.5c-.9-.7-1.7-1.4-2.6-2 .1-1.8.1-3.6.1-5.4 1.4 0 2.6-.1 4.1-.1v-.2zm149.9.2c-.3.2-.5.4-.8.7-.1 1.3-.2 2.5-.2 3.9l.5-.1-5.8 5.4-3.7.1.1-5.2c1.3-1.1 2.7-2.3 4-3.5V273l6.1-.3zm-20.5.3l6.5.1c-.5.3-.8.7-1.3 1v3.8l-5.6 5v-.2c-1.3-.1-2.6-.1-3.9-.2v-5.3c1.3-1.1 2.6-2.1 4-3.2v-.5zm-95 2.1l3.7 1.9v5.2c-1.1.3-2.3.6-3.4.8l-5.9-3.5.1-2.9-.2-.1 5.9-1.6zm71.8.6c1.1.1 2.3.2 3.5.4v5.4c-1 .7-1.9 1.4-2.9 2.1l-6.1-.9V280l5.6-4.08zm-63.8.2l5.8 2.9v3.7h.1l-5.2 1.9v-.4c-1.3-.7-2.6-1.3-3.9-1.9V277l3.2-.9zm28.3 0l6.3 2v1.4l-7.3 3.8c-.6-.2-1.1-.4-1.6-.7.1-1.8.1-3.6.1-5.4l2.7-1.2zm-6.3.5c.8.2 1.5.6 2.3.8 0 1.7-.1 3.5-.1 5.3-1.1.5-2.1.9-3.3 1.4l-5.8-2.2v-2l6.9-3.3zm55.6.2v.1l4.1.1c.1 1.7 0 3.5 0 5.3-1.1.9-2.2 1.7-3.3 2.6l-5.9-.5c0-1 .1-2 .1-3.1-.3 0-.6-.1-1-.1l6-4.6zm33 0l.1 5.3c-1.1 1-2.2 1.9-3.3 3l-5.9.4c0-.8.1-1.6.1-2.3l6.6-6.2 2.5-.2zm-17.3 1.1c1 0 1.9.1 2.8.1v5.2c.2-.1.3-.1.4-.1-1 .9-2.1 1.7-3.1 2.5l-6.3-.1v-2l6.3-5.4zm-116.1.6c1.3.9 2.6 1.7 3.9 2.5l-.1 5.3-2.3.3-6.9-4.5c.1-.8.2-1.6.2-2.5l5.3-1zm-48.9 1.7l6.1.6c1.2 1 2.4 2 3.5 3.1v5.1c-1.2-.1-2.4-.3-3.5-.4l-5.8-5.4.2-2.8-.2-.3zm114.9.1l5.8 1.4v3l-6 3.7c-1-.3-2-.5-3-.8v-5c1.1-.7 2.3-1.3 3.4-2zm-8.6 0v1c1.3.4 2.8.8 4.1 1.1v5.3l-2.5 1.3-6.7-2.1c0-1 .1-2.1.2-3.2-.4-.1-.7-.2-1-.3l6.1-3.2zm-48.4.1l5.2 3c-.1 1.1-.1 2.3-.1 3.5.2 0 .4.2.6.3l-5.8 1.5c-1.2-.8-2.4-1.5-3.6-2.3l.1-5.4 3.9-.7zm-22.9.1c1.2.8 2.3 1.7 3.4 2.5 0 1.7-.1 3.4-.1 5.2-1.3.1-2.7.2-4 .2l-5.2-4.1c0-1.1.1-2.3.1-3.4l5.8-.5zm-20.3.7h5.3c1.3 1.1 2.6 2.1 4 3.2 0 1.8-.1 3.3-.1 5.2h-3.1l-6.2-5.3c0-1 0-2 .1-3zm72 1.5l5.3 2v1.8l-7.8 3.5-1.3-.5c0-1.8 0-3.6.1-5.3 1.3-.5 2.7-1 3.9-1.6zm-43.2.1h.1l5.7 4-.6.1c0 1.3-.1 2.6 0 3.8l-4.9.9v-.2c-1.4-1-2.7-1.9-4.1-2.8 0-1.8 0-3.6.1-5.4 1.4-.1 2.6-.3 3.9-.4zm35.3.1l2.9 1.4c0 1.8-.1 3.5 0 5.3-.9.3-1.9.7-2.8 1l-6.4-3.2c0-.6.1-1.3.2-2l6.2-2.4zm-82.4.3c1.3.2 2.6.5 3.9.7l5.1 4.8c-.1 1-.2 2.2-.2 3.3l.6.5-5.9-.5c-1.4-1.4-2.7-2.8-4-4 .2 0 .3.1.5.2 0-1.7.1-3.4.1-5.1zm132.9.1l5.9.9c0 .8-.1 1.5-.1 2.2l-6.7 4.6c-.8-.1-1.6-.3-2.4-.5v-5c1.1-.7 2.2-1.3 3.2-2zm-118.4.9c1 0 2 .1 2.9.2l5.9 5.1c.1 1.3.1 2.5 0 3.7h.1l-5.2-.2v-.1c-1.3-1.2-2.5-2.4-3.8-3.5 0-1.8.1-3.6.1-5.3zm17.5.5l5.9 4.6c-.1.9-.1 1.9-.1 2.8.3.2.5.4.8.5l-5.9.5c-1.3-1-2.5-2-3.8-3.1 0-1.9.1-3.5.1-5.3 1.1 0 2.1 0 3.2-.1zm93.4.2c1 .2 2.1.5 3.1.7 0 1.7-.1 3.5 0 5.3-1 .6-2 1.2-3 1.9l-6.1-1.5c0-.9.1-1.7.1-2.6l6.1-3.8zm22.5.4l5.4.5c-.1 1.2-.1 2.2 0 3.3h.4l-5.9 4.5-3.7-.4h.2c0-1.8 0-3.6-.1-5.3 1.3-.9 2.6-1.7 3.8-2.6zm34.3.7v3.5h.3l-5.7 5.3c-1.3.1-2.7.2-3.9.2l.4-.2c0-1.8-.1-3.5-.1-5.2l3.9-3.3 5.3-.4zm-20.3.3l5.9.1v3.8l-4.9 4.2v-.1c-1.3-.1-2.7-.1-4-.1 0-1.8-.1-3.6-.1-5.4 1-.9 2.1-1.7 3.2-2.6zm-23 1v.6c1.3.1 2.6.3 4 .4.1 1.7.2 3.5.2 5.2.1 0 .1 0 .3-.1-.8.7-1.7 1.2-2.6 1.9l-6.8-1v-3.1l-.3-.1 5.4-3.9zm-43.2.2v.6c1.4.6 2.8 1 4.2 1.5v5.3c-1 .5-2 .8-3 1.3l-6.2-2.3.1-2.8-1.5-.5 6.5-3zm-27 .2c.8.4 1.7.9 2.5 1.3 0 1.7-.1 3.4-.1 5.2-.9.2-1.9.5-2.8.7L360 291v-1l6.8-1.9zm36 .1l5.7 1.9-.2.1v3.2l-5.5 2.9c-1.3-.4-2.4-.8-3.5-1.2 0-1.8 0-3.6.1-5.4 1.2-.5 2.3-1.1 3.5-1.6zm-29.1.1l5.8 2.9v1.9l-7.2 2.5-1.8-.9c0-1.8.1-3.6.1-5.4 1.1-.3 2.1-.7 3.2-1.1zm110.9 1.1c0 1.7 0 3.4.1 5.2-.9.8-1.7 1.6-2.6 2.5l-6.4.4v-2l6.3-5.9 2.7-.2zm-31.4.1c.8 0 1.6.1 2.4.1l.1 5.4-2.8 2.1-6.4-.6v-2l6.6-5.2zm14 1h2.8c.1 1.7.1 3.5.2 5.2l.7-.3-2.8 2.2-7-.1v-1.8l6.1-5.3zm-116 1.8c.9.6 1.9 1.2 2.8 1.8 0 1.7 0 3.4-.1 5.2h.3l-3.5.6-5.8-3.8v-.1c0-.8 0-1.6.1-2.4l6.3-1.2zm8.2.8l5.2 3.1c0 .7-.1 1.5-.1 2.3l-7.7 1.9c-.5-.3-1-.7-1.5-1h.2c.2-1.8.2-3.5.2-5.2l4-.8v-.5zm57.6.1l5.2 1.2v2.5l-7.1 4.4-2.2-.6c.1-.1.2 0 .3 0l-.1-5.3c1.4-.8 2.7-1.5 4-2.3zm-115.5.7l6.9.7c.7.7 1.5 1.3 2.2 2l-.3 5.1c-1-.1-1.9-.2-2.9-.2l-6.2-5.9c0-.6 0-1.2.1-1.7zm35.9.4l2.3 1.7c0 1.7-.1 3.4-.2 5.1l-3.5.3-5.8-4.5c0-.7.1-1.4.1-2.1l6.9-.6zm70.8.3c1.2.3 2.4.7 3.6 1v5.3l.4-.1c-1 .5-1.9 1-3 1.5l-6.7-2.2c-.1-.9-.1-1.7 0-2.5l5.5-3zm-29.4.1v.7c1.2.7 2.6 1.2 4.1 1.8 0 1.7-.1 3.5-.1 5.2h.4c-.8.3-1.6.5-2.4.8l-7.1-3.4c-.1-1-.1-1.9 0-2.9l-.8-.5 5.8-2.1zm-63.1.2l6.4.1c.9.8 1.8 1.5 2.8 2.3 0 1.8-.1 3.3-.1 5.1h-3.1l-6.3-5.7c0-.7.1-1.3.1-2zm72.3.7l5.1 2.1c-.1 1.2-.1 2.3-.1 3.5l-6 2.7c-1.1-.4-2.3-.9-3.4-1.4h.2c0-1.7.1-3.5.1-5.2 1.3-.5 2.6-1.1 3.9-1.7v-.1zm-91 .3c1.3.2 2.6.5 4 .8v-.3l4.8 4.8c0 .7 0 1.4-.1 2.1l-7.7-.9-1.4-1.3c.1-2 .2-4.2.2-5.3zm46.4.1l6.1 4.2v1.5l-7.2 1.2c-.7-.4-1.3-.8-1.9-1.3.1-1.7.1-3.5.2-5.4.9 0 1.8-.1 2.7-.2zm87.4.1l5.9.9c-.1.1-.3.1-.4.2 0 1.2.1 2.5.1 3.8l-5 3.5v-.1c-1.5-.2-2.8-.5-4-.7l-.2-5.4 3.5-2.3zm-119.2.8l3.1.3 5.7 5.2c0 .6-.1 1.2-.1 1.8l-7.3-.3-1.8-1.6c0-1.8.2-3.7.3-5.5zm183.5.1l-.7.7c-.1 1.3 0 2.7.1 3.9.1-.1.2-.1.3-.1l-5.2 5.3c-.1-.2 0-.3-.1-.4-1.5.1-2.9.3-4.2.4l-.2-5.3c1.3-1.2 2.6-2.4 4-3.8l6-.9zm-165.4.6l5.3 4.2-.1 1.8-7.6.4-1.4-1.2c0-1.9.1-3.5.1-5.3 1.2 0 2.5 0 3.7-.1zm92.2.1c1.3.4 2.7.7 4.1 1l.1 5.2-3 1.8-6.4-1.5V301c-.2-.1-.5-.2-.8-.25l5.9-3.7zm23.7.3l5.1.4c-.1 1.4-.1 2.6 0 3.8h.4l-5.8 4.5c-1.2-.1-2.4-.2-3.7-.4-.1-1.9-.1-3.5-.1-5.4 1.3-.9 2.7-1.8 4-2.9v-.1zm34.3.5c0 .1-.1.1-.1.1v3.6l-5.8 5.7c-1.1.1-2.3.1-3.3.2 0-1.8 0-3.4-.1-5.3 1.4-1.2 2.8-2.4 4.2-3.5v-.4l5.1-.3zm-20.1.5h5.9c-.2.1-.3.2-.4.3v3.7l-5 4.3c-1.4 0-2.7 0-4-.1l-.1-5.3 3.6-3zm-95.9.2v.6c1.3.7 2.7 1.6 4.2 2.4 0 1.8-.1 3.5-.1 5.2-1.3.4-2.5.7-3.7 1l-5.6-3.3.1-3.1-1.5-.9 6.6-1.7zm9.5 1.6l5.7 2.8-.8.3v3.4l-5.4 2c-1.3-.7-2.5-1.3-3.7-1.9.1-1.8 0-3.6 0-5.4 1.3-.5 2.7-.9 4.1-1.3zm28.5 0l5.8 1.8c-.2 0-.3.1-.4.2v2.4l-6.4 3.5c-.8-.3-1.7-.6-2.5-.9 0-1.8.1-3.6 0-5.4 1.2-.5 2.4-1.1 3.6-1.6zm35.4.3l2.9.3c0 1.9.1 3.5.1 5.5-.7.4-1.4.9-2.1 1.4l-7.1-1.1c.1-.6.1-1.2.1-1.8l6.1-4.4zm-43.4.4c1 .4 2 .7 3 1.1v5.4c-.9.4-1.7.8-2.6 1.2l-6.6-2.7v-2l6.2-2.9zm90 .5l.3 5.3c-.8.8-1.6 1.6-2.5 2.4l-6.6.5c-.1-.7-.1-1.5-.1-2.2l5.8-5.6c1-.1 2.1-.2 3.1-.4zm-31.5.3c.9 0 1.7 0 2.5.1 0 1.8.1 3.6.1 5.3l-2.6 2.1-6.6-.6c0-.6-.1-1.1-.1-1.8l6.6-5.2zm-103 .2v1c1.3.8 2.6 1.7 4 2.6l-.1 5.2-2.7.5-6.5-4.6c0-1 .1-2.1.2-3.1l-1-.8 6.1-1zm117 .8h2.9c0 1.9.1 3.5.2 5.4-.7.5-1.5 1.1-2.2 1.7l-7-.1V308l6-5.2zM299 304l6.5.7v.4l4.13 3.9-.2 5.1-2.6-.3-6.5-6.3c0-.8 0-1.5.04-2.2l-1.4-1.4zm35.7 1c.04.1 0 .2 0 .3 1.35 1.1 2.83 2.3 4.3 3.3-.1 1.7-.1 3.3-.2 5-1.17 0-2.3.2-3.4.2l-5.8-4.6c.08-1 0-1.9.1-2.9l-1.32-1.13 6.4-.4zm-20.5.3l6.05.3-.04.9 4 3.4c-.1 1.8-.2 3.3-.2 5.1-.7 0-1.4-.1-2.1-.1l-6.9-6.2c.1-.9.1-1.8.1-2.8-.2-.3-.5-.5-.7-.7zm102.5.3l5.25 1.2c-.05 1.2-.06 2.5-.1 3.7l.53.2-5.8 3.5-3.85-.9c-.06-1.9 0-3.4-.07-5.3 1.4-.77 2.8-1.57 4-2.4v-.1zm-58.44.5l5.6 3.3-.14 3-6 1.4c-.98-.6-2-1.2-3-1.82v-5.35c1.2-.24 2.4-.38 3.55-.6zm49.04.5v.5l4.16 1.1c.04 1.9 0 3.5.05 5.36l-1.7.9h-.1l-7.5-2.3c0-.86 0-1.7.1-2.6-.1 0-.2-.15-.3-.2l5.4-2.8zm-19.6 1.2l5.4 2.1c-.06 0-.2.1-.25.1-.2.93-.1 1.84-.1 2.76l-7.2 3.3c-.7-.35-1.57-.67-2.3-1h.4l-.1-5.18c1.4-.54 2.7-1.07 4.07-1.68-.03-.14 0-.3 0-.45zm-91.5.3c1.3.23 2.66.53 4 .85v-.6l5.2 5.06h-.24c-.13 1.1-.2 2.3-.27 3.6l-6-.7c-1-1-2.1-2-3-3 .1-2 .2-4.2.3-5.3zm47.33.24l5.85 4.06h-.2c0 1.1-.1 2.2-.13 3.28l-5.7.9c-1.1-.85-2.3-1.7-3.4-2.55.1-1.76.15-3.55.23-5.34l3.37-.3zm35.38 0c1.2.5 2.4 1 3.6 1.55v5.1h.5l-3.8 1.3-5.9-3c0-1 0-2 .1-2.9l5.7-2.2zm52.1.2l5.9 1c-.2.1-.3.23-.5.4-.1 1.2 0 2.4.1 3.6l-5.1 3.65c-1.4-.3-2.7-.5-4-.8 0-1.9-.1-3.6-.2-5.4 1.3-.8 2.6-1.6 3.8-2.4zm-120.1.66c1.3.17 2.6.36 3.9.4h.1l5.7 5.16c-.2 0-.4-.03-.7-.05l-.1 3.4-5.5-.2c-1.1-1-2.2-2.1-3.4-3.1l.2-5.4zm184.9.2c-.4.36-.7.7-1 1 .1 1.2.2 2.46.2 3.66l-4.8 5.13c-1.4.1-2.8.3-4.2.4 0-1.8-.1-3.6-.2-5.3 1.3-1.3 2.7-2.5 4-3.8v-.3l6.2-.9zm-170.3.7c1.3 0 2.6.05 3.9.02l5.1 4.1c-.1 1.1-.2 2.2-.2 3.26l.1.1-6 .4c-1-.9-2-1.77-3.1-2.6l.3-5.37zm120.2.53l5.6.47-.3.3c0 1.28 0 2.55.1 3.75h.3l-5.8 4.44-3.6-.3-.1-5.4c1.4-1 2.8-1.8 4-2.8l-.1-.4zm-22.2.3l2.6.6c.1 1.76.1 3.5.1 5.26l-2.4 1.3-6.8-1.6V315l6.5-4.2zm57 .3l-.2.24c-.1 1.25 0 2.6.1 3.83.3-.03.6-.02.9-.04l-5.6 5.42c-1.5.1-2.9.22-4.3.26l-.2-5.4c1.3-1.15 2.7-2.3 4.2-3.5 0-.16-.1-.36-.1-.5l5.4-.4zm-20.1.4h.1l5.9.1c-.2.2-.4.35-.6.55 0 1.1.1 2.13.2 3.2l-5.4 4.8c-1.3-.1-2.5-.1-3.7-.2l-.1-5.4c1.3-1.05 2.5-2.1 3.9-3.15zm-95.5 1.5c1.1.55 2.1 1.2 3.2 1.76-.1 1.7-.1 3.4-.1 5.1-1.1.3-2.2.6-3.3.8l-6-3.6c.1-.9.1-1.7.2-2.6l6.2-1.6zm37.5.06l6.2 1.9c-.3.2-.6.4-1 .5v3.7l-5.2 2.7v-.2c-1.3-.4-2.7-.9-4-1.4.1-1.8.1-3.6.1-5.4 1.3-.6 2.7-1.2 4-1.8v-.2zm96.8.3c.2 1.9.3 3.5.4 5.3-.4.5-.7.9-1.2 1.3l-8 1.3c0-.3.1-.7 0-1l6-6.3 2.9-.6zM393 314v.16c1.34.54 2.73.96 4.14 1.44 0 1.8 0 3.55-.07 5.27-1.2.54-2.36 1.1-3.5 1.64l-5.7-2.3c0-1 0-2.1.05-3.1l-.85-.4 6-2.6zm-20.72.05l6.17 3v2.2l-6.75 2.4-2.3-1.17c0-1.8 0-3.6.02-5.44.97-.3 1.93-.6 2.9-.93zm65.5 0c.95.2 1.88.3 2.85.3.04 2 .12 3.6.15 5.5l-1.47 1.2-7.7-1.1c0-.45.1-.9.1-1.4l6.2-4.4zm-152.5 1l5.86 1.2c1 1.2 2.1 2.37 3.3 3.53l-.3 5c-1.1-.2-2.2-.4-3.3-.7l-5.8-6.23c.1-.9.13-1.85.2-2.8zm199.4.2c.1 1.7.14 3.5.22 5.23-.7.6-1.3 1.25-1.97 1.86l-7.1.45c-.03-.3-.05-.6-.05-.8l6.84-6.6 2.04-.2zm-31.93.17c.87.06 1.76 0 2.67.07.07 1.7.1 3.6.1 5.4l-2.05 1.6-7-.6c0-.6.1-1 .1-1.5l6.3-5.1zm13.83.9c1.1.05 2.3.1 3.44.1.1 1.9.16 3.47.24 5.33l-1.5 1.25-7.8-.06c0-.55-.1-1.15-.1-1.74l5.64-4.8zm-116.8.5c1.2.72 2.36 1.5 3.56 2.26l-.07 5.26c-.9.15-1.77.27-2.6.42l-6.7-4.6c0-.8.1-1.6.1-2.4l5.73-.93zm-49.7.9l6.26.7 2.94 2.7c-.1 1.73-.2 3.5-.26 5.17-1.3-.2-2.52-.3-3.86-.5l-5.3-5.2c.07-1 .15-1.9.25-2.9zm117.1.08l5.53 1.3c-.1.08-.2.1-.4.2 0 1.3-.1 2.5 0 3.87l.5.15-5.8 3.6c-1.2-.3-2.5-.64-3.8-.94l.1-5.35c1.3-.76 2.6-1.45 4.1-2.26v-.55zm-58.5.66l5.13 3.1c0 .8 0 1.64-.1 2.5l-7.2 1.73c-.7-.4-1.4-.8-2-1.2 0-1.9.1-3.5.1-5.4 1.4-.3 2.7-.5 4-.7v-.1zm-22.85.23c.96.7 1.88 1.5 2.85 2.2l-.1 5.2-2.8.1-6.47-5.2c.1-.7.1-1.3.2-2l6.4-.5zm-21.2.4l5.95.1 3.4 3c-.05 1.8-.1 3.3-.2 5.1-.72 0-1.44 0-2.15-.1l-7.1-6.3c0-.7.05-1.3.1-1.9zm94.15 1c1 .2 2.08.6 3.1.8v5.3l-3 1.5-6.42-2.1c0-.8.03-1.6.06-2.4l6.3-3.3zm-30.33.2v.3l4.2 1.9c0 1.8-.03 3.4-.06 5.3l-2.7.9-6.6-3.2c0-1.1.1-2.1.1-3.2l-.3-.2 5.3-2zm-82.63.1l3.5.6 5.5 5.3c-.05.7-.14 1.3-.2 2l-7.17-.9c-.66-.7-1.2-1.3-1.8-2 .1-2 .12-4.2.17-5.2zm47.76.4l5.8 4-.35.1-.08 2.3-6.77 1-2.5-1.8.18-5.4c1.2-.1 2.4-.2 3.64-.4zm88.1 0l6.4.9c-.4.2-.7.5-1.1.8 0 1.2-.14 2.4-.1 3.6l-5.2 3.6c-1.4-.3-2.77-.5-4.05-.8.04-1.8-.03-3.6-.03-5.4 1.36-.9 2.64-1.6 4-2.5v-.4zm-44.2.2l5.5 2.1c-.07 1.1-.08 2.2-.06 3.3.14.1.3.1.44.2l-5.86 2.6c-1.26-.5-2.5-1-3.7-1.5.05-1.9.05-3.4.07-5.3l3.6-1.5zm109.65.5c-.45.5-.88 1-1.35 1.5 0 1.2.1 2.4.1 3.6l-4.9 5.1h-.02c-1.4.2-2.9.4-4.25.5l-.2-5.3 4.1-3.8v-.6l6.7-1zm-186.6.1l4 .3 5.7 5.2c-.23 0-.5-.1-.77-.1-.1.9-.1 1.7-.17 2.4l-6.6-.3c-.8-.8-1.6-1.5-2.3-2.2 0-1.8.1-3.6.1-5.5zm18.7.5l5.24 4.2c-.08-.1-.1 0-.18 0-.1.9-.2 1.8-.2 2.7l-7.2.4c-.7-.6-1.4-1.1-2.1-1.7l.2-5.3h4v-.5zm117.2.7l5.83.5-.7.4c0 1.3.03 2.5.1 3.7l-6.18 4.7-3-.4c-.05-1.8-.1-3.8-.1-5.5 1.27-.9 2.65-1.8 4.04-2.9v-.8zm35.4.5c-.3.2-.5.5-.8.7.06 1.3.06 2.6.14 3.8l.5-.1-5.9 5.5c-1.3.1-2.56.1-3.8.2l-.16-5.2c1.4-1.2 2.7-2.5 4.1-3.7v-1l6-.4zm-57.98.2c.8.2 1.7.4 2.6.6v5.2c-1.17.7-2.34 1.3-3.5 1.9l-5.78-1.3.03-2.4 6.6-4.2zm37.17.3l6.5.1c-.4.3-.8.7-1.15 1-.06 1.2 0 2.5.04 3.8h.6l-5.5 4.7v-.6l-4.1-.3c0-1.8-.1-3.5-.1-5.3 1.3-1.1 2.7-2.1 3.9-3.1v-.4zM363.7 325c1.4.77 2.7 1.6 4.12 2.4 0 1.7.05 3.4.05 5.17-1.07.27-2.1.5-3.2.8l-6.3-3.7c0-.85.02-1.75.1-2.6-.3-.2-.56-.3-.85-.5l6-1.5zm9.1 1.24l5.8 2.8-.2.07c-.1 1.3-.1 2.6-.1 3.9l-5.2 1.9v-.1c-1.34-.7-2.6-1.3-3.95-1.9 0-1.8 0-3.6.05-5.4 1.18-.4 2.4-.7 3.56-1.1zm28.8.08l6 1.95V332l-5.14 2.6v-.03l-4.1-1.5c.06-1.8.04-3.6.04-5.36l3.13-1.4zm36.4.13c1 .2 2.04.37 3.1.5 0 1.7.1 3.6.12 5.3-.9.6-1.8 1.23-2.7 1.9l-6.7-1.1c-.06-.75 0-1.48 0-2.25l6.2-4.4zm-43.37.67c.8.27 1.62.57 2.5.88v5.3c-1 .44-2.07.8-3 1.26l-6.3-2.4v-1.95l6.8-3.1zm90.7.4c.05 1.76.12 3.5.23 5.26-1 .97-2 1.9-3.04 2.83l-6.18.5c-.07-.7-.04-1.3-.1-2l6.6-6.2c.8 0 1.6-.1 2.46-.2zm-32.73.3l3.25.05c.03 1.8.1 3.64.16 5.4-1 .8-2.1 1.6-3.1 2.4l-6.1-.5c0-.9-.1-1.8-.1-2.75.1-.07 0-.07 0-.07l6-4.55zm53.7.1l-1.6 1.7 1.7-.7.17-.13-.3-.9zm-157.33.2v.5c1.3.9 2.7 1.8 4.1 2.7l-.2 5.25-1.96.3-7.3-4.97.2-2.56c-.1-.1-.3-.2-.4-.3l5.5-.9zm121.56.6c.1 1.9.14 3.6.22 5.4l-2.5 2-6.8.1c0-.6 0-1.1-.05-1.7l6.63-5.76c.8 0 1.6 0 2.43-.04zm-136.3 1.3l4 3.2-.1 5.08-2.66.17-6.63-5.17c0-.74.04-1.5.1-2.23-.3-.25-.57-.48-.8-.65l6.1-.4zm-20.4.2l5.45.2v.4c1.3 1.2 2.67 2.3 4.06 3.46l-.1 5.3c-1.1 0-2.17-.15-3.27-.24l-6.1-5.46c.1-1.1.14-2.3.24-3.5l-.2-.2zm44.56.34l5.2 3.1-.3 3.63.5.3-6.1 1.6c-1.3-.9-2.5-1.7-3.7-2.4l.1-5.4c1.4-.3 2.8-.6 4.1-.7v-.3zm58.5.4l5.4 1.3c-.1 1.1 0 2.2 0 3.3.1 0 .3 0 .4.02l-6 3.64c-1.3-.34-2.5-.64-3.7-.9v-5.3c1.2-.68 2.5-1.35 3.8-2.07zm-8.1 1.43c1 .2 2 .6 3 .8v5.3l-2.4 1.3-7.1-2.3v-1.8l6.3-3.4zm-65.3.5l6 4.1c-.3 0-.7 0-1.1.1 0 1.2.1 2.5.1 3.8l-5.2.8v-.1l-4.1-3 .1-5.3c1.4-.1 2.7-.3 4.1-.4v-.1zm44.1.1l5.2 2.1-.1 3.7.5.2-6 2.5c-1.3-.5-2.5-1-3.7-1.5v-5.3c1.4-.5 2.8-1 4-1.6v-.2zm-8.3.5c1 .4 2 .9 3 1.3-.1 1.8-.1 3.4-.1 5.3l-2.5.8-6.9-3.3v-1.8l6.4-2.4zm51.7.5l6.1.9h-.1c-.1 1.1 0 2.1 0 3.2l-5.8 4c-1.2-.2-2.4-.4-3.5-.7l-.1-5.4 3.3-2.1zm-102.4.2l5.4 4.2h-.3c-.1 1.2-.2 2.5-.2 3.7.2.1.5.4.7.5l-6.2.2-3.8-3 .1-5.2h4.1v-.6zm95.2 1.6l2.6.6.1 5.1c-1 .6-1.9 1.2-2.9 1.7l-6.4-1.6c-.1-.7 0-1.3 0-1.9l6.6-4.1zm22.7.2l5.2.5v3.6h1l-5.9 4.5v-.1c-1.4-.2-2.8-.4-4.2-.5-.1-1.9-.1-3.5-.1-5.4 1.3-.9 2.6-1.8 3.9-2.8zm-81.5 2.2c.8.4 1.7 1 2.5 1.4v5.1c-.9.2-1.8.4-2.6.6l-7-4.2c0-.5.1-.9.1-1.4l6.9-1.8zm37 .2l6 1.9-.4.2v3.6l-5.2 2.8v-.1l-4-1.4c0-1.8-.1-3.6-.1-5.4 1.2-.5 2.5-1.1 3.7-1.7zm-29.5.1l5.9 2.8c-.1 0-.3 0-.4.1v3.8l-5.2 1.8v-.2c-1.3-.7-2.7-1.3-4-1.9v-5.4c1.2-.4 2.5-.7 3.7-1.1zm65.1.2l3.6.4c0 1.9 0 3.6.1 5.4-.7.4-1.5.9-2.1 1.4l-7.4-1.1v-2.3l5.7-4zm-43.2.6c.8.3 1.7.6 2.6.9v5.2c-1 .4-1.9.8-2.8 1.2l-6.6-2.6v-1.8l6.7-3z" opacity=".5" transform="translate(-52.625 -80.754)"/><path fill="#fff" fill-rule="evenodd" d="M316.96 25.45c5.37 1 9.92 8.03 9.36 13.47-19.77 192.38-43.02 401.55-61.48 587.27 0 0-2.05 12.8-7.02 15.8-20.94 12.3-50.86 4.4-72.6-6.5-14.85-7.4-28.58-21-33.38-36.9-4.97-16.4 3.37-34.3 7.6-51 43.33-169.7 100.46-356.6 142.3-512 1.6-5.9 9.2-11.4 15.23-10.3z" opacity=".11"/><path fill="#cb5c00" d="M370.33 8.12a30.17 4.76 0 1 1-60.35 0 30.17 4.76 0 1 1 60.35 0z"/><path fill="url(#q)" fill-rule="evenodd" d="M58.2 815.8s2.1 5.3 6.9 7.5c4.03 1.85 19.4 1.2 19.4 1.2h631.17c3.4 0 7-.05 10.08-1.46 3.33-1.52 3.97-5.2 3.97-5.2s1.63 6.47-2.1 10.43c-2.65 2.8-7.37 2.85-11.23 2.85-209 .05-427.3 0-639 0-5.5 0-12.4.48-16.1-3.57-5-5.5-3.2-11.75-3.2-11.75z" transform="translate(-52.625 -80.754)"/><path fill="url(#r)" fill-rule="evenodd" d="M95.22 112.3c-2.48 7.1-2.14 11.64-6.96 13.9-11.3 5.34-23.62 4.1-35.72 4.3-12.33.18-24.9.1-36.92-2.55-3.18-.7-5.64-4.02-6.7-7.1-.68-2-2.28-3.7-2-6.68.07-.76.87-1.23 1.62-1.37.66-.12 1.75-.12 2.53.57 1.7 1.5 2.8 3.64 4.28 3.94 12 2.5 24.55 3.7 37.73 3.7 9.8.1 16.9 0 26.35-2.6 1.58-.4 6-1.2 7.36-2.1.7-.5 1.3-1.3 2.1-1.8 1.4-1 2.7-2.6 4.4-2.8.6 0 2.1.2 1.8.8z" transform="translate(122.74 174.656) scale(4.37655)" opacity=".71"/><path fill="#ee6900" fill-rule="evenodd" d="M-1.07 89.84s-2.62 1.9-2.98 4.3c-.6 4.05 4 9.7 6.52 12.92 2.72 3.48 8.27 5.93 12.34 7.64 6.4 2.65 13.4 3.63 20.2 4.4 6.6.75 14.6.46 21.2 0 6.8-.47 15.8-1.1 18.9-1.7 7.2-1.36 12.8-3.48 18.1-7 2.3-1.5 5.3-4.52 6.7-6.8 1.1-1.74 3.2-5.32 3.3-7.38.1-1.16-2.9-3.55-2.9-3.55s-1.6 10.77-16.4 17.13c-8.5 3.66-17.9 4.74-27.2 5.27-8.9.5-20.1.15-28.9-1.65-6.5-1.34-11.8-3.78-17.8-6.8C3.7 103.42.6 95.1-.7 91.8c-.95-2.48-.37-1.98-.37-1.98z" transform="translate(122.74 174.656) scale(4.37655)" filter="url(#s)"/></svg>
