<?xml version="1.0" encoding="UTF-8"?>
<svg width="40px" height="68px" viewBox="0 0 40 68" version="1.1" xmlns="http://www.w3.org/2000/svg" xmlns:xlink="http://www.w3.org/1999/xlink">
    <!-- Generator: Sketch 47 (45396) - http://www.bohemiancoding.com/sketch -->
    <title>ArrowJosefin</title>
    <desc>Created with Sketch.</desc>
    <defs></defs>
    <g id="Page-1" stroke="none" stroke-width="1" fill="none" fill-rule="evenodd" fill-opacity="0.8">
        <g id="Desktop-HD" transform="translate(-704.000000, -371.000000)" fill="#296DCB">
            <g id="ArrowJosefin" transform="translate(704.829268, 371.000000)">
                <path d="M9.53733387,44.9839503 C10.037945,48.1446849 10.9419178,50.3110111 12.2488354,53.0740373 C13.555753,55.8370636 14.8514779,57.953578 17.0111048,60.1767859 C18.4508561,61.6589246 19.1707317,62.3999939 19.1707317,62.3999939 L19.1707317,68 C16.1547496,66.2338065 14.0577151,64.88811 12.879628,63.9629106 C9.33444311,61.1787334 7.19040006,58.5000397 6.44749887,57.5365854 C4.77768801,55.3710397 3.38132455,53.5605242 2.25836658,51.092364 C1.13540862,48.6242038 0.390383375,46.2312236 0.0232685108,43.9133515 L9.53733387,44.9839503 Z M28.8042539,44.9839503 L38.3183192,43.9133515 C37.9512044,46.2312236 37.2061791,48.6242038 36.0832212,51.092364 C34.9602632,53.5605242 33.5638997,55.3710397 31.8940889,57.5365854 C31.1512588,58.4999474 29.0237679,61.1783747 25.5116161,63.9621111 C24.3441703,64.8874303 22.2305422,66.2333933 19.1707317,68 L19.1707317,62.3999939 C19.1707317,62.3999939 19.8906488,61.6589246 21.3304829,60.1767859 C23.4902342,57.953578 24.7858347,55.8370636 26.0927523,53.0740373 C27.3996699,50.3110111 28.3036427,48.1446849 28.8042539,44.9839503 Z" id="Combined-Shape"></path>
                <polygon id="Rectangle-4" points="15.9207939 0 22.4207939 0 22.4207939 59 19.1807415 62.4100037 15.9207939 59"></polygon>
            </g>
        </g>
    </g>
</svg>