<?xml version="1.0" encoding="UTF-8"?>
<svg width="40px" height="68px" viewBox="0 0 40 68" version="1.1" xmlns="http://www.w3.org/2000/svg" xmlns:xlink="http://www.w3.org/1999/xlink">
    <!-- Generator: Sketch 47 (45396) - http://www.bohemiancoding.com/sketch -->
    <title>ArrowJosefin</title>
    <desc>Created with Sketch.</desc>
    <defs></defs>
    <g id="Page-1" stroke="none" stroke-width="1" fill="none" fill-rule="evenodd">
        <g id="ArrowJosefin" fill-rule="nonzero" fill="#82915F">
            <path d="M10.3666019,44.9839503 C10.867213,48.1446849 11.7711858,50.3110111 13.0781034,53.0740373 C14.385021,55.8370636 15.6807459,57.953578 17.8403728,60.1767859 C19.2801241,61.6589246 19.9999997,62.3999939 19.9999997,62.3999939 L19.9999997,68 C16.9840176,66.2338065 14.8869831,64.88811 13.708896,63.9629106 C10.1637111,61.1787334 8.01966806,58.5000397 7.27676687,57.5365854 C5.60695601,55.3710397 4.21059255,53.5605242 3.08763458,51.092364 C1.96467662,48.6242038 1.21965137,46.2312236 0.852536511,43.9133515 L10.3666019,44.9839503 Z M29.6335219,44.9839503 L39.1475872,43.9133515 C38.7804724,46.2312236 38.0354471,48.6242038 36.9124892,51.092364 C35.7895312,53.5605242 34.3931677,55.3710397 32.7233569,57.5365854 C31.9805268,58.4999474 29.8530359,61.1783747 26.3408841,63.9621111 C25.1734383,64.8874303 23.0598102,66.2333933 19.9999997,68 L19.9999997,62.3999939 C19.9999997,62.3999939 20.7199168,61.6589246 22.1597509,60.1767859 C24.3195022,57.953578 25.6151027,55.8370636 26.9220203,53.0740373 C28.2289379,50.3110111 29.1329107,48.1446849 29.6335219,44.9839503 Z" id="Combined-Shape"></path>
            <polygon id="Rectangle-4" points="16.7500619 0 23.2500619 0 23.2500619 59 20.0100095 62.4100037 16.7500619 59"></polygon>
        </g>
    </g>
</svg>