<?xml version="1.0" encoding="UTF-8"?>
<svg width="260px" height="48px" viewBox="0 0 260 48" version="1.1" xmlns="http://www.w3.org/2000/svg" xmlns:xlink="http://www.w3.org/1999/xlink">
    <!-- Generator: Sketch 48.2 (47327) - http://www.bohemiancoding.com/sketch -->
    <title>bookit_reg</title>
    <desc>Created with Sketch.</desc>
    <defs></defs>
    <g id="Page-1" stroke="none" stroke-width="1" fill="none" fill-rule="evenodd">
        <g id="bookit_reg" fill="#4C4C4C" stroke="#4C4C4C">
            <path d="M13.77,23.9 C15.42,24.8 16.56,26.63 16.56,28.85 C16.56,32.21 13.8,35 10.41,35 L2.25,35 L2.25,14 L10.26,14 C13.38,14 15.93,16.55 15.93,19.67 C15.93,21.59 14.85,22.94 13.77,23.9 Z M9.75,16.7 L5.31,16.7 L5.31,22.67 L9.75,22.67 C11.43,22.67 12.75,21.35 12.75,19.7 C12.75,18.02 11.43,16.7 9.75,16.7 Z M5.31,32.3 L9.9,32.3 C11.79,32.3 13.38,30.68 13.38,28.85 C13.38,26.93 11.82,25.37 9.9,25.37 L5.31,25.37 L5.31,32.3 Z M26.37,35.406 C22.426,35.406 19.149,32.187 19.149,28.243 C19.149,24.241 22.426,21.051 26.37,21.051 C30.343,21.051 33.62,24.241 33.62,28.243 C33.62,32.187 30.343,35.406 26.37,35.406 Z M26.37,32.709 C28.835,32.709 30.691,30.679 30.691,28.243 C30.691,25.778 28.835,23.748 26.37,23.748 C23.934,23.748 22.078,25.778 22.078,28.243 C22.078,30.679 23.934,32.709 26.37,32.709 Z M43.559,35.406 C39.615,35.406 36.338,32.187 36.338,28.243 C36.338,24.241 39.615,21.051 43.559,21.051 C47.532,21.051 50.809,24.241 50.809,28.243 C50.809,32.187 47.532,35.406 43.559,35.406 Z M43.559,32.709 C46.024,32.709 47.88,30.679 47.88,28.243 C47.88,25.778 46.024,23.748 43.559,23.748 C41.123,23.748 39.267,25.778 39.267,28.243 C39.267,30.679 41.123,32.709 43.559,32.709 Z M54.318,35 L54.318,20.9 L57.198,20.9 L57.198,26.96 L61.458,20.9 L64.698,20.9 L60.078,27.17 L65.688,35 L62.058,35 L58.308,29.54 L57.198,31.01 L57.198,35 L54.318,35 Z M68.648,35 L68.648,20.9 L71.528,20.9 L71.528,35 L68.648,35 Z M76.328,35 L76.328,16.94 L61.0999985,16.94 L61.0999985,14 L84.578,14 L84.578,16.94 L79.388,16.94 L79.388,35 L76.328,35 Z M106.46,35.36 L115.1,14 L111.89,14 L106.46,27.35 L101.03,14 L97.82,14 L101.99,24.38 L100.76,27.35 L95.15,14 L90.94,14 L100.76,35.36 L103.61,28.34 L106.46,35.36 Z M116.878,35 L116.878,15.4 L119.734,15.4 L119.734,35 L116.878,35 Z M134.628,28 C137.064,29.4 137.904,31.836 137.904,34.188 L137.904,35 L134.992,35 L134.992,34.188 C134.992,32.032 133.396,29.26 130.54,29.26 L127.068,29.26 L127.068,35 L124.184,35 L124.184,15.4 L130.54,15.4 C134.712,15.4 137.904,18.312 137.904,22.344 C137.904,25.144 136.196,27.188 134.628,28 Z M134.936,22.344 C134.936,20.076 133.2,17.92 130.876,17.92 L127.068,17.92 L127.068,26.74 L130.876,26.74 C133.2,26.74 134.936,24.528 134.936,22.344 Z M141.906,35 L141.906,15.4 L153.33,15.4 L153.33,18.144 L144.762,18.144 L144.762,22.876 L152.938,22.876 L152.938,25.564 L144.762,25.564 L144.762,32.2 L153.498,32.2 L153.498,35 L141.906,35 Z M157.192,35 L157.192,15.4 L168.616,15.4 L168.616,18.144 L160.048,18.144 L160.048,23.324 L168.224,23.324 L168.224,26.012 L160.048,26.012 L160.048,35 L157.192,35 Z M182.922,28 C185.358,29.4 186.198,31.836 186.198,34.188 L186.198,35 L183.286,35 L183.286,34.188 C183.286,32.032 181.69,29.26 178.834,29.26 L175.362,29.26 L175.362,35 L172.478,35 L172.478,15.4 L178.834,15.4 C183.006,15.4 186.198,18.312 186.198,22.344 C186.198,25.144 184.49,27.188 182.922,28 Z M183.23,22.344 C183.23,20.076 181.494,17.92 179.17,17.92 L175.362,17.92 L175.362,26.74 L179.17,26.74 C181.494,26.74 183.23,24.528 183.23,22.344 Z M200.056,30.1 L193.56,30.1 L191.544,35 L188.52,35 L196.808,15.036 L205.096,35 L202.072,35 L200.056,30.1 Z M199.104,27.58 L196.808,21.728 L194.512,27.58 L199.104,27.58 Z M210.554,15.036 L217.106,28.784 L223.658,15.036 L227.354,35 L224.386,35 L222.454,23.94 L217.106,35.364 L211.758,23.94 L209.826,35 L206.858,35 L210.554,15.036 Z M231.076,35 L231.076,15.4 L242.5,15.4 L242.5,18.144 L233.932,18.144 L233.932,22.876 L242.108,22.876 L242.108,25.564 L233.932,25.564 L233.932,32.2 L242.668,32.2 L242.668,35 L231.076,35 Z M251.01,23.772 L253.894,23.772 C256.974,23.772 259.438,26.292 259.438,29.316 C259.438,32.396 256.946,35 253.894,35 L246.306,35 L246.306,32.2 L253.39,32.2 C255.07,32.2 256.414,30.996 256.414,29.344 C256.414,27.664 255.07,26.46 253.39,26.46 L250.674,26.46 C247.65,26.46 245.242,23.856 245.242,20.86 C245.242,17.864 247.65,15.4 250.674,15.4 L256.918,15.4 L256.918,18.06 L251.01,18.06 C249.442,18.06 248.154,19.348 248.154,20.916 C248.154,22.484 249.442,23.772 251.01,23.772 Z" id="BookiT-WIREFRAMES"></path>
        </g>
    </g>
</svg>