<?xml version="1.0" encoding="UTF-8"?>
<svg width="260px" height="48px" viewBox="0 0 260 48" version="1.1" xmlns="http://www.w3.org/2000/svg" xmlns:xlink="http://www.w3.org/1999/xlink">
    <!-- Generator: Sketch 48.2 (47327) - http://www.bohemiancoding.com/sketch -->
    <title>bookit_outline</title>
    <desc>Created with Sketch.</desc>
    <defs></defs>
    <g id="Page-1" stroke="none" stroke-width="1" fill="none" fill-rule="evenodd">
        <g id="bookit_outline" stroke="#4C4C4C" stroke-width="1.10000002">
            <path d="M14.658043,23.8132977 C16.1788284,24.9241141 17.11,26.770577 17.11,28.85 C17.11,32.5236971 14.0938524,35.55 10.41,35.55 L1.69999999,35.55 L1.69999999,13.45 L10.26,13.45 C13.6837566,13.45 16.48,16.2462434 16.48,19.67 C16.48,21.2891394 15.8251677,22.6166105 14.658043,23.8132977 Z M5.86000001,17.25 L5.86000001,22.12 L9.75,22.12 C11.1224827,22.12 12.2,21.0499654 12.2,19.7 C12.2,18.3237566 11.1262434,17.25 9.75,17.25 L5.86000001,17.25 Z M5.86000001,31.75 L9.9,31.75 C11.4712434,31.75 12.83,30.3912434 12.83,28.85 C12.83,27.2337566 11.5162434,25.92 9.9,25.92 L5.86000001,25.92 L5.86000001,31.75 Z M26.37,35.956 C22.1125862,35.956 18.599,32.481238 18.599,28.243 C18.599,23.961262 22.0979242,20.501 26.37,20.501 C30.6662856,20.501 34.17,23.9564539 34.17,28.243 C34.17,32.4860461 30.6515831,35.956 26.37,35.956 Z M26.37,32.159 C28.4877205,32.159 30.141,30.4203399 30.141,28.243 C30.141,26.040502 28.4914314,24.298 26.37,24.298 C24.2736714,24.298 22.628,26.0445852 22.628,28.243 C22.628,30.4162804 24.2773596,32.159 26.37,32.159 Z M43.559,35.956 C39.3015862,35.956 35.788,32.481238 35.788,28.243 C35.788,23.961262 39.2869242,20.501 43.559,20.501 C47.8552856,20.501 51.359,23.9564539 51.359,28.243 C51.359,32.4860461 47.8405831,35.956 43.559,35.956 Z M43.559,32.159 C45.6767205,32.159 47.33,30.4203399 47.33,28.243 C47.33,26.040502 45.6804314,24.298 43.559,24.298 C41.4626714,24.298 39.817,26.0445852 39.817,28.243 C39.817,30.4162804 41.4663596,32.159 43.559,32.159 Z M57.748,25.221237 L61.1723349,20.35 L65.7864456,20.35 L60.7578439,27.1745309 L66.7586589,35.55 L61.7685194,35.55 L58.28686,30.4807038 L57.748,31.1943292 L57.748,35.55 L53.768,35.55 L53.768,20.35 L57.748,20.35 L57.748,25.221237 Z M68.098,35.55 L68.098,20.35 L72.078,20.35 L72.078,35.55 L68.098,35.55 Z M75.778,17.49 L60.5499985,17.49 L60.5499985,13.45 L85.128,13.45 L85.128,17.49 L79.938,17.49 L79.938,35.55 L75.778,35.55 L75.778,17.49 Z M103.61,29.8021259 L100.791352,36.7449013 L90.0818046,13.45 L95.5154651,13.45 L100.756299,25.9215033 L101.396008,24.3768408 L97.0063232,13.45 L101.400047,13.45 L106.46,25.8902151 L111.519953,13.45 L111.89,13.45 L115.1,13.45 L115.915763,13.45 L106.460936,36.8244318 L103.61,29.8021259 Z M116.328,35.55 L116.328,14.85 L120.284,14.85 L120.284,35.55 L116.328,35.55 Z M135.646302,28.0130943 C137.541166,29.4369727 138.454,31.629871 138.454,34.188 L138.454,35.55 L134.442,35.55 L134.442,34.188 C134.442,31.9405778 132.768528,29.81 130.54,29.81 L127.618,29.81 L127.618,35.55 L123.634,35.55 L123.634,14.85 L130.54,14.85 C135.044234,14.85 138.454,18.0336538 138.454,22.344 C138.454,24.7058545 137.289472,26.8116947 135.646302,28.0130943 Z M127.618,18.47 L127.618,26.19 L130.876,26.19 C132.776937,26.19 134.386,24.3555132 134.386,22.344 C134.386,20.2727326 132.798061,18.47 130.876,18.47 L127.618,18.47 Z M145.312,18.694 L145.312,22.326 L153.488,22.326 L153.488,26.114 L145.312,26.114 L145.312,31.65 L154.048,31.65 L154.048,35.55 L141.356,35.55 L141.356,14.85 L153.88,14.85 L153.88,18.694 L145.312,18.694 Z M160.598,18.694 L160.598,22.774 L168.774,22.774 L168.774,26.562 L160.598,26.562 L160.598,35.55 L156.642,35.55 L156.642,14.85 L169.166,14.85 L169.166,18.694 L160.598,18.694 Z M183.940302,28.0130943 C185.835166,29.4369727 186.748,31.629871 186.748,34.188 L186.748,35.55 L182.736,35.55 L182.736,34.188 C182.736,31.9405778 181.062528,29.81 178.834,29.81 L175.912,29.81 L175.912,35.55 L171.928,35.55 L171.928,14.85 L178.834,14.85 C183.338234,14.85 186.748,18.0336538 186.748,22.344 C186.748,24.7058545 185.583472,26.8116947 183.940302,28.0130943 Z M175.912,18.47 L175.912,26.19 L179.17,26.19 C181.070937,26.19 182.68,24.3555132 182.68,22.344 C182.68,20.2727326 181.092061,18.47 179.17,18.47 L175.912,18.47 Z M199.687554,30.65 L193.928446,30.65 L191.912446,35.55 L187.696157,35.55 L196.808,13.6015393 L205.919843,35.55 L201.703554,35.55 L199.687554,30.65 Z M198.297393,27.03 L196.808,23.2338637 L195.318607,27.03 L198.297393,27.03 Z M217.106,27.5055814 L223.890392,13.2699547 L228.015169,35.55 L223.923748,35.55 L222.212421,25.7532771 L217.106,36.6612346 L211.999579,25.7532771 L210.288252,35.55 L206.196831,35.55 L210.321608,13.2699547 L217.106,27.5055814 Z M234.482,18.694 L234.482,22.326 L242.658,22.326 L242.658,26.114 L234.482,26.114 L234.482,31.65 L243.218,31.65 L243.218,35.55 L230.526,35.55 L230.526,14.85 L243.05,14.85 L243.05,18.694 L234.482,18.694 Z M251.01,23.222 L253.894,23.222 C257.259368,23.222 259.988,25.9697134 259.988,29.316 C259.988,32.712948 257.23721,35.55 253.894,35.55 L245.756,35.55 L245.756,31.65 L253.39,31.65 C254.799196,31.65 255.864,30.6602784 255.864,29.344 C255.864,28.0031223 254.802856,27.01 253.39,27.01 L250.674,27.01 C247.380752,27.01 244.692,24.1964133 244.692,20.86 C244.692,17.5464477 247.359863,14.85 250.674,14.85 L257.468,14.85 L257.468,18.61 L251.01,18.61 C249.745757,18.61 248.704,19.6517566 248.704,20.916 C248.704,22.1802434 249.745757,23.222 251.01,23.222 Z" id="BookiT-WIREFRAMES"></path>
        </g>
    </g>
</svg>