<?xml version="1.0" encoding="UTF-8"?>
<svg width="310px" height="48px" viewBox="0 0 310 48" version="1.1" xmlns="http://www.w3.org/2000/svg" xmlns:xlink="http://www.w3.org/1999/xlink">
    <!-- Generator: Sketch 48.2 (47327) - http://www.bohemiancoding.com/sketch -->
    <title>bookit_reg</title>
    <desc>Created with Sketch.</desc>
    <defs></defs>
    <g id="Page-1" stroke="none" stroke-width="1" fill="none" fill-rule="evenodd">
        <g id="bookit_reg" fill="#4C4C4C">
            <path d="M16.2702702,18.8362637 C16.2702702,20.4360913 15.2398374,21.9174131 14.3912456,22.5691947 C15.6944401,23.3987349 16.8461003,25.0874418 16.8461003,27.1909188 C16.8461003,30.6572118 13.9366429,33.5902291 10.2998211,33.5902291 L1.84421051,33.5902291 L1.84421051,12.8517235 L10.1482869,12.8517235 C13.5426539,12.8517235 16.2702702,15.5181028 16.2702702,18.8362637 Z M6.68988583,16.9401718 L6.68988583,20.7916085 L9.56146232,20.7916085 C10.5186545,20.7916085 11.2897259,19.9324419 11.2897259,18.8658901 C11.2897259,17.7993384 10.5186545,16.9401718 9.56146232,16.9401718 L6.68988583,16.9401718 Z M6.68988583,29.5017808 L9.76133717,29.5017808 C10.9573005,29.5017808 11.935816,28.4352291 11.935816,27.1316659 C11.935816,25.8281027 10.9573005,24.761551 9.76133717,24.761551 L6.68988583,24.761551 L6.68988583,29.5017808 Z M27.2237117,34.0049992 C23.1306627,34.0049992 19.6439912,30.7164647 19.6439912,26.7168958 C19.6439912,22.6284476 23.1306627,19.3399131 27.2237117,19.3399131 C31.3167608,19.3399131 34.7427945,22.6284476 34.7427945,26.7168958 C34.7427945,30.7164647 31.3167608,34.0049992 27.2237117,34.0049992 Z M27.2208972,23.4579878 C25.625647,23.4579878 24.3604485,24.9393096 24.3604485,26.7168958 C24.3604485,28.4352291 25.625647,29.9165509 27.2208972,29.9165509 C28.8161474,29.9165509 30.0263372,28.4352291 30.0263372,26.7168958 C30.0263372,24.9393096 28.8161474,23.4579878 27.2208972,23.4579878 Z M44.2804889,34.0049992 C40.1874398,34.0049992 36.7007683,30.7164647 36.7007683,26.7168958 C36.7007683,22.6284476 40.1874398,19.3399131 44.2804889,19.3399131 C48.373538,19.3399131 51.7995717,22.6284476 51.7995717,26.7168958 C51.7995717,30.7164647 48.373538,34.0049992 44.2804889,34.0049992 Z M44.2776743,23.4579878 C42.6824241,23.4579878 41.4172257,24.9393096 41.4172257,26.7168958 C41.4172257,28.4352291 42.6824241,29.9165509 44.2776743,29.9165509 C45.8729245,29.9165509 47.0831144,28.4352291 47.0831144,26.7168958 C47.0831144,24.9393096 45.8729245,23.4579878 44.2776743,23.4579878 Z M54.8882031,33.5902291 L54.8882031,19.6658039 L59.0158134,19.6658039 L59.0158134,23.3691085 L61.558182,19.6658039 L66.4335478,19.6658039 L61.8871944,25.7392234 L67.2411237,33.5902291 L62.096566,33.5902291 L59.2850053,29.1166371 L59.0158134,29.5610337 L59.0158134,33.5902291 L54.8882031,33.5902291 Z M70.2651461,33.5902291 L70.2651461,12.8517235 L83.2318523,12.8517235 L83.2318523,17.1771833 L74.7674746,17.1771833 L74.7674746,20.5842235 L82.8416505,20.5842235 L82.8416505,24.8208039 L74.7674746,24.8208039 L74.7674746,33.5902291 L70.2651461,33.5902291 Z M86.5789197,33.5902291 L86.5789197,19.6658039 L90.0481022,19.6658039 L90.0481022,33.5902291 L86.5789197,33.5902291 Z M101.025149,33.5902291 L99.1355192,29.6202866 L97.2458889,33.5902291 L92.7167751,33.5902291 L96.586018,26.1836199 L93.1966812,19.6658039 L97.725795,19.6658039 L99.1355192,22.6877004 L100.545243,19.6658039 L105.074357,19.6658039 L101.68502,26.1836199 L105.554263,33.5902291 L101.025149,33.5902291 Z M143.072027,13.3983967 L133.170925,34.9747378 L130.194122,29.5276952 L127.184964,34.9747378 L117.251504,13.3983967 L122.363839,13.3983967 L127.702668,25.3516291 L128.188017,24.5043114 L123.269822,13.3983967 L128.349799,13.3983967 L133.170925,24.4135274 L137.959693,13.3983967 L143.072027,13.3983967 Z M145.434055,34.5813403 L145.434055,13.3983967 L150.287537,13.3983967 L150.287537,34.5813403 L145.434055,34.5813403 Z M171.254578,21.2058245 C171.254578,24.0503912 169.766177,25.5937199 168.115993,26.8041739 C170.704517,28.6198547 171.254578,30.7381491 171.254578,32.9472275 L171.254578,34.5813403 L166.401096,34.5813403 L166.401096,32.9472275 C166.401096,30.7078877 164.783269,28.8619455 162.324172,28.8619455 L159.347369,28.8619455 L159.347369,34.5813403 L154.493888,34.5813403 L154.493888,13.3983967 L162.874233,13.3983967 C167.501219,13.3983967 171.254578,16.9087131 171.254578,21.2058245 Z M166.304027,21.2058245 C166.304027,19.2085755 164.556773,17.5744627 162.421241,17.5744627 L159.347369,17.5744627 L159.347369,24.8069249 L162.421241,24.8069249 C164.556773,24.8069249 166.304027,23.1728121 166.304027,21.2058245 Z M192.577541,34.5813403 L192.577541,13.8220552 L205.453154,13.8220552 L205.453154,18.1518489 L197.04824,18.1518489 L197.04824,21.5623029 L205.065694,21.5623029 L205.065694,25.8031283 L197.04824,25.8031283 L197.04824,34.5813403 L192.577541,34.5813403 Z M226.1439,21.2058245 C226.1439,24.0503912 224.721586,25.5937199 223.144673,26.8041739 C225.618262,28.6198547 226.1439,30.7381491 226.1439,32.9472275 L226.1439,34.5813403 L221.50592,34.5813403 L221.50592,32.9472275 C221.50592,30.7078877 219.959927,28.8619455 217.610017,28.8619455 L214.765389,28.8619455 L214.765389,34.5813403 L210.12741,34.5813403 L210.12741,13.3983967 L218.135655,13.3983967 C222.557195,13.3983967 226.1439,16.9087131 226.1439,21.2058245 Z M221.41316,21.2058245 C221.41316,19.2085755 219.743488,17.5744627 217.702777,17.5744627 L214.765389,17.5744627 L214.765389,24.8069249 L217.702777,24.8069249 C219.743488,24.8069249 221.41316,23.1728121 221.41316,21.2058245 Z M241.382413,30.7541859 L235.389013,30.7541859 L233.710861,34.6749995 L228.946108,34.6749995 L238.355746,13.3349988 L247.765384,34.6749995 L243.000631,34.6749995 L241.382413,30.7541859 Z M239.854096,26.4853706 L238.355746,22.9335961 L236.91733,26.4853706 L239.854096,26.4853706 Z M254.566032,13.2249992 L261.432731,25.6086355 L268.299429,13.2249992 L272.594897,34.3989386 L267.966682,34.3989386 L266.393694,25.5195446 L261.432731,34.7849992 L256.471768,25.5195446 L254.89878,34.3989386 L250.270564,34.3989386 L254.566032,13.2249992 Z M277.282216,35.4050007 L277.282216,12.6049995 L290.010511,12.6049995 L290.010511,16.5935706 L280.962667,16.5935706 L280.962667,20.7364277 L289.627484,20.7364277 L289.627484,25.0049992 L280.962667,25.0049992 L280.962667,31.3049984 L290.157829,31.3049984 L290.157829,35.4050007 L277.282216,35.4050007 Z M174.887416,35.3950005 L174.887416,12.5949993 L187.615711,12.5949993 L187.615711,16.5835704 L178.567867,16.5835704 L178.567867,20.7264275 L187.232684,20.7264275 L187.232684,24.9949989 L178.567867,24.9949989 L178.567867,31.2949982 L187.76303,31.2949982 L187.76303,35.3950005 L174.887416,35.3950005 Z M299.65797,22.0412538 L302.731842,22.0412538 C306.517557,22.0412538 309.526716,25.0583967 309.526716,28.6412538 C309.526716,32.2869681 306.485201,35.3983967 302.731842,35.3983967 L294.75951,35.3983967 L294.75951,30.7783967 L302.214137,30.7783967 C303.476042,30.7783967 304.511452,29.8983967 304.511452,28.6726824 C304.511452,27.4469681 303.476042,26.5669681 302.214137,26.5669681 L299.302048,26.5669681 C295.581045,26.5669681 293.627031,23.4869681 293.627031,19.904111 C293.627031,16.3526824 295.581045,13.3983967 299.302048,13.3983967 L306.841123,13.3983967 L306.841123,17.8926824 L299.65797,17.8926824 C298.460778,17.8926824 297.522438,18.804111 297.522438,19.9669681 C297.522438,21.1298253 298.460778,22.0412538 299.65797,22.0412538 Z" id="BookFix_reg_new"></path>
        </g>
    </g>
</svg>