<?xml version="1.0" encoding="UTF-8"?>
<svg width="260px" height="48px" viewBox="0 0 260 48" version="1.1" xmlns="http://www.w3.org/2000/svg" xmlns:xlink="http://www.w3.org/1999/xlink">
    <!-- Generator: Sketch 48.2 (47327) - http://www.bohemiancoding.com/sketch -->
    <title>bookit_outline</title>
    <desc>Created with Sketch.</desc>
    <defs></defs>
    <g id="Page-1" stroke="none" stroke-width="1" fill="none" fill-rule="evenodd">
        <g id="bookit_outline" fill="#4C4C4C">
            <path d="M9.82793608,31.2409584 L5.03831119,31.2409584 L5.03831119,24.3229897 L9.82793608,24.3229897 C11.8314393,24.3229897 13.4592857,25.8802813 13.4592857,27.796948 C13.4592857,29.6237709 11.8001346,31.2409584 9.82793608,31.2409584 Z M5.03831119,15.6680418 L9.67141239,15.6680418 C11.4244777,15.6680418 12.8018862,16.9857501 12.8018862,18.6628334 C12.8018862,20.3099688 11.4244777,21.6276772 9.67141239,21.6276772 L5.03831119,21.6276772 L5.03831119,15.6680418 Z M13.8662473,22.8555418 C14.9932178,21.8972084 16.1201884,20.5495522 16.1201884,18.6328855 C16.1201884,15.5183022 13.4592857,12.9727293 10.2035929,12.9727293 L1.84522792,12.9727293 L1.84522792,33.9362709 L10.3601166,33.9362709 C13.897552,33.9362709 16.7775879,31.1511147 16.7775879,27.796948 C16.7775879,25.5808022 15.5880079,23.7539793 13.8662473,22.8555418 Z M16.9654163,18.6328855 C16.9654163,20.3698647 16.1514931,21.7175209 15.1810463,22.765698 C16.6836737,23.9336668 17.6228158,25.7305418 17.6228158,27.796948 C17.6228158,31.6003334 14.3671231,34.7448647 10.3601166,34.7448647 L1,34.7448647 L1,12.1641355 L10.2035929,12.1641355 C13.9288567,12.1641355 16.9654163,15.0690834 16.9654163,18.6328855 Z M5.88353911,30.4323647 L9.82793608,30.4323647 C11.3305635,30.4323647 12.6140578,29.1745522 12.6140578,27.796948 C12.6140578,26.3295001 11.3618682,25.1315834 9.82793608,25.1315834 L5.88353911,25.1315834 L5.88353911,30.4323647 Z M9.67141239,16.4766355 L5.88353911,16.4766355 L5.88353911,20.8190834 L9.67141239,20.8190834 C10.9549066,20.8190834 11.9566583,19.8607501 11.9566583,18.6628334 C11.9566583,17.4349688 10.9549066,16.4766355 9.67141239,16.4766355 Z M26.920323,31.5703855 C24.290725,31.5703855 22.2872218,29.4740313 22.2872218,26.9584063 C22.2872218,24.4128334 24.290725,22.3164793 26.920323,22.3164793 C29.5812257,22.3164793 31.5847289,24.4128334 31.5847289,26.9584063 C31.5847289,29.4740313 29.5812257,31.5703855 26.920323,31.5703855 Z M26.920323,34.3555418 C31.2090721,34.3555418 34.7465074,31.031323 34.7465074,26.9584063 C34.7465074,22.8255938 31.2090721,19.531323 26.920323,19.531323 C22.6628786,19.531323 19.1254432,22.8255938 19.1254432,26.9584063 C19.1254432,31.031323 22.6628786,34.3555418 26.920323,34.3555418 Z M26.920323,35.1641355 C22.1933075,35.1641355 18.2802153,31.4805418 18.2802153,26.9584063 C18.2802153,22.3763751 22.1933075,18.7227293 26.920323,18.7227293 C31.6786431,18.7227293 35.5917354,22.3763751 35.5917354,26.9584063 C35.5917354,31.4805418 31.6786431,35.1641355 26.920323,35.1641355 Z M26.920323,30.7617918 C29.0803499,30.7617918 30.739501,29.0248126 30.739501,26.9584063 C30.739501,24.8620522 29.0803499,23.125073 26.920323,23.125073 C24.7916008,23.125073 23.1324497,24.8620522 23.1324497,26.9584063 C23.1324497,29.0248126 24.7916008,30.7617918 26.920323,30.7617918 Z M44.9831567,31.5703855 C42.3535587,31.5703855 40.3500555,29.4740313 40.3500555,26.9584063 C40.3500555,24.4128334 42.3535587,22.3164793 44.9831567,22.3164793 C47.6440594,22.3164793 49.6475627,24.4128334 49.6475627,26.9584063 C49.6475627,29.4740313 47.6440594,31.5703855 44.9831567,31.5703855 Z M44.9831567,34.3555418 C49.2719058,34.3555418 52.8093412,31.031323 52.8093412,26.9584063 C52.8093412,22.8255938 49.2719058,19.531323 44.9831567,19.531323 C40.7257124,19.531323 37.188277,22.8255938 37.188277,26.9584063 C37.188277,31.031323 40.7257124,34.3555418 44.9831567,34.3555418 Z M44.9831567,35.1641355 C40.2561413,35.1641355 36.3430491,31.4805418 36.3430491,26.9584063 C36.3430491,22.3763751 40.2561413,18.7227293 44.9831567,18.7227293 C49.7414769,18.7227293 53.6545691,22.3763751 53.6545691,26.9584063 C53.6545691,31.4805418 49.7414769,35.1641355 44.9831567,35.1641355 Z M44.9831567,30.7617918 C47.1431836,30.7617918 48.8023347,29.0248126 48.8023347,26.9584063 C48.8023347,24.8620522 47.1431836,23.125073 44.9831567,23.125073 C42.8544345,23.125073 41.1952834,24.8620522 41.1952834,26.9584063 C41.1952834,29.0248126 42.8544345,30.7617918 44.9831567,30.7617918 Z M55.9085102,19.8607501 L55.9085102,33.9362709 L58.9137651,33.9362709 L58.9137651,29.953198 L60.0720404,28.4857501 L63.9851326,33.9362709 L67.7730059,33.9362709 L61.9190199,26.1198647 L66.7399495,19.8607501 L63.3590379,19.8607501 L58.9137651,25.9102293 L58.9137651,19.8607501 L55.9085102,19.8607501 Z M55.0632823,34.7448647 L55.0632823,19.0521563 L59.758993,19.0521563 L59.758993,23.5443438 L62.9207715,19.0521563 L68.3991007,19.0521563 L62.9520763,26.1198647 L69.2443286,34.7448647 L63.5468663,34.7448647 L60.1346499,29.7735105 L59.758993,30.2526772 L59.758993,34.7448647 L55.0632823,34.7448647 Z M71.2165271,12.9727293 L71.2165271,33.9362709 L74.4096103,33.9362709 L74.4096103,24.3229897 L83.5505938,24.3229897 L83.5505938,21.4479897 L74.4096103,21.4479897 L74.4096103,15.9076251 L83.9888601,15.9076251 L83.9888601,12.9727293 L71.2165271,12.9727293 Z M70.3712991,34.7448647 L70.3712991,12.1641355 L84.834088,12.1641355 L84.834088,16.7162188 L75.2548383,16.7162188 L75.2548383,20.6393959 L84.3958217,20.6393959 L84.3958217,25.1315834 L75.2548383,25.1315834 L75.2548383,34.7448647 L70.3712991,34.7448647 Z M86.6184581,19.8607501 L86.6184581,33.9362709 L89.6237129,33.9362709 L89.6237129,19.8607501 L86.6184581,19.8607501 Z M85.7732302,34.7448647 L85.7732302,19.0521563 L90.4689409,19.0521563 L90.4689409,34.7448647 L85.7732302,34.7448647 Z M98.7960011,28.6654376 L101.613428,33.9362709 L104.963035,33.9362709 L100.893419,26.3893959 L104.399549,19.8607501 L101.049942,19.8607501 L98.7960011,24.0834063 L96.54206,19.8607501 L93.1924531,19.8607501 L96.6985837,26.3893959 L92.6289678,33.9362709 L95.9785747,33.9362709 L98.7960011,28.6654376 Z M101.112552,34.7448647 L98.7960011,30.1927813 L96.4794505,34.7448647 L91.2515593,34.7448647 L95.7281368,26.4193438 L91.8150446,19.0521563 L97.0429358,19.0521563 L98.7960011,22.5261147 L100.549066,19.0521563 L105.776958,19.0521563 L101.863865,26.4193438 L106.340443,34.7448647 L101.112552,34.7448647 Z" id="BookFix-WIREFRAMES"></path>
            <path d="M135.985221,34.2245443 L144.584124,12.9661469 L141.389393,12.9661469 L135.985221,26.2526453 L130.58105,12.9661469 L127.386319,12.9661469 L131.536484,23.2967726 L130.312334,26.2526453 L124.729019,12.9661469 L121.534288,12.9661469 L130.312334,34.2245443 L133.148778,27.2379362 L135.985221,34.2245443 Z M145.778416,12.1599998 L135.985221,36.1951261 L133.148778,29.2383753 L130.312334,36.1951261 L120.339996,12.1599998 L125.266451,12.1599998 L130.312334,24.3119208 L130.760194,23.2669153 L126.192027,12.1599998 L131.118482,12.1599998 L135.985221,24.2820635 L140.851961,12.1599998 L145.778416,12.1599998 Z M145.390271,19.8333259 L145.390271,33.8662567 L148.256572,33.8662567 L148.256572,19.8333259 L145.390271,19.8333259 Z M144.584124,34.6724038 L144.584124,19.0271788 L149.062719,19.0271788 L149.062719,34.6724038 L144.584124,34.6724038 Z M159.602345,24.7896376 C159.602345,26.0735015 158.55734,27.118507 157.273476,27.118507 L154.705748,27.118507 L154.705748,22.4607682 L157.273476,22.4607682 C158.55734,22.4607682 159.602345,23.535631 159.602345,24.7896376 Z M154.705748,29.7459494 L156.586758,29.7459494 C158.646912,29.7459494 159.781489,31.6568165 159.781489,33.2093961 L159.781489,33.8662567 L162.64779,33.8662567 L162.64779,33.0601096 C162.64779,31.4478154 161.990929,29.6862348 160.43835,28.909945 C161.752071,27.9246541 162.64779,26.1929307 162.64779,24.4910646 C162.64779,21.9531941 160.587636,19.8333259 158.019909,19.8333259 L151.839447,19.8333259 L151.839447,33.8662567 L154.705748,33.8662567 L154.705748,29.7459494 Z M156.586758,30.5520964 L155.511895,30.5520964 L155.511895,34.6724038 L151.0333,34.6724038 L151.0333,19.0271788 L158.019909,19.0271788 C161.035496,19.0271788 163.453937,21.5053346 163.453937,24.4910646 C163.453937,26.1033588 162.797076,27.6559384 161.602784,28.8203731 C163.035935,29.9549505 163.453937,31.4776727 163.453937,33.0601096 L163.453937,34.6724038 L158.975342,34.6724038 L158.975342,33.2093961 C158.975342,32.0151041 158.139338,30.5520964 156.586758,30.5520964 Z M158.796198,24.7896376 C158.796198,23.9834905 158.10948,23.2669153 157.273476,23.2669153 L155.511895,23.2669153 L155.511895,26.3123599 L157.273476,26.3123599 C158.10948,26.3123599 158.796198,25.625642 158.796198,24.7896376 Z M165.543948,19.8333259 L165.543948,33.8662567 L173.963707,33.8662567 L173.963707,31.1790997 L168.410249,31.1790997 L168.410249,27.8350822 L173.545704,27.8350822 L173.545704,25.2076398 L168.410249,25.2076398 L168.410249,22.5204828 L173.844277,22.5204828 L173.844277,19.8333259 L165.543948,19.8333259 Z M164.737801,34.6724038 L164.737801,19.0271788 L174.650424,19.0271788 L174.650424,23.3266299 L169.216396,23.3266299 L169.216396,24.4014927 L174.351851,24.4014927 L174.351851,28.6412293 L169.216396,28.6412293 L169.216396,30.3729526 L174.769854,30.3729526 L174.769854,34.6724038 L164.737801,34.6724038 Z M177.188295,19.8333259 L177.188295,33.8662567 L180.054596,33.8662567 L180.054596,28.1336552 L185.190051,28.1336552 L185.190051,25.5062128 L180.054596,25.5062128 L180.054596,22.5204828 L185.488624,22.5204828 L185.488624,19.8333259 L177.188295,19.8333259 Z M176.382148,34.6724038 L176.382148,19.0271788 L186.294771,19.0271788 L186.294771,23.3266299 L180.860743,23.3266299 L180.860743,24.7000657 L185.996198,24.7000657 L185.996198,28.9398023 L180.860743,28.9398023 L180.860743,34.6724038 L176.382148,34.6724038 Z M196.59554,24.7896376 C196.59554,26.0735015 195.550534,27.118507 194.26667,27.118507 L191.698943,27.118507 L191.698943,22.4607682 L194.26667,22.4607682 C195.550534,22.4607682 196.59554,23.535631 196.59554,24.7896376 Z M191.698943,29.7459494 L193.579952,29.7459494 C195.640106,29.7459494 196.774683,31.6568165 196.774683,33.2093961 L196.774683,33.8662567 L199.640984,33.8662567 L199.640984,33.0601096 C199.640984,31.4478154 198.984124,29.6862348 197.431544,28.909945 C198.745265,27.9246541 199.640984,26.1929307 199.640984,24.4910646 C199.640984,21.9531941 197.580831,19.8333259 195.013103,19.8333259 L188.832642,19.8333259 L188.832642,33.8662567 L191.698943,33.8662567 L191.698943,29.7459494 Z M193.579952,30.5520964 L192.50509,30.5520964 L192.50509,34.6724038 L188.026495,34.6724038 L188.026495,19.0271788 L195.013103,19.0271788 C198.02869,19.0271788 200.447131,21.5053346 200.447131,24.4910646 C200.447131,26.1033588 199.790271,27.6559384 198.595979,28.8203731 C200.029129,29.9549505 200.447131,31.4776727 200.447131,33.0601096 L200.447131,34.6724038 L195.968536,34.6724038 L195.968536,33.2093961 C195.968536,32.0151041 195.132532,30.5520964 193.579952,30.5520964 Z M195.789393,24.7896376 C195.789393,23.9834905 195.102675,23.2669153 194.26667,23.2669153 L192.50509,23.2669153 L192.50509,26.3123599 L194.26667,26.3123599 C195.102675,26.3123599 195.789393,25.625642 195.789393,24.7896376 Z M208.120457,25.4763555 L209.553608,28.8502304 L206.687307,28.8502304 L208.120457,25.4763555 Z M205.821445,31.3881008 L210.449327,31.3881008 L211.464475,33.8662567 L214.480062,33.8662567 L208.120457,19.8930405 L201.760853,33.8662567 L204.77644,33.8662567 L205.821445,31.3881008 Z M209.97161,32.1942479 L206.299162,32.1942479 L205.313871,34.6724038 L200.506846,34.6724038 L208.120457,18.1911744 L215.734069,34.6724038 L210.927044,34.6724038 L209.97161,32.1942479 Z M208.478745,28.0440833 L208.150315,27.2379362 L207.821884,28.0440833 L208.478745,28.0440833 Z M224.332971,33.8065421 L227.945704,27.5066519 L229.229568,33.8662567 L231.916725,33.8662567 L229.139996,20.4006146 L224.332971,28.8203731 L219.525946,20.4006146 L216.749217,33.8662567 L219.436374,33.8662567 L220.720238,27.5066519 L224.332971,33.8065421 Z M227.587417,29.7160921 L224.332971,35.5084082 L221.048668,29.7758067 L220.123092,34.6724038 L215.734069,34.6724038 L219.197516,18.1911744 L224.332971,27.1483643 L229.468427,18.2210317 L232.931873,34.6724038 L228.54285,34.6724038 L227.587417,29.7160921 Z M234.51431,19.8333259 L234.51431,33.8662567 L242.934069,33.8662567 L242.934069,31.1790997 L237.380611,31.1790997 L237.380611,27.8350822 L242.516067,27.8350822 L242.516067,25.2076398 L237.380611,25.2076398 L237.380611,22.5204828 L242.81464,22.5204828 L242.81464,19.8333259 L234.51431,19.8333259 Z M233.708163,34.6724038 L233.708163,19.0271788 L243.620787,19.0271788 L243.620787,23.3266299 L238.186758,23.3266299 L238.186758,24.4014927 L243.322214,24.4014927 L243.322214,28.6412293 L238.186758,28.6412293 L238.186758,30.3729526 L243.740216,30.3729526 L243.740216,34.6724038 L233.708163,34.6724038 Z M251.264255,25.327069 L249.592247,25.327069 C248.7861,25.327069 248.129239,24.6702084 248.129239,23.8640613 C248.129239,23.0579142 248.7861,22.4010536 249.592247,22.4010536 L253.742411,22.4010536 L253.742411,19.8333259 L249.413103,19.8333259 C247.173805,19.8333259 245.35251,21.6247638 245.35251,23.8939186 C245.35251,26.1332161 247.173805,27.9545114 249.413103,27.9545114 L251.055254,27.9545114 C251.980831,27.9545114 252.727263,28.7009439 252.727263,29.6265202 C252.727263,30.5520964 251.980831,31.2985289 251.055254,31.2985289 L246.1288,31.2985289 L246.1288,33.8662567 L251.264255,33.8662567 C253.473696,33.8662567 255.533849,31.8359603 255.533849,29.5966629 C255.533849,27.2080789 253.652839,25.327069 251.264255,25.327069 Z M249.592247,24.5209219 L251.264255,24.5209219 C254.100699,24.5209219 256.339996,26.7602194 256.339996,29.5966629 C256.339996,32.2838198 253.891698,34.6724038 251.264255,34.6724038 L245.322653,34.6724038 L245.322653,30.4923818 L251.055254,30.4923818 C251.532971,30.4923818 251.921116,30.1042369 251.921116,29.6265202 C251.921116,29.1488034 251.532971,28.7606585 251.055254,28.7606585 L249.413103,28.7606585 C246.725946,28.7606585 244.546363,26.5810756 244.546363,23.8939186 C244.546363,21.1769043 246.725946,19.0271788 249.413103,19.0271788 L254.548558,19.0271788 L254.548558,23.2072007 L249.592247,23.2072007 C249.233959,23.2072007 248.935386,23.5057737 248.935386,23.8640613 C248.935386,24.2223489 249.233959,24.5209219 249.592247,24.5209219 Z" id="Wireframes"></path>
        </g>
    </g>
</svg>