<?xml version="1.0" encoding="UTF-8"?>
<svg width="310px" height="48px" viewBox="0 0 310 48" version="1.1" xmlns="http://www.w3.org/2000/svg" xmlns:xlink="http://www.w3.org/1999/xlink">
    <!-- Generator: Sketch 48.2 (47327) - http://www.bohemiancoding.com/sketch -->
    <title>bookit_outline</title>
    <desc>Created with Sketch.</desc>
    <defs></defs>
    <g id="Page-1" stroke="none" stroke-width="1" fill="none" fill-rule="evenodd">
        <g id="bookit_outline" fill="#4C4C4C">
            <path d="M9.82793608,31.2409584 L5.03831119,31.2409584 L5.03831119,24.3229897 L9.82793608,24.3229897 C11.8314393,24.3229897 13.4592857,25.8802813 13.4592857,27.796948 C13.4592857,29.6237709 11.8001346,31.2409584 9.82793608,31.2409584 Z M5.03831119,15.6680418 L9.67141239,15.6680418 C11.4244777,15.6680418 12.8018862,16.9857501 12.8018862,18.6628334 C12.8018862,20.3099688 11.4244777,21.6276772 9.67141239,21.6276772 L5.03831119,21.6276772 L5.03831119,15.6680418 Z M13.8662473,22.8555418 C14.9932178,21.8972084 16.1201884,20.5495522 16.1201884,18.6328855 C16.1201884,15.5183022 13.4592857,12.9727293 10.2035929,12.9727293 L1.84522792,12.9727293 L1.84522792,33.9362709 L10.3601166,33.9362709 C13.897552,33.9362709 16.7775879,31.1511147 16.7775879,27.796948 C16.7775879,25.5808022 15.5880079,23.7539793 13.8662473,22.8555418 Z M16.9654163,18.6328855 C16.9654163,20.3698647 16.1514931,21.7175209 15.1810463,22.765698 C16.6836737,23.9336668 17.6228158,25.7305418 17.6228158,27.796948 C17.6228158,31.6003334 14.3671231,34.7448647 10.3601166,34.7448647 L1,34.7448647 L1,12.1641355 L10.2035929,12.1641355 C13.9288567,12.1641355 16.9654163,15.0690834 16.9654163,18.6328855 Z M5.88353911,30.4323647 L9.82793608,30.4323647 C11.3305635,30.4323647 12.6140578,29.1745522 12.6140578,27.796948 C12.6140578,26.3295001 11.3618682,25.1315834 9.82793608,25.1315834 L5.88353911,25.1315834 L5.88353911,30.4323647 Z M9.67141239,16.4766355 L5.88353911,16.4766355 L5.88353911,20.8190834 L9.67141239,20.8190834 C10.9549066,20.8190834 11.9566583,19.8607501 11.9566583,18.6628334 C11.9566583,17.4349688 10.9549066,16.4766355 9.67141239,16.4766355 Z M26.920323,31.5703855 C24.290725,31.5703855 22.2872218,29.4740313 22.2872218,26.9584063 C22.2872218,24.4128334 24.290725,22.3164793 26.920323,22.3164793 C29.5812257,22.3164793 31.5847289,24.4128334 31.5847289,26.9584063 C31.5847289,29.4740313 29.5812257,31.5703855 26.920323,31.5703855 Z M26.920323,34.3555418 C31.2090721,34.3555418 34.7465074,31.031323 34.7465074,26.9584063 C34.7465074,22.8255938 31.2090721,19.531323 26.920323,19.531323 C22.6628786,19.531323 19.1254432,22.8255938 19.1254432,26.9584063 C19.1254432,31.031323 22.6628786,34.3555418 26.920323,34.3555418 Z M26.920323,35.1641355 C22.1933075,35.1641355 18.2802153,31.4805418 18.2802153,26.9584063 C18.2802153,22.3763751 22.1933075,18.7227293 26.920323,18.7227293 C31.6786431,18.7227293 35.5917354,22.3763751 35.5917354,26.9584063 C35.5917354,31.4805418 31.6786431,35.1641355 26.920323,35.1641355 Z M26.920323,30.7617918 C29.0803499,30.7617918 30.739501,29.0248126 30.739501,26.9584063 C30.739501,24.8620522 29.0803499,23.125073 26.920323,23.125073 C24.7916008,23.125073 23.1324497,24.8620522 23.1324497,26.9584063 C23.1324497,29.0248126 24.7916008,30.7617918 26.920323,30.7617918 Z M44.9831567,31.5703855 C42.3535587,31.5703855 40.3500555,29.4740313 40.3500555,26.9584063 C40.3500555,24.4128334 42.3535587,22.3164793 44.9831567,22.3164793 C47.6440594,22.3164793 49.6475627,24.4128334 49.6475627,26.9584063 C49.6475627,29.4740313 47.6440594,31.5703855 44.9831567,31.5703855 Z M44.9831567,34.3555418 C49.2719058,34.3555418 52.8093412,31.031323 52.8093412,26.9584063 C52.8093412,22.8255938 49.2719058,19.531323 44.9831567,19.531323 C40.7257124,19.531323 37.188277,22.8255938 37.188277,26.9584063 C37.188277,31.031323 40.7257124,34.3555418 44.9831567,34.3555418 Z M44.9831567,35.1641355 C40.2561413,35.1641355 36.3430491,31.4805418 36.3430491,26.9584063 C36.3430491,22.3763751 40.2561413,18.7227293 44.9831567,18.7227293 C49.7414769,18.7227293 53.6545691,22.3763751 53.6545691,26.9584063 C53.6545691,31.4805418 49.7414769,35.1641355 44.9831567,35.1641355 Z M44.9831567,30.7617918 C47.1431836,30.7617918 48.8023347,29.0248126 48.8023347,26.9584063 C48.8023347,24.8620522 47.1431836,23.125073 44.9831567,23.125073 C42.8544345,23.125073 41.1952834,24.8620522 41.1952834,26.9584063 C41.1952834,29.0248126 42.8544345,30.7617918 44.9831567,30.7617918 Z M55.9085102,19.8607501 L55.9085102,33.9362709 L58.9137651,33.9362709 L58.9137651,29.953198 L60.0720404,28.4857501 L63.9851326,33.9362709 L67.7730059,33.9362709 L61.9190199,26.1198647 L66.7399495,19.8607501 L63.3590379,19.8607501 L58.9137651,25.9102293 L58.9137651,19.8607501 L55.9085102,19.8607501 Z M55.0632823,34.7448647 L55.0632823,19.0521563 L59.758993,19.0521563 L59.758993,23.5443438 L62.9207715,19.0521563 L68.3991007,19.0521563 L62.9520763,26.1198647 L69.2443286,34.7448647 L63.5468663,34.7448647 L60.1346499,29.7735105 L59.758993,30.2526772 L59.758993,34.7448647 L55.0632823,34.7448647 Z M71.2165271,12.9727293 L71.2165271,33.9362709 L74.4096103,33.9362709 L74.4096103,24.3229897 L83.5505938,24.3229897 L83.5505938,21.4479897 L74.4096103,21.4479897 L74.4096103,15.9076251 L83.9888601,15.9076251 L83.9888601,12.9727293 L71.2165271,12.9727293 Z M70.3712991,34.7448647 L70.3712991,12.1641355 L84.834088,12.1641355 L84.834088,16.7162188 L75.2548383,16.7162188 L75.2548383,20.6393959 L84.3958217,20.6393959 L84.3958217,25.1315834 L75.2548383,25.1315834 L75.2548383,34.7448647 L70.3712991,34.7448647 Z M86.6184581,19.8607501 L86.6184581,33.9362709 L89.6237129,33.9362709 L89.6237129,19.8607501 L86.6184581,19.8607501 Z M85.7732302,34.7448647 L85.7732302,19.0521563 L90.4689409,19.0521563 L90.4689409,34.7448647 L85.7732302,34.7448647 Z M98.7960011,28.6654376 L101.613428,33.9362709 L104.963035,33.9362709 L100.893419,26.3893959 L104.399549,19.8607501 L101.049942,19.8607501 L98.7960011,24.0834063 L96.54206,19.8607501 L93.1924531,19.8607501 L96.6985837,26.3893959 L92.6289678,33.9362709 L95.9785747,33.9362709 L98.7960011,28.6654376 Z M101.112552,34.7448647 L98.7960011,30.1927813 L96.4794505,34.7448647 L91.2515593,34.7448647 L95.7281368,26.4193438 L91.8150446,19.0521563 L97.0429358,19.0521563 L98.7960011,22.5261147 L100.549066,19.0521563 L105.776958,19.0521563 L101.863865,26.4193438 L106.340443,34.7448647 L101.112552,34.7448647 Z M134.021208,34.5724299 L143.237089,13.7780374 L139.813133,13.7780374 L134.021208,26.7745327 L128.229283,13.7780374 L124.805327,13.7780374 L129.25327,23.8831776 L127.941287,26.7745327 L121.957364,13.7780374 L118.533408,13.7780374 L127.941287,34.5724299 L130.981247,27.7383178 L134.021208,34.5724299 Z M144.517072,12.989486 L134.021208,36.5 L130.981247,29.6950935 L127.941287,36.5 L117.253425,12.989486 L122.533357,12.989486 L127.941287,24.8761682 L128.42128,23.853972 L123.525344,12.989486 L128.805275,12.989486 L134.021208,24.8469626 L139.23714,12.989486 L144.517072,12.989486 Z M146.98104,13.7780374 L146.98104,34.2219626 L150.244998,34.2219626 L150.244998,13.7780374 L146.98104,13.7780374 Z M146.117051,35.010514 L146.117051,12.989486 L151.108987,12.989486 L151.108987,35.010514 L146.117051,35.010514 Z M167.332777,21.021028 C167.332777,23.2990654 165.348803,25.6063084 162.692837,25.6063084 L158.340893,25.6063084 L158.340893,16.4065421 L162.692837,16.4065421 C165.348803,16.4065421 167.332777,18.6553738 167.332777,21.021028 Z M166.980782,26.9205607 C168.772758,26.0735981 170.724733,23.9415888 170.724733,21.021028 C170.724733,16.8154206 167.07678,13.7780374 162.308842,13.7780374 L155.044936,13.7780374 L155.044936,34.2219626 L158.340893,34.2219626 L158.340893,28.2348131 L162.308842,28.2348131 C165.5728,28.2348131 167.396776,30.6880841 167.396776,33.1705607 L167.396776,34.2219626 L170.724733,34.2219626 L170.724733,33.1705607 C170.724733,30.7172897 169.764745,28.3808411 166.980782,26.9205607 Z M171.588722,21.021028 C171.588722,23.7955607 170.148741,25.6939252 168.356764,26.9205607 C170.916731,28.614486 171.588722,30.8341121 171.588722,33.1705607 L171.588722,35.010514 L166.532787,35.010514 L166.532787,33.1705607 C166.532787,31.0093458 165.028807,29.0233645 162.308842,29.0233645 L159.204882,29.0233645 L159.204882,35.010514 L154.180947,35.010514 L154.180947,12.989486 L162.308842,12.989486 C167.588774,12.989486 171.588722,16.3481308 171.588722,21.021028 Z M166.468788,21.021028 C166.468788,19.0642523 164.836809,17.1950935 162.692837,17.1950935 L159.204882,17.1950935 L159.204882,24.817757 L162.692837,24.817757 C164.836809,24.817757 166.468788,22.9193925 166.468788,21.021028 Z M175.012678,13.7780374 L175.012678,34.2219626 L188.260506,34.2219626 L188.260506,31.3014019 L178.276635,31.3014019 L178.276635,24.3796729 L187.620514,24.3796729 L187.620514,21.5759346 L178.276635,21.5759346 L178.276635,16.6401869 L188.068509,16.6401869 L188.068509,13.7780374 L175.012678,13.7780374 Z M174.148689,35.010514 L174.148689,12.989486 L188.932498,12.989486 L188.932498,17.4287383 L179.140624,17.4287383 L179.140624,20.7873832 L188.484503,20.7873832 L188.484503,25.1682243 L179.140624,25.1682243 L179.140624,30.5128505 L189.124495,30.5128505 L189.124495,35.010514 L174.148689,35.010514 Z M192.196455,13.7780374 L192.196455,34.2219626 L195.460413,34.2219626 L195.460413,24.8469626 L204.804292,24.8469626 L204.804292,22.0432243 L195.460413,22.0432243 L195.460413,16.6401869 L205.252286,16.6401869 L205.252286,13.7780374 L192.196455,13.7780374 Z M191.332466,35.010514 L191.332466,12.989486 L206.116275,12.989486 L206.116275,17.4287383 L196.324402,17.4287383 L196.324402,21.2546729 L205.668281,21.2546729 L205.668281,25.635514 L196.324402,25.635514 L196.324402,35.010514 L191.332466,35.010514 Z M221.668074,21.021028 C221.668074,23.2990654 219.6841,25.6063084 217.028134,25.6063084 L212.67619,25.6063084 L212.67619,16.4065421 L217.028134,16.4065421 C219.6841,16.4065421 221.668074,18.6553738 221.668074,21.021028 Z M221.316079,26.9205607 C223.108055,26.0735981 225.06003,23.9415888 225.06003,21.021028 C225.06003,16.8154206 221.412077,13.7780374 216.644139,13.7780374 L209.380233,13.7780374 L209.380233,34.2219626 L212.67619,34.2219626 L212.67619,28.2348131 L216.644139,28.2348131 C219.908097,28.2348131 221.732073,30.6880841 221.732073,33.1705607 L221.732073,34.2219626 L225.06003,34.2219626 L225.06003,33.1705607 C225.06003,30.7172897 224.100043,28.3808411 221.316079,26.9205607 Z M225.924019,21.021028 C225.924019,23.7955607 224.484038,25.6939252 222.692061,26.9205607 C225.252028,28.614486 225.924019,30.8341121 225.924019,33.1705607 L225.924019,35.010514 L220.868084,35.010514 L220.868084,33.1705607 C220.868084,31.0093458 219.364104,29.0233645 216.644139,29.0233645 L213.540179,29.0233645 L213.540179,35.010514 L208.516244,35.010514 L208.516244,12.989486 L216.644139,12.989486 C221.924071,12.989486 225.924019,16.3481308 225.924019,21.021028 Z M220.804085,21.021028 C220.804085,19.0642523 219.172106,17.1950935 217.028134,17.1950935 L213.540179,17.1950935 L213.540179,24.817757 L217.028134,24.817757 C219.172106,24.817757 220.804085,22.9193925 220.804085,21.021028 Z M237.667867,20.3785047 L240.291833,26.4824766 L235.043901,26.4824766 L237.667867,20.3785047 Z M233.955915,29.1109813 L241.379819,29.1109813 L243.683789,34.2219626 L247.139745,34.2219626 L237.667867,13.3983645 L228.19599,34.2219626 L231.651945,34.2219626 L233.955915,29.1109813 Z M240.803826,29.8995327 L234.531908,29.8995327 L232.291937,35.010514 L226.884007,35.010514 L237.667867,11.5 L248.451728,35.010514 L243.043798,35.010514 L240.803826,29.8995327 Z M239.075849,25.6939252 L237.667867,22.3060748 L236.259885,25.6939252 L239.075849,25.6939252 Z M261.571558,27.3586449 L254.083655,14.3037383 L249.859709,34.2219626 L253.251665,34.2219626 L255.459637,23.5619159 L261.571558,34.2219626 L267.683479,23.5619159 L269.89145,34.2219626 L273.283406,34.2219626 L269.059461,14.3037383 L261.571558,27.3586449 Z M253.731659,12.1133178 L261.571558,25.5478972 L269.411456,12.1133178 L274.339393,35.010514 L269.15546,35.010514 L267.331483,25.8691589 L261.571558,35.8866822 L255.811632,25.8983645 L253.987656,35.010514 L248.803723,35.010514 L253.731659,12.1133178 Z M277.315354,13.7780374 L277.315354,34.2219626 L290.563183,34.2219626 L290.563183,31.3014019 L280.579312,31.3014019 L280.579312,24.3796729 L289.923191,24.3796729 L289.923191,21.5759346 L280.579312,21.5759346 L280.579312,16.6401869 L290.371185,16.6401869 L290.371185,13.7780374 L277.315354,13.7780374 Z M276.451365,35.010514 L276.451365,12.989486 L291.235174,12.989486 L291.235174,17.4287383 L281.443301,17.4287383 L281.443301,20.7873832 L290.78718,20.7873832 L290.78718,25.1682243 L281.443301,25.1682243 L281.443301,30.5128505 L291.427172,30.5128505 L291.427172,35.010514 L276.451365,35.010514 Z M303.17102,22.510514 L299.875062,22.510514 C298.083085,22.510514 296.611105,21.1670561 296.611105,19.5315421 C296.611105,17.896028 298.083085,16.5525701 299.875062,16.5525701 L306.626975,16.5525701 L306.626975,13.7780374 L299.491067,13.7780374 C296.035112,13.7780374 293.283148,16.3481308 293.283148,19.4731308 C293.283148,22.5981308 296.035112,25.3142523 299.491067,25.3142523 L302.595027,25.3142523 C304.515002,25.3142523 306.050982,26.5700935 306.050982,28.3224299 C306.050982,30.0455607 304.515002,31.3014019 302.595027,31.3014019 L294.499132,31.3014019 L294.499132,34.2219626 L303.17102,34.2219626 C306.658975,34.2219626 309.506938,31.5058411 309.506938,28.2932243 C309.506938,25.1390187 306.690974,22.510514 303.17102,22.510514 Z M299.875062,21.7219626 L303.17102,21.7219626 C307.170968,21.7219626 310.370927,24.7009346 310.370927,28.2932243 C310.370927,31.9439252 307.138968,35.010514 303.17102,35.010514 L293.635143,35.010514 L293.635143,30.5128505 L302.595027,30.5128505 C304.035008,30.5128505 305.186994,29.578271 305.186994,28.3224299 C305.186994,27.0373832 304.035008,26.1028037 302.595027,26.1028037 L299.491067,26.1028037 C295.555118,26.1028037 292.419159,23.036215 292.419159,19.4731308 C292.419159,15.9100467 295.555118,12.989486 299.491067,12.989486 L307.490964,12.989486 L307.490964,17.3411215 L299.875062,17.3411215 C298.563079,17.3411215 297.475093,18.3341121 297.475093,19.5315421 C297.475093,20.728972 298.563079,21.7219626 299.875062,21.7219626 Z" id="BookFix-WIREFRAMES"></path>
        </g>
    </g>
</svg>