<?xml version="1.0" encoding="UTF-8"?>
<svg width="260px" height="48px" viewBox="0 0 260 48" version="1.1" xmlns="http://www.w3.org/2000/svg" xmlns:xlink="http://www.w3.org/1999/xlink">
    <!-- Generator: Sketch 48.2 (47327) - http://www.bohemiancoding.com/sketch -->
    <title>bookit_reg</title>
    <desc>Created with Sketch.</desc>
    <defs></defs>
    <g id="Page-1" stroke="none" stroke-width="1" fill="none" fill-rule="evenodd">
        <g id="bookit_reg" fill="#4C4C4C">
            <path d="M16.2702702,18.8362637 C16.2702702,20.4360913 15.2398374,21.9174131 14.3912456,22.5691947 C15.6944401,23.3987349 16.8461003,25.0874418 16.8461003,27.1909188 C16.8461003,30.6572118 13.9366429,33.5902291 10.2998211,33.5902291 L1.84421051,33.5902291 L1.84421051,12.8517235 L10.1482869,12.8517235 C13.5426539,12.8517235 16.2702702,15.5181028 16.2702702,18.8362637 Z M6.68988583,16.9401718 L6.68988583,20.7916085 L9.56146232,20.7916085 C10.5186545,20.7916085 11.2897259,19.9324419 11.2897259,18.8658901 C11.2897259,17.7993384 10.5186545,16.9401718 9.56146232,16.9401718 L6.68988583,16.9401718 Z M6.68988583,29.5017808 L9.76133717,29.5017808 C10.9573005,29.5017808 11.935816,28.4352291 11.935816,27.1316659 C11.935816,25.8281027 10.9573005,24.761551 9.76133717,24.761551 L6.68988583,24.761551 L6.68988583,29.5017808 Z M27.2237117,34.0049992 C23.1306627,34.0049992 19.6439912,30.7164647 19.6439912,26.7168958 C19.6439912,22.6284476 23.1306627,19.3399131 27.2237117,19.3399131 C31.3167608,19.3399131 34.7427945,22.6284476 34.7427945,26.7168958 C34.7427945,30.7164647 31.3167608,34.0049992 27.2237117,34.0049992 Z M27.2208972,23.4579878 C25.625647,23.4579878 24.3604485,24.9393096 24.3604485,26.7168958 C24.3604485,28.4352291 25.625647,29.9165509 27.2208972,29.9165509 C28.8161474,29.9165509 30.0263372,28.4352291 30.0263372,26.7168958 C30.0263372,24.9393096 28.8161474,23.4579878 27.2208972,23.4579878 Z M44.2804889,34.0049992 C40.1874398,34.0049992 36.7007683,30.7164647 36.7007683,26.7168958 C36.7007683,22.6284476 40.1874398,19.3399131 44.2804889,19.3399131 C48.373538,19.3399131 51.7995717,22.6284476 51.7995717,26.7168958 C51.7995717,30.7164647 48.373538,34.0049992 44.2804889,34.0049992 Z M44.2776743,23.4579878 C42.6824241,23.4579878 41.4172257,24.9393096 41.4172257,26.7168958 C41.4172257,28.4352291 42.6824241,29.9165509 44.2776743,29.9165509 C45.8729245,29.9165509 47.0831144,28.4352291 47.0831144,26.7168958 C47.0831144,24.9393096 45.8729245,23.4579878 44.2776743,23.4579878 Z M54.8882031,33.5902291 L54.8882031,19.6658039 L59.0158134,19.6658039 L59.0158134,23.3691085 L61.558182,19.6658039 L66.4335478,19.6658039 L61.8871944,25.7392234 L67.2411237,33.5902291 L62.096566,33.5902291 L59.2850053,29.1166371 L59.0158134,29.5610337 L59.0158134,33.5902291 L54.8882031,33.5902291 Z M70.2651461,33.5902291 L70.2651461,12.8517235 L83.2318523,12.8517235 L83.2318523,17.1771833 L74.7674746,17.1771833 L74.7674746,20.5842235 L82.8416505,20.5842235 L82.8416505,24.8208039 L74.7674746,24.8208039 L74.7674746,33.5902291 L70.2651461,33.5902291 Z M86.5789197,33.5902291 L86.5789197,19.6658039 L90.0481022,19.6658039 L90.0481022,33.5902291 L86.5789197,33.5902291 Z M101.025149,33.5902291 L99.1355192,29.6202866 L97.2458889,33.5902291 L92.7167751,33.5902291 L96.586018,26.1836199 L93.1966812,19.6658039 L97.725795,19.6658039 L99.1355192,22.6877004 L100.545243,19.6658039 L105.074357,19.6658039 L101.68502,26.1836199 L105.554263,33.5902291 L101.025149,33.5902291 Z" id="BookFix_reg_new"></path>
            <path d="M145.329268,13.4617235 L136,35.1995284 L133.195122,29.7117235 L130.359756,35.1995284 L121,13.4617235 L125.817073,13.4617235 L130.847561,25.5044065 L131.304878,24.6507479 L126.670732,13.4617235 L131.457317,13.4617235 L136,24.5592845 L140.512195,13.4617235 L145.329268,13.4617235 Z M144.810976,35.1995284 L144.810976,19.854 L149.018293,19.854 L149.018293,35.1995284 L144.810976,35.1995284 Z M157.219512,31.5427216 L156.27439,31.5427216 L156.27439,35.1995284 L152.067073,35.1995284 L152.067073,19.854 L157.920732,19.854 C161.030488,19.854 163.439024,22.4333548 163.439024,25.7636609 C163.439024,27.6573644 162.646341,29.028667 161.792683,29.6816682 C163.103659,30.5305698 163.439024,31.6406718 163.439024,33.4690752 L163.439024,35.1995284 L159.292683,35.1995284 L159.292683,33.7629258 C159.292683,32.5222235 158.378049,31.5427216 157.219512,31.5427216 Z M159.079268,25.3722927 C159.079268,24.4576585 158.378049,23.756439 157.463415,23.756439 L156.27439,23.756439 L156.27439,26.9881463 L157.463415,26.9881463 C158.378049,26.9881463 159.079268,26.2869268 159.079268,25.3722927 Z M166,35.1995284 L166,19.854 L175.146341,19.854 L175.146341,24.0332077 L170.207317,24.0332077 L170.207317,25.3392101 L174.75,25.3392101 L174.75,29.2572174 L170.207317,29.2572174 L170.207317,31.0203207 L175.237805,31.0203207 L175.237805,35.1995284 L166,35.1995284 Z M177.646341,35.1995284 L177.646341,19.854 L186.792683,19.854 L186.792683,24.0332077 L181.853659,24.0332077 L181.853659,25.6657107 L186.396341,25.6657107 L186.396341,29.583718 L181.853659,29.583718 L181.853659,35.1995284 L177.646341,35.1995284 Z M194.47561,31.5427216 L193.530488,31.5427216 L193.530488,35.1995284 L189.323171,35.1995284 L189.323171,19.854 L195.176829,19.854 C198.286585,19.854 200.695122,22.4333548 200.695122,25.7636609 C200.695122,27.6573644 199.902439,29.028667 199.04878,29.6816682 C200.359756,30.5305698 200.695122,31.6406718 200.695122,33.4690752 L200.695122,35.1995284 L196.54878,35.1995284 L196.54878,33.7629258 C196.54878,32.5222235 195.634146,31.5427216 194.47561,31.5427216 Z M196.335366,25.3722927 C196.335366,24.4576585 195.634146,23.756439 194.719512,23.756439 L193.530488,23.756439 L193.530488,26.9881463 L194.719512,26.9881463 C195.634146,26.9881463 196.335366,26.2869268 196.335366,25.3722927 Z M210.542683,33.6675057 L206.762195,33.6675057 L206.152439,35.1995284 L201.640244,35.1995284 L208.652439,19.4881463 L215.664634,35.1995284 L211.152439,35.1995284 L210.542683,33.6675057 Z M209.506098,29.8235122 L208.652439,27.6893658 L207.79878,29.8235122 L209.506098,29.8235122 Z M227.128049,30.258488 L224.20122,35.5958699 L221.27439,30.258488 L220.390244,35.1727847 L216.335366,35.1727847 L219.506098,19.5186341 L224.20122,28.1756072 L228.896341,19.5186341 L232.067073,35.1727847 L228.012195,35.1727847 L227.128049,30.258488 Z M234.20122,35.1995284 L234.20122,19.854 L243.347561,19.854 L243.347561,24.0332077 L238.408537,24.0332077 L238.408537,25.3392101 L242.95122,25.3392101 L242.95122,29.2572174 L238.408537,29.2572174 L238.408537,31.0203207 L243.439024,31.0203207 L243.439024,35.1995284 L234.20122,35.1995284 Z M249.841463,25.2086099 L251.335366,25.2086099 C253.957317,25.2086099 256,27.396164 256,30.2040692 C256,32.816074 253.77439,35.1995284 251.335366,35.1995284 L245.878049,35.1995284 L245.878049,31.0203207 L251.121951,31.0203207 C251.518293,31.0203207 251.853659,30.66117 251.853659,30.2367192 C251.853659,29.8122684 251.518293,29.4531178 251.121951,29.4531178 L249.658537,29.4531178 C247.158537,29.4531178 245.176829,27.3308638 245.176829,24.6535589 C245.176829,21.9762539 247.158537,19.854 249.658537,19.854 L254.384146,19.854 L254.384146,24.0332077 L249.841463,24.0332077 C249.536585,24.0332077 249.292683,24.2944082 249.292683,24.6209088 C249.292683,24.9474094 249.536585,25.2086099 249.841463,25.2086099 Z" id="Wireframes"></path>
        </g>
    </g>
</svg>