<?xml version="1.0" encoding="UTF-8"?>
<svg width="339px" height="250px" viewBox="0 0 339 250" version="1.1" xmlns="http://www.w3.org/2000/svg" xmlns:xlink="http://www.w3.org/1999/xlink">
    <!-- Generator: Sketch 46 (44423) - http://www.bohemiancoding.com/sketch -->
    <title>Linkedin_Logo_Blue</title>
    <desc>Created with Sketch.</desc>
    <defs></defs>
    <g id="Page-1" stroke="none" stroke-width="1" fill="none" fill-rule="evenodd">
        <g id="Linkedin_Logo_Blue">
            <g id="Shape-with-™️">
                <path d="M297.986202,183.040009 L308.124901,183.040009 L318.105183,204.056958 L328.191076,183.040009 L338.224163,183.040009 L338.224163,213.040009 L331.887476,213.040009 L331.887476,188.124754 L331.781865,188.124754 L320.428635,213.040009 L315.781731,213.040009 L304.428501,188.124754 L304.322889,188.124754 L304.322889,213.040009 L297.986202,213.040009 L297.986202,183.040009 Z M275.694257,187.870517 L264.234242,187.870517 L264.234242,183.040009 L293.808475,183.040009 L293.808475,187.870517 L282.348459,187.870517 L282.348459,213.040009 L275.694257,213.040009 L275.694257,187.870517 Z" id="TM" stroke="#FFFFFF" fill="#FFFFFF"></path>
                <g id="[-in-]">
                    <path d="M0,20.8333333 C0,9.375 9.90891103,0 22.0198023,0 L242.217825,0 C254.328716,0 264.237627,9.375 264.237627,20.8333333 L264.237627,229.166667 C264.237627,240.625 254.328716,250 242.217825,250 L22.0198023,250 C9.90891103,250 0,240.625 0,229.166667 L0,20.8333333 Z" id="Path" fill="#0077B5"></path>
                    <path d="M104.594061,93.7525024 L140.37624,93.7525024 L140.37624,110.783752 C145.550893,100.992086 158.762774,92.1900024 178.635646,92.1900024 C216.619805,92.1900024 225.702973,111.669169 225.702973,147.398336 L225.702973,213.544169 L187.168319,213.544169 L187.168319,155.523336 C187.168319,135.210836 181.993666,123.752502 168.891883,123.752502 C150.725547,123.752502 143.128715,136.096252 143.128715,155.523336 L143.128715,213.544169 L104.594061,213.544169 L104.594061,93.7525024 Z" id="Shape" fill="#FFFFFF" fill-rule="nonzero"></path>
                    <polygon id="Path" fill="#FFFFFF" points="38.534654 213.549481 77.069308 213.549481 77.069308 93.7578142 38.534654 93.7578142"></polygon>
                    <path d="M82.5742586,54.6875 C82.5742586,67.6041667 71.4542584,78.125 57.801981,78.125 C44.1497036,78.125 33.0297034,67.6041667 33.0297034,54.6875 C33.0297034,41.7708333 44.1497036,31.25 57.801981,31.25 C71.4542584,31.25 82.5742586,41.7708333 82.5742586,54.6875 Z" id="Path" fill="#FFFFFF"></path>
                </g>
            </g>
        </g>
    </g>
</svg>