<?xml version="1.0" encoding="UTF-8"?>
<svg width="400px" height="400px" viewBox="0 0 400 400" version="1.1" xmlns="http://www.w3.org/2000/svg" xmlns:xlink="http://www.w3.org/1999/xlink">
    <!-- Generator: Sketch 46 (44423) - http://www.bohemiancoding.com/sketch -->
    <title>Linkedin_Logo_Blue</title>
    <desc>Created with Sketch.</desc>
    <defs></defs>
    <g id="Page-1" stroke="none" stroke-width="1" fill="none" fill-rule="evenodd">
        <g id="Linkedin_Logo_Blue">
            <g id="Shape-with-™️" transform="translate(94.002600, 94.070000)">
                <path d="M0.0674000549,17.6550001 C0.0674000549,7.94475002 8.01215008,0 17.7224001,0 L194.272401,0 C203.982651,0 211.927401,7.94475002 211.927401,17.6550001 L211.927401,194.205001 C211.927401,203.915251 203.982651,211.860001 194.272401,211.860001 L17.7224001,211.860001 C8.01215008,211.860001 0.0674000549,203.915251 0.0674000549,194.205001 L0.0674000549,17.6550001 Z M83.9286503,80.7716252 L83.9286503,182.287876 L114.8249,182.287876 L114.8249,133.1187 C114.8249,116.655413 120.915875,106.194825 135.48125,106.194825 C145.985975,106.194825 150.1349,115.905075 150.1349,133.1187 L150.1349,182.287876 L181.031151,182.287876 L181.031151,126.23325 C181.031151,95.9549253 173.748463,79.4475002 143.293588,79.4475002 C127.35995,79.4475002 116.76695,86.9067378 112.618025,95.2045878 L112.618025,80.7716252 L83.9286503,80.7716252 Z M30.9636501,180.963751 L61.8599002,180.963751 L61.8599002,79.4475002 L30.9636501,79.4475002 L30.9636501,180.963751 Z M66.2736502,46.3443751 C66.2736502,35.3982751 57.3578752,26.4825001 46.4117752,26.4825001 C35.4656752,26.4825001 26.5499001,35.3982751 26.5499001,46.3443751 C26.5499001,57.2904752 35.4656752,66.2062502 46.4117752,66.2062502 C57.3578752,66.2062502 66.2736502,57.2904752 66.2736502,46.3443751 Z" id="Shape" fill="#0077B5" fill-rule="nonzero"></path>
                <path d="M233.9974,167.889992 L237.90285,167.889992 L241.747277,177.97907 L245.632386,167.889992 L249.497153,167.889992 L249.497153,182.291337 L247.056247,182.291337 L247.056247,170.330898 L247.015566,170.330898 L242.642276,182.291337 L240.852278,182.291337 L236.478988,170.330898 L236.438306,170.330898 L236.438306,182.291337 L233.9974,182.291337 L233.9974,167.889992 Z M225.411372,170.208852 L220.9974,170.208852 L220.9974,167.889992 L232.388295,167.889992 L232.388295,170.208852 L227.974323,170.208852 L227.974323,182.291337 L225.411372,182.291337 L225.411372,170.208852 Z" id="TM" fill="#FFFFFF"></path>
            </g>
        </g>
    </g>
</svg>