<?xml version="1.0" encoding="UTF-8"?>
<svg width="320px" height="250px" viewBox="0 0 320 250" version="1.1" xmlns="http://www.w3.org/2000/svg" xmlns:xlink="http://www.w3.org/1999/xlink">
    <!-- Generator: Sketch 46 (44423) - http://www.bohemiancoding.com/sketch -->
    <title>Linkedin_Logo_Blue</title>
    <desc>Created with Sketch.</desc>
    <defs></defs>
    <g id="Page-1" stroke="none" stroke-width="1" fill="none" fill-rule="evenodd">
        <g id="Linkedin_Logo_Blue">
            <g id="Shape-with-™️">
                <path d="M289.323576,183.040009 L296.860121,183.040009 L304.278909,204.056958 L311.776202,183.040009 L319.234242,183.040009 L319.234242,213.040009 L314.523901,213.040009 L314.523901,188.124754 L314.445395,188.124754 L306.006034,213.040009 L302.551784,213.040009 L294.112422,188.124754 L294.033917,188.124754 L294.033917,213.040009 L289.323576,213.040009 L289.323576,183.040009 Z M272.752981,187.870517 L264.234242,187.870517 L264.234242,183.040009 L286.218085,183.040009 L286.218085,187.870517 L277.699346,187.870517 L277.699346,213.040009 L272.752981,213.040009 L272.752981,187.870517 Z" id="TM" stroke="#FFFFFF" fill="#FFFFFF"></path>
                <g id="[-in-]">
                    <path d="M0,20.8333333 C0,9.375 9.375,0 20.8333333,0 L229.166667,0 C240.625,0 250,9.375 250,20.8333333 L250,229.166667 C250,240.625 240.625,250 229.166667,250 L20.8333333,250 C9.375,250 0,240.625 0,229.166667 L0,20.8333333 Z" id="Path" fill="#0077B5"></path>
                    <path d="M98.9583333,93.7525024 L132.8125,93.7525024 L132.8125,110.783752 C137.708333,100.992086 150.208333,92.1900024 169.010417,92.1900024 C204.947917,92.1900024 213.541667,111.669169 213.541667,147.398336 L213.541667,213.544169 L177.083333,213.544169 L177.083333,155.523336 C177.083333,135.210836 172.1875,123.752502 159.791667,123.752502 C142.604167,123.752502 135.416667,136.096252 135.416667,155.523336 L135.416667,213.544169 L98.9583333,213.544169 L98.9583333,93.7525024 Z" id="Shape" fill="#FFFFFF" fill-rule="nonzero"></path>
                    <polygon id="Path" fill="#FFFFFF" points="36.4583333 213.549481 72.9166667 213.549481 72.9166667 93.7578142 36.4583333 93.7578142"></polygon>
                    <path d="M78.125,54.6875 C78.125,67.6041667 67.6041667,78.125 54.6875,78.125 C41.7708333,78.125 31.25,67.6041667 31.25,54.6875 C31.25,41.7708333 41.7708333,31.25 54.6875,31.25 C67.6041667,31.25 78.125,41.7708333 78.125,54.6875 Z" id="Path" fill="#FFFFFF"></path>
                </g>
            </g>
        </g>
    </g>
</svg>