<?xml version="1.0" encoding="UTF-8"?>
<svg width="250px" height="250px" viewBox="0 0 250 250" version="1.1" xmlns="http://www.w3.org/2000/svg" xmlns:xlink="http://www.w3.org/1999/xlink">
    <!-- Generator: Sketch 46 (44423) - http://www.bohemiancoding.com/sketch -->
    <title>Medium_Logo_Green</title>
    <desc>Created with Sketch.</desc>
    <defs></defs>
    <g id="Page-1" stroke="none" stroke-width="1" fill="none" fill-rule="evenodd">
        <g id="Medium_Logo_Green" fill-rule="nonzero">
            <path d="M173.569572,30.0744163 C169.76354,28.2601002 166.65098,30.0905435 166.65098,34.1546116 L166.65098,195.781952 L236.127191,228.94765 C243.77151,232.656919 249.972438,230.076559 249.972438,223.303111 L249.972438,67.6751093 C249.972438,67.0300191 249.569258,66.4655652 248.972549,66.1430201 L173.577636,30.1792434 L173.577636,30.0986072 L173.569572,30.0744163 L173.569572,30.0744163 Z" id="Shape" fill="#32FC8D"></path>
            <path d="M83.3214584,156.012144 L162.586912,33.0660219 C164.828601,29.5986623 169.76354,28.2278457 173.553445,30.0018437 L249.061249,66.0462566 C249.545066,66.2881654 249.722467,66.8526193 249.440239,67.2558007 L166.642917,195.798079 L83.3214584,156.028271 L83.3214584,156.012144 L83.3214584,156.012144 Z" id="Shape" fill="#0BE370"></path>
            <path d="M11.5309867,32.2677229 C5.19297582,29.2438627 3.0399874,31.4936147 6.75731947,37.2671716 L83.3214584,156.012144 L166.642917,195.781952 L83.5069218,66.8203647 C83.3859674,66.6349014 83.2166313,66.4816925 83.0231042,66.3849289 L11.5309867,32.2757865 L11.5309867,32.2677229 L11.5309867,32.2677229 Z" id="Shape" fill="#14C767"></path>
            <path d="M83.3214584,223.238603 C83.3214584,230.012049 78.1365462,233.076228 71.7904717,230.044304 L6.91859201,199.079976 C3.11256005,197.273724 0,192.467802 0,188.39567 L0,36.6220815 C0,31.2033241 4.15276793,28.7519815 9.23285298,31.1791332 L82.8779589,66.3365472 C83.1521222,66.4575016 83.3214584,66.7236013 83.3214584,67.0138918 L83.3214584,223.206348 L83.3214584,223.238603 L83.3214584,223.238603 Z" id="Shape" fill="#00AB6C"></path>
        </g>
    </g>
</svg>