<?xml version="1.0" encoding="UTF-8"?>
<svg width="400px" height="400px" viewBox="0 0 400 400" version="1.1" xmlns="http://www.w3.org/2000/svg" xmlns:xlink="http://www.w3.org/1999/xlink">
    <!-- Generator: Sketch 46 (44423) - http://www.bohemiancoding.com/sketch -->
    <title>Medium_Logo_Green</title>
    <desc>Created with Sketch.</desc>
    <defs></defs>
    <g id="Page-1" stroke="none" stroke-width="1" fill="none" fill-rule="evenodd">
        <g id="Medium_Logo_Green" fill-rule="nonzero">
            <g id="medium-seeklogo.com" transform="translate(75.000000, 98.437500)">
                <path d="M173.569572,1.63691629 C169.76354,-0.177399795 166.65098,1.65304354 166.65098,5.71711158 L166.65098,167.344452 L236.127191,200.51015 C243.77151,204.219419 249.972438,201.639059 249.972438,194.865611 L249.972438,39.2376093 C249.972438,38.5925191 249.569258,38.0280652 248.972549,37.7055201 L173.577636,1.74174345 L173.577636,1.66110718 L173.569572,1.63691629 L173.569572,1.63691629 Z" id="Shape" fill="#32FC8D"></path>
                <path d="M83.3214584,127.574644 L162.586912,4.62852193 C164.828601,1.16116229 169.76354,-0.209654304 173.553445,1.56434365 L249.061249,37.6087566 C249.545066,37.8506654 249.722467,38.4151193 249.440239,38.8183007 L166.642917,167.360579 L83.3214584,127.590771 L83.3214584,127.574644 L83.3214584,127.574644 Z" id="Shape" fill="#0BE370"></path>
                <path d="M11.5309867,3.83022285 C5.19297582,0.806362706 3.0399874,3.05611466 6.75731947,8.82967163 L83.3214584,127.574644 L166.642917,167.344452 L83.5069218,38.3828647 C83.3859674,38.1974014 83.2166313,38.0441925 83.0231042,37.9474289 L11.5309867,3.83828647 L11.5309867,3.83022285 L11.5309867,3.83022285 Z" id="Shape" fill="#14C767"></path>
                <path d="M83.3214584,194.801103 C83.3214584,201.574549 78.1365462,204.638728 71.7904717,201.606804 L6.91859201,170.642476 C3.11256005,168.836224 0,164.030302 0,159.95817 L0,8.18458146 C0,2.76582408 4.15276793,0.314481455 9.23285298,2.7416332 L82.8779589,37.8990472 C83.1521222,38.0200016 83.3214584,38.2861013 83.3214584,38.5763918 L83.3214584,194.768848 L83.3214584,194.801103 L83.3214584,194.801103 Z" id="Shape" fill="#00AB6C"></path>
            </g>
        </g>
    </g>
</svg>