<svg width="50" height="39" viewBox="0 0 50 39"
  <title>octocat</title><g fill="none" fill-rule="evenodd"><path d="M49.892 18.726l.037-.182c-4.111-.82-8.33-.829-10.882-.723.419-1.507.545-3.24.545-5.174 0-2.772-1.045-4.99-2.74-6.678.296-.954.692-3.073-.395-5.785 0 0-1.919-.607-6.258 2.289a22.131 22.131 0 0 0-5.32-.633 22.49 22.49 0 0 0-5.886.767C14.515-.439 12.539.185 12.539.185c-1.29 3.218-.493 5.6-.25 6.192-1.517 1.633-2.443 3.716-2.443 6.271 0 1.929.22 3.66.758 5.163-2.574-.093-6.639-.058-10.603.733l.036.183c3.989-.796 8.08-.823 10.637-.727.119.312.25.614.399.905-2.53.082-6.85.403-10.99 1.568l.051.18c4.173-1.174 8.53-1.488 11.036-1.564 1.511 2.81 4.491 4.625 9.793 5.195-.752.504-1.52 1.362-1.83 2.812-1.026.49-4.273 1.684-6.22-1.657 0 0-1.09-1.988-3.177-2.144 0 0-2.025-.031-.14 1.258 0 0 1.355.637 2.29 3.029 0 0 1.218 4.08 7.101 2.771v4.215s-.124 1.49-1.494 1.987c0 0-.81.56.062.87 0 0 3.799.31 3.799-2.795v-4.596s-.151-1.823.747-2.456v7.549s-.062 1.8-.996 2.484c0 0-.623 1.118.747.808 0 0 2.615-.373 2.74-3.416l.059-7.64h.629l.06 7.64c.124 3.043 2.74 3.416 2.74 3.416 1.369.31.746-.808.746-.808-.934-.683-.996-2.484-.996-2.484v-7.484c.897.697.747 2.39.747 2.39v4.597c0 3.105 3.799 2.794 3.799 2.794.871-.31.062-.869.062-.869-1.37-.497-1.494-1.987-1.494-1.987v-6.025c0-2.35-.992-3.593-1.962-4.25 5.654-.56 8.367-2.38 9.618-5.21 2.476.069 6.933.37 11.197 1.57l.05-.18c-4.239-1.192-8.666-1.5-11.168-1.574.118-.285.222-.583.314-.888 2.54-.106 6.778-.104 10.905.718l-.006-.003z" fill="#000"/><path d="M34.062 12.517c1.218 1.1 1.93 2.43 1.93 3.861 0 6.685-4.996 6.866-11.159 6.866s-11.16-.925-11.16-6.866c0-1.422.703-2.742 1.906-3.838 2.006-1.827 5.402-.86 9.254-.86 3.835 0 7.22-.977 9.228.837h.001z" fill="#F4CBB2"/><path d="M21.121 16.718c0 1.842-1.04 3.334-2.322 3.334s-2.321-1.492-2.321-3.334c0-1.84 1.04-3.332 2.321-3.332 1.283 0 2.322 1.492 2.322 3.332zm12.458 0c0 1.842-1.04 3.334-2.322 3.334s-2.322-1.492-2.322-3.334c0-1.84 1.04-3.332 2.322-3.332 1.283 0 2.322 1.492 2.322 3.332z" fill="#FFF"/><g transform="translate(17.15 14.474)" fill="#AD5C51"><path d="M3.227 2.287c0 1.227-.694 2.222-1.548 2.222C.825 4.509.13 3.514.13 2.287.131 1.059.824.064 1.679.064c.853 0 1.547.995 1.547 2.222zm12.456 0c0 1.227-.694 2.222-1.548 2.222-.854 0-1.548-.995-1.548-2.222 0-1.228.694-2.223 1.548-2.223.854 0 1.548.995 1.548 2.222z"/><ellipse cx="7.718" cy="5.205" rx=".581" ry=".579"/><path d="M6.363 6.67a.186.186 0 0 1 .352-.124c.15.42.55.703.996.703.446 0 .846-.283.996-.703a.186.186 0 0 1 .352.124 1.43 1.43 0 1 1-2.695.001l-.001-.001z"/></g><path d="M10.639 23.792c0 .155-.182.28-.405.28-.224 0-.405-.125-.405-.28 0-.155.181-.28.405-.28.223 0 .405.125.405.28zm1.121.621c0 .155-.182.28-.405.28-.223 0-.405-.125-.405-.28 0-.154.182-.28.405-.28.223 0 .405.125.405.28zm.685.808c0 .155-.181.28-.405.28-.223 0-.405-.125-.405-.28 0-.155.182-.28.405-.28.224 0 .405.125.405.28zm.623.932c0 .154-.182.279-.405.279-.224 0-.405-.125-.405-.28 0-.154.181-.28.405-.28.223 0 .405.126.405.281zm.684.87c0 .154-.181.279-.405.279-.223 0-.405-.125-.405-.28 0-.154.182-.28.405-.28.224 0 .405.125.405.28zm.936.744c0 .155-.182.28-.405.28-.224 0-.405-.125-.405-.28 0-.154.181-.28.405-.28.223 0 .405.125.405.28zm1.307.497c0 .155-.182.28-.405.28-.223 0-.405-.125-.405-.28 0-.154.182-.28.405-.28.223 0 .405.126.405.28zm1.302 0c0 .155-.181.28-.405.28-.223 0-.405-.125-.405-.28 0-.154.182-.28.405-.28.224 0 .405.126.405.28zm1.32-.215c0 .154-.18.279-.404.279-.224 0-.405-.125-.405-.28 0-.154.181-.28.405-.28.223 0 .405.126.405.281z" fill="#C3E4D8"/></g></svg>
