<svg xmlns="http://www.w3.org/2000/svg" width="8" height="7">
  <path fill="#293329" fill-rule="evenodd" stroke="#28496D" stroke-width=".1" d="M1.49896.70094c.02778-.02514.03882-.02526.08158-.00082.0272.01552.079.0439.11508.06306.03856.02046.07064.05586.07776.08582.00668.02806.01886.06.02706.071.03714.04972.04248.15256.0105.20138-.03588.05476-.02528.09274.0235.08416.04322-.00762.05672.04144.01572.05716-.0403.01548-.19016-.0267-.19016-.0535 0-.01056-.02926-.01798-.065-.01648.00978.01682.04418.0336.05968.0491s.04104.02818.05674.02818c.01898 0 .02858.02212.02858.06584 0 .0516.01944.08492.09.15416.0495.04858.08956.0797.08902.06916-.00054-.01054-.03648-.05516-.07986-.09916-.09402-.09536-.10622-.17-.02782-.17.04794 0 .05094.00554.045.0834L1.85 1.4568l.08566.00474c.04712.0026.10756.01908.1343.0366.02676.01752.08442.03186.12816.03186s.08508.009.09188.02c.01762.0285.10326.02472.17698-.00782.07818-.0345.2305-.09218.24342-.09218.00528 0 .0096.03054.0096.06786 0 .04382.01136.07222.03208.08016.0183.00704.02716.02512.02062.04214-.00632.01648-.00044.02984.01312.02984.0135 0 .0358.018.04954.04.01374.022.03616.03972.0498.0394.01366-.00034.0091-.00978-.01016-.021s-.035-.03128-.035-.0446c0-.01332-.02122-.0471-.04716-.07506-.10662-.11498-.06502-.26728.07022-.2571.03682.00278.10482-.00168.1511-.00992.14038-.02494.16584-.00658.16584.11962 0 .05976-.009.10866-.02.10866-.01186 0-.02.07334-.02.18v.18h-.09938c-.08544 0-.09784-.0049-.08848-.035-.02414.0195-.02874.0443-.02196.0553.0068.011-.00172.02538-.01892.03198-.01718.0066-.03126.025-.03126.0409 0 .01916.0155.01216.04604-.0208.033-.0356.0713-.0515.135-.05604L3.15 1.94l.00578-.175c.00318-.09624.01442-.175.025-.175S3.2 1.54068 3.2 1.48038c0-.15332.16738-.17724.20604-.02944.0132.0505.0632.04982.11456-.00154.02748-.02748.05818-.03772.095-.03164.02992.00492.06116.0097.0694.0106.00824.0009.015.02892.015.06226 0 .03658.01242.0654.03132.07266.02396.0092.02884.0313.02076.09436L3.74156 1.74l.02198-.07826c.01882-.067.01706-.08184-.01228-.10328-.09514-.06958.1097-.27378.23624-.23552.02782.00842.03328.00432.02116-.0158.05584.03142.06328.0526.02824.03096.01348.04488.3475-.01772.39542-.07066.01864-.0206.04658-.03744.0621-.03744.01552 0 .04786-.011.0719-.02444.05812-.03252.21052-.07358.27722-.07468.0306-.0005.06918-.02018.09-.04588.02406-.0297.06026-.04592.10646-.04768.0385-.00148.133-.00768.21-.01378.077-.0061.15-.01164.1622-.01232.01222-.00068.05474-.0233.0945-.05028.06976-.04734.08836-.04954.5328-.06308L6.5.88384l.00272.04808c.0224-.05294.0686-.05852.59652-.0659.42752-.006.42934-.00584.45178.03884.0124.02468.03748.06138.05576.08158.01826.02018.03322.04726.03322.06014 0 .02158.0085.02532.07228.03176.01226.00124.03476.0124.05.0248.01526.0124.04476.02578.06558.0297.03602.00682.05522.02998.08056.09716.00624.0165.02246.04554.03604.06452.02012.0281.01828.04542-.00986.09308-.01904.03222-.0346.07124-.0346.08674s-.02094.0726-.04654.12692c-.0256.0543-.05782.15274-.07158.21874-.04842.2321-.1204664.27394212-.1133464.31786212.01444.08896-.0815536.33341788-.1520736.36555788-.03464.01578-.05932.05992-.0944.16882-.02612.0811-.06084.16784-.07718.19276-.0344.0525-.05018.19936-.02322.21602.03028.01872.02068.06898-.0132.06898-.0813 0 .09216.10184.1803.10586.06068.00276.091.01308.0911.03102.00008.01478.01752.0314.03876.03696.04198.01098.03504.0637-.01212.09216-.03178.01918-.03508.08634-.00514.10484.01176.00726.01504.02804.0073.04618-.00774.01814-.01292.05364-.01152.0789.00142.02526-.00994.06576-.02524.09-.02392.03794-.0194.2179.03244 1.29014.03312.68532.05546 1.2508.04964 1.25662-.00582.00582-.1711.01842-.36728.02798-.19618.00958-.45344.0225-.5717.02872l-.215.01134-.00116-.16536C6.49822 6.0944 6.49062 5.984 6.48198 5.94c-.0093-.0474-.01174.01892-.006.16274l.0097.24276-.33784.01216c-.18582.0067-.44808.01616-.58284.02104-.18078.00652-.24508.00262-.2453-.01492-.02544.01518-.25432.02394-.8047.02922l-.775.00746-1.44-.03462-.0036-.09292L2.2928 6.18l-.0075.095-.0075.095h-.3761c-.20686 0-.41758-.00568-.46828-.01264l-.09216-.01262-.00636-.22238L1.32856 5.9l-.00428.23566-.00428.23568-.295-.01336C.85982 6.3505.7173 6.3348.70116 6.32232c.00184.0286-.02594.03152-.17962.02306-.21614-.0119-.30892-.07212-.32728-.21246-.00524-.0401-.0212-.12926-.03546-.1981-.02412-.11648-.0233-.12712.01188-.15284.0319-.02332.03368-.03262.01146-.0594-.01918-.02312-.02108-.04682-.00698-.08726.02678-.07684.00786-.18114-.04932-.27182-.07948-.12604-.08484-.15582-.043-.2385.07076-.13978.33366-.0713.32134.0837-.00136.01722.0022.0779.00792.13484l.01042.10354.07374-.0105c.04526-.00646.09424-.03222.12682-.06672.02918-.0309.06968-.06046.09-.0657C.73812 5.2977.73232 5.2939.695 5.29232.66036 5.29086.64 5.30026.64 5.3177c0 .0343-.07228.0828-.1432.0961-.05646.01058-.09716-.10744-.06552-.18994C.45798 5.1543.32784 5.03.22832 5.03c-.10222 0-.09928.00986-.0507-.1704.0207-.07678.04336-.16436.05038-.1946.0086-.03706.0256-.055.05214-.055.03066 0 .0423-.01822.05254-.0823.0101-.0631.01738-.07476.03124-.05.03326.05946.10274.0411.08592-.0227-.00796-.03026-.0157-.07108-.01716-.09076-.00148-.01966-.01372-.04256-.0272-.05088-.03658-.02256.0061-.16266.05046-.16568-.02898-.0188-.03166-.0283-.0146-.06016.0221-.04132.18166-.03794.22766.00482.02796.02598.051.02152.051-.0099 0-.03586-.04202-.06994-.0965-.07826-.1699-.02592-.18668-.178-.02162-.19592L.71 3.79652l-.1064-.00326c-.10414-.0032-.16276-.09262-.06132-.09356C.57584 3.69938.64 3.6549.64 3.63194c0-.00724-.02528-.02272-.05616-.03436l-.05616-.0212.019-.1632.019-.16318.08216-.0035L.73 3.24302l-.087-.00776c-.07828-.00698-.08584-.01214-.07528-.0515.00646-.02408.01186-.0595.012-.07876.00016-.01924.00704-.03394.01528-.03264.08816.01392.10642-.02094.04378-.08358C.58726 2.93726.594 2.86.65 2.86c.04694 0 .09-.0245.09-.05118C.74 2.79846.7265 2.79.71 2.79s-.03-.00964-.03-.02142c0-.0118-.01204-.03348-.02676-.0482-.0346-.03458-.0238-.24128.01572-.30162.01574-.02402.02362-.0628.0175-.08618C.6649 2.2501.72932 2.19.83932 2.19H.9377l.00766.085c.00664.07372.00812.06974.01114-.03.0027-.08856-.00314-.115-.0254-.115-.0201 0-.0312-.02894-.0364-.095L.8872 1.94l-.0036.10354c-.0029.08364.00312.10528.0314.11268.01924.00502-.02186.01018-.09134.01146-.13512.00248-.15232-.0267-.07072-.11988.02034-.02324.02302-.04582.00962-.08106-.01182-.03112-.01122-.06196.00166-.08498.01348-.0241.01358-.05068.00028-.07986-.0144-.03162-.01246-.05396.00702-.08058.01898-.02598.02112-.0477.00724-.07364-.01508-.02818-.01332-.03434.00758-.02632.03888.01492.08138-.0434.06274-.0861-.00846-.0194-.01358-.0465-.01136-.06026C.83994 1.46124.82688 1.45.8087 1.45c-.04062 0-.02238-.10052.0229-.126.0407-.02292.03502-.06906-.0116-.094-.05322-.02848-.05076-.05934.005-.06272l.045-.00272-.04532-.00872C.77236 1.1458.76352.9763.81132.9.82848.87262.83164.83004.82136.765.80392.65466.8046.6541.87572.72006.95438.79298 1.01016.74128.95128.65c.05036.03216.13794.02528.1915-.01934C1.2025.58092 1.19176.5784 1.2687.66c.0727.07708.17102.09456.23026.04094z"/>
</svg>
