<?xml version="1.0" encoding="UTF-8"?>
<svg width="224px" height="45px" viewBox="0 0 224 45" version="1.1" xmlns="http://www.w3.org/2000/svg" xmlns:xlink="http://www.w3.org/1999/xlink">
    <title>project title Seagle Provisions</title>
    <desc>alla typeface cassannet</desc>
    <defs></defs>
    <g id="Page-1" stroke="none" stroke-width="1" fill="none" fill-rule="evenodd">
        <g id="outline_seagle" fill="#4C4C4C">
            <path d="M10.1978383,20.3597129 L7.65970968,20.3597129 C6.43596908,20.3597129 5.43884711,19.4364519 5.43884711,18.3033587 C5.43884711,17.1702656 6.43596908,16.2470045 7.65970968,16.2470045 L13.9597076,16.2470045 L13.9597076,12.637893 L7.38776732,12.637893 C3.98848788,12.637893 1.2237406,15.1558777 1.2237406,18.3453251 C1.2237406,21.4928061 3.98848788,24.0527573 7.38776732,24.0527573 L9.88057225,24.0527573 C11.2856078,24.0527573 12.4187009,25.1019176 12.4187009,26.4028764 C12.4187009,27.7038352 11.2856078,28.7529955 9.88057225,28.7529955 L2.40215747,28.7529955 L2.40215747,32.362107 L10.1978383,32.362107 C13.551794,32.362107 16.6791311,29.508391 16.6791311,26.36091 C16.6791311,23.003597 13.8237364,20.3597129 10.1978383,20.3597129 Z M7.65970968,19.2266198 L10.1978383,19.2266198 C14.5035923,19.2266198 17.9028717,22.3741008 17.9028717,26.36091 C17.9028717,30.1378871 14.1863262,33.4952002 10.1978383,33.4952002 L1.17841687,33.4952002 L1.17841687,27.6199024 L9.88057225,27.6199024 C10.6057519,27.6199024 11.1949603,27.074339 11.1949603,26.4028764 C11.1949603,25.7314138 10.6057519,25.1858504 9.88057225,25.1858504 L7.38776732,25.1858504 C3.30863199,25.1858504 -9.76996262e-15,22.1223023 -9.76996262e-15,18.3453251 C-9.76996262e-15,14.5263816 3.30863199,11.5047998 7.38776732,11.5047998 L15.1834482,11.5047998 L15.1834482,17.3800976 L7.65970968,17.3800976 C7.11582497,17.3800976 6.66258771,17.7997618 6.66258771,18.3033587 C6.66258771,18.8069557 7.11582497,19.2266198 7.65970968,19.2266198 Z M20.9395614,12.637893 L20.9395614,32.362107 L33.7208521,32.362107 L33.7208521,28.5851299 L25.2906391,28.5851299 L25.2906391,23.8848916 L33.0863199,23.8848916 L33.0863199,20.1918473 L25.2906391,20.1918473 L25.2906391,16.4148701 L33.5395572,16.4148701 L33.5395572,12.637893 L20.9395614,12.637893 Z M19.7158208,33.4952002 L19.7158208,11.5047998 L34.7632978,11.5047998 L34.7632978,17.5479633 L26.5143797,17.5479633 L26.5143797,19.0587541 L34.3100605,19.0587541 L34.3100605,25.0179848 L26.5143797,25.0179848 L26.5143797,27.4520367 L34.9445927,27.4520367 L34.9445927,33.4952002 L19.7158208,33.4952002 Z M47.0913512,20.569545 L49.2668901,25.3117497 L44.9158124,25.3117497 L47.0913512,20.569545 Z M43.6014243,28.8788948 L50.6266018,28.8788948 L52.1676085,32.362107 L56.7453048,32.362107 L47.0913512,12.7218258 L37.4373976,32.362107 L42.0150939,32.362107 L43.6014243,28.8788948 Z M49.9014222,30.0119879 L44.3266039,30.0119879 L42.830921,33.4952002 L35.5338011,33.4952002 L47.0913512,10.3297403 L58.6489013,33.4952002 L51.3517815,33.4952002 L49.9014222,30.0119879 Z M47.6352359,24.1786565 L47.1366749,23.0455634 L46.638114,24.1786565 L47.6352359,24.1786565 Z M75.2827087,17.7577953 L78.7726356,15.281777 C77.050334,13.5611541 74.5122054,12.1762624 70.6596887,12.1762624 C64.495662,12.1762624 59.3740809,16.7925678 59.3740809,22.5839328 C59.3740809,28.291365 64.495662,32.9496368 70.6596887,32.9496368 C76.8690391,32.9496368 81.9906202,28.291365 81.9906202,22.5839328 C81.9906202,22.0383695 81.9452964,21.5347725 81.854649,21.0311755 L70.3877463,21.0311755 L70.3877463,24.7242199 L77.050334,24.7242199 C76.1438595,27.1582718 73.8323495,29.0467604 70.6596887,29.0467604 C66.8524957,29.0467604 63.9517773,26.1091115 63.9517773,22.5839328 C63.9517773,19.0167877 66.8524957,16.0791388 70.6596887,16.0791388 C72.4726377,16.0791388 74.1042919,16.708635 75.2827087,17.7577953 Z M80.4042898,15.3657098 L75.0107664,19.142687 C73.922997,17.7997618 72.5632852,17.212232 70.6596887,17.212232 C67.5776753,17.212232 65.1755179,19.6462839 65.1755179,22.5839328 C65.1755179,25.4796153 67.5776753,27.9136673 70.6596887,27.9136673 C72.6086089,27.9136673 74.1042919,27.1163054 75.0560901,25.857313 L69.1640057,25.857313 L69.1640057,19.8980824 L82.8970947,19.8980824 C83.1237133,21.073142 83.2143608,21.9544366 83.2143608,22.5839328 C83.2143608,28.9208612 77.548895,34.08273 70.6596887,34.08273 C63.8158061,34.08273 58.1503403,28.9208612 58.1503403,22.5839328 C58.1503403,16.1630717 63.8158061,11.0431693 70.6596887,11.0431693 C74.738824,11.0431693 77.9114848,12.7218258 80.4042898,15.3657098 Z M86.477669,12.637893 L86.477669,32.362107 L99.5309021,32.362107 L99.5309021,28.5851299 L90.8287467,28.5851299 L90.8287467,12.637893 L86.477669,12.637893 Z M85.2539284,33.4952002 L85.2539284,11.5047998 L92.0524873,11.5047998 L92.0524873,27.4520367 L100.754643,27.4520367 L100.754643,33.4952002 L85.2539284,33.4952002 Z M104.380541,12.637893 L104.380541,32.362107 L117.161831,32.362107 L117.161831,28.5851299 L108.731618,28.5851299 L108.731618,23.8848916 L116.527299,23.8848916 L116.527299,20.1918473 L108.731618,20.1918473 L108.731618,16.4148701 L116.980537,16.4148701 L116.980537,12.637893 L104.380541,12.637893 Z M103.1568,33.4952002 L103.1568,11.5047998 L118.204277,11.5047998 L118.204277,17.5479633 L109.955359,17.5479633 L109.955359,19.0587541 L117.75104,19.0587541 L117.75104,25.0179848 L109.955359,25.0179848 L109.955359,27.4520367 L118.385572,27.4520367 L118.385572,33.4952002 L103.1568,33.4952002 Z M145.217218,19.3105526 C145.217218,20.9472427 143.766859,22.2901679 141.999233,22.2901679 L137.784127,22.2901679 L137.784127,16.3309373 L141.999233,16.3309373 C143.766859,16.3309373 145.217218,17.6738625 145.217218,19.3105526 Z M149.840238,19.1846534 C149.840238,15.6175083 146.712901,12.637893 142.81506,12.637893 L133.433049,12.637893 L133.433049,32.362107 L137.784127,32.362107 L137.784127,25.9832123 L142.81506,25.9832123 C146.712901,25.9832123 149.840238,22.8357313 149.840238,19.1846534 Z M151.063978,19.1846534 C151.063978,23.4652275 147.392757,27.1163054 142.81506,27.1163054 L139.007867,27.1163054 L139.007867,33.4952002 L132.209308,33.4952002 L132.209308,11.5047998 L142.81506,11.5047998 C147.392757,11.5047998 151.063978,14.9880121 151.063978,19.1846534 Z M143.993477,19.3105526 C143.993477,18.3033587 143.087003,17.4640305 141.999233,17.4640305 L139.007867,17.4640305 L139.007867,21.1570748 L141.999233,21.1570748 C143.087003,21.1570748 143.993477,20.3177465 143.993477,19.3105526 Z M166.111455,19.6043175 C166.111455,21.4088733 164.525125,22.8776977 162.576205,22.8776977 L158.678364,22.8776977 L158.678364,16.3309373 L162.576205,16.3309373 C164.525125,16.3309373 166.111455,17.8417282 166.111455,19.6043175 Z M158.678364,26.570742 L161.533759,26.570742 C164.661096,26.570742 166.383398,29.2565925 166.383398,31.4388459 L166.383398,32.362107 L170.734476,32.362107 L170.734476,31.2290139 C170.734476,28.9628276 169.737354,26.4868092 167.38052,25.3956825 C169.374764,24.0107909 170.734476,21.5767389 170.734476,19.1846534 C170.734476,15.6175083 167.607138,12.637893 163.709298,12.637893 L154.327287,12.637893 L154.327287,32.362107 L158.678364,32.362107 L158.678364,26.570742 Z M161.533759,27.7038352 L159.902105,27.7038352 L159.902105,33.4952002 L153.103546,33.4952002 L153.103546,11.5047998 L163.709298,11.5047998 C168.286994,11.5047998 171.958216,14.9880121 171.958216,19.1846534 C171.958216,21.4508397 170.961094,23.6330931 169.148145,25.2697833 C171.323684,26.8645069 171.958216,29.004794 171.958216,31.2290139 L171.958216,33.4952002 L165.159657,33.4952002 L165.159657,31.4388459 C165.159657,29.7601894 163.890593,27.7038352 161.533759,27.7038352 Z M164.887715,19.6043175 C164.887715,18.4712244 163.845269,17.4640305 162.576205,17.4640305 L159.902105,17.4640305 L159.902105,21.7446046 L162.576205,21.7446046 C163.845269,21.7446046 164.887715,20.7793771 164.887715,19.6043175 Z M185.464686,29.0467604 C181.657493,29.0467604 178.756775,26.1091115 178.756775,22.5839328 C178.756775,19.0167877 181.657493,16.0791388 185.464686,16.0791388 C189.317203,16.0791388 192.217922,19.0167877 192.217922,22.5839328 C192.217922,26.1091115 189.317203,29.0467604 185.464686,29.0467604 Z M185.464686,32.9496368 C191.674037,32.9496368 196.795618,28.291365 196.795618,22.5839328 C196.795618,16.7925678 191.674037,12.1762624 185.464686,12.1762624 C179.30066,12.1762624 174.179079,16.7925678 174.179079,22.5839328 C174.179079,28.291365 179.30066,32.9496368 185.464686,32.9496368 Z M185.464686,34.08273 C178.620804,34.08273 172.955338,28.9208612 172.955338,22.5839328 C172.955338,16.1630717 178.620804,11.0431693 185.464686,11.0431693 C192.353893,11.0431693 198.019359,16.1630717 198.019359,22.5839328 C198.019359,28.9208612 192.353893,34.08273 185.464686,34.08273 Z M185.464686,27.9136673 C188.592024,27.9136673 190.994181,25.4796153 190.994181,22.5839328 C190.994181,19.6462839 188.592024,17.212232 185.464686,17.212232 C182.382673,17.212232 179.980516,19.6462839 179.980516,22.5839328 C179.980516,25.4796153 182.382673,27.9136673 185.464686,27.9136673 Z M212.477627,12.637893 L207.673312,23.2553954 L202.868997,12.637893 L198.517919,12.637893 L207.673312,31.7326108 L216.828705,12.637893 L212.477627,12.637893 Z M218.686978,11.5047998 L207.673312,34.6702597 L196.659647,11.5047998 L203.684824,11.5047998 L207.673312,20.4856122 L211.6618,11.5047998 L218.686978,11.5047998 Z M216.103525,30.0959207 C216.103525,31.648678 217.417913,32.9076704 219.094891,32.9076704 C220.726545,32.9076704 222.086257,31.648678 222.086257,30.0959207 C222.086257,28.5851299 220.726545,27.2841711 219.094891,27.2841711 C217.417913,27.2841711 216.103525,28.5851299 216.103525,30.0959207 Z M214.879785,30.0959207 C214.879785,27.9556337 216.738057,26.1510779 219.094891,26.1510779 C221.406401,26.1510779 223.309998,27.9556337 223.309998,30.0959207 C223.309998,32.2781742 221.406401,34.0407635 219.094891,34.0407635 C216.738057,34.0407635 214.879785,32.2781742 214.879785,30.0959207 Z" id="seagle-prov."></path>
        </g>
    </g>
</svg>