<?xml version="1.0" encoding="UTF-8"?>
<svg width="190px" height="45px" viewBox="0 0 190 45" version="1.1" xmlns="http://www.w3.org/2000/svg" xmlns:xlink="http://www.w3.org/1999/xlink">
    <title>project title beerocracy</title>
    <desc>alla typeface cassannet</desc>
    <defs></defs>
    <g id="Page-1" stroke="none" stroke-width="1" fill="none" fill-rule="evenodd">
        <g id="outline_beerocracy" fill="#4C4C4C">
            <path d="M10.2005427,29.036 L5.37421317,29.036 L5.37421317,24.134 L10.2005427,24.134 C11.5129657,24.134 12.5713713,25.252 12.5713713,26.585 C12.5713713,27.961 11.5129657,29.036 10.2005427,29.036 Z M5.37421317,20.436 L5.37421317,16.48 L10.0311978,16.48 C11.1319397,16.48 12.0210004,17.383 12.0210004,18.458 C12.0210004,19.533 11.1319397,20.436 10.0311978,20.436 L5.37421317,20.436 Z M14.2648203,22.156 C15.2808897,21.253 16.3392953,19.963 16.3392953,18.114 C16.3392953,15.018 13.8837943,12.696 10.9625948,12.696 L1.30993564,12.696 L1.30993564,32.906 L11.0896034,32.906 C14.2648203,32.906 17.0166748,30.197 17.0166748,26.929 C17.0166748,24.779 15.8312606,23.016 14.2648203,22.156 Z M17.4823733,18.114 C17.4823733,19.748 16.8049937,21.038 15.9582692,22.07 C17.2706922,23.274 18.1597529,24.994 18.1597529,26.929 C18.1597529,30.842 14.8998636,34.067 11.0896034,34.067 L0.166857579,34.067 L0.166857579,11.535 L10.9625948,11.535 C14.5188376,11.535 17.4823733,14.33 17.4823733,18.114 Z M6.51729122,27.875 L10.2005427,27.875 C10.8779223,27.875 11.4282932,27.316 11.4282932,26.585 C11.4282932,25.897 10.8779223,25.295 10.2005427,25.295 L6.51729122,25.295 L6.51729122,27.875 Z M6.51729122,17.641 L6.51729122,19.275 L10.0311978,19.275 C10.4968963,19.275 10.8779223,18.888 10.8779223,18.458 C10.8779223,18.028 10.4968963,17.641 10.0311978,17.641 L6.51729122,17.641 Z M20.7422626,12.696 L20.7422626,32.906 L32.6810778,32.906 L32.6810778,29.036 L24.8065401,29.036 L24.8065401,24.22 L32.0883707,24.22 L32.0883707,20.436 L24.8065401,20.436 L24.8065401,16.566 L32.5117329,16.566 L32.5117329,12.696 L20.7422626,12.696 Z M19.5991845,34.067 L19.5991845,11.535 L33.654811,11.535 L33.654811,17.727 L25.9496182,17.727 L25.9496182,19.275 L33.2314488,19.275 L33.2314488,25.381 L25.9496182,25.381 L25.9496182,27.875 L33.8241559,27.875 L33.8241559,34.067 L19.5991845,34.067 Z M37.2533901,12.696 L37.2533901,32.906 L49.1922053,32.906 L49.1922053,29.036 L41.3176676,29.036 L41.3176676,24.22 L48.5994982,24.22 L48.5994982,20.436 L41.3176676,20.436 L41.3176676,16.566 L49.0228604,16.566 L49.0228604,12.696 L37.2533901,12.696 Z M36.110312,34.067 L36.110312,11.535 L50.1659385,11.535 L50.1659385,17.727 L42.4607456,17.727 L42.4607456,19.275 L49.7425762,19.275 L49.7425762,25.381 L42.4607456,25.381 L42.4607456,27.875 L50.3352834,27.875 L50.3352834,34.067 L36.110312,34.067 Z M64.7719359,19.834 C64.7719359,21.683 63.290168,23.188 61.4697104,23.188 L57.8287951,23.188 L57.8287951,16.48 L61.4697104,16.48 C63.290168,16.48 64.7719359,18.028 64.7719359,19.834 Z M57.8287951,26.972 L60.4959772,26.972 C63.4171767,26.972 65.0259532,29.724 65.0259532,31.96 L65.0259532,32.906 L69.0902307,32.906 L69.0902307,31.745 C69.0902307,29.423 68.1588338,26.886 65.9573501,25.768 C67.820144,24.349 69.0902307,21.855 69.0902307,19.404 C69.0902307,15.749 66.1690313,12.696 62.528116,12.696 L53.7645175,12.696 L53.7645175,32.906 L57.8287951,32.906 L57.8287951,26.972 Z M60.4959772,28.133 L58.9718731,28.133 L58.9718731,34.067 L52.6214395,34.067 L52.6214395,11.535 L62.528116,11.535 C66.8040746,11.535 70.2333088,15.104 70.2333088,19.404 C70.2333088,21.726 69.3019119,23.962 67.6084629,25.639 C69.6406016,27.273 70.2333088,29.466 70.2333088,31.745 L70.2333088,34.067 L63.8828751,34.067 L63.8828751,31.96 C63.8828751,30.24 62.6974609,28.133 60.4959772,28.133 Z M63.6288578,19.834 C63.6288578,18.673 62.6551246,17.641 61.4697104,17.641 L58.9718731,17.641 L58.9718731,22.027 L61.4697104,22.027 C62.6551246,22.027 63.6288578,21.038 63.6288578,19.834 Z M82.8495036,29.509 C79.2932608,29.509 76.5837424,26.499 76.5837424,22.887 C76.5837424,19.232 79.2932608,16.222 82.8495036,16.222 C86.4480827,16.222 89.157601,19.232 89.157601,22.887 C89.157601,26.499 86.4480827,29.509 82.8495036,29.509 Z M82.8495036,33.508 C88.6495664,33.508 93.4335597,28.735 93.4335597,22.887 C93.4335597,16.953 88.6495664,12.223 82.8495036,12.223 C77.0917771,12.223 72.3077838,16.953 72.3077838,22.887 C72.3077838,28.735 77.0917771,33.508 82.8495036,33.508 Z M82.8495036,34.669 C76.4567338,34.669 71.1647057,29.38 71.1647057,22.887 C71.1647057,16.308 76.4567338,11.062 82.8495036,11.062 C89.2846097,11.062 94.5766378,16.308 94.5766378,22.887 C94.5766378,29.38 89.2846097,34.669 82.8495036,34.669 Z M82.8495036,28.348 C85.7707031,28.348 88.014523,25.854 88.014523,22.887 C88.014523,19.877 85.7707031,17.383 82.8495036,17.383 C79.9706404,17.383 77.7268205,19.877 77.7268205,22.887 C77.7268205,25.854 79.9706404,28.348 82.8495036,28.348 Z M96.7357852,22.887 C96.7357852,28.778 101.519779,33.508 107.277505,33.508 C108.462919,33.508 109.563661,33.293 110.622067,32.949 L110.622067,28.52 C109.860015,29.036 108.6746,29.509 107.277505,29.509 C103.721262,29.509 101.011744,26.499 101.011744,22.887 C101.011744,19.232 103.721262,16.222 107.277505,16.222 C108.6746,16.222 109.817679,16.695 110.622067,17.211 L110.622067,12.782 C109.563661,12.395 108.462919,12.223 107.277505,12.223 C101.519779,12.223 96.7357852,16.953 96.7357852,22.887 Z M95.5927071,22.887 C95.5927071,16.308 100.884735,11.062 107.277505,11.062 C108.632264,11.062 110.071696,11.32 111.765145,11.965 L111.765145,19.318 C110.706739,18.243 108.928618,17.383 107.277505,17.383 C104.398642,17.383 102.154822,19.877 102.154822,22.887 C102.154822,25.854 104.398642,28.348 107.277505,28.348 C109.267308,28.348 110.791412,27.316 111.765145,26.37 L111.765145,33.809 C110.156368,34.368 108.632264,34.669 107.277505,34.669 C100.884735,34.669 95.5927071,29.423 95.5927071,22.887 Z M125.990116,19.834 C125.990116,21.683 124.508348,23.188 122.687891,23.188 L119.046975,23.188 L119.046975,16.48 L122.687891,16.48 C124.508348,16.48 125.990116,18.028 125.990116,19.834 Z M119.046975,26.972 L121.714158,26.972 C124.635357,26.972 126.244134,29.724 126.244134,31.96 L126.244134,32.906 L130.308411,32.906 L130.308411,31.745 C130.308411,29.423 129.377014,26.886 127.17553,25.768 C129.038324,24.349 130.308411,21.855 130.308411,19.404 C130.308411,15.749 127.387212,12.696 123.746296,12.696 L114.982698,12.696 L114.982698,32.906 L119.046975,32.906 L119.046975,26.972 Z M121.714158,28.133 L120.190053,28.133 L120.190053,34.067 L113.83962,34.067 L113.83962,11.535 L123.746296,11.535 C128.022255,11.535 131.451489,15.104 131.451489,19.404 C131.451489,21.726 130.520092,23.962 128.826643,25.639 C130.858782,27.273 131.451489,29.466 131.451489,31.745 L131.451489,34.067 L125.101055,34.067 L125.101055,31.96 C125.101055,30.24 123.915641,28.133 121.714158,28.133 Z M124.847038,19.834 C124.847038,18.673 123.873305,17.641 122.687891,17.641 L120.190053,17.641 L120.190053,22.027 L122.687891,22.027 C123.873305,22.027 124.847038,21.038 124.847038,19.834 Z M142.331899,20.823 L144.364038,25.682 L140.29976,25.682 L142.331899,20.823 Z M139.072009,29.337 L145.634124,29.337 L147.073556,32.906 L151.349515,32.906 L142.331899,12.782 L133.314283,32.906 L137.590242,32.906 L139.072009,29.337 Z M144.956745,30.498 L139.749389,30.498 L138.352294,34.067 L131.536162,34.067 L142.331899,10.331 L153.127636,34.067 L146.311504,34.067 L144.956745,30.498 Z M142.839933,24.521 L142.374235,23.36 L141.908537,24.521 L142.839933,24.521 Z M153.593334,22.887 C153.593334,28.778 158.377328,33.508 164.135054,33.508 C165.320469,33.508 166.42121,33.293 167.479616,32.949 L167.479616,28.52 C166.717564,29.036 165.53215,29.509 164.135054,29.509 C160.578811,29.509 157.869293,26.499 157.869293,22.887 C157.869293,19.232 160.578811,16.222 164.135054,16.222 C165.53215,16.222 166.675228,16.695 167.479616,17.211 L167.479616,12.782 C166.42121,12.395 165.320469,12.223 164.135054,12.223 C158.377328,12.223 153.593334,16.953 153.593334,22.887 Z M152.450256,22.887 C152.450256,16.308 157.742284,11.062 164.135054,11.062 C165.489813,11.062 166.929245,11.32 168.622694,11.965 L168.622694,19.318 C167.564288,18.243 165.786167,17.383 164.135054,17.383 C161.256191,17.383 159.012371,19.877 159.012371,22.887 C159.012371,25.854 161.256191,28.348 164.135054,28.348 C166.124857,28.348 167.648961,27.316 168.622694,26.37 L168.622694,33.809 C167.013918,34.368 165.489813,34.669 164.135054,34.669 C157.742284,34.669 152.450256,29.423 152.450256,22.887 Z M179.333759,20.737 L175.311817,12.696 L170.781841,12.696 L177.30162,24.392 L177.30162,32.906 L181.365898,32.906 L181.365898,24.392 L187.885676,12.696 L183.3557,12.696 L179.333759,20.737 Z M175.989197,11.535 L179.333759,18.458 L182.635984,11.535 L189.833142,11.535 L182.508976,24.736 L182.508976,34.067 L176.158542,34.067 L176.158542,24.736 L168.834375,11.535 L175.989197,11.535 Z" id="beerocracy"></path>
        </g>
    </g>
</svg>