<?xml version="1.0" encoding="UTF-8"?>
<svg width="190px" height="25px" viewBox="0 0 190 25" version="1.1" xmlns="http://www.w3.org/2000/svg" xmlns:xlink="http://www.w3.org/1999/xlink">
    <!-- Generator: Sketch 46.2 (44496) - http://www.bohemiancoding.com/sketch -->
    <title>outline_beerocracy</title>
    <desc>Created with Sketch.</desc>
    <defs></defs>
    <g id="Page-1" stroke="none" stroke-width="1" fill="none" fill-rule="evenodd">
        <g id="outline_beerocracy" fill="#4C4C4C">
            <path d="M10.2005427,19.036 L5.37421317,19.036 L5.37421317,14.134 L10.2005427,14.134 C11.5129657,14.134 12.5713713,15.252 12.5713713,16.585 C12.5713713,17.961 11.5129657,19.036 10.2005427,19.036 Z M5.37421317,10.436 L5.37421317,6.48 L10.0311978,6.48 C11.1319397,6.48 12.0210004,7.383 12.0210004,8.458 C12.0210004,9.533 11.1319397,10.436 10.0311978,10.436 L5.37421317,10.436 Z M14.2648203,12.156 C15.2808897,11.253 16.3392953,9.963 16.3392953,8.114 C16.3392953,5.018 13.8837943,2.696 10.9625948,2.696 L1.30993564,2.696 L1.30993564,22.906 L11.0896034,22.906 C14.2648203,22.906 17.0166748,20.197 17.0166748,16.929 C17.0166748,14.779 15.8312606,13.016 14.2648203,12.156 Z M17.4823733,8.114 C17.4823733,9.748 16.8049937,11.038 15.9582692,12.07 C17.2706922,13.274 18.1597529,14.994 18.1597529,16.929 C18.1597529,20.842 14.8998636,24.067 11.0896034,24.067 L0.166857579,24.067 L0.166857579,1.535 L10.9625948,1.535 C14.5188376,1.535 17.4823733,4.33 17.4823733,8.114 Z M6.51729122,17.875 L10.2005427,17.875 C10.8779223,17.875 11.4282932,17.316 11.4282932,16.585 C11.4282932,15.897 10.8779223,15.295 10.2005427,15.295 L6.51729122,15.295 L6.51729122,17.875 Z M6.51729122,7.641 L6.51729122,9.275 L10.0311978,9.275 C10.4968963,9.275 10.8779223,8.888 10.8779223,8.458 C10.8779223,8.028 10.4968963,7.641 10.0311978,7.641 L6.51729122,7.641 Z M20.7422626,2.696 L20.7422626,22.906 L32.6810778,22.906 L32.6810778,19.036 L24.8065401,19.036 L24.8065401,14.22 L32.0883707,14.22 L32.0883707,10.436 L24.8065401,10.436 L24.8065401,6.566 L32.5117329,6.566 L32.5117329,2.696 L20.7422626,2.696 Z M19.5991845,24.067 L19.5991845,1.535 L33.654811,1.535 L33.654811,7.727 L25.9496182,7.727 L25.9496182,9.275 L33.2314488,9.275 L33.2314488,15.381 L25.9496182,15.381 L25.9496182,17.875 L33.8241559,17.875 L33.8241559,24.067 L19.5991845,24.067 Z M37.2533901,2.696 L37.2533901,22.906 L49.1922053,22.906 L49.1922053,19.036 L41.3176676,19.036 L41.3176676,14.22 L48.5994982,14.22 L48.5994982,10.436 L41.3176676,10.436 L41.3176676,6.566 L49.0228604,6.566 L49.0228604,2.696 L37.2533901,2.696 Z M36.110312,24.067 L36.110312,1.535 L50.1659385,1.535 L50.1659385,7.727 L42.4607456,7.727 L42.4607456,9.275 L49.7425762,9.275 L49.7425762,15.381 L42.4607456,15.381 L42.4607456,17.875 L50.3352834,17.875 L50.3352834,24.067 L36.110312,24.067 Z M64.7719359,9.834 C64.7719359,11.683 63.290168,13.188 61.4697104,13.188 L57.8287951,13.188 L57.8287951,6.48 L61.4697104,6.48 C63.290168,6.48 64.7719359,8.028 64.7719359,9.834 Z M57.8287951,16.972 L60.4959772,16.972 C63.4171767,16.972 65.0259532,19.724 65.0259532,21.96 L65.0259532,22.906 L69.0902307,22.906 L69.0902307,21.745 C69.0902307,19.423 68.1588338,16.886 65.9573501,15.768 C67.820144,14.349 69.0902307,11.855 69.0902307,9.404 C69.0902307,5.749 66.1690313,2.696 62.528116,2.696 L53.7645175,2.696 L53.7645175,22.906 L57.8287951,22.906 L57.8287951,16.972 Z M60.4959772,18.133 L58.9718731,18.133 L58.9718731,24.067 L52.6214395,24.067 L52.6214395,1.535 L62.528116,1.535 C66.8040746,1.535 70.2333088,5.104 70.2333088,9.404 C70.2333088,11.726 69.3019119,13.962 67.6084629,15.639 C69.6406016,17.273 70.2333088,19.466 70.2333088,21.745 L70.2333088,24.067 L63.8828751,24.067 L63.8828751,21.96 C63.8828751,20.24 62.6974609,18.133 60.4959772,18.133 Z M63.6288578,9.834 C63.6288578,8.673 62.6551246,7.641 61.4697104,7.641 L58.9718731,7.641 L58.9718731,12.027 L61.4697104,12.027 C62.6551246,12.027 63.6288578,11.038 63.6288578,9.834 Z M82.8495036,19.509 C79.2932608,19.509 76.5837424,16.499 76.5837424,12.887 C76.5837424,9.232 79.2932608,6.222 82.8495036,6.222 C86.4480827,6.222 89.157601,9.232 89.157601,12.887 C89.157601,16.499 86.4480827,19.509 82.8495036,19.509 Z M82.8495036,23.508 C88.6495664,23.508 93.4335597,18.735 93.4335597,12.887 C93.4335597,6.953 88.6495664,2.223 82.8495036,2.223 C77.0917771,2.223 72.3077838,6.953 72.3077838,12.887 C72.3077838,18.735 77.0917771,23.508 82.8495036,23.508 Z M82.8495036,24.669 C76.4567338,24.669 71.1647057,19.38 71.1647057,12.887 C71.1647057,6.308 76.4567338,1.062 82.8495036,1.062 C89.2846097,1.062 94.5766378,6.308 94.5766378,12.887 C94.5766378,19.38 89.2846097,24.669 82.8495036,24.669 Z M82.8495036,18.348 C85.7707031,18.348 88.014523,15.854 88.014523,12.887 C88.014523,9.877 85.7707031,7.383 82.8495036,7.383 C79.9706404,7.383 77.7268205,9.877 77.7268205,12.887 C77.7268205,15.854 79.9706404,18.348 82.8495036,18.348 Z M96.7357852,12.887 C96.7357852,18.778 101.519779,23.508 107.277505,23.508 C108.462919,23.508 109.563661,23.293 110.622067,22.949 L110.622067,18.52 C109.860015,19.036 108.6746,19.509 107.277505,19.509 C103.721262,19.509 101.011744,16.499 101.011744,12.887 C101.011744,9.232 103.721262,6.222 107.277505,6.222 C108.6746,6.222 109.817679,6.695 110.622067,7.211 L110.622067,2.782 C109.563661,2.395 108.462919,2.223 107.277505,2.223 C101.519779,2.223 96.7357852,6.953 96.7357852,12.887 Z M95.5927071,12.887 C95.5927071,6.308 100.884735,1.062 107.277505,1.062 C108.632264,1.062 110.071696,1.32 111.765145,1.965 L111.765145,9.318 C110.706739,8.243 108.928618,7.383 107.277505,7.383 C104.398642,7.383 102.154822,9.877 102.154822,12.887 C102.154822,15.854 104.398642,18.348 107.277505,18.348 C109.267308,18.348 110.791412,17.316 111.765145,16.37 L111.765145,23.809 C110.156368,24.368 108.632264,24.669 107.277505,24.669 C100.884735,24.669 95.5927071,19.423 95.5927071,12.887 Z M125.990116,9.834 C125.990116,11.683 124.508348,13.188 122.687891,13.188 L119.046975,13.188 L119.046975,6.48 L122.687891,6.48 C124.508348,6.48 125.990116,8.028 125.990116,9.834 Z M119.046975,16.972 L121.714158,16.972 C124.635357,16.972 126.244134,19.724 126.244134,21.96 L126.244134,22.906 L130.308411,22.906 L130.308411,21.745 C130.308411,19.423 129.377014,16.886 127.17553,15.768 C129.038324,14.349 130.308411,11.855 130.308411,9.404 C130.308411,5.749 127.387212,2.696 123.746296,2.696 L114.982698,2.696 L114.982698,22.906 L119.046975,22.906 L119.046975,16.972 Z M121.714158,18.133 L120.190053,18.133 L120.190053,24.067 L113.83962,24.067 L113.83962,1.535 L123.746296,1.535 C128.022255,1.535 131.451489,5.104 131.451489,9.404 C131.451489,11.726 130.520092,13.962 128.826643,15.639 C130.858782,17.273 131.451489,19.466 131.451489,21.745 L131.451489,24.067 L125.101055,24.067 L125.101055,21.96 C125.101055,20.24 123.915641,18.133 121.714158,18.133 Z M124.847038,9.834 C124.847038,8.673 123.873305,7.641 122.687891,7.641 L120.190053,7.641 L120.190053,12.027 L122.687891,12.027 C123.873305,12.027 124.847038,11.038 124.847038,9.834 Z M142.331899,10.823 L144.364038,15.682 L140.29976,15.682 L142.331899,10.823 Z M139.072009,19.337 L145.634124,19.337 L147.073556,22.906 L151.349515,22.906 L142.331899,2.782 L133.314283,22.906 L137.590242,22.906 L139.072009,19.337 Z M144.956745,20.498 L139.749389,20.498 L138.352294,24.067 L131.536162,24.067 L142.331899,0.331 L153.127636,24.067 L146.311504,24.067 L144.956745,20.498 Z M142.839933,14.521 L142.374235,13.36 L141.908537,14.521 L142.839933,14.521 Z M153.593334,12.887 C153.593334,18.778 158.377328,23.508 164.135054,23.508 C165.320469,23.508 166.42121,23.293 167.479616,22.949 L167.479616,18.52 C166.717564,19.036 165.53215,19.509 164.135054,19.509 C160.578811,19.509 157.869293,16.499 157.869293,12.887 C157.869293,9.232 160.578811,6.222 164.135054,6.222 C165.53215,6.222 166.675228,6.695 167.479616,7.211 L167.479616,2.782 C166.42121,2.395 165.320469,2.223 164.135054,2.223 C158.377328,2.223 153.593334,6.953 153.593334,12.887 Z M152.450256,12.887 C152.450256,6.308 157.742284,1.062 164.135054,1.062 C165.489813,1.062 166.929245,1.32 168.622694,1.965 L168.622694,9.318 C167.564288,8.243 165.786167,7.383 164.135054,7.383 C161.256191,7.383 159.012371,9.877 159.012371,12.887 C159.012371,15.854 161.256191,18.348 164.135054,18.348 C166.124857,18.348 167.648961,17.316 168.622694,16.37 L168.622694,23.809 C167.013918,24.368 165.489813,24.669 164.135054,24.669 C157.742284,24.669 152.450256,19.423 152.450256,12.887 Z M179.333759,10.737 L175.311817,2.696 L170.781841,2.696 L177.30162,14.392 L177.30162,22.906 L181.365898,22.906 L181.365898,14.392 L187.885676,2.696 L183.3557,2.696 L179.333759,10.737 Z M175.989197,1.535 L179.333759,8.458 L182.635984,1.535 L189.833142,1.535 L182.508976,14.736 L182.508976,24.067 L176.158542,24.067 L176.158542,14.736 L168.834375,1.535 L175.989197,1.535 Z" id="beerocracy"></path>
        </g>
    </g>
</svg>