<?xml version="1.0" encoding="UTF-8"?>
<svg width="148px" height="25px" viewBox="0 0 148 25" version="1.1" xmlns="http://www.w3.org/2000/svg" xmlns:xlink="http://www.w3.org/1999/xlink">
    <!-- Generator: Sketch 46.2 (44496) - http://www.bohemiancoding.com/sketch -->
    <title>outline_ironvice</title>
    <desc>Created with Sketch.</desc>
    <defs></defs>
    <g id="Page-1" stroke="none" stroke-width="1" fill="none" fill-rule="evenodd">
        <g id="outline_ironvice" fill="#4C4C4C">
            <path d="M2.161,2.008 L2.161,22.218 L6.289,22.218 L6.289,2.008 L2.161,2.008 Z M1,23.379 L1,0.847 L7.45,0.847 L7.45,23.379 L1,23.379 Z M22.629,9.146 C22.629,10.995 21.124,12.5 19.275,12.5 L15.577,12.5 L15.577,5.792 L19.275,5.792 C21.124,5.792 22.629,7.34 22.629,9.146 Z M15.577,16.284 L18.286,16.284 C21.253,16.284 22.887,19.036 22.887,21.272 L22.887,22.218 L27.015,22.218 L27.015,21.057 C27.015,18.735 26.069,16.198 23.833,15.08 C25.725,13.661 27.015,11.167 27.015,8.716 C27.015,5.061 24.048,2.008 20.35,2.008 L11.449,2.008 L11.449,22.218 L15.577,22.218 L15.577,16.284 Z M18.286,17.445 L16.738,17.445 L16.738,23.379 L10.288,23.379 L10.288,0.847 L20.35,0.847 C24.693,0.847 28.176,4.416 28.176,8.716 C28.176,11.038 27.23,13.274 25.51,14.951 C27.574,16.585 28.176,18.778 28.176,21.057 L28.176,23.379 L21.726,23.379 L21.726,21.272 C21.726,19.552 20.522,17.445 18.286,17.445 Z M21.468,9.146 C21.468,7.985 20.479,6.953 19.275,6.953 L16.738,6.953 L16.738,11.339 L19.275,11.339 C20.479,11.339 21.468,10.35 21.468,9.146 Z M40.99,18.821 C37.378,18.821 34.626,15.811 34.626,12.199 C34.626,8.544 37.378,5.534 40.99,5.534 C44.645,5.534 47.397,8.544 47.397,12.199 C47.397,15.811 44.645,18.821 40.99,18.821 Z M40.99,22.82 C46.881,22.82 51.74,18.047 51.74,12.199 C51.74,6.265 46.881,1.535 40.99,1.535 C35.142,1.535 30.283,6.265 30.283,12.199 C30.283,18.047 35.142,22.82 40.99,22.82 Z M40.99,23.981 C34.497,23.981 29.122,18.692 29.122,12.199 C29.122,5.62 34.497,0.374 40.99,0.374 C47.526,0.374 52.901,5.62 52.901,12.199 C52.901,18.692 47.526,23.981 40.99,23.981 Z M40.99,17.66 C43.957,17.66 46.236,15.166 46.236,12.199 C46.236,9.189 43.957,6.695 40.99,6.695 C38.066,6.695 35.787,9.189 35.787,12.199 C35.787,15.166 38.066,17.66 40.99,17.66 Z M55.352,2.008 L55.352,22.218 L59.222,22.218 L59.222,7.813 L71.649,21.487 L71.649,2.008 L67.779,2.008 L67.779,11.597 L58.964,2.008 L55.352,2.008 Z M54.191,23.379 L54.191,0.847 L59.48,0.847 L66.618,8.673 L66.618,0.847 L72.81,0.847 L72.81,24.626 L60.383,10.952 L60.383,23.379 L54.191,23.379 Z M99.513,2.008 L94.955,12.887 L90.397,2.008 L86.269,2.008 L94.955,21.573 L103.641,2.008 L99.513,2.008 Z M105.404,0.847 L94.955,24.583 L84.506,0.847 L91.171,0.847 L94.955,10.049 L98.739,0.847 L105.404,0.847 Z M107.468,2.008 L107.468,22.218 L111.596,22.218 L111.596,2.008 L107.468,2.008 Z M106.307,23.379 L106.307,0.847 L112.757,0.847 L112.757,23.379 L106.307,23.379 Z M115.853,12.199 C115.853,18.09 120.712,22.82 126.56,22.82 C127.764,22.82 128.882,22.605 129.957,22.261 L129.957,17.832 C129.183,18.348 127.979,18.821 126.56,18.821 C122.948,18.821 120.196,15.811 120.196,12.199 C120.196,8.544 122.948,5.534 126.56,5.534 C127.979,5.534 129.14,6.007 129.957,6.523 L129.957,2.094 C128.882,1.707 127.764,1.535 126.56,1.535 C120.712,1.535 115.853,6.265 115.853,12.199 Z M114.692,12.199 C114.692,5.62 120.067,0.374 126.56,0.374 C127.936,0.374 129.398,0.632 131.118,1.277 L131.118,8.63 C130.043,7.555 128.237,6.695 126.56,6.695 C123.636,6.695 121.357,9.189 121.357,12.199 C121.357,15.166 123.636,17.66 126.56,17.66 C128.581,17.66 130.129,16.628 131.118,15.682 L131.118,23.121 C129.484,23.68 127.936,23.981 126.56,23.981 C120.067,23.981 114.692,18.735 114.692,12.199 Z M134.386,2.008 L134.386,22.218 L146.512,22.218 L146.512,18.348 L138.514,18.348 L138.514,13.532 L145.91,13.532 L145.91,9.748 L138.514,9.748 L138.514,5.878 L146.34,5.878 L146.34,2.008 L134.386,2.008 Z M133.225,23.379 L133.225,0.847 L147.501,0.847 L147.501,7.039 L139.675,7.039 L139.675,8.587 L147.071,8.587 L147.071,14.693 L139.675,14.693 L139.675,17.187 L147.673,17.187 L147.673,23.379 L133.225,23.379 Z" id="iron-vice"></path>
        </g>
    </g>
</svg>