<?xml version="1.0" encoding="UTF-8"?>
<svg width="187px" height="48px" viewBox="0 0 187 48" version="1.1" xmlns="http://www.w3.org/2000/svg" xmlns:xlink="http://www.w3.org/1999/xlink">
    <!-- Generator: Sketch 47.1 (45422) - http://www.bohemiancoding.com/sketch -->
    <title>outline_axure</title>
    <desc>Created with Sketch.</desc>
    <defs></defs>
    <g id="Page-1" stroke="none" stroke-width="1" fill="none" fill-rule="evenodd">
        <g id="outline_axure" fill="#4C4C4C">
            <path d="M10.9913793,22.3172416 L13.0603448,27.1879312 L8.92241379,27.1879312 L10.9913793,22.3172416 Z M7.67241379,30.8517243 L14.3534483,30.8517243 L15.8189655,34.4293105 L20.1724138,34.4293105 L10.9913793,14.2568967 L1.81034483,34.4293105 L6.1637931,34.4293105 L7.67241379,30.8517243 Z M13.6637931,32.0155174 L8.36206897,32.0155174 L6.93965517,35.5931036 L0,35.5931036 L10.9913793,11.8000002 L21.9827586,35.5931036 L15.0431034,35.5931036 L13.6637931,32.0155174 Z M11.5086207,26.0241381 L11.0344828,24.860345 L10.5603448,26.0241381 L11.5086207,26.0241381 Z M31.6810345,26.8431036 L35.5603448,34.4293105 L40.1724138,34.4293105 L34.5689655,23.5672416 L39.3965517,14.1706898 L34.7844828,14.1706898 L31.6810345,20.2482761 L28.5775862,14.1706898 L23.9655172,14.1706898 L28.7931034,23.5672416 L23.1896552,34.4293105 L27.8017241,34.4293105 L31.6810345,26.8431036 Z M34.8706897,35.5931036 L31.6810345,29.0413795 L28.4913793,35.5931036 L21.2931034,35.5931036 L27.4568966,23.610345 L22.0689655,13.0068967 L29.2672414,13.0068967 L31.6810345,18.0068967 L34.0948276,13.0068967 L41.2931034,13.0068967 L35.9051724,23.610345 L42.0689655,35.5931036 L34.8706897,35.5931036 Z M51.8534483,34.9896554 C55.862069,34.9896554 59.0948276,31.7568967 59.0948276,27.7482761 L59.0948276,14.1706898 L54.9568966,14.1706898 L54.9568966,27.9206898 C54.9568966,29.6448278 53.5775862,31.0241381 51.8534483,31.0241381 C50.1293103,31.0241381 48.75,29.6448278 48.75,27.9206898 L48.75,14.1706898 L44.612069,14.1706898 L44.612069,27.7482761 C44.612069,31.7568967 47.8448276,34.9896554 51.8534483,34.9896554 Z M51.8534483,36.1534485 C47.1982759,36.1534485 43.4482759,32.4034485 43.4482759,27.7482761 L43.4482759,13.0068967 L49.9137931,13.0068967 L49.9137931,27.9206898 C49.9137931,28.9982761 50.7758621,29.860345 51.8534483,29.860345 C52.9310345,29.860345 53.7931034,28.9982761 53.7931034,27.9206898 L53.7931034,13.0068967 L60.2586207,13.0068967 L60.2586207,27.7482761 C60.2586207,32.4034485 56.5086207,36.1534485 51.8534483,36.1534485 Z M75.5603448,21.3258623 C75.5603448,23.1793105 74.0517241,24.6879312 72.1982759,24.6879312 L68.4913793,24.6879312 L68.4913793,17.9637933 L72.1982759,17.9637933 C74.0517241,17.9637933 75.5603448,19.5155174 75.5603448,21.3258623 Z M68.4913793,28.4810347 L71.2068966,28.4810347 C74.1810345,28.4810347 75.8189655,31.2396554 75.8189655,33.4810347 L75.8189655,34.4293105 L79.9568966,34.4293105 L79.9568966,33.2655174 C79.9568966,30.9379312 79.0086207,28.3948278 76.7672414,27.2741381 C78.6637931,25.8517243 79.9568966,23.3517243 79.9568966,20.8948278 C79.9568966,17.2310347 76.9827586,14.1706898 73.2758621,14.1706898 L64.3534483,14.1706898 L64.3534483,34.4293105 L68.4913793,34.4293105 L68.4913793,28.4810347 Z M71.2068966,29.6448278 L69.6551724,29.6448278 L69.6551724,35.5931036 L63.1896552,35.5931036 L63.1896552,13.0068967 L73.2758621,13.0068967 C77.6293103,13.0068967 81.1206897,16.5844829 81.1206897,20.8948278 C81.1206897,23.222414 80.1724138,25.4637933 78.4482759,27.1448278 C80.5172414,28.7827588 81.1206897,30.9810347 81.1206897,33.2655174 L81.1206897,35.5931036 L74.6551724,35.5931036 L74.6551724,33.4810347 C74.6551724,31.7568967 73.4482759,29.6448278 71.2068966,29.6448278 Z M74.3965517,21.3258623 C74.3965517,20.1620692 73.4051724,19.1275864 72.1982759,19.1275864 L69.6551724,19.1275864 L69.6551724,23.5241381 L72.1982759,23.5241381 C73.4051724,23.5241381 74.3965517,22.5327588 74.3965517,21.3258623 Z M84.137931,14.1706898 L84.137931,34.4293105 L96.2931034,34.4293105 L96.2931034,30.5500002 L88.2758621,30.5500002 L88.2758621,25.722414 L95.6896552,25.722414 L95.6896552,21.9293105 L88.2758621,21.9293105 L88.2758621,18.0500002 L96.1206897,18.0500002 L96.1206897,14.1706898 L84.137931,14.1706898 Z M82.9741379,35.5931036 L82.9741379,13.0068967 L97.2844828,13.0068967 L97.2844828,19.2137933 L89.4396552,19.2137933 L89.4396552,20.7655174 L96.8534483,20.7655174 L96.8534483,26.8862071 L89.4396552,26.8862071 L89.4396552,29.3862071 L97.4568966,29.3862071 L97.4568966,35.5931036 L82.9741379,35.5931036 Z M122.974138,21.3258623 C122.974138,23.1793105 121.465517,24.6879312 119.612069,24.6879312 L115.905172,24.6879312 L115.905172,17.9637933 L119.612069,17.9637933 C121.465517,17.9637933 122.974138,19.5155174 122.974138,21.3258623 Z M115.905172,28.4810347 L118.62069,28.4810347 C121.594828,28.4810347 123.232759,31.2396554 123.232759,33.4810347 L123.232759,34.4293105 L127.37069,34.4293105 L127.37069,33.2655174 C127.37069,30.9379312 126.422414,28.3948278 124.181034,27.2741381 C126.077586,25.8517243 127.37069,23.3517243 127.37069,20.8948278 C127.37069,17.2310347 124.396552,14.1706898 120.689655,14.1706898 L111.767241,14.1706898 L111.767241,34.4293105 L115.905172,34.4293105 L115.905172,28.4810347 Z M118.62069,29.6448278 L117.068966,29.6448278 L117.068966,35.5931036 L110.603448,35.5931036 L110.603448,13.0068967 L120.689655,13.0068967 C125.043103,13.0068967 128.534483,16.5844829 128.534483,20.8948278 C128.534483,23.222414 127.586207,25.4637933 125.862069,27.1448278 C127.931034,28.7827588 128.534483,30.9810347 128.534483,33.2655174 L128.534483,35.5931036 L122.068966,35.5931036 L122.068966,33.4810347 C122.068966,31.7568967 120.862069,29.6448278 118.62069,29.6448278 Z M121.810345,21.3258623 C121.810345,20.1620692 120.818966,19.1275864 119.612069,19.1275864 L117.068966,19.1275864 L117.068966,23.5241381 L119.612069,23.5241381 C120.818966,23.5241381 121.810345,22.5327588 121.810345,21.3258623 Z M138.764193,23.9896363 L136.678562,23.9896363 C135.672991,23.9896363 134.726471,23.2512368 134.729996,22.0506852 C134.733521,20.8501337 135.672991,20.0678441 136.678562,20.0678441 L141.871156,20.0678441 L141.855395,16.9700432 L136.455102,16.9700432 C133.661847,16.9700432 131.389999,19.2115029 131.389999,22.0506852 C131.389999,24.8525099 133.661847,27.1336213 136.455102,27.1336213 L138.503489,27.1336213 C139.658034,27.1336213 140.714991,27.9359901 140.690002,29.2233564 C140.665014,30.5107226 139.658034,31.3153854 138.503489,31.3153854 L132.358328,31.3153854 L132.358328,34.4300423 L138.764193,34.4300423 C141.520205,34.4300423 144.089999,31.9878234 144.089999,29.1859987 C144.089999,26.1973857 141.743665,23.9896363 138.764193,23.9896363 Z M136.650558,22.8216241 L138.781393,22.8216241 C142.396204,22.8216241 145.250001,25.6388622 145.250001,29.2073639 C145.250001,32.5880496 142.129849,35.5931036 138.781393,35.5931036 L131.209318,35.5931036 L131.209318,30.3342591 L138.515039,30.3342591 C139.123849,30.3342591 139.618507,29.8459378 139.618507,29.244927 C139.618507,28.6439162 139.123849,28.155595 138.515039,28.155595 L136.422254,28.155595 C132.997697,28.155595 130.220001,25.4134832 130.220001,22.0327974 C130.220001,18.6145485 132.997697,15.9099998 136.422254,15.9099998 L142.966963,15.9099998 L142.966963,21.1688444 L136.650558,21.1688444 C136.19395,21.1688444 135.813444,21.5444761 135.813444,21.9952342 C135.813444,22.4459923 136.19395,22.8216241 136.650558,22.8216241 Z M159.815615,16.9700432 L155.022066,26.6785701 L150.228517,16.9700432 L145.887189,16.9700432 L155.022066,34.4300423 L164.156942,16.9700432 L159.815615,16.9700432 Z M166.017241,15.9099998 L155.025862,37.0565516 L144.034483,15.9099998 L151.045445,15.9099998 L155.025862,24.1081195 L159.006279,15.9099998 L166.017241,15.9099998 Z M179.376882,21.0241381 C179.376882,22.7051726 178.015538,24.0844829 176.3564,24.0844829 L172.399994,24.0844829 L172.399994,17.9637933 L176.3564,17.9637933 C178.015538,17.9637933 179.376882,19.3431036 179.376882,21.0241381 Z M183.8,20.8948278 C183.8,17.2310347 180.883702,14.1706898 177.248895,14.1706898 L168.5,14.1706898 L168.5,34.4293105 L172.557459,34.4293105 L172.557459,27.8775864 L177.248895,27.8775864 C180.883702,27.8775864 183.8,24.6448278 183.8,20.8948278 Z M185.099995,20.8948278 C185.099995,25.2913795 181.6536,29.0413795 177.356244,29.0413795 L173.782206,29.0413795 L173.782206,35.5931036 L167.399994,35.5931036 L167.399994,13.0068967 L177.356244,13.0068967 C181.6536,13.0068967 185.099995,16.5844829 185.099995,20.8948278 Z M178.228248,21.0241381 C178.228248,19.9896554 177.377408,19.1275864 176.3564,19.1275864 L173.548628,19.1275864 L173.548628,22.9206898 L176.3564,22.9206898 C177.377408,22.9206898 178.228248,22.0586209 178.228248,21.0241381 Z" id="axure-rsvp"></path>
        </g>
    </g>
</svg>