<?xml version="1.0" encoding="UTF-8"?>
<svg width="100px" height="48px" viewBox="0 0 100 48" version="1.1" xmlns="http://www.w3.org/2000/svg" xmlns:xlink="http://www.w3.org/1999/xlink">
    <!-- Generator: Sketch 47.1 (45422) - http://www.bohemiancoding.com/sketch -->
    <title>outline_pylon</title>
    <desc>Created with Sketch.</desc>
    <defs></defs>
    <g id="Page-1" stroke="none" stroke-width="1" fill="none" fill-rule="evenodd">
        <g id="outline_pylon" fill="#4C4C4C">
            <path d="M12.4945581,21.5322697 C12.4945581,23.2609931 11.1014367,24.6794328 9.40356987,24.6794328 L5.35481062,24.6794328 L5.35481062,18.3851066 L9.40356987,18.3851066 C11.1014367,18.3851066 12.4945581,19.8035463 12.4945581,21.5322697 Z M16.9351328,21.399291 C16.9351328,17.6315605 13.9312146,14.4843974 10.1872007,14.4843974 L1.17544623,14.4843974 L1.17544623,35.3177307 L5.35481062,35.3177307 L5.35481062,28.580142 L10.1872007,28.580142 C13.9312146,28.580142 16.9351328,25.2556739 16.9351328,21.399291 Z M18.110579,21.399291 C18.110579,25.9205676 14.5842403,29.7769505 10.1872007,29.7769505 L6.53025686,29.7769505 L6.53025686,36.5145392 L0,36.5145392 L0,13.2875888 L10.1872007,13.2875888 C14.5842403,13.2875888 18.110579,16.9666669 18.110579,21.399291 Z M11.3191119,21.5322697 C11.3191119,20.4684399 10.448411,19.5819151 9.40356987,19.5819151 L6.53025686,19.5819151 L6.53025686,23.4826243 L9.40356987,23.4826243 C10.448411,23.4826243 11.3191119,22.5960995 11.3191119,21.5322697 Z M28.602525,22.7734044 L24.4666957,14.4843974 L19.8084458,14.4843974 L26.5128428,26.5411349 L26.5128428,35.3177307 L30.6922072,35.3177307 L30.6922072,26.5411349 L37.3966043,14.4843974 L32.7383544,14.4843974 L28.602525,22.7734044 Z M25.1632564,13.2875888 L28.602525,20.4241137 L31.9982586,13.2875888 L39.3992164,13.2875888 L31.8676535,26.8957449 L31.8676535,36.5145392 L25.3373966,36.5145392 L25.3373966,26.8957449 L17.8058337,13.2875888 L25.1632564,13.2875888 Z M41.5324336,14.4843974 L41.5324336,35.3177307 L54.0705268,35.3177307 L54.0705268,31.328369 L45.711798,31.328369 L45.711798,14.4843974 L41.5324336,14.4843974 Z M40.3569874,36.5145392 L40.3569874,13.2875888 L46.8872442,13.2875888 L46.8872442,30.1315605 L55.245973,30.1315605 L55.245973,36.5145392 L40.3569874,36.5145392 Z M67.7840662,31.8159576 C64.1271223,31.8159576 61.3408794,28.7131208 61.3408794,24.9897165 C61.3408794,21.221986 64.1271223,18.1191491 67.7840662,18.1191491 C71.4845451,18.1191491 74.270788,21.221986 74.270788,24.9897165 C74.270788,28.7131208 71.4845451,31.8159576 67.7840662,31.8159576 Z M67.7840662,35.9382981 C73.7483674,35.9382981 78.6678276,31.0180853 78.6678276,24.9897165 C78.6678276,18.8726952 73.7483674,13.9968087 67.7840662,13.9968087 C61.8633,13.9968087 56.9438398,18.8726952 56.9438398,24.9897165 C56.9438398,31.0180853 61.8633,35.9382981 67.7840662,35.9382981 Z M67.7840662,37.1351066 C61.2102743,37.1351066 55.7683936,31.6829789 55.7683936,24.9897165 C55.7683936,18.2078016 61.2102743,12.8000002 67.7840662,12.8000002 C74.4013931,12.8000002 79.8432738,18.2078016 79.8432738,24.9897165 C79.8432738,31.6829789 74.4013931,37.1351066 67.7840662,37.1351066 Z M67.7840662,30.6191491 C70.7879843,30.6191491 73.0953418,28.0482271 73.0953418,24.9897165 C73.0953418,21.8868796 70.7879843,19.3159576 67.7840662,19.3159576 C64.8236831,19.3159576 62.5163256,21.8868796 62.5163256,24.9897165 C62.5163256,28.0482271 64.8236831,30.6191491 67.7840662,30.6191491 Z M82.3247714,14.4843974 L82.3247714,35.3177307 L86.2429256,35.3177307 L86.2429256,20.4684399 L98.8245538,34.5641846 L98.8245538,14.4843974 L94.9063997,14.4843974 L94.9063997,24.3691491 L85.9817153,14.4843974 L82.3247714,14.4843974 Z M81.1493252,36.5145392 L81.1493252,13.2875888 L86.5041358,13.2875888 L93.7309534,21.3549647 L93.7309534,13.2875888 L100,13.2875888 L100,37.8000002 L87.4183718,23.7042555 L87.4183718,36.5145392 L81.1493252,36.5145392 Z" id="pylon"></path>
        </g>
    </g>
</svg>