<?xml version="1.0" encoding="UTF-8"?>
<svg width="224px" height="25px" viewBox="0 0 224 25" version="1.1" xmlns="http://www.w3.org/2000/svg" xmlns:xlink="http://www.w3.org/1999/xlink">
    <!-- Generator: Sketch 46.2 (44496) - http://www.bohemiancoding.com/sketch -->
    <title>outline_seagle</title>
    <desc>Created with Sketch.</desc>
    <defs></defs>
    <g id="Page-1" stroke="none" stroke-width="1" fill="none" fill-rule="evenodd">
        <g id="outline_seagle" fill="#4C4C4C">
            <path d="M10.1978383,10.3597129 L7.65970968,10.3597129 C6.43596908,10.3597129 5.43884711,9.43645186 5.43884711,8.30335871 C5.43884711,7.17026556 6.43596908,6.24700448 7.65970968,6.24700448 L13.9597076,6.24700448 L13.9597076,2.63789297 L7.38776732,2.63789297 C3.98848788,2.63789297 1.2237406,5.15587775 1.2237406,8.34532512 C1.2237406,11.4928061 3.98848788,14.0527573 7.38776732,14.0527573 L9.88057225,14.0527573 C11.2856078,14.0527573 12.4187009,15.1019176 12.4187009,16.4028764 C12.4187009,17.7038352 11.2856078,18.7529955 9.88057225,18.7529955 L2.40215747,18.7529955 L2.40215747,22.362107 L10.1978383,22.362107 C13.551794,22.362107 16.6791311,19.508391 16.6791311,16.36091 C16.6791311,13.003597 13.8237364,10.3597129 10.1978383,10.3597129 Z M7.65970968,9.2266198 L10.1978383,9.2266198 C14.5035923,9.2266198 17.9028717,12.3741008 17.9028717,16.36091 C17.9028717,20.1378871 14.1863262,23.4952002 10.1978383,23.4952002 L1.17841687,23.4952002 L1.17841687,17.6199024 L9.88057225,17.6199024 C10.6057519,17.6199024 11.1949603,17.074339 11.1949603,16.4028764 C11.1949603,15.7314138 10.6057519,15.1858504 9.88057225,15.1858504 L7.38776732,15.1858504 C3.30863199,15.1858504 -9.76996262e-15,12.1223023 -9.76996262e-15,8.34532512 C-9.76996262e-15,4.52638155 3.30863199,1.50479983 7.38776732,1.50479983 L15.1834482,1.50479983 L15.1834482,7.38009763 L7.65970968,7.38009763 C7.11582497,7.38009763 6.66258771,7.79976176 6.66258771,8.30335871 C6.66258771,8.80695567 7.11582497,9.2266198 7.65970968,9.2266198 Z M20.9395614,2.63789297 L20.9395614,22.362107 L33.7208521,22.362107 L33.7208521,18.5851299 L25.2906391,18.5851299 L25.2906391,13.8848916 L33.0863199,13.8848916 L33.0863199,10.1918473 L25.2906391,10.1918473 L25.2906391,6.41487013 L33.5395572,6.41487013 L33.5395572,2.63789297 L20.9395614,2.63789297 Z M19.7158208,23.4952002 L19.7158208,1.50479983 L34.7632978,1.50479983 L34.7632978,7.54796328 L26.5143797,7.54796328 L26.5143797,9.05875414 L34.3100605,9.05875414 L34.3100605,15.0179848 L26.5143797,15.0179848 L26.5143797,17.4520367 L34.9445927,17.4520367 L34.9445927,23.4952002 L19.7158208,23.4952002 Z M47.0913512,10.569545 L49.2668901,15.3117497 L44.9158124,15.3117497 L47.0913512,10.569545 Z M43.6014243,18.8788948 L50.6266018,18.8788948 L52.1676085,22.362107 L56.7453048,22.362107 L47.0913512,2.7218258 L37.4373976,22.362107 L42.0150939,22.362107 L43.6014243,18.8788948 Z M49.9014222,20.0119879 L44.3266039,20.0119879 L42.830921,23.4952002 L35.5338011,23.4952002 L47.0913512,0.329740265 L58.6489013,23.4952002 L51.3517815,23.4952002 L49.9014222,20.0119879 Z M47.6352359,14.1786565 L47.1366749,13.0455634 L46.638114,14.1786565 L47.6352359,14.1786565 Z M75.2827087,7.75779534 L78.7726356,5.28177698 C77.050334,3.56115406 74.5122054,2.17626243 70.6596887,2.17626243 C64.495662,2.17626243 59.3740809,6.79256785 59.3740809,12.5839328 C59.3740809,18.291365 64.495662,22.9496368 70.6596887,22.9496368 C76.8690391,22.9496368 81.9906202,18.291365 81.9906202,12.5839328 C81.9906202,12.0383695 81.9452964,11.5347725 81.854649,11.0311755 L70.3877463,11.0311755 L70.3877463,14.7242199 L77.050334,14.7242199 C76.1438595,17.1582718 73.8323495,19.0467604 70.6596887,19.0467604 C66.8524957,19.0467604 63.9517773,16.1091115 63.9517773,12.5839328 C63.9517773,9.01678773 66.8524957,6.07913883 70.6596887,6.07913883 C72.4726377,6.07913883 74.1042919,6.70863502 75.2827087,7.75779534 Z M80.4042898,5.36570981 L75.0107664,9.14268697 C73.922997,7.79976176 72.5632852,7.21223198 70.6596887,7.21223198 C67.5776753,7.21223198 65.1755179,9.64628392 65.1755179,12.5839328 C65.1755179,15.4796153 67.5776753,17.9136673 70.6596887,17.9136673 C72.6086089,17.9136673 74.1042919,17.1163054 75.0560901,15.857313 L69.1640057,15.857313 L69.1640057,9.8980824 L82.8970947,9.8980824 C83.1237133,11.073142 83.2143608,11.9544366 83.2143608,12.5839328 C83.2143608,18.9208612 77.548895,24.08273 70.6596887,24.08273 C63.8158061,24.08273 58.1503403,18.9208612 58.1503403,12.5839328 C58.1503403,6.16307166 63.8158061,1.04316928 70.6596887,1.04316928 C74.738824,1.04316928 77.9114848,2.7218258 80.4042898,5.36570981 Z M86.477669,2.63789297 L86.477669,22.362107 L99.5309021,22.362107 L99.5309021,18.5851299 L90.8287467,18.5851299 L90.8287467,2.63789297 L86.477669,2.63789297 Z M85.2539284,23.4952002 L85.2539284,1.50479983 L92.0524873,1.50479983 L92.0524873,17.4520367 L100.754643,17.4520367 L100.754643,23.4952002 L85.2539284,23.4952002 Z M104.380541,2.63789297 L104.380541,22.362107 L117.161831,22.362107 L117.161831,18.5851299 L108.731618,18.5851299 L108.731618,13.8848916 L116.527299,13.8848916 L116.527299,10.1918473 L108.731618,10.1918473 L108.731618,6.41487013 L116.980537,6.41487013 L116.980537,2.63789297 L104.380541,2.63789297 Z M103.1568,23.4952002 L103.1568,1.50479983 L118.204277,1.50479983 L118.204277,7.54796328 L109.955359,7.54796328 L109.955359,9.05875414 L117.75104,9.05875414 L117.75104,15.0179848 L109.955359,15.0179848 L109.955359,17.4520367 L118.385572,17.4520367 L118.385572,23.4952002 L103.1568,23.4952002 Z M145.217218,9.31055262 C145.217218,10.9472427 143.766859,12.2901679 141.999233,12.2901679 L137.784127,12.2901679 L137.784127,6.33093731 L141.999233,6.33093731 C143.766859,6.33093731 145.217218,7.67386252 145.217218,9.31055262 Z M149.840238,9.18465338 C149.840238,5.61750829 146.712901,2.63789297 142.81506,2.63789297 L133.433049,2.63789297 L133.433049,22.362107 L137.784127,22.362107 L137.784127,15.9832123 L142.81506,15.9832123 C146.712901,15.9832123 149.840238,12.8357313 149.840238,9.18465338 Z M151.063978,9.18465338 C151.063978,13.4652275 147.392757,17.1163054 142.81506,17.1163054 L139.007867,17.1163054 L139.007867,23.4952002 L132.209308,23.4952002 L132.209308,1.50479983 L142.81506,1.50479983 C147.392757,1.50479983 151.063978,4.98801209 151.063978,9.18465338 Z M143.993477,9.31055262 C143.993477,8.30335871 143.087003,7.46403045 141.999233,7.46403045 L139.007867,7.46403045 L139.007867,11.1570748 L141.999233,11.1570748 C143.087003,11.1570748 143.993477,10.3177465 143.993477,9.31055262 Z M166.111455,9.60431751 C166.111455,11.4088733 164.525125,12.8776977 162.576205,12.8776977 L158.678364,12.8776977 L158.678364,6.33093731 L162.576205,6.33093731 C164.525125,6.33093731 166.111455,7.84172817 166.111455,9.60431751 Z M158.678364,16.570742 L161.533759,16.570742 C164.661096,16.570742 166.383398,19.2565925 166.383398,21.4388459 L166.383398,22.362107 L170.734476,22.362107 L170.734476,21.2290139 C170.734476,18.9628276 169.737354,16.4868092 167.38052,15.3956825 C169.374764,14.0107909 170.734476,11.5767389 170.734476,9.18465338 C170.734476,5.61750829 167.607138,2.63789297 163.709298,2.63789297 L154.327287,2.63789297 L154.327287,22.362107 L158.678364,22.362107 L158.678364,16.570742 Z M161.533759,17.7038352 L159.902105,17.7038352 L159.902105,23.4952002 L153.103546,23.4952002 L153.103546,1.50479983 L163.709298,1.50479983 C168.286994,1.50479983 171.958216,4.98801209 171.958216,9.18465338 C171.958216,11.4508397 170.961094,13.6330931 169.148145,15.2697833 C171.323684,16.8645069 171.958216,19.004794 171.958216,21.2290139 L171.958216,23.4952002 L165.159657,23.4952002 L165.159657,21.4388459 C165.159657,19.7601894 163.890593,17.7038352 161.533759,17.7038352 Z M164.887715,9.60431751 C164.887715,8.47122436 163.845269,7.46403045 162.576205,7.46403045 L159.902105,7.46403045 L159.902105,11.7446046 L162.576205,11.7446046 C163.845269,11.7446046 164.887715,10.7793771 164.887715,9.60431751 Z M185.464686,19.0467604 C181.657493,19.0467604 178.756775,16.1091115 178.756775,12.5839328 C178.756775,9.01678773 181.657493,6.07913883 185.464686,6.07913883 C189.317203,6.07913883 192.217922,9.01678773 192.217922,12.5839328 C192.217922,16.1091115 189.317203,19.0467604 185.464686,19.0467604 Z M185.464686,22.9496368 C191.674037,22.9496368 196.795618,18.291365 196.795618,12.5839328 C196.795618,6.79256785 191.674037,2.17626243 185.464686,2.17626243 C179.30066,2.17626243 174.179079,6.79256785 174.179079,12.5839328 C174.179079,18.291365 179.30066,22.9496368 185.464686,22.9496368 Z M185.464686,24.08273 C178.620804,24.08273 172.955338,18.9208612 172.955338,12.5839328 C172.955338,6.16307166 178.620804,1.04316928 185.464686,1.04316928 C192.353893,1.04316928 198.019359,6.16307166 198.019359,12.5839328 C198.019359,18.9208612 192.353893,24.08273 185.464686,24.08273 Z M185.464686,17.9136673 C188.592024,17.9136673 190.994181,15.4796153 190.994181,12.5839328 C190.994181,9.64628392 188.592024,7.21223198 185.464686,7.21223198 C182.382673,7.21223198 179.980516,9.64628392 179.980516,12.5839328 C179.980516,15.4796153 182.382673,17.9136673 185.464686,17.9136673 Z M212.477627,2.63789297 L207.673312,13.2553954 L202.868997,2.63789297 L198.517919,2.63789297 L207.673312,21.7326108 L216.828705,2.63789297 L212.477627,2.63789297 Z M218.686978,1.50479983 L207.673312,24.6702597 L196.659647,1.50479983 L203.684824,1.50479983 L207.673312,10.4856122 L211.6618,1.50479983 L218.686978,1.50479983 Z M216.103525,20.0959207 C216.103525,21.648678 217.417913,22.9076704 219.094891,22.9076704 C220.726545,22.9076704 222.086257,21.648678 222.086257,20.0959207 C222.086257,18.5851299 220.726545,17.2841711 219.094891,17.2841711 C217.417913,17.2841711 216.103525,18.5851299 216.103525,20.0959207 Z M214.879785,20.0959207 C214.879785,17.9556337 216.738057,16.1510779 219.094891,16.1510779 C221.406401,16.1510779 223.309998,17.9556337 223.309998,20.0959207 C223.309998,22.2781742 221.406401,24.0407635 219.094891,24.0407635 C216.738057,24.0407635 214.879785,22.2781742 214.879785,20.0959207 Z" id="seagle-prov."></path>
        </g>
    </g>
</svg>