<?xml version="1.0" encoding="UTF-8"?>
<svg width="170px" height="48px" viewBox="0 0 170 48" version="1.1" xmlns="http://www.w3.org/2000/svg" xmlns:xlink="http://www.w3.org/1999/xlink">
    <!-- Generator: Sketch 48.2 (47327) - http://www.bohemiancoding.com/sketch -->
    <title>outline_wireframe</title>
    <desc>Created with Sketch.</desc>
    <defs></defs>
    <g id="Page-1" stroke="none" stroke-width="1" fill="none" fill-rule="evenodd">
        <g id="outline_wireframe" fill="#4C4C4C">
            <path d="M23.2870865,14.3612733 L18.5309571,26.712392 L13.864566,14.3612733 L9.60199714,14.3612733 L13.2812671,23.0876072 L11.8454544,26.712392 L6.19194208,14.3612733 L1.88450411,14.3612733 L11.6659778,34.8122199 L15.0311637,27.8759032 L18.5309571,34.8122199 L27.5945245,14.3612733 L23.2870865,14.3612733 Z M18.5309571,23.4008602 L22.4345727,13.1530117 L29.4341594,13.1530117 L18.5309571,37.8999996 L15.0311637,31.0084334 L11.6659778,37.8999996 L-2.44249065e-14,13.1530117 L6.9995867,13.1530117 L11.7557161,23.7588636 L12.0698001,22.863855 L7.80723132,13.1530117 L14.7170797,13.1530117 L18.5309571,23.4008602 Z M30.4160019,14.3612733 L30.4160019,35.3939755 L34.7234399,35.3939755 L34.7234399,14.3612733 L30.4160019,14.3612733 Z M29.204535,36.6022371 L29.204535,13.1530117 L35.9349068,13.1530117 L35.9349068,36.6022371 L29.204535,36.6022371 Z M50.6915769,21.7898447 C50.6915769,23.7141132 49.1211568,25.2803783 47.1917835,25.2803783 L43.333037,25.2803783 L43.333037,18.2993112 L47.1917835,18.2993112 C49.1211568,18.2993112 50.6915769,19.9103266 50.6915769,21.7898447 Z M43.333037,29.2184161 L46.1597932,29.2184161 C49.2557642,29.2184161 50.9607918,32.0824437 50.9607918,34.4094661 L50.9607918,35.3939755 L55.2682297,35.3939755 L55.2682297,34.1857139 C55.2682297,31.7691907 54.2811085,29.1289153 51.947913,27.9654041 C53.9221554,26.4886399 55.2682297,23.8931149 55.2682297,21.3423404 C55.2682297,17.5385538 52.1722587,14.3612733 48.3135122,14.3612733 L39.0255991,14.3612733 L39.0255991,35.3939755 L43.333037,35.3939755 L43.333037,29.2184161 Z M46.1597932,30.4266778 L44.544504,30.4266778 L44.544504,36.6022371 L37.8141321,36.6022371 L37.8141321,13.1530117 L48.3135122,13.1530117 C52.8452959,13.1530117 56.4796967,16.8672974 56.4796967,21.3423404 C56.4796967,23.7588636 55.4925755,26.085886 53.6978096,27.8311528 C55.8515286,29.5316692 56.4796967,31.8139411 56.4796967,34.1857139 L56.4796967,36.6022371 L49.7493248,36.6022371 L49.7493248,34.4094661 C49.7493248,32.6194488 48.4929888,30.4266778 46.1597932,30.4266778 Z M49.48011,21.7898447 C49.48011,20.5815831 48.4481196,19.5075728 47.1917835,19.5075728 L44.544504,19.5075728 L44.544504,24.0721167 L47.1917835,24.0721167 C48.4481196,24.0721167 49.48011,23.0428568 49.48011,21.7898447 Z M58.5383986,14.3612733 L58.5383986,35.3939755 L71.1914976,35.3939755 L71.1914976,31.3664368 L62.8458366,31.3664368 L62.8458366,26.3543886 L70.5633296,26.3543886 L70.5633296,22.4163507 L62.8458366,22.4163507 L62.8458366,18.388812 L71.012021,18.388812 L71.012021,14.3612733 L58.5383986,14.3612733 Z M57.3269317,36.6022371 L57.3269317,13.1530117 L72.223488,13.1530117 L72.223488,19.5970736 L64.0573035,19.5970736 L64.0573035,21.2080891 L71.7747965,21.2080891 L71.7747965,27.5626502 L64.0573035,27.5626502 L64.0573035,30.1581752 L72.4029646,30.1581752 L72.4029646,36.6022371 L57.3269317,36.6022371 Z M74.9552271,14.3612733 L74.9552271,35.3939755 L79.2626651,35.3939755 L79.2626651,26.8018929 L86.9801581,26.8018929 L86.9801581,22.863855 L79.2626651,22.863855 L79.2626651,18.388812 L87.4288495,18.388812 L87.4288495,14.3612733 L74.9552271,14.3612733 Z M73.7437602,36.6022371 L73.7437602,13.1530117 L88.6403165,13.1530117 L88.6403165,19.5970736 L80.474132,19.5970736 L80.474132,21.6555934 L88.191625,21.6555934 L88.191625,28.0101545 L80.474132,28.0101545 L80.474132,36.6022371 L73.7437602,36.6022371 Z M103.038033,21.7898447 C103.038033,23.7141132 101.467613,25.2803783 99.5382401,25.2803783 L95.6794935,25.2803783 L95.6794935,18.2993112 L99.5382401,18.2993112 C101.467613,18.2993112 103.038033,19.9103266 103.038033,21.7898447 Z M95.6794935,29.2184161 L98.5062497,29.2184161 C101.602221,29.2184161 103.307248,32.0824437 103.307248,34.4094661 L103.307248,35.3939755 L107.614686,35.3939755 L107.614686,34.1857139 C107.614686,31.7691907 106.627565,29.1289153 104.294369,27.9654041 C106.268612,26.4886399 107.614686,23.8931149 107.614686,21.3423404 C107.614686,17.5385538 104.518715,14.3612733 100.659969,14.3612733 L91.3720556,14.3612733 L91.3720556,35.3939755 L95.6794935,35.3939755 L95.6794935,29.2184161 Z M98.5062497,30.4266778 L96.8909605,30.4266778 L96.8909605,36.6022371 L90.1605887,36.6022371 L90.1605887,13.1530117 L100.659969,13.1530117 C105.191752,13.1530117 108.826153,16.8672974 108.826153,21.3423404 C108.826153,23.7588636 107.839032,26.085886 106.044266,27.8311528 C108.197985,29.5316692 108.826153,31.8139411 108.826153,34.1857139 L108.826153,36.6022371 L102.095781,36.6022371 L102.095781,34.4094661 C102.095781,32.6194488 100.839445,30.4266778 98.5062497,30.4266778 Z M101.826566,21.7898447 C101.826566,20.5815831 100.794576,19.5075728 99.5382401,19.5075728 L96.8909605,19.5075728 L96.8909605,24.0721167 L99.5382401,24.0721167 C100.794576,24.0721167 101.826566,23.0428568 101.826566,21.7898447 Z M119.275385,22.8191046 L121.429104,27.8759032 L117.121666,27.8759032 L119.275385,22.8191046 Z M115.820461,31.6796898 L122.775179,31.6796898 L124.30073,35.3939755 L128.832513,35.3939755 L119.275385,14.4507741 L109.718257,35.3939755 L114.250041,35.3939755 L115.820461,31.6796898 Z M122.057272,32.8879514 L116.538367,32.8879514 L115.057686,36.6022371 L107.833753,36.6022371 L119.275385,11.8999996 L130.717017,36.6022371 L123.493085,36.6022371 L122.057272,32.8879514 Z M119.813815,26.6676416 L119.320254,25.45938 L118.826694,26.6676416 L119.813815,26.6676416 Z M142.557193,35.3044747 L147.98636,25.8621339 L149.915733,35.3939755 L153.953956,35.3939755 L149.781125,15.2115315 L142.557193,27.8311528 L135.333261,15.2115315 L131.16043,35.3939755 L135.198653,35.3939755 L137.128026,25.8621339 L142.557193,35.3044747 Z M147.44793,29.1736657 L142.557193,37.8552492 L137.621587,29.2631666 L136.230644,36.6022371 L129.634879,36.6022371 L134.8397,11.8999996 L142.557193,25.3251287 L150.274686,11.94475 L155.479507,36.6022371 L148.883743,36.6022371 L147.44793,29.1736657 Z M156.775433,14.3612733 L156.775433,35.3939755 L169.428532,35.3939755 L169.428532,31.3664368 L161.082871,31.3664368 L161.082871,26.3543886 L168.800364,26.3543886 L168.800364,22.4163507 L161.082871,22.4163507 L161.082871,18.388812 L169.249056,18.388812 L169.249056,14.3612733 L156.775433,14.3612733 Z M155.563967,36.6022371 L155.563967,13.1530117 L170.460523,13.1530117 L170.460523,19.5970736 L162.294338,19.5970736 L162.294338,21.2080891 L170.011831,21.2080891 L170.011831,27.5626502 L162.294338,27.5626502 L162.294338,30.1581752 L170.639999,30.1581752 L170.639999,36.6022371 L155.563967,36.6022371 Z" id="wireframe"></path>
        </g>
    </g>
</svg>