<?xml version="1.0" encoding="UTF-8"?>
<svg width="148px" height="45px" viewBox="0 0 148 45" version="1.1" xmlns="http://www.w3.org/2000/svg" xmlns:xlink="http://www.w3.org/1999/xlink">
    <title>project title Iron Vice</title>
    <desc>alla typeface cassannet</desc>
    <defs></defs>
    <g id="Page-1" stroke="none" stroke-width="1" fill="none" fill-rule="evenodd">
        <g id="outline_ironvice" fill="#4C4C4C">
            <path d="M2.161,12.008 L2.161,32.218 L6.289,32.218 L6.289,12.008 L2.161,12.008 Z M1,33.379 L1,10.847 L7.45,10.847 L7.45,33.379 L1,33.379 Z M22.629,19.146 C22.629,20.995 21.124,22.5 19.275,22.5 L15.577,22.5 L15.577,15.792 L19.275,15.792 C21.124,15.792 22.629,17.34 22.629,19.146 Z M15.577,26.284 L18.286,26.284 C21.253,26.284 22.887,29.036 22.887,31.272 L22.887,32.218 L27.015,32.218 L27.015,31.057 C27.015,28.735 26.069,26.198 23.833,25.08 C25.725,23.661 27.015,21.167 27.015,18.716 C27.015,15.061 24.048,12.008 20.35,12.008 L11.449,12.008 L11.449,32.218 L15.577,32.218 L15.577,26.284 Z M18.286,27.445 L16.738,27.445 L16.738,33.379 L10.288,33.379 L10.288,10.847 L20.35,10.847 C24.693,10.847 28.176,14.416 28.176,18.716 C28.176,21.038 27.23,23.274 25.51,24.951 C27.574,26.585 28.176,28.778 28.176,31.057 L28.176,33.379 L21.726,33.379 L21.726,31.272 C21.726,29.552 20.522,27.445 18.286,27.445 Z M21.468,19.146 C21.468,17.985 20.479,16.953 19.275,16.953 L16.738,16.953 L16.738,21.339 L19.275,21.339 C20.479,21.339 21.468,20.35 21.468,19.146 Z M40.99,28.821 C37.378,28.821 34.626,25.811 34.626,22.199 C34.626,18.544 37.378,15.534 40.99,15.534 C44.645,15.534 47.397,18.544 47.397,22.199 C47.397,25.811 44.645,28.821 40.99,28.821 Z M40.99,32.82 C46.881,32.82 51.74,28.047 51.74,22.199 C51.74,16.265 46.881,11.535 40.99,11.535 C35.142,11.535 30.283,16.265 30.283,22.199 C30.283,28.047 35.142,32.82 40.99,32.82 Z M40.99,33.981 C34.497,33.981 29.122,28.692 29.122,22.199 C29.122,15.62 34.497,10.374 40.99,10.374 C47.526,10.374 52.901,15.62 52.901,22.199 C52.901,28.692 47.526,33.981 40.99,33.981 Z M40.99,27.66 C43.957,27.66 46.236,25.166 46.236,22.199 C46.236,19.189 43.957,16.695 40.99,16.695 C38.066,16.695 35.787,19.189 35.787,22.199 C35.787,25.166 38.066,27.66 40.99,27.66 Z M55.352,12.008 L55.352,32.218 L59.222,32.218 L59.222,17.813 L71.649,31.487 L71.649,12.008 L67.779,12.008 L67.779,21.597 L58.964,12.008 L55.352,12.008 Z M54.191,33.379 L54.191,10.847 L59.48,10.847 L66.618,18.673 L66.618,10.847 L72.81,10.847 L72.81,34.626 L60.383,20.952 L60.383,33.379 L54.191,33.379 Z M99.513,12.008 L94.955,22.887 L90.397,12.008 L86.269,12.008 L94.955,31.573 L103.641,12.008 L99.513,12.008 Z M105.404,10.847 L94.955,34.583 L84.506,10.847 L91.171,10.847 L94.955,20.049 L98.739,10.847 L105.404,10.847 Z M107.468,12.008 L107.468,32.218 L111.596,32.218 L111.596,12.008 L107.468,12.008 Z M106.307,33.379 L106.307,10.847 L112.757,10.847 L112.757,33.379 L106.307,33.379 Z M115.853,22.199 C115.853,28.09 120.712,32.82 126.56,32.82 C127.764,32.82 128.882,32.605 129.957,32.261 L129.957,27.832 C129.183,28.348 127.979,28.821 126.56,28.821 C122.948,28.821 120.196,25.811 120.196,22.199 C120.196,18.544 122.948,15.534 126.56,15.534 C127.979,15.534 129.14,16.007 129.957,16.523 L129.957,12.094 C128.882,11.707 127.764,11.535 126.56,11.535 C120.712,11.535 115.853,16.265 115.853,22.199 Z M114.692,22.199 C114.692,15.62 120.067,10.374 126.56,10.374 C127.936,10.374 129.398,10.632 131.118,11.277 L131.118,18.63 C130.043,17.555 128.237,16.695 126.56,16.695 C123.636,16.695 121.357,19.189 121.357,22.199 C121.357,25.166 123.636,27.66 126.56,27.66 C128.581,27.66 130.129,26.628 131.118,25.682 L131.118,33.121 C129.484,33.68 127.936,33.981 126.56,33.981 C120.067,33.981 114.692,28.735 114.692,22.199 Z M134.386,12.008 L134.386,32.218 L146.512,32.218 L146.512,28.348 L138.514,28.348 L138.514,23.532 L145.91,23.532 L145.91,19.748 L138.514,19.748 L138.514,15.878 L146.34,15.878 L146.34,12.008 L134.386,12.008 Z M133.225,33.379 L133.225,10.847 L147.501,10.847 L147.501,17.039 L139.675,17.039 L139.675,18.587 L147.071,18.587 L147.071,24.693 L139.675,24.693 L139.675,27.187 L147.673,27.187 L147.673,33.379 L133.225,33.379 Z" id="iron-vice"></path>
        </g>
    </g>
</svg>