<?xml version="1.0" encoding="UTF-8"?>
<svg width="222px" height="45px" viewBox="0 0 222 45" version="1.1" xmlns="http://www.w3.org/2000/svg" xmlns:xlink="http://www.w3.org/1999/xlink">
    <!-- Generator: Sketch 46.2 (44496) - http://www.bohemiancoding.com/sketch -->
    <title>regular_seagle</title>
    <desc>Created with Sketch.</desc>
    <defs></defs>
    <g id="Page-1" stroke="none" stroke-width="1" fill="none" fill-rule="evenodd">
        <g id="regular_seagle" fill="#4C4C4C">
            <path d="M8.27454534,20.16 C6.98397119,20.16 5.93239226,19.17 5.93239226,17.9550001 C5.93239226,16.7400001 6.98397119,15.7500001 8.27454534,15.7500001 L14.9186122,15.7500001 L14.9186122,11.8800001 L7.98775108,11.8800001 C4.4028229,11.8800001 1.48708131,14.5800001 1.48708131,18.0000001 C1.48708131,21.375 4.4028229,24.12 7.98775108,24.12 L10.6166984,24.12 C12.0984687,24.12 13.2934448,25.245 13.2934448,26.6399999 C13.2934448,28.0349999 12.0984687,29.1599999 10.6166984,29.1599999 L2.72985642,29.1599999 L2.72985642,33.0299999 L10.9512917,33.0299999 C14.4884208,33.0299999 17.7865548,29.9699999 17.7865548,26.5949999 C17.7865548,22.995 14.7752151,20.16 10.9512917,20.16 L8.27454534,20.16 Z M21.8972724,33.0299999 L35.3766024,33.0299999 L35.3766024,28.9799999 L26.4859805,28.9799999 L26.4859805,23.94 L34.7074158,23.94 L34.7074158,19.98 L26.4859805,19.98 L26.4859805,15.9300001 L35.1854062,15.9300001 L35.1854062,11.8800001 L21.8972724,11.8800001 L21.8972724,33.0299999 Z M51.2458845,29.2949999 L43.8370329,29.2949999 L42.1640664,33.0299999 L37.3363631,33.0299999 L47.5175592,11.3400002 L57.6987552,33.0299999 L52.8710519,33.0299999 L51.2458845,29.2949999 Z M49.8119132,25.47 L47.5175592,20.385 L45.2232051,25.47 L49.8119132,25.47 Z M79.7341137,15.7500001 C77.726554,13.1850001 74.6196162,11.3850002 70.2221043,11.3850002 C63.7214345,11.3850002 58.3201427,16.3350001 58.3201427,22.545 C58.3201427,28.6649999 63.7214345,33.6599998 70.2221043,33.6599998 C76.7705731,33.6599998 82.1718649,28.6649999 82.1718649,22.545 C82.1718649,21.96 82.1240659,21.42 82.0284678,20.88 L69.93531,20.88 L69.93531,24.84 L76.9617693,24.84 C76.0057884,27.4499999 73.5680373,29.4749999 70.2221043,29.4749999 C66.2069847,29.4749999 63.147846,26.3249999 63.147846,22.545 C63.147846,18.7200001 66.2069847,15.5700001 70.2221043,15.5700001 C72.6120564,15.5700001 74.7152143,16.6500001 75.9579894,18.3600001 L79.7341137,15.7500001 Z M85.7567931,33.0299999 L99.5229173,33.0299999 L99.5229173,28.9799999 L90.3455012,28.9799999 L90.3455012,11.8800001 L85.7567931,11.8800001 L85.7567931,33.0299999 Z M103.729233,33.0299999 L117.208563,33.0299999 L117.208563,28.9799999 L108.317941,28.9799999 L108.317941,23.94 L116.539376,23.94 L116.539376,19.98 L108.317941,19.98 L108.317941,15.9300001 L117.017367,15.9300001 L117.017367,11.8800001 L103.729233,11.8800001 L103.729233,33.0299999 Z M151.002486,18.9 C151.002486,22.815 147.704352,26.1899999 143.593634,26.1899999 L138.287941,26.1899999 L138.287941,33.0299999 L133.699233,33.0299999 L133.699233,11.8800001 L143.593634,11.8800001 C147.704352,11.8800001 151.002486,15.0750001 151.002486,18.9 Z M146.126984,19.035 C146.126984,17.2800001 144.597414,15.8400001 142.733252,15.8400001 L138.287941,15.8400001 L138.287941,22.23 L142.733252,22.23 C144.597414,22.23 146.126984,20.79 146.126984,19.035 Z M162.139663,26.8199999 L159.128323,26.8199999 L159.128323,33.0299999 L154.539615,33.0299999 L154.539615,11.8800001 L164.434017,11.8800001 C168.544735,11.8800001 171.842868,15.0750001 171.842868,18.9 C171.842868,21.465 170.408897,24.075 168.305739,25.56 C170.79129,26.7299999 171.842868,29.3849999 171.842868,31.8149999 L171.842868,33.0299999 L167.25416,33.0299999 L167.25416,32.0399999 C167.25416,29.6999999 165.437797,26.8199999 162.139663,26.8199999 Z M166.967366,19.35 C166.967366,17.4600001 165.2944,15.8400001 163.239041,15.8400001 L159.128323,15.8400001 L159.128323,22.86 L163.239041,22.86 C165.2944,22.86 166.967366,21.285 166.967366,19.35 Z M186.134782,33.6599998 C179.634112,33.6599998 174.232821,28.6649999 174.232821,22.545 C174.232821,16.3350001 179.634112,11.3850002 186.134782,11.3850002 C192.683251,11.3850002 198.084543,16.3350001 198.084543,22.545 C198.084543,28.6649999 192.683251,33.6599998 186.134782,33.6599998 Z M186.134782,29.4749999 C190.197701,29.4749999 193.256839,26.3249999 193.256839,22.545 C193.256839,18.7200001 190.197701,15.5700001 186.134782,15.5700001 C182.119663,15.5700001 179.060524,18.7200001 179.060524,22.545 C179.060524,26.3249999 182.119663,29.4749999 186.134782,29.4749999 Z M202.864447,11.8800001 L207.931145,23.985 L212.997844,11.8800001 L217.586552,11.8800001 L207.931145,33.5699998 L198.275739,11.8800001 L202.864447,11.8800001 Z M214.814208,30.5999999 C214.814208,28.9799999 216.20038,27.5849999 217.968944,27.5849999 C219.68971,27.5849999 221.123681,28.9799999 221.123681,30.5999999 C221.123681,32.2649999 219.68971,33.6149998 217.968944,33.6149998 C216.20038,33.6149998 214.814208,32.2649999 214.814208,30.5999999 Z" id="seagle-prov."></path>
        </g>
    </g>
</svg>