<?xml version="1.0" encoding="UTF-8"?>
<svg width="189px" height="48px" viewBox="0 0 189 48" version="1.1" xmlns="http://www.w3.org/2000/svg" xmlns:xlink="http://www.w3.org/1999/xlink">
    <!-- Generator: Sketch 47.1 (45422) - http://www.bohemiancoding.com/sketch -->
    <title>regular_axure</title>
    <desc>Created with Sketch.</desc>
    <defs></defs>
    <g id="Page-1" stroke="none" stroke-width="1" fill="none" fill-rule="evenodd">
        <g id="regular_axure" fill="#4C4C4C">
            <path d="M14.5214718,31.3397502 L7.3193133,31.3397502 L5.69301944,35.19639 L1,35.19639 L10.8971598,12.8000002 L20.7943196,35.19639 L16.1013002,35.19639 L14.5214718,31.3397502 Z M13.1275057,27.3901794 L10.8971598,22.1395735 L8.66681393,27.3901794 L13.1275057,27.3901794 Z M35.1521712,35.19639 L40.1239838,35.19639 L34.0834638,23.4870742 L39.2876041,13.3575867 L34.3157915,13.3575867 L30.9702726,19.9092277 L27.6247538,13.3575867 L22.6529412,13.3575867 L27.8570815,23.4870742 L21.8165615,35.19639 L26.7883741,35.19639 L30.9702726,27.0184551 L35.1521712,35.19639 Z M51.4151098,35.800442 C55.7364049,35.800442 59.2213203,32.3155266 59.2213203,27.9942314 L59.2213203,13.3575867 L54.7606286,13.3575867 L54.7606286,28.1800936 C54.7606286,30.0387152 53.2737314,31.5256124 51.4151098,31.5256124 C49.5564882,31.5256124 48.069591,30.0387152 48.069591,28.1800936 L48.069591,13.3575867 L43.6088992,13.3575867 L43.6088992,27.9942314 C43.6088992,32.3155266 47.0938147,35.800442 51.4151098,35.800442 Z M71.5378506,28.7841456 L68.7185135,28.7841456 L68.7185135,35.19639 L64.4223807,35.19639 L64.4223807,13.3575867 L73.685917,13.3575867 C77.534536,13.3575867 80.6223814,16.6566399 80.6223814,20.6062107 C80.6223814,23.2547465 79.2798399,25.9497477 77.3107791,27.4831105 C79.637851,28.6912145 80.6223814,31.4326813 80.6223814,33.9418204 L80.6223814,35.19639 L76.3262486,35.19639 L76.3262486,34.1741481 C76.3262486,31.7579401 74.6256961,28.7841456 71.5378506,28.7841456 Z M75.9800038,21.319999 C75.9800038,19.5107683 74.4711623,17.9599991 72.6174428,17.9599991 L68.9100037,17.9599991 L68.9100037,24.6799989 L72.6174428,24.6799989 C74.4711623,24.6799989 75.9800038,23.1723066 75.9800038,21.319999 Z M84.2884877,35.19639 L97.3917697,35.19639 L97.3917697,31.0144915 L88.7491795,31.0144915 L88.7491795,25.8103511 L96.7412522,25.8103511 L96.7412522,21.7213837 L88.7491795,21.7213837 L88.7491795,17.5394852 L97.2059076,17.5394852 L97.2059076,13.3575867 L84.2884877,13.3575867 L84.2884877,35.19639 Z M118.537851,28.7841456 L115.718513,28.7841456 L115.718513,35.19639 L111.422381,35.19639 L111.422381,13.3575867 L120.685917,13.3575867 C124.534536,13.3575867 127.622381,16.6566399 127.622381,20.6062107 C127.622381,23.2547465 126.27984,25.9497477 124.310779,27.4831105 C126.637851,28.6912145 127.622381,31.4326813 127.622381,33.9418204 L127.622381,35.19639 L123.326249,35.19639 L123.326249,34.1741481 C123.326249,31.7579401 121.625696,28.7841456 118.537851,28.7841456 Z M122.980004,21.319999 C122.980004,19.5107683 121.471162,17.9599991 119.617443,17.9599991 L115.910004,17.9599991 L115.910004,24.6799989 L119.617443,24.6799989 C121.471162,24.6799989 122.980004,23.1723066 122.980004,21.319999 Z M136.833867,24.5717948 C135.781654,24.5717948 134.924294,23.7545182 134.924294,22.751497 C134.924294,21.7484758 135.781654,20.9311992 136.833867,20.9311992 L142.250819,20.9311992 L142.250819,17.7363909 L136.600042,17.7363909 C133.677226,17.7363909 131.300003,19.965327 131.300003,22.788646 C131.300003,25.574816 133.677226,27.840901 136.600042,27.840901 L138.74344,27.840901 C139.951537,27.840901 140.925809,28.7696244 140.925809,29.9212413 C140.925809,31.0728583 139.951537,32.0015816 138.74344,32.0015816 L132.313246,32.0015816 L132.313246,35.19639 L139.016236,35.19639 C141.900081,35.19639 144.589071,32.6702625 144.589071,29.8840924 C144.589071,26.9121776 142.133906,24.5717948 139.016236,24.5717948 L136.833867,24.5717948 Z M150.13138,17.7363909 L145.789993,17.7363909 L154.924994,35.19639 L164.059994,17.7363909 L159.718607,17.7363909 L154.924994,27.4806642 L150.13138,17.7363909 Z M183.65528,20.6062107 C183.65528,24.6487126 180.575959,28.1336281 176.737964,28.1336281 L171.784273,28.1336281 L171.784273,35.19639 L167.5,35.19639 L167.5,13.3575867 L176.737964,13.3575867 C180.575959,13.3575867 183.65528,16.6566399 183.65528,20.6062107 Z M178.780003,20.7199998 C178.780003,19.0391548 177.418052,17.6599998 175.758174,17.6599998 L171.800003,17.6599998 L171.800003,23.7799997 L175.758174,23.7799997 C177.418052,23.7799997 178.780003,22.4008448 178.780003,20.7199998 Z" id="axure-rsvp"></path>
        </g>
    </g>
</svg>