<?xml version="1.0" encoding="UTF-8"?>
<svg width="148px" height="25px" viewBox="0 0 148 25" version="1.1" xmlns="http://www.w3.org/2000/svg" xmlns:xlink="http://www.w3.org/1999/xlink">
    <!-- Generator: Sketch 46.2 (44496) - http://www.bohemiancoding.com/sketch -->
    <title>regular_ironvice</title>
    <desc>Created with Sketch.</desc>
    <defs></defs>
    <g id="Page-1" stroke="none" stroke-width="1" fill="none" fill-rule="evenodd">
        <g id="regular_ironvice" fill="#4C4C4C">
            <path d="M1.70000005,23.028727 L5.97518432,23.028727 L5.97518432,1.83600003 L1.70000005,1.83600003 L1.70000005,23.028727 Z M18.3999386,16.8061816 L15.5943489,16.8061816 L15.5943489,23.028727 L11.3191647,23.028727 L11.3191647,1.83600003 L20.5375308,1.83600003 C24.3673833,1.83600003 27.440172,5.03745453 27.440172,8.87018175 C27.440172,11.4403635 26.104177,14.0556362 24.1447175,15.5436362 C26.4604423,16.7159998 27.440172,19.3763634 27.440172,21.8112725 L27.440172,23.028727 L23.1649878,23.028727 L23.1649878,22.036727 C23.1649878,19.6919998 21.4727273,16.8061816 18.3999386,16.8061816 Z M22.8977887,9.32109083 C22.8977887,7.42727268 21.3391278,5.80399997 19.4242015,5.80399997 L15.5943489,5.80399997 L15.5943489,12.8381817 L19.4242015,12.8381817 C21.3391278,12.8381817 22.8977887,11.2599999 22.8977887,9.32109083 Z M40.7555897,23.6599997 C34.6990787,23.6599997 29.6668305,18.6549089 29.6668305,12.5225453 C29.6668305,6.29999997 34.6990787,1.34000003 40.7555897,1.34000003 C46.856634,1.34000003 51.8888821,6.29999997 51.8888821,12.5225453 C51.8888821,18.6549089 46.856634,23.6599997 40.7555897,23.6599997 Z M40.7555897,19.4665452 C44.5409091,19.4665452 47.391032,16.3101816 47.391032,12.5225453 C47.391032,8.68981811 44.5409091,5.53345452 40.7555897,5.53345452 C37.0148035,5.53345452 34.1646806,8.68981811 34.1646806,12.5225453 C34.1646806,16.3101816 37.0148035,19.4665452 40.7555897,19.4665452 Z M54.8280713,23.028727 L58.8360566,23.028727 L58.8360566,7.92327267 L71.7061426,23.5698179 L71.7061426,1.83600003 L67.6981573,1.83600003 L67.6981573,12.6578181 L58.5688575,1.83600003 L54.8280713,1.83600003 L54.8280713,23.028727 Z M90.4100738,1.83600003 L86.1348895,1.83600003 L95.1305897,23.5698179 L104.12629,1.83600003 L99.8511057,1.83600003 L95.1305897,13.9654544 L90.4100738,1.83600003 Z M107.377211,23.028727 L111.652396,23.028727 L111.652396,1.83600003 L107.377211,1.83600003 L107.377211,23.028727 Z M115.259582,12.5225453 C115.259582,18.6999998 120.291831,23.6599997 126.348342,23.6599997 C127.59527,23.6599997 128.753133,23.4345452 129.866462,23.0738179 L129.866462,18.4294543 C129.064865,18.9705452 127.817936,19.4665452 126.348342,19.4665452 C122.607555,19.4665452 119.757432,16.3101816 119.757432,12.5225453 C119.757432,8.68981811 122.607555,5.53345452 126.348342,5.53345452 C127.817936,5.53345452 129.020332,6.02945451 129.866462,6.57054542 L129.866462,1.92618184 C128.753133,1.52036367 127.59527,1.34000003 126.348342,1.34000003 C120.291831,1.34000003 115.259582,6.29999997 115.259582,12.5225453 Z M134.141646,23.028727 L146.7,23.028727 L146.7,18.9705452 L138.416831,18.9705452 L138.416831,13.9203635 L146.076536,13.9203635 L146.076536,9.95236355 L138.416831,9.95236355 L138.416831,5.89418179 L146.521867,5.89418179 L146.521867,1.83600003 L134.141646,1.83600003 L134.141646,23.028727 Z" id="iron-vice"></path>
        </g>
    </g>
</svg>