<?xml version="1.0" encoding="UTF-8"?>
<svg width="190px" height="45px" viewBox="0 0 190 45" version="1.1" xmlns="http://www.w3.org/2000/svg" xmlns:xlink="http://www.w3.org/1999/xlink">
    <!-- Generator: Sketch 46.2 (44496) - http://www.bohemiancoding.com/sketch -->
    <title>regular_beerocracy</title>
    <desc>Created with Sketch.</desc>
    <defs></defs>
    <g id="Page-1" stroke="none" stroke-width="1" fill="none" fill-rule="evenodd">
        <g id="regular_beerocracy" fill="#4C4C4C">
            <path d="M15.46,21.78 C17.125,22.68 18.385,24.525 18.385,26.775 C18.385,30.195 15.46,33.03 12.085,33.03 L1.68999997,33.03 L1.68999997,11.88 L11.95,11.88 C15.055,11.88 17.665,14.31 17.665,17.55 C17.665,19.485 16.54,20.835 15.46,21.78 Z M6.00750003,15.84 L6.00750003,19.98 L10.9575,19.98 C12.1275,19.98 13.0725,19.035 13.0725,17.91 C13.0725,16.785 12.1275,15.84 10.9575,15.84 L6.00750003,15.84 Z M6.00750003,28.98 L11.1375,28.98 C12.5325,28.98 13.6575,27.855 13.6575,26.415 C13.6575,25.02 12.5325,23.85 11.1375,23.85 L6.00750003,23.85 L6.00750003,28.98 Z M21.21,33.03 L33.9,33.03 L33.9,28.98 L25.53,28.98 L25.53,23.94 L33.27,23.94 L33.27,19.98 L25.53,19.98 L25.53,15.93 L33.72,15.93 L33.72,11.88 L21.21,11.88 L21.21,33.03 Z M37.1275,33.03 L49.8175,33.03 L49.8175,28.98 L41.4475,28.98 L41.4475,23.94 L49.1875,23.94 L49.1875,19.98 L41.4475,19.98 L41.4475,15.93 L49.6375,15.93 L49.6375,11.88 L37.1275,11.88 L37.1275,33.03 Z M61.0751243,26.82 L58.290594,26.82 L58.290594,33.03 L54.0475,33.03 L54.0475,11.88 L63.1966713,11.88 C66.9977763,11.88 70.0475,15.075 70.0475,18.9 C70.0475,21.465 68.7215332,24.075 66.7767818,25.56 C69.0751243,26.73 70.0475,29.385 70.0475,31.815 L70.0475,33.03 L65.8044061,33.03 L65.8044061,32.04 C65.8044061,29.7 64.1248481,26.82 61.0751243,26.82 Z M64.9490126,18.8986098 C64.9490126,17.2732045 63.5364187,15.88 61.800946,15.88 L58.3300008,15.88 L58.3300008,21.9172195 L61.800946,21.9172195 C63.5364187,21.9172195 64.9490126,20.5627151 64.9490126,18.8986098 Z M83.2880965,33.5647701 C77.3302607,33.5647701 72.38,28.7021247 72.38,22.7442889 C72.38,16.6988378 77.3302607,11.88 83.2880965,11.88 C89.28974,11.88 94.2400006,16.6988378 94.2400006,22.7442889 C94.2400006,28.7021247 89.28974,33.5647701 83.2880965,33.5647701 Z M83.2891918,29.0110495 C86.8265654,29.0110495 89.4899997,26.1618164 89.4899997,22.7427367 C89.4899997,19.2829537 86.8265654,16.4337206 83.2891918,16.4337206 C79.7934343,16.4337206 77.13,19.2829537 77.13,22.7427367 C77.13,26.1618164 79.7934343,29.0110495 83.2891918,29.0110495 Z M96.329997,22.545 C96.329997,28.71 101.414997,33.66 107.534997,33.66 C108.794997,33.66 109.964997,33.435 111.089997,33.075 L111.089997,28.44 C110.279997,28.98 109.019997,29.475 107.534997,29.475 C103.754997,29.475 100.874997,26.325 100.874997,22.545 C100.874997,18.72 103.754997,15.57 107.534997,15.57 C109.019997,15.57 110.234997,16.065 111.089997,16.605 L111.089997,11.97 C109.964997,11.565 108.794997,11.385 107.534997,11.385 C101.414997,11.385 96.329997,16.335 96.329997,22.545 Z M121.1675,26.82 L118.3325,26.82 L118.3325,33.03 L114.0125,33.03 L114.0125,11.88 L123.3275,11.88 C127.1975,11.88 130.3025,15.075 130.3025,18.9 C130.3025,21.465 128.9525,24.075 126.9725,25.56 C129.3125,26.73 130.3025,29.385 130.3025,31.815 L130.3025,33.03 L125.9825,33.03 L125.9825,32.04 C125.9825,29.7 124.2725,26.82 121.1675,26.82 Z M125.7125,19.35 C125.7125,17.46 124.1375,15.84 122.2025,15.84 L118.3325,15.84 L118.3325,22.86 L122.2025,22.86 C124.1375,22.86 125.7125,21.285 125.7125,19.35 Z M146.0175,29.295 L139.0425,29.295 L137.4675,33.03 L132.9225,33.03 L142.5075,11.34 L152.0925,33.03 L147.5475,33.03 L146.0175,29.295 Z M144.6675,25.47 L142.5075,20.385 L140.3475,25.47 L144.6675,25.47 Z M152.650004,22.545 C152.650004,28.71 157.735004,33.66 163.855004,33.66 C165.115004,33.66 166.285004,33.435 167.410004,33.075 L167.410004,28.44 C166.600004,28.98 165.340004,29.475 163.855004,29.475 C160.075004,29.475 157.195004,26.325 157.195004,22.545 C157.195004,18.72 160.075004,15.57 163.855004,15.57 C165.340004,15.57 166.555004,16.065 167.410004,16.605 L167.410004,11.97 C166.285004,11.565 165.115004,11.385 163.855004,11.385 C157.735004,11.385 152.650004,16.335 152.650004,22.545 Z M174.945,11.88 L170.13,11.88 L177.06,24.12 L177.06,33.03 L181.38,33.03 L181.38,24.12 L188.31,11.88 L183.495,11.88 L179.22,20.295 L174.945,11.88 Z" id="beerocracy"></path>
        </g>
    </g>
</svg>