<?xml version="1.0" encoding="UTF-8"?>
<svg width="148px" height="45px" viewBox="0 0 148 45" version="1.1" xmlns="http://www.w3.org/2000/svg" xmlns:xlink="http://www.w3.org/1999/xlink">
    <!-- Generator: Sketch 46.2 (44496) - http://www.bohemiancoding.com/sketch -->
    <title>regular_ironvice</title>
    <desc>Created with Sketch.</desc>
    <defs></defs>
    <g id="Page-1" stroke="none" stroke-width="1" fill="none" fill-rule="evenodd">
        <g id="regular_ironvice" fill="#4C4C4C">
            <path d="M1.70000005,33.0287271 L5.97518432,33.0287271 L5.97518432,11.8360001 L1.70000005,11.8360001 L1.70000005,33.0287271 Z M18.3999386,26.8061818 L15.5943489,26.8061818 L15.5943489,33.0287271 L11.3191647,33.0287271 L11.3191647,11.8360001 L20.5375308,11.8360001 C24.3673833,11.8360001 27.440172,15.0374546 27.440172,18.8701819 C27.440172,21.4403637 26.104177,24.0556363 24.1447175,25.5436363 C26.4604423,26.7159999 27.440172,29.3763635 27.440172,31.8112726 L27.440172,33.0287271 L23.1649878,33.0287271 L23.1649878,32.0367271 C23.1649878,29.6919999 21.4727273,26.8061818 18.3999386,26.8061818 Z M22.8977887,19.321091 C22.8977887,17.4272728 21.3391278,15.8040001 19.4242015,15.8040001 L15.5943489,15.8040001 L15.5943489,22.8381818 L19.4242015,22.8381818 C21.3391278,22.8381818 22.8977887,21.26 22.8977887,19.321091 Z M40.7555897,33.6599998 C34.6990787,33.6599998 29.6668305,28.654909 29.6668305,22.5225455 C29.6668305,16.3000001 34.6990787,11.3400002 40.7555897,11.3400002 C46.856634,11.3400002 51.8888821,16.3000001 51.8888821,22.5225455 C51.8888821,28.654909 46.856634,33.6599998 40.7555897,33.6599998 Z M40.7555897,29.4665454 C44.5409091,29.4665454 47.391032,26.3101818 47.391032,22.5225455 C47.391032,18.6898182 44.5409091,15.5334546 40.7555897,15.5334546 C37.0148035,15.5334546 34.1646806,18.6898182 34.1646806,22.5225455 C34.1646806,26.3101818 37.0148035,29.4665454 40.7555897,29.4665454 Z M54.8280713,33.0287271 L58.8360566,33.0287271 L58.8360566,17.9232728 L71.7061426,33.569818 L71.7061426,11.8360001 L67.6981573,11.8360001 L67.6981573,22.6578182 L58.5688575,11.8360001 L54.8280713,11.8360001 L54.8280713,33.0287271 Z M90.4100738,11.8360001 L86.1348895,11.8360001 L95.1305897,33.569818 L104.12629,11.8360001 L99.8511057,11.8360001 L95.1305897,23.9654545 L90.4100738,11.8360001 Z M107.377211,33.0287271 L111.652396,33.0287271 L111.652396,11.8360001 L107.377211,11.8360001 L107.377211,33.0287271 Z M115.259582,22.5225455 C115.259582,28.6999999 120.291831,33.6599998 126.348342,33.6599998 C127.59527,33.6599998 128.753133,33.4345453 129.866462,33.073818 L129.866462,28.4294545 C129.064865,28.9705454 127.817936,29.4665454 126.348342,29.4665454 C122.607555,29.4665454 119.757432,26.3101818 119.757432,22.5225455 C119.757432,18.6898182 122.607555,15.5334546 126.348342,15.5334546 C127.817936,15.5334546 129.020332,16.0294546 129.866462,16.5705455 L129.866462,11.926182 C128.753133,11.5203638 127.59527,11.3400002 126.348342,11.3400002 C120.291831,11.3400002 115.259582,16.3000001 115.259582,22.5225455 Z M134.141646,33.0287271 L146.7,33.0287271 L146.7,28.9705454 L138.416831,28.9705454 L138.416831,23.9203636 L146.076536,23.9203636 L146.076536,19.9523637 L138.416831,19.9523637 L138.416831,15.8941819 L146.521867,15.8941819 L146.521867,11.8360001 L134.141646,11.8360001 L134.141646,33.0287271 Z" id="iron-vice"></path>
        </g>
    </g>
</svg>