<?xml version="1.0" encoding="UTF-8"?>
<svg width="169px" height="48px" viewBox="0 0 169 48" version="1.1" xmlns="http://www.w3.org/2000/svg" xmlns:xlink="http://www.w3.org/1999/xlink">
    <!-- Generator: Sketch 48.2 (47327) - http://www.bohemiancoding.com/sketch -->
    <title>regular_wireframe</title>
    <desc>Created with Sketch.</desc>
    <defs></defs>
    <g id="Page-1" stroke="none" stroke-width="1" fill="none" fill-rule="evenodd">
        <g id="regular_wireframe" fill="#4C4C4C">
            <path d="M18.0408695,26.8144857 L22.9762032,13.3587172 L27.4459395,13.3587172 L18.0408695,35.800518 L14.4092087,27.4197625 L10.9172273,35.800518 L1,13.3587172 L5.46973625,13.3587172 L11.1034663,26.8144857 L12.5933784,23.0431458 L8.68235918,13.3587172 L13.1055357,13.3587172 L18.0408695,26.8144857 Z M29.7684494,35.2418009 L29.7684494,13.3587172 L34.2381857,13.3587172 L34.2381857,35.2418009 L29.7684494,35.2418009 Z M46.1054449,28.8165551 L43.1721805,28.8165551 L43.1721805,35.2418009 L38.7024442,35.2418009 L38.7024442,13.3587172 L48.340313,13.3587172 C52.3444517,13.3587172 55.5570747,16.6644597 55.5570747,20.6220386 C55.5570747,23.2759445 54.1602821,25.9764102 52.111653,27.512882 C54.5327601,28.7234356 55.5570747,31.470461 55.5570747,33.9846876 L55.5570747,35.2418009 L51.0873384,35.2418009 L51.0873384,34.2174864 C51.0873384,31.7963793 49.3180678,28.8165551 46.1054449,28.8165551 Z M50.8079799,21.0876362 C50.8079799,19.1321265 49.1783886,17.4559755 47.1763192,17.4559755 L43.1721805,17.4559755 L43.1721805,24.7192969 L47.1763192,24.7192969 C49.1783886,24.7192969 50.8079799,23.0897055 50.8079799,21.0876362 Z M58.5779809,35.2418009 L58.5779809,13.3587172 L71.5215921,13.3587172 L71.5215921,17.549095 L63.0477172,17.549095 L63.0477172,21.7394727 L71.0559946,21.7394727 L71.0559946,25.8367309 L63.0477172,25.8367309 L63.0477172,31.0514232 L71.7078311,31.0514232 L71.7078311,35.2418009 L58.5779809,35.2418009 Z M74.9615361,35.2418009 L74.9615361,13.3587172 L87.9051474,13.3587172 L87.9051474,17.549095 L79.4312724,17.549095 L79.4312724,22.2050702 L87.4395498,22.2050702 L87.4395498,26.3023284 L79.4312724,26.3023284 L79.4312724,35.2418009 L74.9615361,35.2418009 Z M98.748092,28.8165551 L95.8148276,28.8165551 L95.8148276,35.2418009 L91.3450914,35.2418009 L91.3450914,13.3587172 L100.98296,13.3587172 C104.987099,13.3587172 108.199722,16.6644597 108.199722,20.6220386 C108.199722,23.2759445 106.802929,25.9764102 104.7543,27.512882 C107.175407,28.7234356 108.199722,31.470461 108.199722,33.9846876 L108.199722,35.2418009 L103.729986,35.2418009 L103.729986,34.2174864 C103.729986,31.7963793 101.960715,28.8165551 98.748092,28.8165551 Z M103.450627,21.0876362 C103.450627,19.1321265 101.821036,17.4559755 99.8189663,17.4559755 L95.8148276,17.4559755 L95.8148276,24.7192969 L99.8189663,24.7192969 C101.821036,24.7192969 103.450627,23.0897055 103.450627,21.0876362 Z M122.301849,31.3773415 L115.085087,31.3773415 L113.455496,35.2418009 L108.752961,35.2418009 L118.670188,12.8000002 L128.587416,35.2418009 L123.884881,35.2418009 L122.301849,31.3773415 Z M120.905057,27.4197625 L118.670188,22.1585105 L116.43532,27.4197625 L120.905057,27.4197625 Z M146.926481,24.7658566 L141.292751,35.800518 L135.65902,24.7658566 L133.656951,35.2418009 L129.466573,35.2418009 L133.84319,12.8000002 L141.292751,27.3732028 L148.742311,12.8000002 L153.118928,35.2418009 L148.92855,35.2418009 L146.926481,24.7658566 Z M156.000155,35.2418009 L156.000155,13.3587172 L168.943766,13.3587172 L168.943766,17.549095 L160.469891,17.549095 L160.469891,21.7394727 L168.478168,21.7394727 L168.478168,25.8367309 L160.469891,25.8367309 L160.469891,31.0514232 L169.130005,31.0514232 L169.130005,35.2418009 L156.000155,35.2418009 Z" id="wireframe"></path>
        </g>
    </g>
</svg>