<?xml version="1.0" encoding="UTF-8"?>
<svg width="100px" height="48px" viewBox="0 0 100 48" version="1.1" xmlns="http://www.w3.org/2000/svg" xmlns:xlink="http://www.w3.org/1999/xlink">
    <!-- Generator: Sketch 47.1 (45422) - http://www.bohemiancoding.com/sketch -->
    <title>regular_pylon</title>
    <desc>Created with Sketch.</desc>
    <defs></defs>
    <g id="Page-1" stroke="none" stroke-width="1" fill="none" fill-rule="evenodd" fill-opacity="0.949999988">
        <g id="regular_pylon" fill="#4C4C4C">
            <path d="M17.4301929,20.5598167 C17.4301929,24.6023639 14.2126976,28.0873184 10.202486,28.0873184 L5.02651525,28.0873184 L5.02651525,35.1501595 L0.55,35.1501595 L0.55,13.3111113 L10.202486,13.3111113 C14.2126976,13.3111113 17.4301929,16.6102016 17.4301929,20.5598167 Z M12.6735266,20.6989901 C12.6735266,18.8868689 11.1814003,17.4000002 9.36287129,17.4000002 L5.02637907,17.4000002 L5.02637907,23.99798 L9.36287129,23.99798 C11.1814003,23.99798 12.6735266,22.5111113 12.6735266,20.6989901 Z M23.3515559,13.3111113 L18.3622584,13.3111113 L25.5431165,25.9494951 L25.5431165,35.1494951 L30.0194955,35.1494951 L30.0194955,25.9494951 L37.2003536,13.3111113 L32.2110561,13.3111113 L27.781306,22.0000002 L23.3515559,13.3111113 Z M40.6508958,35.1494951 L54.080033,35.1494951 L54.080033,30.967677 L45.1272749,30.967677 L45.1272749,13.3111113 L40.6508958,13.3111113 L40.6508958,35.1494951 Z M67.0428807,35.8000002 C60.7013437,35.8000002 55.4322725,30.6424244 55.4322725,24.3232325 C55.4322725,17.9111113 60.7013437,12.8000002 67.0428807,12.8000002 C73.4310467,12.8000002 78.7001179,17.9111113 78.7001179,24.3232325 C78.7001179,30.6424244 73.4310467,35.8000002 67.0428807,35.8000002 Z M67.0428807,31.4787881 C71.0063413,31.4787881 73.9905941,28.2262628 73.9905941,24.3232325 C73.9905941,20.3737376 71.0063413,17.1212123 67.0428807,17.1212123 C63.126049,17.1212123 60.1417963,20.3737376 60.1417963,24.3232325 C60.1417963,28.2262628 63.126049,31.4787881 67.0428807,31.4787881 Z M81.7776285,35.1494951 L85.9742339,35.1494951 L85.9742339,19.5838386 L99.45,35.7070709 L99.45,13.3111113 L95.2533946,13.3111113 L95.2533946,24.4626265 L85.6944602,13.3111113 L81.7776285,13.3111113 L81.7776285,35.1494951 Z" id="pylon"></path>
        </g>
    </g>
</svg>