<?xml version="1.0" encoding="UTF-8"?>
<svg width="190px" height="25px" viewBox="0 0 190 25" version="1.1" xmlns="http://www.w3.org/2000/svg" xmlns:xlink="http://www.w3.org/1999/xlink">
    <!-- Generator: Sketch 46.2 (44496) - http://www.bohemiancoding.com/sketch -->
    <title>regular_beerocracy</title>
    <desc>Created with Sketch.</desc>
    <defs></defs>
    <g id="Page-1" stroke="none" stroke-width="1" fill="none" fill-rule="evenodd">
        <g id="regular_beerocracy" fill="#4C4C4C">
            <path d="M15.46,11.78 C17.125,12.68 18.385,14.525 18.385,16.775 C18.385,20.195 15.46,23.03 12.085,23.03 L1.68999997,23.03 L1.68999997,1.88 L11.95,1.88 C15.055,1.88 17.665,4.31 17.665,7.55 C17.665,9.485 16.54,10.835 15.46,11.78 Z M6.00750003,5.84 L6.00750003,9.98 L10.9575,9.98 C12.1275,9.98 13.0725,9.035 13.0725,7.91 C13.0725,6.785 12.1275,5.84 10.9575,5.84 L6.00750003,5.84 Z M6.00750003,18.98 L11.1375,18.98 C12.5325,18.98 13.6575,17.855 13.6575,16.415 C13.6575,15.02 12.5325,13.85 11.1375,13.85 L6.00750003,13.85 L6.00750003,18.98 Z M21.21,23.03 L33.9,23.03 L33.9,18.98 L25.53,18.98 L25.53,13.94 L33.27,13.94 L33.27,9.98 L25.53,9.98 L25.53,5.93 L33.72,5.93 L33.72,1.88 L21.21,1.88 L21.21,23.03 Z M37.1275,23.03 L49.8175,23.03 L49.8175,18.98 L41.4475,18.98 L41.4475,13.94 L49.1875,13.94 L49.1875,9.98 L41.4475,9.98 L41.4475,5.93 L49.6375,5.93 L49.6375,1.88 L37.1275,1.88 L37.1275,23.03 Z M61.0751243,16.82 L58.290594,16.82 L58.290594,23.03 L54.0475,23.03 L54.0475,1.88 L63.1966713,1.88 C66.9977763,1.88 70.0475,5.075 70.0475,8.9 C70.0475,11.465 68.7215332,14.075 66.7767818,15.56 C69.0751243,16.73 70.0475,19.385 70.0475,21.815 L70.0475,23.03 L65.8044061,23.03 L65.8044061,22.04 C65.8044061,19.7 64.1248481,16.82 61.0751243,16.82 Z M64.9490126,8.89860976 C64.9490126,7.2732045 63.5364187,5.88 61.800946,5.88 L58.3300008,5.88 L58.3300008,11.9172195 L61.800946,11.9172195 C63.5364187,11.9172195 64.9490126,10.5627151 64.9490126,8.89860976 Z M83.2880965,23.5647701 C77.3302607,23.5647701 72.38,18.7021247 72.38,12.7442889 C72.38,6.69883781 77.3302607,1.88 83.2880965,1.88 C89.28974,1.88 94.2400006,6.69883781 94.2400006,12.7442889 C94.2400006,18.7021247 89.28974,23.5647701 83.2880965,23.5647701 Z M83.2891918,19.0110495 C86.8265654,19.0110495 89.4899997,16.1618164 89.4899997,12.7427367 C89.4899997,9.28295372 86.8265654,6.43372065 83.2891918,6.43372065 C79.7934343,6.43372065 77.13,9.28295372 77.13,12.7427367 C77.13,16.1618164 79.7934343,19.0110495 83.2891918,19.0110495 Z M96.329997,12.545 C96.329997,18.71 101.414997,23.66 107.534997,23.66 C108.794997,23.66 109.964997,23.435 111.089997,23.075 L111.089997,18.44 C110.279997,18.98 109.019997,19.475 107.534997,19.475 C103.754997,19.475 100.874997,16.325 100.874997,12.545 C100.874997,8.72 103.754997,5.57 107.534997,5.57 C109.019997,5.57 110.234997,6.065 111.089997,6.605 L111.089997,1.97 C109.964997,1.565 108.794997,1.385 107.534997,1.385 C101.414997,1.385 96.329997,6.335 96.329997,12.545 Z M121.1675,16.82 L118.3325,16.82 L118.3325,23.03 L114.0125,23.03 L114.0125,1.88 L123.3275,1.88 C127.1975,1.88 130.3025,5.075 130.3025,8.9 C130.3025,11.465 128.9525,14.075 126.9725,15.56 C129.3125,16.73 130.3025,19.385 130.3025,21.815 L130.3025,23.03 L125.9825,23.03 L125.9825,22.04 C125.9825,19.7 124.2725,16.82 121.1675,16.82 Z M125.7125,9.35 C125.7125,7.46 124.1375,5.84 122.2025,5.84 L118.3325,5.84 L118.3325,12.86 L122.2025,12.86 C124.1375,12.86 125.7125,11.285 125.7125,9.35 Z M146.0175,19.295 L139.0425,19.295 L137.4675,23.03 L132.9225,23.03 L142.5075,1.34 L152.0925,23.03 L147.5475,23.03 L146.0175,19.295 Z M144.6675,15.47 L142.5075,10.385 L140.3475,15.47 L144.6675,15.47 Z M152.650004,12.545 C152.650004,18.71 157.735004,23.66 163.855004,23.66 C165.115004,23.66 166.285004,23.435 167.410004,23.075 L167.410004,18.44 C166.600004,18.98 165.340004,19.475 163.855004,19.475 C160.075004,19.475 157.195004,16.325 157.195004,12.545 C157.195004,8.72 160.075004,5.57 163.855004,5.57 C165.340004,5.57 166.555004,6.065 167.410004,6.605 L167.410004,1.97 C166.285004,1.565 165.115004,1.385 163.855004,1.385 C157.735004,1.385 152.650004,6.335 152.650004,12.545 Z M174.945,1.88 L170.13,1.88 L177.06,14.12 L177.06,23.03 L181.38,23.03 L181.38,14.12 L188.31,1.88 L183.495,1.88 L179.22,10.295 L174.945,1.88 Z" id="beerocracy"></path>
        </g>
    </g>
</svg>