<?xml version="1.0" encoding="UTF-8"?>
<svg width="222px" height="25px" viewBox="0 0 222 25" version="1.1" xmlns="http://www.w3.org/2000/svg" xmlns:xlink="http://www.w3.org/1999/xlink">
    <!-- Generator: Sketch 46.2 (44496) - http://www.bohemiancoding.com/sketch -->
    <title>regular_seagle</title>
    <desc>Created with Sketch.</desc>
    <defs></defs>
    <g id="Page-1" stroke="none" stroke-width="1" fill="none" fill-rule="evenodd">
        <g id="regular_seagle" fill="#4C4C4C">
            <path d="M8.27454534,10.16 C6.98397119,10.16 5.93239226,9.17000005 5.93239226,7.95500006 C5.93239226,6.74000008 6.98397119,5.75000009 8.27454534,5.75000009 L14.9186122,5.75000009 L14.9186122,1.88000015 L7.98775108,1.88000015 C4.4028229,1.88000015 1.48708131,4.58000011 1.48708131,8.00000006 C1.48708131,11.375 4.4028229,14.12 7.98775108,14.12 L10.6166984,14.12 C12.0984687,14.12 13.2934448,15.245 13.2934448,16.6399999 C13.2934448,18.0349999 12.0984687,19.1599999 10.6166984,19.1599999 L2.72985642,19.1599999 L2.72985642,23.0299999 L10.9512917,23.0299999 C14.4884208,23.0299999 17.7865548,19.9699999 17.7865548,16.5949999 C17.7865548,12.995 14.7752151,10.16 10.9512917,10.16 L8.27454534,10.16 Z M21.8972724,23.0299999 L35.3766024,23.0299999 L35.3766024,18.9799999 L26.4859805,18.9799999 L26.4859805,13.94 L34.7074158,13.94 L34.7074158,9.98000003 L26.4859805,9.98000003 L26.4859805,5.93000009 L35.1854062,5.93000009 L35.1854062,1.88000015 L21.8972724,1.88000015 L21.8972724,23.0299999 Z M51.2458845,19.2949999 L43.8370329,19.2949999 L42.1640664,23.0299999 L37.3363631,23.0299999 L47.5175592,1.34000015 L57.6987552,23.0299999 L52.8710519,23.0299999 L51.2458845,19.2949999 Z M49.8119132,15.47 L47.5175592,10.385 L45.2232051,15.47 L49.8119132,15.47 Z M79.7341137,5.75000009 C77.726554,3.18500013 74.6196162,1.38500015 70.2221043,1.38500015 C63.7214345,1.38500015 58.3201427,6.33500008 58.3201427,12.545 C58.3201427,18.6649999 63.7214345,23.6599998 70.2221043,23.6599998 C76.7705731,23.6599998 82.1718649,18.6649999 82.1718649,12.545 C82.1718649,11.96 82.1240659,11.42 82.0284678,10.88 L69.93531,10.88 L69.93531,14.84 L76.9617693,14.84 C76.0057884,17.4499999 73.5680373,19.4749999 70.2221043,19.4749999 C66.2069847,19.4749999 63.147846,16.3249999 63.147846,12.545 C63.147846,8.72000005 66.2069847,5.57000009 70.2221043,5.57000009 C72.6120564,5.57000009 74.7152143,6.65000008 75.9579894,8.36000006 L79.7341137,5.75000009 Z M85.7567931,23.0299999 L99.5229173,23.0299999 L99.5229173,18.9799999 L90.3455012,18.9799999 L90.3455012,1.88000015 L85.7567931,1.88000015 L85.7567931,23.0299999 Z M103.729233,23.0299999 L117.208563,23.0299999 L117.208563,18.9799999 L108.317941,18.9799999 L108.317941,13.94 L116.539376,13.94 L116.539376,9.98000003 L108.317941,9.98000003 L108.317941,5.93000009 L117.017367,5.93000009 L117.017367,1.88000015 L103.729233,1.88000015 L103.729233,23.0299999 Z M151.002486,8.90000005 C151.002486,12.815 147.704352,16.1899999 143.593634,16.1899999 L138.287941,16.1899999 L138.287941,23.0299999 L133.699233,23.0299999 L133.699233,1.88000015 L143.593634,1.88000015 C147.704352,1.88000015 151.002486,5.0750001 151.002486,8.90000005 Z M146.126984,9.03500005 C146.126984,7.28000007 144.597414,5.84000009 142.733252,5.84000009 L138.287941,5.84000009 L138.287941,12.23 L142.733252,12.23 C144.597414,12.23 146.126984,10.79 146.126984,9.03500005 Z M162.139663,16.8199999 L159.128323,16.8199999 L159.128323,23.0299999 L154.539615,23.0299999 L154.539615,1.88000015 L164.434017,1.88000015 C168.544735,1.88000015 171.842868,5.0750001 171.842868,8.90000005 C171.842868,11.465 170.408897,14.075 168.305739,15.56 C170.79129,16.7299999 171.842868,19.3849999 171.842868,21.8149999 L171.842868,23.0299999 L167.25416,23.0299999 L167.25416,22.0399999 C167.25416,19.6999999 165.437797,16.8199999 162.139663,16.8199999 Z M166.967366,9.35000004 C166.967366,7.46000007 165.2944,5.84000009 163.239041,5.84000009 L159.128323,5.84000009 L159.128323,12.86 L163.239041,12.86 C165.2944,12.86 166.967366,11.285 166.967366,9.35000004 Z M186.134782,23.6599998 C179.634112,23.6599998 174.232821,18.6649999 174.232821,12.545 C174.232821,6.33500008 179.634112,1.38500015 186.134782,1.38500015 C192.683251,1.38500015 198.084543,6.33500008 198.084543,12.545 C198.084543,18.6649999 192.683251,23.6599998 186.134782,23.6599998 Z M186.134782,19.4749999 C190.197701,19.4749999 193.256839,16.3249999 193.256839,12.545 C193.256839,8.72000005 190.197701,5.57000009 186.134782,5.57000009 C182.119663,5.57000009 179.060524,8.72000005 179.060524,12.545 C179.060524,16.3249999 182.119663,19.4749999 186.134782,19.4749999 Z M202.864447,1.88000015 L207.931145,13.985 L212.997844,1.88000015 L217.586552,1.88000015 L207.931145,23.5699998 L198.275739,1.88000015 L202.864447,1.88000015 Z M214.814208,20.5999999 C214.814208,18.9799999 216.20038,17.5849999 217.968944,17.5849999 C219.68971,17.5849999 221.123681,18.9799999 221.123681,20.5999999 C221.123681,22.2649999 219.68971,23.6149998 217.968944,23.6149998 C216.20038,23.6149998 214.814208,22.2649999 214.814208,20.5999999 Z" id="seagle-prov."></path>
        </g>
    </g>
</svg>