<?xml version="1.0" encoding="UTF-8"?>
<svg width="600px" height="405px" viewBox="0 0 600 405" version="1.1" xmlns="http://www.w3.org/2000/svg" xmlns:xlink="http://www.w3.org/1999/xlink">
    <!-- Generator: Sketch 46.1 (44463) - http://www.bohemiancoding.com/sketch -->
    <title>Seagle_noeye_logo</title>
    <desc>Created with Sketch.</desc>
    <defs>
        <path d="M199.276645,83.5956236 C199.276645,73.0792225 194.17215,59.7615847 194.17215,59.7615847 L189.195649,51.0952666 C189.195649,51.0952666 182.919152,43.1315913 180.354139,40.2511946 C177.789126,37.3707979 176.441357,36.5266478 174.87994,35.0193557 C171.361126,31.6225181 168.90614,29.5797269 168.90614,29.5797269 C168.90614,29.5797269 168.119193,28.2382963 165.625991,27.2240113 C163.13279,26.2097263 158.532244,20.6724879 158.532244,20.6724879 C158.532244,20.6724879 155.978521,17.4711086 151.380027,14.2296816 C146.781533,10.9882546 147.541313,10.378903 138.038258,6.28657531 C128.535203,2.19424764 109.454567,0.8764039 109.454567,0.8764039 C109.454567,0.8764039 95.8583798,-0.329725197 87.1780163,1.51138692 C78.4976529,3.35249904 70.1734666,7.15949562 70.1734666,7.15949562 C70.1734666,7.15949562 66.6973729,7.61071248 47.4796442,21.3150342 C42.6623842,25.3912807 34.9339497,32.3894544 34.9339497,32.3894544 L25.7319658,43.1044734 L21.9790346,47.9856615 C21.9790346,47.9856615 20.9426118,49.6066714 20.2829132,51.5621529 C19.6232145,53.5176344 19.4312674,54.9348232 19.4312674,54.9348232 L21.8060195,52.5150695 C21.8060195,52.5150695 20.6660144,54.6436107 19.680106,59.5540662 C18.6941977,64.4645217 25.0034885,52.2260517 25.0034885,52.2260517 L25.2775723,54.5490445 L24.9595954,55.769092 L23.8779575,57.6641651 L23.4406151,58.6017777 L25.7742995,57.0330034 C25.7742995,57.0330034 22.5704982,61.9331466 21.839333,64.9354952 C21.1081677,67.9378438 21.1152893,67.9839319 21.1152893,67.9839319 L20.2829131,71.8809847 L19.7279065,75.2767986 L23.0609006,71.4650835 L23.0609006,72.9589079 L25.0691815,70.7512149 L22.7146453,75.4293919 L21.1152893,79.4139593 L19.2321279,86.2028839 C19.2321279,86.2028839 18.2375401,88.5098827 16.2705531,93.4188784 C14.3035661,98.327874 15.15137,107.769178 15.15137,107.769178 L15.8108296,111.877079 C15.8108296,111.877079 15.8637727,110.789915 17.093277,98.4963993 C17.4507429,94.9221846 17.7427401,94.8969122 20.2829133,89.6705827 C22.8230865,84.4442532 26.3679893,79.4139593 26.3679893,79.4139593 L22.7580944,88.8607559 L21.2183002,93.7097865 L21.1553938,95.0091007 C21.1553938,95.0091007 20.9313339,96.4206911 20.9313338,99.1669767 C20.9313337,101.913262 20.3968039,109.916456 20.3968039,109.916456 L20.2656731,115.580755 C20.2656731,115.580755 20.2656729,121.103314 20.2656729,126.25007 C20.2656729,131.396826 19.7279065,131.954205 17.8666117,136.717561 C16.0053169,141.480917 12.6152667,142.979161 12.6152667,142.979161 L8.39391765,147.40802 L1.61129702,161.081866 L0.390651773,167.144799 L13.7837798,159.106152 L6.52062394e-17,179.320452 L13.0534308,172.188189 L4.60742627,193.811289 L6.32113119,200.638585 L17.180328,182.16246 L15.80272,205.377066 L24.0442897,197.14273 L28.307823,215.581043 L39.9323575,185.812999 L34.617199,223.047333 L34.1398812,245.232225 L49.540978,222.691817 L50.8138255,246.470277 L77.4649633,230.600701 C77.4649633,230.600701 82.9760257,247.701189 85.0770202,245.35728 C87.1780148,243.013372 94.5965606,226.807938 94.5965606,226.807938 L90.0289672,209.82716 L94.5965582,200.638588 L101.572197,197.142732 L101.572194,209.827153 L109.443468,217.689587 L115.645024,261.920023 L125.023336,219.595794 L135.198965,264.996394 L142.035157,248.351473 L145.826888,234.900831 L154.195141,247.013376 L156.122289,221.771764 L168.325178,235.358179 L168.802496,220.501555 L181.443373,220.958902 L168.267971,197.541317 C168.267971,197.541317 178.3131,201.305488 181.357563,205.566324 C184.402025,209.82716 181.357568,195.247238 178.213903,178.922951 C175.070238,162.598664 161.259275,126.501997 161.259275,126.501997 L159.05216,122.046949 C159.05216,122.046949 163.15973,123.830707 164.864975,126.5368 C166.570219,129.242892 160.022697,118.094894 158.07249,115.587394 C156.122284,113.079893 150.482844,106.944022 146.855815,100.976562 C143.228786,95.0091024 141.203357,95.0091024 142.375606,93.2831665 C144.606535,89.9985062 148.51302,88.9493465 148.51302,88.9493465 C148.51302,88.9493465 151.558449,88.148111 152.316605,88.1481105 C153.074761,88.1481099 161.759624,91.4452121 166.102802,93.2271572 C170.44598,95.0091024 177.173232,97.3028759 177.173232,97.3028759 L180.902955,98.8921938 L183.279779,100.202969 L184.261207,101.419564 L185.754096,101.352864 L186.518539,103.237962 L186.821767,104.457055 L187.32498,105.665656 L187.297982,112.1953 L187.211738,115.055922 L186.881012,117.289011 L186.475543,120.869098 L188.689628,118.964765 C188.689628,118.964765 197.721311,107.090104 199.276645,83.5956236 Z" id="path-1"></path>
        <filter x="-18.6%" y="-11.7%" width="134.1%" height="125.7%" filterUnits="objectBoundingBox" id="filter-2">
            <feMorphology radius="2.5" operator="dilate" in="SourceAlpha" result="shadowSpreadOuter1"></feMorphology>
            <feOffset dx="-3" dy="3" in="shadowSpreadOuter1" result="shadowOffsetOuter1"></feOffset>
            <feGaussianBlur stdDeviation="10" in="shadowOffsetOuter1" result="shadowBlurOuter1"></feGaussianBlur>
            <feComposite in="shadowBlurOuter1" in2="SourceAlpha" operator="out" result="shadowBlurOuter1"></feComposite>
            <feColorMatrix values="0 0 0 0 0.705882353   0 0 0 0 0.705882353   0 0 0 0 0.705882353  0 0 0 0.6 0" type="matrix" in="shadowBlurOuter1"></feColorMatrix>
        </filter>
        <path d="M6.36970692,53.9469231 C7.66740573,54.1014821 8.84856694,53.2063328 9.00790432,51.9475513 C9.1672417,50.6887698 8.24441742,49.543031 6.94671861,49.3884721 C5.6490198,49.2339131 4.46785859,50.1290624 4.30852121,51.3878439 C4.14918383,52.6466254 5.07200811,53.7923642 6.36970692,53.9469231 L6.36970692,53.9469231 Z M9.18084346,60.8359495 C10.4785423,60.9905084 11.6597035,60.0953592 11.8190409,58.8365777 C11.9783782,57.5777962 11.055554,56.4320574 9.75785515,56.2774984 C8.46015634,56.1229395 7.27899513,57.0180887 7.11965775,58.2768702 C6.96032037,59.5356517 7.88314465,60.6813905 9.18084346,60.8359495 L9.18084346,60.8359495 Z M10.0252764,54.0339459 C12.3555455,54.4394038 13.9950615,56.3951394 13.7265872,58.5161141 C13.4477468,60.7189817 11.2163238,62.2659136 8.74256447,61.9712831 C6.26880513,61.6766526 4.48947178,59.6520304 4.76831219,57.4491628 C4.88974427,56.489837 5.38148579,55.6549103 6.1022857,55.0423046 C3.7720166,54.6368468 2.13250052,52.6811111 2.40097487,50.5601364 C2.63397124,48.7194414 4.23028288,47.3367281 6.19212019,47.1037133 C2.73866521,42.8093412 0.46440542,36.7368521 0.0566180653,29.5754128 C-0.873476919,13.2413633 9.76638212,3.26329842e-14 23.8214084,0 C37.8764346,-3.26329842e-14 48.5162937,10.6691118 47.5861987,23.8301283 C46.6561037,36.9911447 36.0162447,50.232508 23.8214084,53.405541 C19.3163303,54.577739 15.0234675,53.8608319 11.3539619,51.6670921 C11.224078,52.6096237 10.7360389,53.429871 10.0252764,54.0339459 Z M25.4569714,4.32350208 C13.5949616,4.32350208 4.61524785,15.3762524 5.40021941,29.0105108 C6.18519096,42.6447693 15.1649047,51.5504255 25.4569714,48.9018506 C35.7490381,46.2532758 44.7287518,35.2005255 45.5137234,24.2148419 C46.298695,13.2291582 37.3189812,4.32350208 25.4569714,4.32350208 Z M6.37522714,70.0084805 C3.90146781,69.71385 2.12213445,67.6892278 2.40097487,65.4863602 C2.67981528,63.2834926 4.91123827,61.7365607 7.3849976,62.0311912 C9.85875694,62.3258216 11.6380903,64.3504439 11.3592499,66.5533115 C11.0804095,68.7561791 8.84898648,70.303111 6.37522714,70.0084805 Z M6.81350613,68.8731469 C8.11120495,69.0277058 9.29236615,68.1325566 9.45170353,66.8737751 C9.61104091,65.6149936 8.68821664,64.4692548 7.39051783,64.3146958 C6.09281901,64.1601369 4.91165781,65.0552862 4.75232043,66.3140677 C4.59298305,67.5728492 5.51580732,68.718588 6.81350613,68.8731469 Z M7.9971748,99.8737655 C9.29487361,100.028324 10.4760348,99.1331751 10.6353722,97.8743936 C10.7947096,96.6156121 9.8718853,95.4698733 8.57418649,95.3153144 C7.27648768,95.1607555 6.09532647,96.0559047 5.93598909,97.3146862 C5.77665171,98.5734677 6.69947599,99.7192065 7.9971748,99.8737655 L7.9971748,99.8737655 Z M8.84160771,93.0717619 C11.1718768,93.4772197 12.8113929,95.4329554 12.5429185,97.55393 C12.2640781,99.7567977 10.0326551,101.30373 7.55889581,101.009099 C5.08513647,100.714469 3.30580312,98.6898464 3.58464353,96.4869787 C3.7060756,95.527653 4.19781713,94.6927262 4.91861704,94.0801205 C2.58834793,93.6746627 0.948831858,91.718927 1.2173062,89.5979524 C1.49614662,87.3950848 3.7275696,85.8481529 6.20132894,86.1427834 C8.67508827,86.4374138 10.4544216,88.4620361 10.1755812,90.6649037 C10.0541491,91.6242294 9.56240762,92.4591562 8.84160771,93.0717619 Z M5.62983747,92.9847391 C6.92753628,93.139298 8.10869749,92.2441488 8.26803487,90.9853673 C8.42737225,89.7265858 7.50454797,88.580847 6.20684916,88.426288 C4.90915035,88.2717291 3.72798914,89.1668784 3.56865176,90.4256599 C3.40931438,91.6844414 4.33213866,92.8301802 5.62983747,92.9847391 Z M8.74256447,78.0456779 C11.2163238,78.3403084 13.4477468,76.7933765 13.7265872,74.5905089 C14.0054276,72.3876413 12.2260943,70.363019 9.75233493,70.0683886 C7.27857559,69.7737581 5.04715261,71.32069 4.76831219,73.5235576 C4.48947178,75.7264252 6.26880513,77.7510474 8.74256447,78.0456779 L8.74256447,78.0456779 Z M9.18084346,76.9103443 C7.88314465,76.7557854 6.96032037,75.6100466 7.11965775,74.3512651 C7.27899513,73.0924836 8.46015634,72.1973343 9.75785515,72.3518932 C11.055554,72.5064522 11.9783782,73.652191 11.8190409,74.9109725 C11.6597035,76.169754 10.4785423,77.0649032 9.18084346,76.9103443 Z M6.37522714,86.0828753 C3.90146781,85.7882449 2.12213445,83.7636226 2.40097487,81.560755 C2.67981528,79.3578874 4.91123827,77.8109555 7.3849976,78.105586 C9.85875694,78.4002164 11.6380903,80.4248387 11.3592499,82.6277063 C11.0804095,84.8305739 8.84898648,86.3775058 6.37522714,86.0828753 Z M6.81350613,84.9475417 C8.11120495,85.1021006 9.29236615,84.2069514 9.45170353,82.9481699 C9.61104091,81.6893884 8.68821664,80.5436496 7.39051783,80.3890906 C6.09281901,80.2345317 4.91165781,81.129681 4.75232043,82.3884625 C4.59298305,83.647244 5.51580732,84.7929828 6.81350613,84.9475417 Z M5.19155848,109.046296 C2.71779914,108.751666 0.938465791,106.727044 1.2173062,104.524176 C1.49614662,102.321309 3.7275696,100.774377 6.20132894,101.069007 C8.67508827,101.363638 10.4544216,103.38826 10.1755812,105.591127 C9.8967408,107.793995 7.66531782,109.340927 5.19155848,109.046296 Z M5.62983747,107.910963 C6.92753628,108.065522 8.10869749,107.170373 8.26803487,105.911591 C8.42737225,104.65281 7.50454797,103.507071 6.20684916,103.352512 C4.90915035,103.197953 3.72798914,104.093102 3.56865176,105.351884 C3.40931438,106.610665 4.33213866,107.756404 5.62983747,107.910963 L5.62983747,107.910963 Z M7.55889581,117.083494 C10.0326551,117.378124 12.2640781,115.831192 12.5429185,113.628325 C12.821759,111.425457 11.0424256,109.400835 8.56866627,109.106205 C6.09490693,108.811574 3.86348394,110.358506 3.58464353,112.561374 C3.30580312,114.764241 5.08513647,116.788863 7.55889581,117.083494 L7.55889581,117.083494 Z M7.9971748,115.94816 C6.69947599,115.793601 5.77665171,114.647863 5.93598909,113.389081 C6.09532647,112.1303 7.27648768,111.23515 8.57418649,111.389709 C9.8718853,111.544268 10.7947096,112.690007 10.6353722,113.948788 C10.4760348,115.20757 9.29487361,116.102719 7.9971748,115.94816 Z M5.19155848,125.120691 C2.71779914,124.826061 0.938465791,122.801439 1.2173062,120.598571 C1.49614662,118.395703 3.7275696,116.848771 6.20132894,117.143402 C8.67508827,117.438032 10.4544216,119.462655 10.1755812,121.665522 C9.8967408,123.86839 7.66531782,125.415322 5.19155848,125.120691 Z M5.62983747,123.985358 C6.92753628,124.139917 8.10869749,123.244767 8.26803487,121.985986 C8.42737225,120.727204 7.50454797,119.581466 6.20684916,119.426907 C4.90915035,119.272348 3.72798914,120.167497 3.56865176,121.426278 C3.40931438,122.68506 4.33213866,123.830799 5.62983747,123.985358 Z" id="path-3"></path>
        <filter x="-14.7%" y="-4.0%" width="129.4%" height="111.2%" filterUnits="objectBoundingBox" id="filter-4">
            <feOffset dx="0" dy="2" in="SourceAlpha" result="shadowOffsetOuter1"></feOffset>
            <feGaussianBlur stdDeviation="2" in="shadowOffsetOuter1" result="shadowBlurOuter1"></feGaussianBlur>
            <feColorMatrix values="0 0 0 0 0.203921569   0 0 0 0 0.152941176   0 0 0 0 0.152941176  0 0 0 0.6 0" type="matrix" in="shadowBlurOuter1"></feColorMatrix>
        </filter>
    </defs>
    <g id="Page-1" stroke="none" stroke-width="1" fill="none" fill-rule="evenodd">
        <g id="Seagle_noeye_logo">
            <rect id="Rectangle" fill="#000000" x="0" y="0" width="600" height="405"></rect>
            <g id="Head-Container" transform="translate(200.000000, 70.000000)">
                <g id="path-1">
                    <use fill="black" fill-opacity="1" filter="url(#filter-2)" xlink:href="#path-1"></use>
                    <use stroke="#A68500" stroke-width="5" fill="#242424" fill-rule="evenodd" xlink:href="#path-1"></use>
                </g>
                <g id="Outline-Monocle" transform="translate(125.149994, 2.615646)">
                    <g id="Monocle-Parts" fill-rule="nonzero">
                        <use fill="black" fill-opacity="1" filter="url(#filter-4)" xlink:href="#path-3"></use>
                        <use fill="#FAD541" fill-rule="evenodd" xlink:href="#path-3"></use>
                    </g>
                    <ellipse id="Oval" fill="#242424" transform="translate(32.699495, 57.098246) rotate(-54.000000) translate(-32.699495, -57.098246) " cx="32.6994949" cy="57.0982464" rx="17" ry="6.5"></ellipse>
                    <g id="Lens-Parts" transform="translate(1.000000, 4.000000)" fill-rule="nonzero">
                        <path d="M44.0460141,17.9610497 C44.1484471,22.356732 42.3672274,27.1483921 40.0398173,31.7136187 C35.6652517,40.294351 25.8760573,45.4043169 19.9468187,45.3043103 C14.0175801,45.2043037 14.4372536,43.9060958 12.1749017,42.3482322 C3.04507611,36.0614015 1.67098126,20.0895422 8.22166957,10.5267213 C9.4403819,8.7476216 9.6464809,8.2544725 11.506152,6.0803838 C13.3658231,3.90629514 15.064919,3.52087391 16.550986,2.65116225 C22.6266157,-0.90456302 29.8797228,0.11013734 35.3698761,3.01528586 C40.4051221,5.67971732 43.89249,11.3729026 44.0460141,17.9610497" id="Oval-41-Copy-2" fill-opacity="0.600000024" fill="#E1FDFF"></path>
                        <path d="M33.7612021,37.3447798 C36.244538,35.3564523 37.6126622,34.1240966 40.6309643,28.7360265 C43.8227118,18.8733601 40.6309643,12.1175213 40.6309643,12.1175213 C40.6309643,12.1175213 36.6251436,24.5010942 34.5021467,28.7360265 C32.3791498,32.9709589 16.6753804,41.4437938 16.6753804,41.4437938 C16.6753804,41.4437938 20.1587482,44.4540067 24.6827155,42.8310048 C27.3223785,41.9297244 30.3906157,40.0435003 33.7612021,37.3447798 Z" id="Path-158-Copy-2" fill="#F4F2F2" opacity="0.695652174"></path>
                        <path d="M7.89773786,19.0791494 C11.0087335,11.6541132 9.79385201,1.41304072 9.42855931,2.76823043 C9.42855931,2.76823043 8.80040201,13.4518159 7.27831939,17.5483072 C5.75623678,21.6447985 2.46867995,25.1272376 1.11298964,26.1932558 C-0.242700661,27.259274 4.78674225,26.5041856 7.89773786,19.0791494 Z" id="Path-158-Copy-3" fill="#FFF9E3" transform="translate(5.427745, 14.613706) rotate(-177.000000) translate(-5.427745, -14.613706) "></path>
                        <path d="M23.1670738,32.8518551 C22.7442506,32.6979911 19.3504543,36.6467826 15.1453856,37.2382919 C29.1957041,23.9247313 36.197289,13.9173676 36.197289,13.9173676 C36.197289,13.9173676 39.3083476,7.3835038 35.7985635,16.0036988 C32.2887794,24.6238937 23.5898969,33.0057192 23.1670738,32.8518551 Z" id="Path-159-Copy-2" fill-opacity="0.203747736" fill="#FFFFFF"></path>
                    </g>
                </g>
            </g>
        </g>
    </g>
</svg>