<?xml version="1.0" encoding="UTF-8"?>
<svg width="600px" height="405px" viewBox="0 0 600 405" version="1.1" xmlns="http://www.w3.org/2000/svg" xmlns:xlink="http://www.w3.org/1999/xlink" style="background: #282828;">
    <!-- Generator: Sketch 46.1 (44463) - http://www.bohemiancoding.com/sketch -->
    <title>Seagle_logo</title>
    <desc>Created with Sketch.</desc>
    <defs>
        <path d="M199.276645,83.8077446 C199.276645,73.2913435 194.17215,59.9737057 194.17215,59.9737057 L189.195649,51.3073876 C189.195649,51.3073876 182.919152,43.3437123 180.354139,40.4633156 C177.789126,37.5829189 176.441357,36.7387688 174.87994,35.2314767 C171.361126,31.8346391 168.90614,29.7918479 168.90614,29.7918479 C168.90614,29.7918479 168.119193,28.4504173 165.625991,27.4361323 C163.13279,26.4218473 158.532244,20.8846089 158.532244,20.8846089 C158.532244,20.8846089 155.978521,17.6832296 151.380027,14.4418026 C146.781533,11.2003756 147.541313,10.591024 138.038258,6.49869631 C128.535203,2.40636864 109.454567,1.0885249 109.454567,1.0885249 C109.454567,1.0885249 95.8583798,-0.117604197 87.1780163,1.72350792 C78.4976529,3.56462004 70.1734666,7.37161662 70.1734666,7.37161662 C70.1734666,7.37161662 66.6973729,7.82283348 47.4796442,21.5271552 C42.6623842,25.6034017 34.9339497,32.6015754 34.9339497,32.6015754 L25.7319658,43.3165944 L21.9790346,48.1977825 C21.9790346,48.1977825 20.9426118,49.8187924 20.2829132,51.7742739 C19.6232145,53.7297554 19.4312674,55.1469442 19.4312674,55.1469442 L21.8060195,52.7271905 C21.8060195,52.7271905 20.6660144,54.8557317 19.680106,59.7661872 C18.6941977,64.6766427 25.0034885,52.4381727 25.0034885,52.4381727 L25.2775723,54.7611655 L24.9595954,55.981213 L23.8779575,57.8762861 L23.4406151,58.8138987 L25.7742995,57.2451244 C25.7742995,57.2451244 22.5704982,62.1452676 21.839333,65.1476162 C21.1081677,68.1499648 21.1152893,68.1960529 21.1152893,68.1960529 L20.2829131,72.0931057 L19.7279065,75.4889196 L23.0609006,71.6772045 L23.0609006,73.1710289 L25.0691815,70.9633359 L22.7146453,75.6415129 L21.1152893,79.6260803 L19.2321279,86.4150049 C19.2321279,86.4150049 18.2375401,88.7220037 16.2705531,93.6309994 C14.3035661,98.539995 15.15137,107.981299 15.15137,107.981299 L15.8108296,112.0892 C15.8108296,112.0892 15.8637727,111.002036 17.093277,98.7085203 C17.4507429,95.1343056 17.7427401,95.1090332 20.2829133,89.8827037 C22.8230865,84.6563742 26.3679893,79.6260803 26.3679893,79.6260803 L22.7580944,89.0728769 L21.2183002,93.9219075 L21.1553938,95.2212217 C21.1553938,95.2212217 20.9313339,96.6328121 20.9313338,99.3790977 C20.9313337,102.125383 20.3968039,110.128577 20.3968039,110.128577 L20.2656731,115.792876 C20.2656731,115.792876 20.2656729,121.315435 20.2656729,126.462191 C20.2656729,131.608947 19.7279065,132.166326 17.8666117,136.929682 C16.0053169,141.693038 12.6152667,143.191282 12.6152667,143.191282 L8.39391765,147.620141 L1.61129702,161.293987 L0.390651773,167.35692 L13.7837798,159.318273 L6.52062394e-17,179.532573 L13.0534308,172.40031 L4.60742627,194.02341 L6.32113119,200.850706 L17.180328,182.374581 L15.80272,205.589187 L24.0442897,197.354851 L28.307823,215.793164 L39.9323575,186.02512 L34.617199,223.259454 L34.1398812,245.444346 L49.540978,222.903938 L50.8138255,246.682398 L77.4649633,230.812822 C77.4649633,230.812822 82.9760257,247.91331 85.0770202,245.569401 C87.1780148,243.225493 94.5965606,227.020059 94.5965606,227.020059 L90.0289672,210.039281 L94.5965582,200.850709 L101.572197,197.354853 L101.572194,210.039274 L109.443468,217.901708 L115.645024,262.132144 L125.023336,219.807915 L135.198965,265.208515 L142.035157,248.563594 L145.826888,235.112952 L154.195141,247.225497 L156.122289,221.983885 L168.325178,235.5703 L168.802496,220.713676 L181.443373,221.171023 L168.267971,197.753438 C168.267971,197.753438 178.3131,201.517609 181.357563,205.778445 C184.402025,210.039281 181.357568,195.459359 178.213903,179.135072 C175.070238,162.810785 161.259275,126.714118 161.259275,126.714118 L159.05216,122.25907 C159.05216,122.25907 163.15973,124.042828 164.864975,126.748921 C166.570219,129.455013 160.022697,118.307015 158.07249,115.799515 C156.122284,113.292014 150.482844,107.156143 146.855815,101.188683 C143.228786,95.2212234 141.203357,95.2212234 142.375606,93.4952875 C144.606535,90.2106272 148.51302,89.1614675 148.51302,89.1614675 C148.51302,89.1614675 151.558449,88.360232 152.316605,88.3602315 C153.074761,88.3602309 161.759624,91.6573331 166.102802,93.4392782 C170.44598,95.2212234 177.173232,97.5149969 177.173232,97.5149969 L180.902955,99.1043148 L183.279779,100.41509 L184.261207,101.631685 L185.754096,101.564985 L186.518539,103.450083 L186.821767,104.669176 L187.32498,105.877777 L187.297982,112.407421 L187.211738,115.268043 L186.881012,117.501132 L186.475543,121.081219 L188.689628,119.176886 C188.689628,119.176886 197.721311,107.302225 199.276645,83.8077446 Z" id="path-1"></path>
        <filter x="-20.1%" y="-14.0%" width="137.1%" height="128.0%" filterUnits="objectBoundingBox" id="filter-2">
            <feMorphology radius="2.5" operator="dilate" in="SourceAlpha" result="shadowSpreadOuter1"></feMorphology>
            <feOffset dx="-3" dy="0" in="shadowSpreadOuter1" result="shadowOffsetOuter1"></feOffset>
            <feGaussianBlur stdDeviation="11" in="shadowOffsetOuter1" result="shadowBlurOuter1"></feGaussianBlur>
            <feComposite in="shadowBlurOuter1" in2="SourceAlpha" operator="out" result="shadowBlurOuter1"></feComposite>
            <feColorMatrix values="0 0 0 0 0.35376807   0 0 0 0 0.35376807   0 0 0 0 0.35376807  0 0 0 1 0" type="matrix" in="shadowBlurOuter1"></feColorMatrix>
        </filter>
        <filter x="-27.1%" y="-6.3%" width="143.8%" height="115.9%" filterUnits="objectBoundingBox" id="filter-3">
            <feOffset dx="-2" dy="2" in="SourceAlpha" result="shadowOffsetOuter1"></feOffset>
            <feGaussianBlur stdDeviation="3" in="shadowOffsetOuter1" result="shadowBlurOuter1"></feGaussianBlur>
            <feColorMatrix values="0 0 0 0 0   0 0 0 0 0   0 0 0 0 0  0 0 0 0.5 0" type="matrix" in="shadowBlurOuter1" result="shadowMatrixOuter1"></feColorMatrix>
            <feMerge>
                <feMergeNode in="shadowMatrixOuter1"></feMergeNode>
                <feMergeNode in="SourceGraphic"></feMergeNode>
            </feMerge>
        </filter>
    </defs>
    <g id="Home" stroke="none" stroke-width="1" fill="none" fill-rule="evenodd">
        <g id="Seagle_logo">
            <g id="Outline-Head-Monocle" transform="translate(200.000000, 69.000000)">
                <g transform="translate(0.000000, 0.787879)" id="Path-255">
                    <g>
                        <use fill="black" fill-opacity="1" filter="url(#filter-2)" xlink:href="#path-1"></use>
                        <use stroke="#A68500" stroke-width="5" fill="#222222" fill-rule="evenodd" xlink:href="#path-1"></use>
                    </g>
                </g>
                <g id="eye" transform="translate(149.483136, 36.280410) scale(-1, 1) translate(-149.483136, -36.280410) translate(138.483136, 24.280410)">
                    <path d="M1.15498578,11.0041765 L2.27373675e-13,17.8991723 L5.21090047,21.6887567 L8.03962428,23.7613984 L17.6186377,21.366497 L19.7735459,11.8463722 L21.5774898,4.97061134 L19.9753651,0 C19.9753651,0 14.6070336,2.01996755 14.2152323,2.01996744 C13.823431,2.01996732 8.63916356,5.88856313 7.95499042,5.88856314 C7.27081728,5.88856316 2.82961158,7.96090887 2.82961158,7.96090887 C2.82961158,7.96090887 0.293259253,9.56303327 0.724122519,10.0104686 C1.15498579,10.4579039 1.15498578,11.0041765 1.15498578,11.0041765 Z" id="Path-116" stroke="#B35252" fill="#FFEEEE"></path>
                    <path d="M9.03725364,11.4445292 C12.7659052,13.9142181 10.7018774,18.5301659 4.77436722,16.4166985 C3.86214344,16.091443 3.94516012,13.0109154 4.77436722,13.5112743 L11.5293289,12.2328876 C12.9112,13.066734 8.48500238,19.8929864 6.56075385,15.4713873 C4.81227803,11.4536842 10.7359688,11.0907023 12.0744703,12.6330574 C13.3707871,14.1268029 8.91435929,22.0601568 6.10547088,15.5384816 L9.03725364,11.4445292 Z" id="Path-8" stroke="#000000"></path>
                    <ellipse id="Oval-2" stroke="#0B0B0B" fill="#DCEB0A" cx="9.58587747" cy="14.9498213" rx="1.5" ry="2.5"></ellipse>
                </g>
                <g id="Outline-Monocle" filter="url(#filter-3)" transform="translate(125.151471, 3.615646)">
                    <path d="M10.0252764,54.0339459 C10.7360389,53.429871 11.224078,52.6096237 11.3539619,51.6670921 C15.0234675,53.8608319 19.3163303,54.577739 23.8214084,53.405541 C36.0162447,50.232508 46.6561037,36.9911447 47.5861987,23.8301283 C48.5162937,10.6691118 37.8764346,-3.26329842e-14 23.8214084,0 C9.76638212,3.26329842e-14 -0.873476919,13.2413633 0.0566180653,29.5754128 C0.46440542,36.7368521 2.73866521,42.8093412 6.19212019,47.1037133 C4.23028288,47.3367281 2.63397124,48.7194414 2.40097487,50.5601364 C2.13250052,52.6811111 3.7720166,54.6368468 6.1022857,55.0423046 C5.38148579,55.6549103 4.88974427,56.489837 4.76831219,57.4491628 C4.48947178,59.6520304 6.26880513,61.6766526 8.74256447,61.9712831 C11.2163238,62.2659136 13.4477468,60.7189817 13.7265872,58.5161141 C13.9950615,56.3951394 12.3555455,54.4394038 10.0252764,54.0339459 L10.0252764,54.0339459 Z M25.4569714,4.32350208 C13.5949616,4.32350208 4.61524785,15.3762524 5.40021941,29.0105108 C6.18519096,42.6447693 15.1649047,51.5504255 25.4569714,48.9018506 C35.7490381,46.2532758 44.7287518,35.2005255 45.5137234,24.2148419 C46.298695,13.2291582 37.3189812,4.32350208 25.4569714,4.32350208 Z M6.19212019,47.1037133 C7.70554965,48.9856632 9.44544482,50.5261237 11.3539619,51.6670921 C11.3557961,51.6537816 11.3575589,51.6404467 11.3592499,51.6270877 C11.6380903,49.4242201 9.85875694,47.3995979 7.3849976,47.1049674 C6.97828783,47.0565273 6.57812854,47.0578656 6.19212019,47.1037133 L6.19212019,47.1037133 Z M6.36970692,53.9469231 C7.66740573,54.1014821 8.84856694,53.2063328 9.00790432,51.9475513 C9.1672417,50.6887698 8.24441742,49.543031 6.94671861,49.3884721 C5.6490198,49.2339131 4.46785859,50.1290624 4.30852121,51.3878439 C4.14918383,52.6466254 5.07200811,53.7923642 6.36970692,53.9469231 L6.36970692,53.9469231 Z M10.0252764,54.0339459 C9.09092753,54.8280462 7.77169025,55.2485787 6.37522714,55.0822568 C6.28326359,55.0713037 6.19225975,55.0579597 6.1022857,55.0423046 C7.03663454,54.2482043 8.35587182,53.8276718 9.75233493,53.9939937 C9.84429848,54.0049468 9.93530232,54.0182908 10.0252764,54.0339459 L10.0252764,54.0339459 Z M9.18084346,60.8359495 C10.4785423,60.9905084 11.6597035,60.0953592 11.8190409,58.8365777 C11.9783782,57.5777962 11.055554,56.4320574 9.75785515,56.2774984 C8.46015634,56.1229395 7.27899513,57.0180887 7.11965775,58.2768702 C6.96032037,59.5356517 7.88314465,60.6813905 9.18084346,60.8359495 L9.18084346,60.8359495 Z M6.37522714,70.0084805 C8.84898648,70.303111 11.0804095,68.7561791 11.3592499,66.5533115 C11.6380903,64.3504439 9.85875694,62.3258216 7.3849976,62.0311912 C4.91123827,61.7365607 2.67981528,63.2834926 2.40097487,65.4863602 C2.12213445,67.6892278 3.90146781,69.71385 6.37522714,70.0084805 L6.37522714,70.0084805 Z M8.84160771,93.0717619 C9.56240762,92.4591562 10.0541491,91.6242294 10.1755812,90.6649037 C10.4544216,88.4620361 8.67508827,86.4374138 6.20132894,86.1427834 C3.7275696,85.8481529 1.49614662,87.3950848 1.2173062,89.5979524 C0.948831858,91.718927 2.58834793,93.6746627 4.91861704,94.0801205 C4.19781713,94.6927262 3.7060756,95.527653 3.58464353,96.4869787 C3.30580312,98.6898464 5.08513647,100.714469 7.55889581,101.009099 C10.0326551,101.30373 12.2640781,99.7567977 12.5429185,97.55393 C12.8113929,95.4329554 11.1718768,93.4772197 8.84160771,93.0717619 L8.84160771,93.0717619 Z M6.81350613,68.8731469 C8.11120495,69.0277058 9.29236615,68.1325566 9.45170353,66.8737751 C9.61104091,65.6149936 8.68821664,64.4692548 7.39051783,64.3146958 C6.09281901,64.1601369 4.91165781,65.0552862 4.75232043,66.3140677 C4.59298305,67.5728492 5.51580732,68.718588 6.81350613,68.8731469 L6.81350613,68.8731469 Z M8.74256447,78.0456779 C11.2163238,78.3403084 13.4477468,76.7933765 13.7265872,74.5905089 C14.0054276,72.3876413 12.2260943,70.363019 9.75233493,70.0683886 C7.27857559,69.7737581 5.04715261,71.32069 4.76831219,73.5235576 C4.48947178,75.7264252 6.26880513,77.7510474 8.74256447,78.0456779 L8.74256447,78.0456779 Z M9.18084346,76.9103443 C10.4785423,77.0649032 11.6597035,76.169754 11.8190409,74.9109725 C11.9783782,73.652191 11.055554,72.5064522 9.75785515,72.3518932 C8.46015634,72.1973343 7.27899513,73.0924836 7.11965775,74.3512651 C6.96032037,75.6100466 7.88314465,76.7557854 9.18084346,76.9103443 L9.18084346,76.9103443 Z M6.37522714,86.0828753 C8.84898648,86.3775058 11.0804095,84.8305739 11.3592499,82.6277063 C11.6380903,80.4248387 9.85875694,78.4002164 7.3849976,78.105586 C4.91123827,77.8109555 2.67981528,79.3578874 2.40097487,81.560755 C2.12213445,83.7636226 3.90146781,85.7882449 6.37522714,86.0828753 L6.37522714,86.0828753 Z M6.81350613,84.9475417 C8.11120495,85.1021006 9.29236615,84.2069514 9.45170353,82.9481699 C9.61104091,81.6893884 8.68821664,80.5436496 7.39051783,80.3890906 C6.09281901,80.2345317 4.91165781,81.129681 4.75232043,82.3884625 C4.59298305,83.647244 5.51580732,84.7929828 6.81350613,84.9475417 L6.81350613,84.9475417 Z M5.62983747,92.9847391 C6.92753628,93.139298 8.10869749,92.2441488 8.26803487,90.9853673 C8.42737225,89.7265858 7.50454797,88.580847 6.20684916,88.426288 C4.90915035,88.2717291 3.72798914,89.1668784 3.56865176,90.4256599 C3.40931438,91.6844414 4.33213866,92.8301802 5.62983747,92.9847391 L5.62983747,92.9847391 Z M8.84160771,93.0717619 C7.90725886,93.8658622 6.58802159,94.2863947 5.19155848,94.1200727 C5.09959493,94.1091197 5.00859109,94.0957757 4.91861704,94.0801205 C5.85296588,93.2860203 7.17220316,92.8654877 8.56866627,93.0318097 C8.66062982,93.0427628 8.75163365,93.0561068 8.84160771,93.0717619 L8.84160771,93.0717619 Z M7.9971748,99.8737655 C9.29487361,100.028324 10.4760348,99.1331751 10.6353722,97.8743936 C10.7947096,96.6156121 9.8718853,95.4698733 8.57418649,95.3153144 C7.27648768,95.1607555 6.09532647,96.0559047 5.93598909,97.3146862 C5.77665171,98.5734677 6.69947599,99.7192065 7.9971748,99.8737655 L7.9971748,99.8737655 Z M5.19155848,109.046296 C7.66531782,109.340927 9.8967408,107.793995 10.1755812,105.591127 C10.4544216,103.38826 8.67508827,101.363638 6.20132894,101.069007 C3.7275696,100.774377 1.49614662,102.321309 1.2173062,104.524176 C0.938465791,106.727044 2.71779914,108.751666 5.19155848,109.046296 L5.19155848,109.046296 Z M5.62983747,107.910963 C6.92753628,108.065522 8.10869749,107.170373 8.26803487,105.911591 C8.42737225,104.65281 7.50454797,103.507071 6.20684916,103.352512 C4.90915035,103.197953 3.72798914,104.093102 3.56865176,105.351884 C3.40931438,106.610665 4.33213866,107.756404 5.62983747,107.910963 L5.62983747,107.910963 Z M7.55889581,117.083494 C10.0326551,117.378124 12.2640781,115.831192 12.5429185,113.628325 C12.821759,111.425457 11.0424256,109.400835 8.56866627,109.106205 C6.09490693,108.811574 3.86348394,110.358506 3.58464353,112.561374 C3.30580312,114.764241 5.08513647,116.788863 7.55889581,117.083494 L7.55889581,117.083494 Z M7.9971748,115.94816 C9.29487361,116.102719 10.4760348,115.20757 10.6353722,113.948788 C10.7947096,112.690007 9.8718853,111.544268 8.57418649,111.389709 C7.27648768,111.23515 6.09532647,112.1303 5.93598909,113.389081 C5.77665171,114.647863 6.69947599,115.793601 7.9971748,115.94816 L7.9971748,115.94816 Z M5.19155848,125.120691 C7.66531782,125.415322 9.8967408,123.86839 10.1755812,121.665522 C10.4544216,119.462655 8.67508827,117.438032 6.20132894,117.143402 C3.7275696,116.848771 1.49614662,118.395703 1.2173062,120.598571 C0.938465791,122.801439 2.71779914,124.826061 5.19155848,125.120691 L5.19155848,125.120691 Z M5.62983747,123.985358 C6.92753628,124.139917 8.10869749,123.244767 8.26803487,121.985986 C8.42737225,120.727204 7.50454797,119.581466 6.20684916,119.426907 C4.90915035,119.272348 3.72798914,120.167497 3.56865176,121.426278 C3.40931438,122.68506 4.33213866,123.830799 5.62983747,123.985358 L5.62983747,123.985358 Z" id="Monocle-Parts" fill="#FAD541"></path>
                    <path d="M45.0460141,21.9610497 C45.1484471,26.356732 43.3672274,31.1483921 41.0398173,35.7136187 C36.6652517,44.294351 26.8760573,49.4043169 20.9468187,49.3043103 C15.0175801,49.2043037 15.4372536,47.9060958 13.1749017,46.3482322 C4.04507611,40.0614015 2.67098126,24.0895422 9.22166957,14.5267213 C10.4403819,12.7476216 10.6464809,12.2544725 12.506152,10.0803838 C14.3658231,7.90629514 16.064919,7.52087391 17.550986,6.65116225 C23.6266157,3.09543698 30.8797228,4.11013734 36.3698761,7.01528586 C41.4051221,9.67971732 44.89249,15.3729026 45.0460141,21.9610497" id="Oval-41-Copy-2" fill-opacity="0.729999959" fill="#82ABAF"></path>
                    <path d="M34.7612021,41.3447798 C37.244538,39.3564523 38.6126622,38.1240966 41.6309643,32.7360265 C44.8227118,22.8733601 41.6309643,16.1175213 41.6309643,16.1175213 C41.6309643,16.1175213 37.6251436,28.5010942 35.5021467,32.7360265 C33.3791498,36.9709589 17.6753804,45.4437938 17.6753804,45.4437938 C17.6753804,45.4437938 21.1587482,48.4540067 25.6827155,46.8310048 C28.3223785,45.9297244 31.3906157,44.0435003 34.7612021,41.3447798 Z" id="Path-158-Copy-2" fill="#F4F2F2" opacity="0.695652174"></path>
                    <path d="M8.89773855,23.0791489 C12.0087342,15.6541127 10.7938527,5.4130402 10.42856,6.76822991 C10.42856,6.76822991 9.8004027,17.4518154 8.27832008,21.5483067 C6.75623747,25.644798 3.46868064,29.1272371 2.11299033,30.1932553 C0.757300029,31.2592735 5.78674294,30.5041851 8.89773855,23.0791489 Z" id="Path-158-Copy-3" fill="#FFF9E3" transform="translate(6.427745, 18.613706) scale(-1, -1) rotate(3.000000) translate(-6.427745, -18.613706) "></path>
                    <path d="M24.1670738,36.8518551 C23.7442506,36.6979911 20.3504543,40.6467826 16.1453856,41.2382919 C30.1957041,27.9247313 37.197289,17.9173676 37.197289,17.9173676 C37.197289,17.9173676 40.3083476,11.3835038 36.7985635,20.0036988 C33.2887794,28.6238937 24.5898969,37.0057192 24.1670738,36.8518551 Z" id="Path-159-Copy-2" fill-opacity="0.203747736" fill="#FFFFFF"></path>
                </g>
            </g>
        </g>
    </g>
</svg>