<?xml version="1.0" encoding="UTF-8" standalone="no"?>
<svg width="503px" height="504px" viewBox="0 0 503 504" version="1.1" xmlns="http://www.w3.org/2000/svg" xmlns:xlink="http://www.w3.org/1999/xlink">
    <!-- Generator: Sketch 3.8.3 (29802) - http://www.bohemiancoding.com/sketch -->
    <title>sk-logo</title>
    <desc>Created with Sketch.</desc>
    <defs></defs>
    <g id="sk-logo" stroke="none" stroke-width="1" fill="none" fill-rule="evenodd">
        <g transform="translate(2.000000, 2.000000)" id="SmK">
            <g>
                <g id="sk">
                    <g id="Grey-Circles" fill="#D8D8D8" opacity="0.699999988">
                        <path d="M214.375869,212.389737 C236.415392,189.852476 250,159.012666 250,125 C250,55.9644063 194.035593,0 125,0 C55.9644062,0 0,55.9644063 0,125 C0,194.035594 55.9644062,250 125,250 L125,125 L214.375869,212.389737 L214.375869,212.389737 Z" id="Combined-Shape"></path>
                        <path d="M125,250 C194.035593,250 250,305.964406 250,375 C250,444.035594 194.035593,500 125,500 C55.9644062,500 0,444.035594 0,375 C0,342.74423 12.2174512,313.341998 32.277216,291.168442 L125,375 L125,250 L125,250 Z" id="Combined-Shape"></path>
                        <path d="M251.077405,0 L250,0 L250,250 C319.796454,250 382.949514,221.771724 428.5,176.191335 L251.077405,0 L251.077405,0 Z" id="Combined-Shape"></path>
                        <path d="M251.077405,250 L250,250 L250,500 C319.796454,500 382.949514,471.771724 428.5,426.191335 L251.077405,250 L251.077405,250 Z" id="Combined-Shape-Copy-3" transform="translate(339.250000, 375.000000) scale(1, -1) translate(-339.250000, -375.000000) "></path>
                    </g>
                    <path d="M427,500 C477.588509,450.678388 501.331109,386.010687 499.94249,322.5" id="Lower-Bottom-K" stroke="#4F99FF" transform="translate(463.500000, 411.250000) scale(1, -1) translate(-463.500000, -411.250000) "></path>
                    <path d="M250.845322,324.486777 C320.696512,323.676537 381.25946,292.063252 425.845322,247.726775" id="Lower-Top-K" stroke="#4F99FF" stroke-width="3" opacity="0.400000006" transform="translate(338.345322, 286.106776) rotate(226.000000) translate(-338.345322, -286.106776) "></path>
                    <path d="M250.107603,250.765503 C319.560081,250.277407 382.327197,222.822785 426.887602,177.234497" id="Upper-Bottom-K" stroke="#4F99FF" stroke-width="3" opacity="0.400000006" transform="translate(338.497602, 214.000000) scale(-1, 1) rotate(45.000000) translate(-338.497602, -214.000000) "></path>
                    <path d="M427,177.5 C475.163795,128.178388 498.268409,63.5106876 496.946346,0" id="Upper-Top-K" stroke="#4F99FF"></path>
                    <path d="M250,500 L250,-1.13686838e-13" id="K-Vert." stroke="#4F99FF" stroke-width="3" opacity="0.400000006"></path>
                    <g id="S-Border" stroke="#FF2A2A" stroke-width="3" opacity="0.400000006">
                        <path d="M125.004643,250 C125.004643,250 250,254.523532 250,375.000003 C250,495.476474 125,500 125,500" id="Bottom-of-S"></path>
                        <path d="M0.00464297747,0 C0.00464297747,0 125,4.52353004 125,125 C125,245.476471 0,250 0,250" id="Top-of-S" transform="translate(62.500000, 125.000000) scale(-1, -1) translate(-62.500000, -125.000000) "></path>
                    </g>
                </g>
                <g id="M" transform="translate(130.689814, 140.442231)" stroke="#00CE38" stroke-width="2.5">
                    <path d="M84.3101855,81.7941326 C84.3101855,81.7941326 92.5170821,73.2392934 100.723979,62.4123144 C108.930875,51.5853354 112.310186,42.5577689 112.310186,42.5577689 C112.310186,42.5577689 112.310186,93.7092174 112.310186,172.557769" id="M-Right"></path>
                    <polyline id="M-Left" points="0.310185504 104.557769 0.504671261 0.557768924 85.3101855 81.9726711"></polyline>
                </g>
            </g>
        </g>
    </g>
</svg>