<svg xmlns="http://www.w3.org/2000/svg" viewBox="0 0 828 86"><g fill="none" fill-rule="evenodd"><path stroke="#44B4FE" stroke-width="4" d="M43.065 7.264c-6.888 0-12.546-1.722-18.286-1.722-14.6 0-22.72 6.97-22.72 17.71 0 19.19 30.66 20.83 30.66 33.784 0 4.428-3.04 8.2-9.84 8.2-9.84 0-17.22-9.266-19.93-22.22h-.82l.82 20.58c10.99 0 11.97 2.46 20.82 2.46 12.13 0 23.37-7.134 23.37-19.433 0-20.09-30.18-19.598-30.18-33.21 0-4.51 3.11-7.05 7.46-7.05 8.69 0 15.42 8.773 17.06 17.875h.82l.73-16.974zm36.145 16.89c2.788 0 3.936 2.707 3.936 6.07 0 3.033-.738 5.575-2.214 7.79 1.722 1.557 4.674 2.46 7.216 2.46 5.493 0 8.527-3.117 8.527-6.807 0-6.15-7.05-10.168-18.04-10.168-14.923 0-25.828 10.16-25.828 22.3 0 12.21 8.61 20.33 23.943 20.33 8.61 0 14.513-2.54 18.94-7.79l-.327-.33c-3.28 2.21-6.805 3.52-11.315 3.52-8.118 0-12.054-7.71-12.054-17.55 0-12.8 3.444-19.85 7.216-19.85zm47.625 39.606c-1.804 0-3.198-.656-3.198-3.116V30.55c2.296-.49 3.28-1.23 5.166-1.23 1.64 0 3.034 1.23 3.034 3.61v26.976c0 2.788-.902 3.854-3.116 3.854v.738s4.19-.246 12.14-.246c7.96 0 13.7.246 13.7.246v-.738c-3.19 0-4.51-.656-4.51-4.346V35.06c0-7.543-3.85-11.56-10.33-11.56s-10.99 4.673-16.07 6.395V3s-10.41 4.1-22.88 4.1l.33.738c2.95 0 4.35.984 4.35 4.182v46c0 3.526-1.47 5.74-4.67 5.74v.738s5.66-.246 13.78-.246c8.04 0 12.3.246 12.3.246v-.738zm59.514-37.883c1.72 0 3.11.656 3.11 3.116v30.093c-2.22.656-3.12 1.312-4.76 1.312-1.64 0-3.04-1.312-3.04-3.69v-31.65L181 24.4l-21.976.74v.74c3.2 0 4.43.66 4.43 4.43v24.35c0 7.46 3.85 11.48 10.33 11.48s10.25-4.59 15.66-6.39l.74 6.4s9.673-4.02 22.14-4.02l-.41-.656c-2.955 0-4.267-1.066-4.267-4.264V25.06l-.656-.658-20.66.74v.74zm56.56-.738s-4.1.32-12.47.32-15.83-.33-15.83-.33v.73c3.28 0 4.26 1.47 5.24 4.02l13.86 34.6h11.89l-.9 2.62c-1.73 5.08-5.66 14.67-10.58 14.67-1.64 0-2.63-1.15-2.63-2.79 0-2.3 1.89-4.59 5.33-5.33 0-3.04-2.54-7.22-8.2-7.22-5.66 0-9.02 3.77-9.02 8.28 0 5.08 3.94 9.1 10.99 9.1 9.02 0 12.3-9.35 15.17-17.3l10.49-29.68c2.13-6.07 5.33-10.99 9.51-10.99v-.74s-3.04.32-7.63.32c-5 0-8.69-.33-8.69-.33v.732c4.67 0 6.48 2.54 6.48 6.15 0 2.05-.66 5.085-1.72 8.037l-5.33 15.5-8.2-22.55c-.66-1.8-.99-2.87-.99-4.1 0-1.64.905-3.03 3.2-3.03v-.73zm51.64 38.62c-1.81 0-3.2-.66-3.2-3.12V3s-10.42 4.1-22.88 4.1l.32.738c2.95 0 4.34.984 4.34 4.182v46c0 3.526-1.48 5.74-4.68 5.74v.738s5.65-.246 13.85-.246c8.28 0 12.21.246 12.21.246v-.738zM319.71 44c0-1.067 0-2.297.08-3.527h24.765l1.066-1.066c-.57-10.742-8.61-15.908-19.76-15.908-14.35 0-25.34 10.16-25.34 22.3 0 12.21 8.12 20.33 23.46 20.33 8.61 0 14.6-2.54 19.03-7.79l-.41-.33c-3.2 2.21-6.81 3.52-11.15 3.52-8.28 0-11.72-7.71-11.72-17.55zm.164-4.183c.902-10.578 2.542-15.662 5.248-15.662 2.46 0 4.263 3.69 4.263 10.004 0 1.47-.082 3.03-.328 4.67l-9.188.98zm57.546-8.938c2.378 0 3.444 1.64 3.444 3.77 0 1.47-.574 2.95-.984 3.77 1.066.9 3.444 1.64 5.33 1.64 5.494 0 8.364-4.27 8.364-8.69 0-4.35-3.116-7.87-7.79-7.87-6.396 0-8.446 6.06-12.382 7.46V23.5s-10.413 4.017-22.877 4.017l.328.656c2.952 0 4.346 1.148 4.346 4.346v25.5c0 3.52-1.47 5.74-4.67 5.74v.73s5.66-.25 13.86-.25c8.28 0 13.36.24 13.36.24v-.74c-2.79 0-4.35-.82-4.35-3.45V31.7c1.31-.247 2.46-.82 4.01-.82zm74.915 5.91c1.968 0 3.034.98 4.018 2.87l8.445 16.23c4.02 7.79 9.516 10.66 17.88 10.66 7.953 0 12.627-2.71 12.627-2.71v-.66c-2.87 0-4.592-1.72-6.56-4.92l-21.156-35.5 2.95-3.36c6.07-6.97 12.13-10.99 19.84-10.99V7.6s-3.53.245-11.65.245c-8.69 0-13.45-.246-13.45-.246v.82c3.36 0 6.15 1.8 6.15 5 0 2.46-1.07 5.16-5.5 10.08l-10.99 12.47h-2.63V18.66c0-6.396 1.97-10.25 6.15-10.25v-.82s-7.22.246-15.75.246-15.74-.246-15.74-.246v.82c4.18 0 6.15 1.476 6.15 7.298v38.21c0 6.396-1.97 10.25-6.15 10.25v.82s7.212-.246 15.74-.246c8.53 0 15.744.24 15.744.24v-.82c-4.18 0-6.15-1.478-6.15-7.3V36.79zm71.485 27.46c-1.803 0-3.197-.66-3.197-3.12V3.5s-10.413 4.1-22.877 4.1l.327.738c2.952 0 4.346.984 4.346 4.182v46c0 3.526-1.48 5.74-4.68 5.74v.738s5.65-.246 13.85-.246c8.28 0 12.22.246 12.22.246v-.74.002zm32.457-3.12c-1.64.57-2.71 1.15-4.1 1.15-2.547 0-3.69-2.38-3.69-6.15 0-5.33 1.88-10.09 6.39-10.99 0 0-.327 2.21-.327 6.64 0 7.13 1.722 9.34 1.722 9.34zm16.48-20.67c0-11.24-4.596-16.49-18.7-16.49-10.003 0-21.155 3.85-21.155 10.74 0 3.69 2.87 6.23 7.297 6.23 2.62 0 6.47-1.15 8.69-2.87-1.56-2.3-2.38-4.35-2.38-7.38 0-3.36 1.56-6.07 4.59-6.07s4.26 2.29 4.26 7.95c0 6.23-.5 11.8-.5 11.8-15.91 0-24.68 5-24.68 13.37 0 6.23 5.16 8.85 11.07 8.85 7.13 0 11.56-3.854 15.25-4.838 2.21 3.44 6.31 4.59 10.66 4.59 4.92 0 9.02-1.64 10.58-4.35l-.33-.25c-.58.74-1.56 1.31-2.38 1.31-1.73 0-3.12-1.063-3.12-5.326 0-5.74.82-9.515.82-17.305zM608 61.14c-1.64.574-2.706 1.148-4.1 1.148-2.542 0-3.69-2.378-3.69-6.15 0-5.33 1.886-10.086 6.396-10.988 0 0-.33 2.214-.33 6.642 0 7.134 1.723 9.348 1.723 9.348zm16.482-20.664c0-11.233-4.592-16.48-18.696-16.48-10.005 0-21.156 3.853-21.156 10.74 0 3.69 2.87 6.232 7.298 6.232 2.623 0 6.477-1.148 8.69-2.87-1.557-2.295-2.377-4.345-2.377-7.38 0-3.36 1.56-6.067 4.6-6.067s4.27 2.3 4.27 7.96c0 6.23-.49 11.81-.49 11.81-15.91 0-24.68 5-24.68 13.37 0 6.23 5.17 8.86 11.07 8.86 7.14 0 11.56-3.85 15.25-4.83 2.22 3.45 6.32 4.59 10.66 4.59 4.92 0 9.02-1.64 10.58-4.34l-.32-.24c-.57.74-1.56 1.32-2.38 1.32-1.72 0-3.12-1.07-3.12-5.33 0-5.74.82-9.51.82-17.3zM668.91 25.88c-6.394 0-9.592-1.885-15.332-1.885-11.398 0-19.023 4.756-19.023 13.2 0 13.53 21.483 15.007 21.483 24.437 0 2.542-1.804 4.182-5.084 4.182-7.298 0-13.776-7.626-15.58-15.662h-.656l.738 14.677c10.004 0 10.742 1.8 16.482 1.8 13.12 0 20.17-5.5 20.17-14.11 0-14.02-21.974-15.01-21.974-24.11 0-2.63 1.804-3.77 4.1-3.77 7.46 0 12.217 7.29 13.447 13.69h.74l.49-12.47zm44.428 0c-6.396 0-9.593-1.885-15.333-1.885-11.398 0-19.024 4.756-19.024 13.2 0 13.53 21.49 15.007 21.49 24.437 0 2.542-1.8 4.182-5.08 4.182-7.29 0-13.77-7.626-15.58-15.662h-.65l.74 14.677c10.01 0 10.75 1.8 16.48 1.8 13.12 0 20.18-5.5 20.18-14.11 0-14.02-21.97-15.01-21.97-24.11 0-2.63 1.81-3.77 4.1-3.77 7.46 0 12.22 7.29 13.45 13.69h.74l.49-12.47zm27.946 18.614c0-1.066 0-2.296.082-3.526h24.763l1.06-1.066c-.58-10.74-8.61-15.907-19.76-15.907-14.35 0-25.34 10.167-25.34 22.303 0 12.218 8.12 20.335 23.45 20.335 8.61 0 14.59-2.542 19.02-7.79l-.41-.328c-3.2 2.214-6.81 3.526-11.15 3.526-8.29 0-11.73-7.7-11.73-17.54zm.164-4.182c.902-10.577 2.54-15.66 5.247-15.66 2.46 0 4.264 3.69 4.264 10.003 0 1.475-.09 3.033-.33 4.673l-9.19.984zm56.912 23.614c-1.816 0-3.22-.648-3.22-3.08v-29.74c2.147-.647 3.22-1.214 4.79-1.214 1.65 0 2.97 1.216 2.97 3.567v26.66c0 2.75-.825 3.8-3.054 3.8v.73s4.623-.25 12.3-.25c8.174 0 13.623.24 13.623.24v-.73c-3.22 0-4.54-.65-4.54-4.3V35.56c0-7.454-3.8-11.425-10.41-11.425-6.44 0-10.82 4.538-15.69 6.32v-6.32s-10.49 3.97-23.04 3.97l.33.65c2.97 0 4.37 1.134 4.37 4.295v25.205c0 3.484-1.49 5.673-4.71 5.673v.727s5.7-.243 13.95-.243c8.33 0 12.3.243 12.3.243v-.73z"/><path stroke="#FFF" d="M43.065 7.264c-6.888 0-12.546-1.722-18.286-1.722-14.6 0-22.72 6.97-22.72 17.71 0 19.19 30.66 20.83 30.66 33.784 0 4.428-3.04 8.2-9.84 8.2-9.84 0-17.22-9.266-19.93-22.22h-.82l.82 20.58c10.99 0 11.97 2.46 20.82 2.46 12.13 0 23.37-7.134 23.37-19.433 0-20.09-30.18-19.598-30.18-33.21 0-4.51 3.11-7.05 7.46-7.05 8.69 0 15.42 8.773 17.06 17.875h.82l.73-16.974zm36.145 16.89c2.788 0 3.936 2.707 3.936 6.07 0 3.033-.738 5.575-2.214 7.79 1.722 1.557 4.674 2.46 7.216 2.46 5.493 0 8.527-3.117 8.527-6.807 0-6.15-7.05-10.168-18.04-10.168-14.923 0-25.828 10.16-25.828 22.3 0 12.21 8.61 20.33 23.943 20.33 8.61 0 14.513-2.54 18.94-7.79l-.327-.33c-3.28 2.21-6.805 3.52-11.315 3.52-8.118 0-12.054-7.71-12.054-17.55 0-12.8 3.444-19.85 7.216-19.85zm47.625 39.606c-1.804 0-3.198-.656-3.198-3.116V30.55c2.296-.49 3.28-1.23 5.166-1.23 1.64 0 3.034 1.23 3.034 3.61v26.976c0 2.788-.902 3.854-3.116 3.854v.738s4.19-.246 12.14-.246c7.96 0 13.7.246 13.7.246v-.738c-3.19 0-4.51-.656-4.51-4.346V35.06c0-7.543-3.85-11.56-10.33-11.56s-10.99 4.673-16.07 6.395V3s-10.41 4.1-22.88 4.1l.33.738c2.95 0 4.35.984 4.35 4.182v46c0 3.526-1.47 5.74-4.67 5.74v.738s5.66-.246 13.78-.246c8.04 0 12.3.246 12.3.246v-.738zm59.514-37.883c1.72 0 3.11.656 3.11 3.116v30.093c-2.22.656-3.12 1.312-4.76 1.312-1.64 0-3.04-1.312-3.04-3.69v-31.65L181 24.4l-21.976.74v.74c3.2 0 4.43.66 4.43 4.43v24.35c0 7.46 3.85 11.48 10.33 11.48s10.25-4.59 15.66-6.39l.74 6.4s9.673-4.02 22.14-4.02l-.41-.656c-2.955 0-4.267-1.066-4.267-4.264V25.06l-.656-.658-20.66.74v.74zm56.56-.738s-4.1.32-12.47.32-15.83-.33-15.83-.33v.73c3.28 0 4.26 1.47 5.24 4.02l13.86 34.6h11.89l-.9 2.62c-1.73 5.08-5.66 14.67-10.58 14.67-1.64 0-2.63-1.15-2.63-2.79 0-2.3 1.89-4.59 5.33-5.33 0-3.04-2.54-7.22-8.2-7.22-5.66 0-9.02 3.77-9.02 8.28 0 5.08 3.94 9.1 10.99 9.1 9.02 0 12.3-9.35 15.17-17.3l10.49-29.68c2.13-6.07 5.33-10.99 9.51-10.99v-.74s-3.04.32-7.63.32c-5 0-8.69-.33-8.69-.33v.732c4.67 0 6.48 2.54 6.48 6.15 0 2.05-.66 5.085-1.72 8.037l-5.33 15.5-8.2-22.55c-.66-1.8-.99-2.87-.99-4.1 0-1.64.905-3.03 3.2-3.03v-.73zm51.64 38.62c-1.81 0-3.2-.66-3.2-3.12V3s-10.42 4.1-22.88 4.1l.32.738c2.95 0 4.34.984 4.34 4.182v46c0 3.526-1.48 5.74-4.68 5.74v.738s5.65-.246 13.85-.246c8.28 0 12.21.246 12.21.246v-.738zM319.71 44c0-1.067 0-2.297.08-3.527h24.765l1.066-1.066c-.57-10.742-8.61-15.908-19.76-15.908-14.35 0-25.34 10.16-25.34 22.3 0 12.21 8.12 20.33 23.46 20.33 8.61 0 14.6-2.54 19.03-7.79l-.41-.33c-3.2 2.21-6.81 3.52-11.15 3.52-8.28 0-11.72-7.71-11.72-17.55zm.164-4.183c.902-10.578 2.542-15.662 5.248-15.662 2.46 0 4.263 3.69 4.263 10.004 0 1.47-.082 3.03-.328 4.67l-9.188.98zm57.546-8.938c2.378 0 3.444 1.64 3.444 3.77 0 1.47-.574 2.95-.984 3.77 1.066.9 3.444 1.64 5.33 1.64 5.494 0 8.364-4.27 8.364-8.69 0-4.35-3.116-7.87-7.79-7.87-6.396 0-8.446 6.06-12.382 7.46V23.5s-10.413 4.017-22.877 4.017l.328.656c2.952 0 4.346 1.148 4.346 4.346v25.5c0 3.52-1.47 5.74-4.67 5.74v.73s5.66-.25 13.86-.25c8.28 0 13.36.24 13.36.24v-.74c-2.79 0-4.35-.82-4.35-3.45V31.7c1.31-.247 2.46-.82 4.01-.82zm74.915 5.91c1.968 0 3.034.98 4.018 2.87l8.445 16.23c4.02 7.79 9.516 10.66 17.88 10.66 7.953 0 12.627-2.71 12.627-2.71v-.66c-2.87 0-4.592-1.72-6.56-4.92l-21.156-35.5 2.95-3.36c6.07-6.97 12.13-10.99 19.84-10.99V7.6s-3.53.245-11.65.245c-8.69 0-13.45-.246-13.45-.246v.82c3.36 0 6.15 1.8 6.15 5 0 2.46-1.07 5.16-5.5 10.08l-10.99 12.47h-2.63V18.66c0-6.396 1.97-10.25 6.15-10.25v-.82s-7.22.246-15.75.246-15.74-.246-15.74-.246v.82c4.18 0 6.15 1.476 6.15 7.298v38.21c0 6.396-1.97 10.25-6.15 10.25v.82s7.212-.246 15.74-.246c8.53 0 15.744.24 15.744.24v-.82c-4.18 0-6.15-1.478-6.15-7.3V36.79zm71.485 27.46c-1.803 0-3.197-.66-3.197-3.12V3.5s-10.413 4.1-22.877 4.1l.327.738c2.952 0 4.346.984 4.346 4.182v46c0 3.526-1.48 5.74-4.68 5.74v.738s5.65-.246 13.85-.246c8.28 0 12.22.246 12.22.246v-.74.002zm32.457-3.12c-1.64.57-2.71 1.15-4.1 1.15-2.547 0-3.69-2.38-3.69-6.15 0-5.33 1.88-10.09 6.39-10.99 0 0-.327 2.21-.327 6.64 0 7.13 1.722 9.34 1.722 9.34zm16.48-20.67c0-11.24-4.596-16.49-18.7-16.49-10.003 0-21.155 3.85-21.155 10.74 0 3.69 2.87 6.23 7.297 6.23 2.62 0 6.47-1.15 8.69-2.87-1.56-2.3-2.38-4.35-2.38-7.38 0-3.36 1.56-6.07 4.59-6.07s4.26 2.29 4.26 7.95c0 6.23-.5 11.8-.5 11.8-15.91 0-24.68 5-24.68 13.37 0 6.23 5.16 8.85 11.07 8.85 7.13 0 11.56-3.854 15.25-4.838 2.21 3.44 6.31 4.59 10.66 4.59 4.92 0 9.02-1.64 10.58-4.35l-.33-.25c-.58.74-1.56 1.31-2.38 1.31-1.73 0-3.12-1.063-3.12-5.326 0-5.74.82-9.515.82-17.305zM608 61.14c-1.64.574-2.706 1.148-4.1 1.148-2.542 0-3.69-2.378-3.69-6.15 0-5.33 1.886-10.086 6.396-10.988 0 0-.33 2.214-.33 6.642 0 7.134 1.723 9.348 1.723 9.348zm16.482-20.664c0-11.233-4.592-16.48-18.696-16.48-10.005 0-21.156 3.853-21.156 10.74 0 3.69 2.87 6.232 7.298 6.232 2.623 0 6.477-1.148 8.69-2.87-1.557-2.295-2.377-4.345-2.377-7.38 0-3.36 1.56-6.067 4.6-6.067s4.27 2.3 4.27 7.96c0 6.23-.49 11.81-.49 11.81-15.91 0-24.68 5-24.68 13.37 0 6.23 5.17 8.86 11.07 8.86 7.14 0 11.56-3.85 15.25-4.83 2.22 3.45 6.32 4.59 10.66 4.59 4.92 0 9.02-1.64 10.58-4.34l-.32-.24c-.57.74-1.56 1.32-2.38 1.32-1.72 0-3.12-1.07-3.12-5.33 0-5.74.82-9.51.82-17.3zM668.91 25.88c-6.394 0-9.592-1.885-15.332-1.885-11.398 0-19.023 4.756-19.023 13.2 0 13.53 21.483 15.007 21.483 24.437 0 2.542-1.804 4.182-5.084 4.182-7.298 0-13.776-7.626-15.58-15.662h-.656l.738 14.677c10.004 0 10.742 1.8 16.482 1.8 13.12 0 20.17-5.5 20.17-14.11 0-14.02-21.974-15.01-21.974-24.11 0-2.63 1.804-3.77 4.1-3.77 7.46 0 12.217 7.29 13.447 13.69h.74l.49-12.47zm44.428 0c-6.396 0-9.593-1.885-15.333-1.885-11.398 0-19.024 4.756-19.024 13.2 0 13.53 21.49 15.007 21.49 24.437 0 2.542-1.8 4.182-5.08 4.182-7.29 0-13.77-7.626-15.58-15.662h-.65l.74 14.677c10.01 0 10.75 1.8 16.48 1.8 13.12 0 20.18-5.5 20.18-14.11 0-14.02-21.97-15.01-21.97-24.11 0-2.63 1.81-3.77 4.1-3.77 7.46 0 12.22 7.29 13.45 13.69h.74l.49-12.47zm27.946 18.614c0-1.066 0-2.296.082-3.526h24.763l1.06-1.066c-.58-10.74-8.61-15.907-19.76-15.907-14.35 0-25.34 10.167-25.34 22.303 0 12.218 8.12 20.335 23.45 20.335 8.61 0 14.59-2.542 19.02-7.79l-.41-.328c-3.2 2.214-6.81 3.526-11.15 3.526-8.29 0-11.73-7.7-11.73-17.54zm.164-4.182c.902-10.577 2.54-15.66 5.247-15.66 2.46 0 4.264 3.69 4.264 10.003 0 1.475-.09 3.033-.33 4.673l-9.19.984zm56.912 23.614c-1.816 0-3.22-.648-3.22-3.08v-29.74c2.147-.647 3.22-1.214 4.79-1.214 1.65 0 2.97 1.216 2.97 3.567v26.66c0 2.75-.825 3.8-3.054 3.8v.73s4.623-.25 12.3-.25c8.174 0 13.623.24 13.623.24v-.73c-3.22 0-4.54-.65-4.54-4.3V35.56c0-7.454-3.8-11.425-10.41-11.425-6.44 0-10.82 4.538-15.69 6.32v-6.32s-10.49 3.97-23.04 3.97l.33.65c2.97 0 4.37 1.134 4.37 4.295v25.205c0 3.484-1.49 5.673-4.71 5.673v.727s5.7-.243 13.95-.243c8.33 0 12.3.243 12.3.243v-.73z"/></g></svg>