<svg xmlns="http://www.w3.org/2000/svg" viewBox="0 0 403 130"><g fill="none" fill-rule="evenodd"><path fill="#2C4A6E" d="M44.0648 7.26385c-6.88776 0-12.54557-1.72194-18.28538-1.72194-14.59552 0-22.71328 6.9698-22.71328 17.7114 0 19.1874 30.667 20.8274 30.667 33.7829 0 4.428-3.03393 8.1998-9.8397 8.1998-9.83967 0-17.2194-9.2657-19.92533-22.2212h-.82l.82 20.5813c10.9877 0 11.9715 2.46 20.8273 2.46 12.1356 0 23.3692-7.1337 23.3692-19.4333 0-20.0893-30.175-19.5973-30.175-33.2088 0-4.5098 3.1159-7.0517 7.4618-7.0517 8.6917 0 15.4155 8.7738 17.0554 17.8754h.82l.7379-16.9735.0004-.0002zM80.20997 24.1553c2.7879 0 3.93587 2.7059 3.93587 6.06777 0 3.0339-.73797 5.57582-2.21393 7.78974 1.722 1.558 4.6739 2.46 7.2158 2.46 5.4938 0 8.5277-3.1158 8.5277-6.8057 0-6.1497-7.0517-10.1676-18.0393-10.1676-14.9235 0-25.8291 10.1677-25.8291 22.3033 0 12.2176 8.6097 20.3354 23.9432 20.3354 8.6097 0 14.5135-2.5418 18.9414-7.7897l-.328-.328c-3.2799 2.214-6.8057 3.5259-11.3156 3.5259-8.1177 0-12.0536-7.7077-12.0536-17.5474 0-12.7916 3.4438-19.8433 7.2157-19.8433h.0002zm47.62477 39.60464c-1.80394 0-3.1979-.65598-3.1979-3.1159v-30.093c2.29593-.49198 3.2799-1.22995 5.16584-1.22995 1.63993 0 3.0339 1.2299 3.0339 3.6078V59.906c0 2.7879-.90198 3.85387-3.1159 3.85387v.738s4.18186-.246 12.1356-.246c7.95372 0 13.69354.246 13.69354.246v-.738c-3.1979 0-4.50986-.65598-4.50986-4.34585V35.0609c0-7.54373-3.85387-11.5616-10.33163-11.5616-6.47778 0-10.98764 4.67384-16.07146 6.39578V3s-10.41365 4.09986-22.87722 4.09986l.328.73797c2.9519 0 4.34583.98397 4.34583 4.18187v46.00043c0 3.5259-1.47595 5.7398-4.67383 5.7398v.738s5.6578-.246 13.77553-.246c8.03573 0 12.29958.246 12.29958.246v-.738zm59.51437-37.8827c1.722 0 3.1159.65597 3.1159 3.11588V59.0861c-2.2139.65598-3.1159 1.31195-4.7558 1.31195s-3.0339-1.31195-3.0339-3.68987V25.05725l-.656-.65598-21.9752.73792v.7379c3.1979 0 4.4279.6559 4.4279 4.4278v24.3532c0 7.4617 3.8539 11.4796 10.3317 11.4796s10.2496-4.5919 15.6615-6.3959l.7379 6.3957s9.6756-4.018 22.1392-4.018l-.41-.656c-2.9519 0-4.2639-1.066-4.2639-4.2639V25.0571l-.656-.656-20.6633.73794v.738l.0004.00013zm56.5625-.738s-4.0998.32802-12.4636.32802c-8.3637 0-15.8254-.328-15.8254-.328v.73797c3.2799 0 4.2639 1.47594 5.2479 4.01787l13.8576 34.60282h11.8896l-.9019 2.6239c-1.7219 5.08384-5.6578 14.6775-10.5776 14.6775-1.6399 0-2.6239-1.14793-2.6239-2.7879 0-2.29588 1.886-4.59178 5.3298-5.3298 0-3.03382-2.5418-7.21568-8.1997-7.21568-5.6578 0-9.0196 3.77195-9.0196 8.2817 0 5.08384 3.9359 9.10177 10.9876 9.10177 9.0197 0 12.2996-9.3476 15.1695-17.3014l10.4957-29.683c2.132-6.0677 5.3298-10.9876 9.5117-10.9876v-.7379s-3.0338.328-7.6257.328c-5.0018 0-8.6916-.328-8.6916-.328v.7381c4.6738 0 6.4778 2.542 6.4778 6.1499 0 2.0499-.656 5.0839-1.7219 8.0358l-5.3298 15.4975-8.1998-22.5493c-.6558-1.8039-.9838-2.8698-.9838-4.0998 0-1.64.902-3.0339 3.1979-3.0339l-.0001-.7379-.0004-.0003zm51.6427 38.6207c-1.8039 0-3.1979-.656-3.1979-3.1159V3s-10.4136 4.09986-22.8772 4.09986l.328.73797c2.9519 0 4.3459.98397 4.3459 4.18187v46.00043c0 3.5259-1.4759 5.7398-4.6738 5.7398v.738s5.6578-.246 13.8576-.246c8.2817 0 12.2176.246 12.2176.246v-.738l-.0002.00002zm25.1576-19.76132c0-1.06597 0-2.29593.082-3.5259h24.7631l1.066-1.06596c-.574-10.74163-8.6097-15.90745-19.7613-15.90745-14.3495 0-25.3371 10.1677-25.3371 22.3033 0 12.2176 8.1178 20.3353 23.4512 20.3353 8.6097 0 14.5955-2.5419 19.0234-7.7897l-.4099-.328c-3.198 2.2139-6.8058 3.5259-11.1517 3.5259-8.2817 0-11.7256-7.7077-11.7256-17.5474h.0002zm.164-4.18187c.902-10.57763 2.5419-15.66146 5.2478-15.66146 2.4599 0 4.2639 3.6898 4.2639 10.0036 0 1.4759-.082 3.0339-.328 4.6739l-9.1836.984v-.0001zm57.5464-8.9377c2.378 0 3.4439 1.63995 3.4439 3.77187 0 1.47595-.574 2.9519-.984 3.77188 1.066.90197 3.4439 1.63994 5.3298 1.63994 5.4939 0 8.3638-4.26385 8.3638-8.6917 0-4.34585-3.1159-7.87173-7.7897-7.87173-6.3958 0-8.4457 6.0678-12.3815 7.4618v-7.4618s-10.4137 4.0179-22.8772 4.0179l.328.656c2.9519 0 4.3459 1.148 4.3459 4.3459v25.5011c0 3.5259-1.4759 5.7398-4.6738 5.7398v.738s5.6578-.246 13.85757-.246c8.2817 0 13.36553.246 13.36553.246v-.738c-2.788 0-4.34597-.8199-4.34597-3.4439v-28.617c1.3119-.246 2.45985-.8199 4.0178-.8199h.00015zM27.3374 97.7888c1.96794 0 3.0339.98395 4.0179 2.8699l8.4457 16.23544c4.01784 7.78974 9.5117 10.65965 17.8754 10.65965 7.9537 0 12.62754-2.706 12.62754-2.706v-.656c-2.8698 0-4.5918-1.722-6.5597-4.9199L42.5889 83.7672l2.9519-3.3619c6.0678-6.96974 12.1356-10.9876 19.84333-10.9876v-.8199s-3.52586.2461-11.6436.2461c-8.69174 0-13.4476-.246-13.4476-.246v.82006c3.36195 0 6.14978 1.80396 6.14978 5.0018 0 2.45997-1.066 5.1659-5.4938 10.0857L29.9612 96.969h-2.6239V79.66754c0-6.39573 1.9679-10.2496 6.14976-10.2496V68.598s-7.21578.24608-15.74346.24608-15.7435-.24598-15.7435-.24598v.82006c4.18188 0 6.14977 1.47595 6.14977 7.2978v38.21068c0 6.39584-1.968 10.2497-6.14987 10.2497v.81996s7.2158-.24598 15.74347-.24598c8.52768 0 15.74347.2461 15.74347.2461v-.82007c-4.18187 0-6.14976-1.47595-6.14976-7.2977v-20.0894l.0002-.00044zm71.48596 27.46906c-1.80395 0-3.1979-.65597-3.1979-3.1159V64.49792S85.2119 68.59777 72.7482 68.59777l.328.73792c2.9519 0 4.34594.9839 4.34594 4.1818v46.0005c0 3.5258-1.47594 5.7397-4.6738 5.7397v.7379s5.6578-.2461 13.8576-.2461c8.2817 0 12.2176.246 12.2176.246v-.7381l-.0002.0003zm32.45527-3.1159c-1.6399.57398-2.7059 1.14796-4.0998 1.14796-2.5419 0-3.6899-2.37792-3.6899-6.14987 0-5.32982 1.886-10.08566 6.3958-10.98763 0 0-.3279 2.21386-.3279 6.6417 0 7.13377 1.72196 9.34763 1.72196 9.34763l-.0001.00022zm16.4815-20.66335c0-11.2336-4.5919-16.4815-18.69534-16.4815-10.0038 0-21.1553 3.8539-21.1553 10.7417 0 3.6898 2.8698 6.2318 7.2977 6.2318 2.6239 0 6.4777-1.1479 8.6917-2.8699-1.558-2.296-2.3779-4.3459-2.3779-7.3797 0-3.3619 1.5578-6.0678 4.5918-6.0678 3.0339 0 4.2637 2.2959 4.2637 7.9537 0 6.2318-.4921 11.8076-.4921 11.8076-15.9075 0-24.6812 5.0018-24.6812 13.3656 0 6.2318 5.1657 8.8557 11.0695 8.8557 7.1337 0 11.5616-3.8538 15.2514-4.8378 2.2139 3.4439 6.3137 4.5918 10.6596 4.5918 4.9198 0 9.0196-1.64 10.5776-4.3459l-.328-.2459c-.574.7379-1.558 1.3119-2.3779 1.3119-1.722 0-3.1159-1.066-3.1159-5.3298 0-5.7398.8199-9.5116.8199-17.3014l.0005.0005zm35.2431 20.6633c-1.64.574-2.7059 1.148-4.0998 1.148-2.54196 0-3.6899-2.3779-3.6899-6.1498 0-5.3298 1.8859-10.0856 6.3958-10.9876 0 0-.328 2.2139-.328 6.6417 0 7.1338 1.7219 9.3476 1.7219 9.3476l.0001.0002zm16.4814-20.6633c0-11.2336-4.5919-16.4815-18.69535-16.4815-10.0038 0-21.1553 3.8539-21.1553 10.7417 0 3.6898 2.8698 6.2318 7.2977 6.2318 2.6239 0 6.4777-1.1479 8.6916-2.8699-1.558-2.2959-2.3779-4.3458-2.3779-7.3797 0-3.3619 1.55794-6.0678 4.59175-6.0678 3.0338 0 4.2638 2.2959 4.2638 7.9537 0 6.2318-.49206 11.8076-.49206 11.8076-15.9075 0-24.6812 5.0018-24.6812 13.3656 0 6.2318 5.16578 8.8557 11.06957 8.8557 7.1338 0 11.5616-3.8539 15.25155-4.8379 2.2138 3.4439 6.3137 4.5918 10.6596 4.5918 4.9198 0 9.0196-1.64 10.5776-4.3459l-.328-.246c-.574.738-1.5579 1.312-2.378 1.312-1.7219 0-3.1159-1.066-3.1159-5.3298 0-5.7398.8199-9.5117.8199-17.3014l.0004.0003zm44.4269-14.5955c-6.39582 0-9.5937-1.886-15.33353-1.886-11.3976 0-19.0233 4.7559-19.0233 13.2015 0 13.5295 21.4832 15.0055 21.4832 24.4352 0 2.5419-1.804 4.1819-5.08387 4.1819-7.2978 0-13.7756-7.6258-15.57954-15.6615h-.656l.7379 14.6775c10.0036 0 10.7416 1.804 16.4814 1.804 13.1195 0 20.1713-5.4938 20.1713-14.1035 0-14.0215-21.9753-15.0055-21.9753-24.1072 0-2.6239 1.8039-3.7719 4.0998-3.7719 7.4617 0 12.2176 7.2978 13.4475 13.6936h.7379l.4919-12.46354.0005.00034zm44.4268 0c-6.39583 0-9.5937-1.886-15.33354-1.886-11.3977 0-19.0234 4.7559-19.0234 13.2015 0 13.5295 21.4832 15.0055 21.4832 24.4352 0 2.5419-1.8039 4.1819-5.0838 4.1819-7.2978 0-13.7756-7.6258-15.5796-15.6615h-.656l.7379 14.6775c10.0036 0 10.7416 1.804 16.4814 1.804 13.1196 0 20.1713-5.4938 20.1713-14.1035 0-14.0215-21.9753-15.0055-21.9753-24.1072 0-2.6239 1.8039-3.7719 4.0998-3.7719 7.4617 0 12.2176 7.2978 13.4474 13.6936h.7379l.4919-12.46354.0005.00034zm27.9454 18.6133c0-1.066 0-2.296.08194-3.5259h24.7632l1.0659-1.066c-.574-10.7416-8.6097-15.9075-19.7614-15.9075-14.34954 0-25.33716 10.1676-25.33716 22.3032 0 12.2176 8.1178 20.3353 23.4512 20.3353 8.6097 0 14.5956-2.5419 19.0234-7.7897l-.41-.328c-3.1979 2.2139-6.8057 3.5259-11.1517 3.5259-8.2817 0-11.7257-7.7077-11.7257-17.5474h-.0001l.0004.0005zm.16397-4.1818c.902-10.5777 2.5419-15.6615 5.2478-15.6615 2.45985 0 4.2638 3.6898 4.2638 10.0037 0 1.476-.082 3.0338-.328 4.6738l-9.1837.9839.0001.0003zm56.9125 23.6139c-1.8163 0-3.21975-.6483-3.21975-3.0796V92.1064c2.1465-.64834 3.21978-1.21564 4.78837-1.21564 1.6512 0 2.97206 1.21565 2.97206 3.56586v26.66275c0 2.75544-.82562 3.809-3.0547 3.809v.7296s4.62323-.24313 12.30117-.24313c8.1733 0 13.62216.2431 13.62216.2431v-.7294c-3.2198 0-4.5408-.6483-4.5408-4.2952V96.5639c0-7.45585-3.7977-11.4269-10.4022-11.4269-6.4395 0-10.8151 4.53835-15.6861 6.32127V85.137s-10.4849 3.971-23.0338 3.971l.3302.64835c2.9721 0 4.3756 1.13458 4.3756 4.2952v25.20402c0 3.4848-1.4861 5.67293-4.7059 5.67293v.72938s5.6965-.24312 13.9524-.24312c8.3384 0 12.3012.24312 12.3012.24312v-.72938l.0002-.00023z"/><path stroke="#000" stroke-width="4" d="M44.0648 7.26385c-6.88776 0-12.54557-1.72194-18.28538-1.72194-14.59552 0-22.71328 6.9698-22.71328 17.7114 0 19.1874 30.667 20.8274 30.667 33.7829 0 4.428-3.03393 8.1998-9.8397 8.1998-9.83967 0-17.2194-9.2657-19.92533-22.2212h-.82l.82 20.5813c10.9877 0 11.9715 2.46 20.8273 2.46 12.1356 0 23.3692-7.1337 23.3692-19.4333 0-20.0893-30.175-19.5973-30.175-33.2088 0-4.5098 3.1159-7.0517 7.4618-7.0517 8.6917 0 15.4155 8.7738 17.0554 17.8754h.82l.7379-16.9735.0004-.0002zM80.20997 24.1553c2.7879 0 3.93587 2.7059 3.93587 6.06777 0 3.0339-.73797 5.57582-2.21393 7.78974 1.722 1.558 4.6739 2.46 7.2158 2.46 5.4938 0 8.5277-3.1158 8.5277-6.8057 0-6.1497-7.0517-10.1676-18.0393-10.1676-14.9235 0-25.8291 10.1677-25.8291 22.3033 0 12.2176 8.6097 20.3354 23.9432 20.3354 8.6097 0 14.5135-2.5418 18.9414-7.7897l-.328-.328c-3.2799 2.214-6.8057 3.5259-11.3156 3.5259-8.1177 0-12.0536-7.7077-12.0536-17.5474 0-12.7916 3.4438-19.8433 7.2157-19.8433h.0002zm47.62477 39.60464c-1.80394 0-3.1979-.65598-3.1979-3.1159v-30.093c2.29593-.49198 3.2799-1.22995 5.16584-1.22995 1.63993 0 3.0339 1.2299 3.0339 3.6078V59.906c0 2.7879-.90198 3.85387-3.1159 3.85387v.738s4.18186-.246 12.1356-.246c7.95372 0 13.69354.246 13.69354.246v-.738c-3.1979 0-4.50986-.65598-4.50986-4.34585V35.0609c0-7.54373-3.85387-11.5616-10.33163-11.5616-6.47778 0-10.98764 4.67384-16.07146 6.39578V3s-10.41365 4.09986-22.87722 4.09986l.328.73797c2.9519 0 4.34583.98397 4.34583 4.18187v46.00043c0 3.5259-1.47595 5.7398-4.67383 5.7398v.738s5.6578-.246 13.77553-.246c8.03573 0 12.29958.246 12.29958.246v-.738zm59.51437-37.8827c1.722 0 3.1159.65597 3.1159 3.11588V59.0861c-2.2139.65598-3.1159 1.31195-4.7558 1.31195s-3.0339-1.31195-3.0339-3.68987V25.05725l-.656-.65598-21.9752.73792v.7379c3.1979 0 4.4279.6559 4.4279 4.4278v24.3532c0 7.4617 3.8539 11.4796 10.3317 11.4796s10.2496-4.5919 15.6615-6.3959l.7379 6.3957s9.6756-4.018 22.1392-4.018l-.41-.656c-2.9519 0-4.2639-1.066-4.2639-4.2639V25.0571l-.656-.656-20.6633.73794v.738l.0004.00013zm56.5625-.738s-4.0998.32802-12.4636.32802c-8.3637 0-15.8254-.328-15.8254-.328v.73797c3.2799 0 4.2639 1.47594 5.2479 4.01787l13.8576 34.60282h11.8896l-.9019 2.6239c-1.7219 5.08384-5.6578 14.6775-10.5776 14.6775-1.6399 0-2.6239-1.14793-2.6239-2.7879 0-2.29588 1.886-4.59178 5.3298-5.3298 0-3.03382-2.5418-7.21568-8.1997-7.21568-5.6578 0-9.0196 3.77195-9.0196 8.2817 0 5.08384 3.9359 9.10177 10.9876 9.10177 9.0197 0 12.2996-9.3476 15.1695-17.3014l10.4957-29.683c2.132-6.0677 5.3298-10.9876 9.5117-10.9876v-.7379s-3.0338.328-7.6257.328c-5.0018 0-8.6916-.328-8.6916-.328v.7381c4.6738 0 6.4778 2.542 6.4778 6.1499 0 2.0499-.656 5.0839-1.7219 8.0358l-5.3298 15.4975-8.1998-22.5493c-.6558-1.8039-.9838-2.8698-.9838-4.0998 0-1.64.902-3.0339 3.1979-3.0339l-.0001-.7379-.0004-.0003zm51.6427 38.6207c-1.8039 0-3.1979-.656-3.1979-3.1159V3s-10.4136 4.09986-22.8772 4.09986l.328.73797c2.9519 0 4.3459.98397 4.3459 4.18187v46.00043c0 3.5259-1.4759 5.7398-4.6738 5.7398v.738s5.6578-.246 13.8576-.246c8.2817 0 12.2176.246 12.2176.246v-.738l-.0002.00002zm25.1576-19.76132c0-1.06597 0-2.29593.082-3.5259h24.7631l1.066-1.06596c-.574-10.74163-8.6097-15.90745-19.7613-15.90745-14.3495 0-25.3371 10.1677-25.3371 22.3033 0 12.2176 8.1178 20.3353 23.4512 20.3353 8.6097 0 14.5955-2.5419 19.0234-7.7897l-.4099-.328c-3.198 2.2139-6.8058 3.5259-11.1517 3.5259-8.2817 0-11.7256-7.7077-11.7256-17.5474h.0002zm.164-4.18187c.902-10.57763 2.5419-15.66146 5.2478-15.66146 2.4599 0 4.2639 3.6898 4.2639 10.0036 0 1.4759-.082 3.0339-.328 4.6739l-9.1836.984v-.0001zm57.5464-8.9377c2.378 0 3.4439 1.63995 3.4439 3.77187 0 1.47595-.574 2.9519-.984 3.77188 1.066.90197 3.4439 1.63994 5.3298 1.63994 5.4939 0 8.3638-4.26385 8.3638-8.6917 0-4.34585-3.1159-7.87173-7.7897-7.87173-6.3958 0-8.4457 6.0678-12.3815 7.4618v-7.4618s-10.4137 4.0179-22.8772 4.0179l.328.656c2.9519 0 4.3459 1.148 4.3459 4.3459v25.5011c0 3.5259-1.4759 5.7398-4.6738 5.7398v.738s5.6578-.246 13.85757-.246c8.2817 0 13.36553.246 13.36553.246v-.738c-2.788 0-4.34597-.8199-4.34597-3.4439v-28.617c1.3119-.246 2.45985-.8199 4.0178-.8199h.00015zM27.3374 97.7888c1.96794 0 3.0339.98395 4.0179 2.8699l8.4457 16.23544c4.01784 7.78974 9.5117 10.65965 17.8754 10.65965 7.9537 0 12.62754-2.706 12.62754-2.706v-.656c-2.8698 0-4.5918-1.722-6.5597-4.9199L42.5889 83.7672l2.9519-3.3619c6.0678-6.96974 12.1356-10.9876 19.84333-10.9876v-.8199s-3.52586.2461-11.6436.2461c-8.69174 0-13.4476-.246-13.4476-.246v.82006c3.36195 0 6.14978 1.80396 6.14978 5.0018 0 2.45997-1.066 5.1659-5.4938 10.0857L29.9612 96.969h-2.6239V79.66754c0-6.39573 1.9679-10.2496 6.14976-10.2496V68.598s-7.21578.24608-15.74346.24608-15.7435-.24598-15.7435-.24598v.82006c4.18188 0 6.14977 1.47595 6.14977 7.2978v38.21068c0 6.39584-1.968 10.2497-6.14987 10.2497v.81996s7.2158-.24598 15.74347-.24598c8.52768 0 15.74347.2461 15.74347.2461v-.82007c-4.18187 0-6.14976-1.47595-6.14976-7.2977v-20.0894l.0002-.00044zm71.48596 27.46906c-1.80395 0-3.1979-.65597-3.1979-3.1159V64.49792S85.2119 68.59777 72.7482 68.59777l.328.73792c2.9519 0 4.34594.9839 4.34594 4.1818v46.0005c0 3.5258-1.47594 5.7397-4.6738 5.7397v.7379s5.6578-.2461 13.8576-.2461c8.2817 0 12.2176.246 12.2176.246v-.7381l-.0002.0003zm32.45527-3.1159c-1.6399.57398-2.7059 1.14796-4.0998 1.14796-2.5419 0-3.6899-2.37792-3.6899-6.14987 0-5.32982 1.886-10.08566 6.3958-10.98763 0 0-.3279 2.21386-.3279 6.6417 0 7.13377 1.72196 9.34763 1.72196 9.34763l-.0001.00022zm16.4815-20.66335c0-11.2336-4.5919-16.4815-18.69534-16.4815-10.0038 0-21.1553 3.8539-21.1553 10.7417 0 3.6898 2.8698 6.2318 7.2977 6.2318 2.6239 0 6.4777-1.1479 8.6917-2.8699-1.558-2.296-2.3779-4.3459-2.3779-7.3797 0-3.3619 1.5578-6.0678 4.5918-6.0678 3.0339 0 4.2637 2.2959 4.2637 7.9537 0 6.2318-.4921 11.8076-.4921 11.8076-15.9075 0-24.6812 5.0018-24.6812 13.3656 0 6.2318 5.1657 8.8557 11.0695 8.8557 7.1337 0 11.5616-3.8538 15.2514-4.8378 2.2139 3.4439 6.3137 4.5918 10.6596 4.5918 4.9198 0 9.0196-1.64 10.5776-4.3459l-.328-.2459c-.574.7379-1.558 1.3119-2.3779 1.3119-1.722 0-3.1159-1.066-3.1159-5.3298 0-5.7398.8199-9.5116.8199-17.3014l.0005.0005zm35.2431 20.6633c-1.64.574-2.7059 1.148-4.0998 1.148-2.54196 0-3.6899-2.3779-3.6899-6.1498 0-5.3298 1.8859-10.0856 6.3958-10.9876 0 0-.328 2.2139-.328 6.6417 0 7.1338 1.7219 9.3476 1.7219 9.3476l.0001.0002zm16.4814-20.6633c0-11.2336-4.5919-16.4815-18.69535-16.4815-10.0038 0-21.1553 3.8539-21.1553 10.7417 0 3.6898 2.8698 6.2318 7.2977 6.2318 2.6239 0 6.4777-1.1479 8.6916-2.8699-1.558-2.2959-2.3779-4.3458-2.3779-7.3797 0-3.3619 1.55794-6.0678 4.59175-6.0678 3.0338 0 4.2638 2.2959 4.2638 7.9537 0 6.2318-.49206 11.8076-.49206 11.8076-15.9075 0-24.6812 5.0018-24.6812 13.3656 0 6.2318 5.16578 8.8557 11.06957 8.8557 7.1338 0 11.5616-3.8539 15.25155-4.8379 2.2138 3.4439 6.3137 4.5918 10.6596 4.5918 4.9198 0 9.0196-1.64 10.5776-4.3459l-.328-.246c-.574.738-1.5579 1.312-2.378 1.312-1.7219 0-3.1159-1.066-3.1159-5.3298 0-5.7398.8199-9.5117.8199-17.3014l.0004.0003zm44.4269-14.5955c-6.39582 0-9.5937-1.886-15.33353-1.886-11.3976 0-19.0233 4.7559-19.0233 13.2015 0 13.5295 21.4832 15.0055 21.4832 24.4352 0 2.5419-1.804 4.1819-5.08387 4.1819-7.2978 0-13.7756-7.6258-15.57954-15.6615h-.656l.7379 14.6775c10.0036 0 10.7416 1.804 16.4814 1.804 13.1195 0 20.1713-5.4938 20.1713-14.1035 0-14.0215-21.9753-15.0055-21.9753-24.1072 0-2.6239 1.8039-3.7719 4.0998-3.7719 7.4617 0 12.2176 7.2978 13.4475 13.6936h.7379l.4919-12.46354.0005.00034zm44.4268 0c-6.39583 0-9.5937-1.886-15.33354-1.886-11.3977 0-19.0234 4.7559-19.0234 13.2015 0 13.5295 21.4832 15.0055 21.4832 24.4352 0 2.5419-1.8039 4.1819-5.0838 4.1819-7.2978 0-13.7756-7.6258-15.5796-15.6615h-.656l.7379 14.6775c10.0036 0 10.7416 1.804 16.4814 1.804 13.1196 0 20.1713-5.4938 20.1713-14.1035 0-14.0215-21.9753-15.0055-21.9753-24.1072 0-2.6239 1.8039-3.7719 4.0998-3.7719 7.4617 0 12.2176 7.2978 13.4474 13.6936h.7379l.4919-12.46354.0005.00034zm27.9454 18.6133c0-1.066 0-2.296.08194-3.5259h24.7632l1.0659-1.066c-.574-10.7416-8.6097-15.9075-19.7614-15.9075-14.34954 0-25.33716 10.1676-25.33716 22.3032 0 12.2176 8.1178 20.3353 23.4512 20.3353 8.6097 0 14.5956-2.5419 19.0234-7.7897l-.41-.328c-3.1979 2.2139-6.8057 3.5259-11.1517 3.5259-8.2817 0-11.7257-7.7077-11.7257-17.5474h-.0001l.0004.0005zm.16397-4.1818c.902-10.5777 2.5419-15.6615 5.2478-15.6615 2.45985 0 4.2638 3.6898 4.2638 10.0037 0 1.476-.082 3.0338-.328 4.6738l-9.1837.9839.0001.0003zm56.9125 23.6139c-1.8163 0-3.21975-.6483-3.21975-3.0796V92.1064c2.1465-.64834 3.21978-1.21564 4.78837-1.21564 1.6512 0 2.97206 1.21565 2.97206 3.56586v26.66275c0 2.75544-.82562 3.809-3.0547 3.809v.7296s4.62323-.24313 12.30117-.24313c8.1733 0 13.62216.2431 13.62216.2431v-.7294c-3.2198 0-4.5408-.6483-4.5408-4.2952V96.5639c0-7.45585-3.7977-11.4269-10.4022-11.4269-6.4395 0-10.8151 4.53835-15.6861 6.32127V85.137s-10.4849 3.971-23.0338 3.971l.3302.64835c2.9721 0 4.3756 1.13458 4.3756 4.2952v25.20402c0 3.4848-1.4861 5.67293-4.7059 5.67293v.72938s5.6965-.24312 13.9524-.24312c8.3384 0 12.3012.24312 12.3012.24312v-.72938l.0002-.00023z"/><path stroke="#FFF" d="M44.0648 7.26385c-6.88776 0-12.54557-1.72194-18.28538-1.72194-14.59552 0-22.71328 6.9698-22.71328 17.7114 0 19.1874 30.667 20.8274 30.667 33.7829 0 4.428-3.03393 8.1998-9.8397 8.1998-9.83967 0-17.2194-9.2657-19.92533-22.2212h-.82l.82 20.5813c10.9877 0 11.9715 2.46 20.8273 2.46 12.1356 0 23.3692-7.1337 23.3692-19.4333 0-20.0893-30.175-19.5973-30.175-33.2088 0-4.5098 3.1159-7.0517 7.4618-7.0517 8.6917 0 15.4155 8.7738 17.0554 17.8754h.82l.7379-16.9735.0004-.0002zM80.20997 24.1553c2.7879 0 3.93587 2.7059 3.93587 6.06777 0 3.0339-.73797 5.57582-2.21393 7.78974 1.722 1.558 4.6739 2.46 7.2158 2.46 5.4938 0 8.5277-3.1158 8.5277-6.8057 0-6.1497-7.0517-10.1676-18.0393-10.1676-14.9235 0-25.8291 10.1677-25.8291 22.3033 0 12.2176 8.6097 20.3354 23.9432 20.3354 8.6097 0 14.5135-2.5418 18.9414-7.7897l-.328-.328c-3.2799 2.214-6.8057 3.5259-11.3156 3.5259-8.1177 0-12.0536-7.7077-12.0536-17.5474 0-12.7916 3.4438-19.8433 7.2157-19.8433h.0002zm47.62477 39.60464c-1.80394 0-3.1979-.65598-3.1979-3.1159v-30.093c2.29593-.49198 3.2799-1.22995 5.16584-1.22995 1.63993 0 3.0339 1.2299 3.0339 3.6078V59.906c0 2.7879-.90198 3.85387-3.1159 3.85387v.738s4.18186-.246 12.1356-.246c7.95372 0 13.69354.246 13.69354.246v-.738c-3.1979 0-4.50986-.65598-4.50986-4.34585V35.0609c0-7.54373-3.85387-11.5616-10.33163-11.5616-6.47778 0-10.98764 4.67384-16.07146 6.39578V3s-10.41365 4.09986-22.87722 4.09986l.328.73797c2.9519 0 4.34583.98397 4.34583 4.18187v46.00043c0 3.5259-1.47595 5.7398-4.67383 5.7398v.738s5.6578-.246 13.77553-.246c8.03573 0 12.29958.246 12.29958.246v-.738zm59.51437-37.8827c1.722 0 3.1159.65597 3.1159 3.11588V59.0861c-2.2139.65598-3.1159 1.31195-4.7558 1.31195s-3.0339-1.31195-3.0339-3.68987V25.05725l-.656-.65598-21.9752.73792v.7379c3.1979 0 4.4279.6559 4.4279 4.4278v24.3532c0 7.4617 3.8539 11.4796 10.3317 11.4796s10.2496-4.5919 15.6615-6.3959l.7379 6.3957s9.6756-4.018 22.1392-4.018l-.41-.656c-2.9519 0-4.2639-1.066-4.2639-4.2639V25.0571l-.656-.656-20.6633.73794v.738l.0004.00013zm56.5625-.738s-4.0998.32802-12.4636.32802c-8.3637 0-15.8254-.328-15.8254-.328v.73797c3.2799 0 4.2639 1.47594 5.2479 4.01787l13.8576 34.60282h11.8896l-.9019 2.6239c-1.7219 5.08384-5.6578 14.6775-10.5776 14.6775-1.6399 0-2.6239-1.14793-2.6239-2.7879 0-2.29588 1.886-4.59178 5.3298-5.3298 0-3.03382-2.5418-7.21568-8.1997-7.21568-5.6578 0-9.0196 3.77195-9.0196 8.2817 0 5.08384 3.9359 9.10177 10.9876 9.10177 9.0197 0 12.2996-9.3476 15.1695-17.3014l10.4957-29.683c2.132-6.0677 5.3298-10.9876 9.5117-10.9876v-.7379s-3.0338.328-7.6257.328c-5.0018 0-8.6916-.328-8.6916-.328v.7381c4.6738 0 6.4778 2.542 6.4778 6.1499 0 2.0499-.656 5.0839-1.7219 8.0358l-5.3298 15.4975-8.1998-22.5493c-.6558-1.8039-.9838-2.8698-.9838-4.0998 0-1.64.902-3.0339 3.1979-3.0339l-.0001-.7379-.0004-.0003zm51.6427 38.6207c-1.8039 0-3.1979-.656-3.1979-3.1159V3s-10.4136 4.09986-22.8772 4.09986l.328.73797c2.9519 0 4.3459.98397 4.3459 4.18187v46.00043c0 3.5259-1.4759 5.7398-4.6738 5.7398v.738s5.6578-.246 13.8576-.246c8.2817 0 12.2176.246 12.2176.246v-.738l-.0002.00002zm25.1576-19.76132c0-1.06597 0-2.29593.082-3.5259h24.7631l1.066-1.06596c-.574-10.74163-8.6097-15.90745-19.7613-15.90745-14.3495 0-25.3371 10.1677-25.3371 22.3033 0 12.2176 8.1178 20.3353 23.4512 20.3353 8.6097 0 14.5955-2.5419 19.0234-7.7897l-.4099-.328c-3.198 2.2139-6.8058 3.5259-11.1517 3.5259-8.2817 0-11.7256-7.7077-11.7256-17.5474h.0002zm.164-4.18187c.902-10.57763 2.5419-15.66146 5.2478-15.66146 2.4599 0 4.2639 3.6898 4.2639 10.0036 0 1.4759-.082 3.0339-.328 4.6739l-9.1836.984v-.0001zm57.5464-8.9377c2.378 0 3.4439 1.63995 3.4439 3.77187 0 1.47595-.574 2.9519-.984 3.77188 1.066.90197 3.4439 1.63994 5.3298 1.63994 5.4939 0 8.3638-4.26385 8.3638-8.6917 0-4.34585-3.1159-7.87173-7.7897-7.87173-6.3958 0-8.4457 6.0678-12.3815 7.4618v-7.4618s-10.4137 4.0179-22.8772 4.0179l.328.656c2.9519 0 4.3459 1.148 4.3459 4.3459v25.5011c0 3.5259-1.4759 5.7398-4.6738 5.7398v.738s5.6578-.246 13.85757-.246c8.2817 0 13.36553.246 13.36553.246v-.738c-2.788 0-4.34597-.8199-4.34597-3.4439v-28.617c1.3119-.246 2.45985-.8199 4.0178-.8199h.00015zM27.3374 97.7888c1.96794 0 3.0339.98395 4.0179 2.8699l8.4457 16.23544c4.01784 7.78974 9.5117 10.65965 17.8754 10.65965 7.9537 0 12.62754-2.706 12.62754-2.706v-.656c-2.8698 0-4.5918-1.722-6.5597-4.9199L42.5889 83.7672l2.9519-3.3619c6.0678-6.96974 12.1356-10.9876 19.84333-10.9876v-.8199s-3.52586.2461-11.6436.2461c-8.69174 0-13.4476-.246-13.4476-.246v.82006c3.36195 0 6.14978 1.80396 6.14978 5.0018 0 2.45997-1.066 5.1659-5.4938 10.0857L29.9612 96.969h-2.6239V79.66754c0-6.39573 1.9679-10.2496 6.14976-10.2496V68.598s-7.21578.24608-15.74346.24608-15.7435-.24598-15.7435-.24598v.82006c4.18188 0 6.14977 1.47595 6.14977 7.2978v38.21068c0 6.39584-1.968 10.2497-6.14987 10.2497v.81996s7.2158-.24598 15.74347-.24598c8.52768 0 15.74347.2461 15.74347.2461v-.82007c-4.18187 0-6.14976-1.47595-6.14976-7.2977v-20.0894l.0002-.00044zm71.48596 27.46906c-1.80395 0-3.1979-.65597-3.1979-3.1159V64.49792S85.2119 68.59777 72.7482 68.59777l.328.73792c2.9519 0 4.34594.9839 4.34594 4.1818v46.0005c0 3.5258-1.47594 5.7397-4.6738 5.7397v.7379s5.6578-.2461 13.8576-.2461c8.2817 0 12.2176.246 12.2176.246v-.7381l-.0002.0003zm32.45527-3.1159c-1.6399.57398-2.7059 1.14796-4.0998 1.14796-2.5419 0-3.6899-2.37792-3.6899-6.14987 0-5.32982 1.886-10.08566 6.3958-10.98763 0 0-.3279 2.21386-.3279 6.6417 0 7.13377 1.72196 9.34763 1.72196 9.34763l-.0001.00022zm16.4815-20.66335c0-11.2336-4.5919-16.4815-18.69534-16.4815-10.0038 0-21.1553 3.8539-21.1553 10.7417 0 3.6898 2.8698 6.2318 7.2977 6.2318 2.6239 0 6.4777-1.1479 8.6917-2.8699-1.558-2.296-2.3779-4.3459-2.3779-7.3797 0-3.3619 1.5578-6.0678 4.5918-6.0678 3.0339 0 4.2637 2.2959 4.2637 7.9537 0 6.2318-.4921 11.8076-.4921 11.8076-15.9075 0-24.6812 5.0018-24.6812 13.3656 0 6.2318 5.1657 8.8557 11.0695 8.8557 7.1337 0 11.5616-3.8538 15.2514-4.8378 2.2139 3.4439 6.3137 4.5918 10.6596 4.5918 4.9198 0 9.0196-1.64 10.5776-4.3459l-.328-.2459c-.574.7379-1.558 1.3119-2.3779 1.3119-1.722 0-3.1159-1.066-3.1159-5.3298 0-5.7398.8199-9.5116.8199-17.3014l.0005.0005zm35.2431 20.6633c-1.64.574-2.7059 1.148-4.0998 1.148-2.54196 0-3.6899-2.3779-3.6899-6.1498 0-5.3298 1.8859-10.0856 6.3958-10.9876 0 0-.328 2.2139-.328 6.6417 0 7.1338 1.7219 9.3476 1.7219 9.3476l.0001.0002zm16.4814-20.6633c0-11.2336-4.5919-16.4815-18.69535-16.4815-10.0038 0-21.1553 3.8539-21.1553 10.7417 0 3.6898 2.8698 6.2318 7.2977 6.2318 2.6239 0 6.4777-1.1479 8.6916-2.8699-1.558-2.2959-2.3779-4.3458-2.3779-7.3797 0-3.3619 1.55794-6.0678 4.59175-6.0678 3.0338 0 4.2638 2.2959 4.2638 7.9537 0 6.2318-.49206 11.8076-.49206 11.8076-15.9075 0-24.6812 5.0018-24.6812 13.3656 0 6.2318 5.16578 8.8557 11.06957 8.8557 7.1338 0 11.5616-3.8539 15.25155-4.8379 2.2138 3.4439 6.3137 4.5918 10.6596 4.5918 4.9198 0 9.0196-1.64 10.5776-4.3459l-.328-.246c-.574.738-1.5579 1.312-2.378 1.312-1.7219 0-3.1159-1.066-3.1159-5.3298 0-5.7398.8199-9.5117.8199-17.3014l.0004.0003zm44.4269-14.5955c-6.39582 0-9.5937-1.886-15.33353-1.886-11.3976 0-19.0233 4.7559-19.0233 13.2015 0 13.5295 21.4832 15.0055 21.4832 24.4352 0 2.5419-1.804 4.1819-5.08387 4.1819-7.2978 0-13.7756-7.6258-15.57954-15.6615h-.656l.7379 14.6775c10.0036 0 10.7416 1.804 16.4814 1.804 13.1195 0 20.1713-5.4938 20.1713-14.1035 0-14.0215-21.9753-15.0055-21.9753-24.1072 0-2.6239 1.8039-3.7719 4.0998-3.7719 7.4617 0 12.2176 7.2978 13.4475 13.6936h.7379l.4919-12.46354.0005.00034zm44.4268 0c-6.39583 0-9.5937-1.886-15.33354-1.886-11.3977 0-19.0234 4.7559-19.0234 13.2015 0 13.5295 21.4832 15.0055 21.4832 24.4352 0 2.5419-1.8039 4.1819-5.0838 4.1819-7.2978 0-13.7756-7.6258-15.5796-15.6615h-.656l.7379 14.6775c10.0036 0 10.7416 1.804 16.4814 1.804 13.1196 0 20.1713-5.4938 20.1713-14.1035 0-14.0215-21.9753-15.0055-21.9753-24.1072 0-2.6239 1.8039-3.7719 4.0998-3.7719 7.4617 0 12.2176 7.2978 13.4474 13.6936h.7379l.4919-12.46354.0005.00034zm27.9454 18.6133c0-1.066 0-2.296.08194-3.5259h24.7632l1.0659-1.066c-.574-10.7416-8.6097-15.9075-19.7614-15.9075-14.34954 0-25.33716 10.1676-25.33716 22.3032 0 12.2176 8.1178 20.3353 23.4512 20.3353 8.6097 0 14.5956-2.5419 19.0234-7.7897l-.41-.328c-3.1979 2.2139-6.8057 3.5259-11.1517 3.5259-8.2817 0-11.7257-7.7077-11.7257-17.5474h-.0001l.0004.0005zm.16397-4.1818c.902-10.5777 2.5419-15.6615 5.2478-15.6615 2.45985 0 4.2638 3.6898 4.2638 10.0037 0 1.476-.082 3.0338-.328 4.6738l-9.1837.9839.0001.0003zm56.9125 23.6139c-1.8163 0-3.21975-.6483-3.21975-3.0796V92.1064c2.1465-.64834 3.21978-1.21564 4.78837-1.21564 1.6512 0 2.97206 1.21565 2.97206 3.56586v26.66275c0 2.75544-.82562 3.809-3.0547 3.809v.7296s4.62323-.24313 12.30117-.24313c8.1733 0 13.62216.2431 13.62216.2431v-.7294c-3.2198 0-4.5408-.6483-4.5408-4.2952V96.5639c0-7.45585-3.7977-11.4269-10.4022-11.4269-6.4395 0-10.8151 4.53835-15.6861 6.32127V85.137s-10.4849 3.971-23.0338 3.971l.3302.64835c2.9721 0 4.3756 1.13458 4.3756 4.2952v25.20402c0 3.4848-1.4861 5.67293-4.7059 5.67293v.72938s5.6965-.24312 13.9524-.24312c8.3384 0 12.3012.24312 12.3012.24312v-.72938l.0002-.00023z"/></g></svg>