<svg width="33" height="30" viewBox="0 0 33 30"><title>Sketch-badge-small</title><path d="M27.896 2.477L32.5 7.844 16.25 30 0 7.844l4.604-5.367L10.427 0h11.646l5.823 2.477zM11.375 21.55l-4.333-7.954-3.413-2.587 7.746 10.541zm12.702-7.789H8.37l7.854 14.395 7.854-14.395zm-3.006 7.79l4.333-7.955 3.413-2.587L21.07 21.55zM7.285 12.412l-5.93-4.514 3.601-4.21 5.119 2.504-2.79 6.22zm3.792-5.807L8.37 12.66h15.708L21.37 6.606H11.077zm14.083 5.807l5.932-4.514-3.602-4.21-5.12 2.504 2.79 6.22zM21.37 5.505H11.077L6.094 3.028 10.617 1.1h11.212l4.523 1.927-4.983 2.477z" fill="#111418" fill-rule="evenodd"/></svg>
