<svg width="26" height="24" viewBox="0 0 26 24"><title>sketchapp-diamond</title><path d="M22.317 1.982L26 6.275 13 24 0 6.275l3.683-4.293L8.342 0h9.316l4.659 1.982zM9.1 17.24l-3.467-6.363-2.73-2.07L9.1 17.24zm10.162-6.23H6.695l6.283 11.515 6.284-11.516zm-2.405 6.23l3.466-6.363 2.73-2.07-6.196 8.433zM5.828 9.93L1.083 6.32l2.882-3.37L8.06 4.954 5.828 9.93zm3.034-4.646l-2.167 4.844h12.567l-2.167-4.844H8.862zM20.128 9.93l4.745-3.61-2.881-3.37-4.095 2.004 2.231 4.976zm-3.033-5.526H8.862L4.875 2.422 8.493.881h8.97l3.619 1.541-3.987 1.982z" fill="#111418" fill-rule="evenodd"/></svg>
