<?xml version="1.0" encoding="UTF-8" standalone="no"?>
<svg width="518px" height="518px" viewBox="0 0 518 518" version="1.1" xmlns="http://www.w3.org/2000/svg" xmlns:xlink="http://www.w3.org/1999/xlink">
    <!-- Generator: Sketch 39.1 (31720) - http://www.bohemiancoding.com/sketch -->
    <title>SmK</title>
    <desc>Created with Sketch.</desc>
    <defs></defs>
    <g id="SmK" transform="translate(-3.000000, 9.000000)">
        <g id="K-Border" transform="translate(285.771536, 0.000000)" stroke="#4F99FF" stroke-width="14" opacity="0.899999976">
            <path d="M-0.568405537,254.020924 C72.0297382,253.534773 143.60201,225.872226 190.180659,180.465565" id="Upper-Bottom-K" transform="translate(94.806127, 217.243244) scale(-1, 1) rotate(45.000000) translate(-94.806127, -217.243244) "></path>
            <path d="M135.76779,202.5 C180.273927,153.377225 193.090892,98.254649 191.86923,35" id="Upper-Top-K" transform="translate(163.857678, 118.750000) rotate(3.000000) translate(-163.857678, -118.750000) "></path>
            <path d="M-0.568405537,314.032417 C72.0297382,313.546267 143.60201,285.88372 190.180659,240.477059" id="Upper-Bottom-K-Copy" transform="translate(94.806127, 277.254738) scale(-1, -1) rotate(45.000000) translate(-94.806127, -277.254738) "></path>
            <path d="M155.297934,486.937494 C199.804071,434.014305 211.802336,373.985873 210.580674,305.837488" id="Upper-Top-K-Copy" transform="translate(182.980733, 396.387491) scale(1, -1) rotate(4.000000) translate(-182.980733, -396.387491) "></path>
            <path d="M6.55430712,498.007968 L6.55430712,-1.13242749e-13" id="K-Vert."></path>
        </g>
        <g id="M" transform="translate(140.099998, 146.586711)" stroke="#00CE38">
            <path d="M83.9000015,79.9132895 C114.900002,62.9132895 123.386326,24.4536339 123.386326,21.8316137 C123.386326,19.2095936 123.61048,143.696781 123.386326,168.347673" id="M-Right" stroke-width="9"></path>
            <polyline id="M-Left" stroke-width="9" style="mix-blend-mode: darken;" points="10.4000015 116.413289 10.4000015 0.253285527 89.4000015 80.6703069"></polyline>
            <path d="M7.5,235.413289 L7.5,96.4132892" id="M-Left-Copy" stroke-width="15" transform="translate(7.500000, 165.913289) scale(1, -1) translate(-7.500000, -165.913289) "></path>
        </g>
        <g id="S-Border" transform="translate(0.000000, 10.000000)" stroke="#FF2A2A" stroke-width="16" opacity="0.75">
            <path d="M163.857562,311.415423 C203.183404,311.415423 234.056535,329.921776 249.505976,346.421775 C264.955418,362.921773 279.962431,388.415423 280.89876,436.415423" id="Bottom-of-S-Copy-2" stroke-linecap="square" transform="translate(222.378161, 373.915423) scale(1, -1) rotate(46.000000) translate(-222.378161, -373.915423) "></path>
            <path d="M168.730337,365.000003 C168.730337,395 159.367041,426.499999 134.36704,453.500003 C109.36704,480.500006 79.3108614,489.999995 51.6891386,490" id="Bottom-of-S-Copy" transform="translate(110.209738, 427.500001) scale(-1, 1) translate(-110.209738, -427.500001) "></path>
            <path d="M143,0 C182.325843,5.08228408e-15 210.415727,20.0000013 225.865169,36.5 C241.31461,52.9999987 259.104869,77 260.041199,125" id="Bottom-of-S-Copy-4"></path>
            <path d="M27.4491119,177.5 C27.4491119,147.500003 36.8124077,116.000004 61.8124085,89.0000004 C86.8124092,61.9999966 116.868588,52.500008 144.49031,52.5000029" id="Bottom-of-S-Copy-3" stroke-linecap="square" transform="translate(85.969711, 115.000002) rotate(315.000000) translate(-85.969711, -115.000002) "></path>
        </g>
    </g>
</svg>
