<svg width="510" height="510" viewBox="0 0 510 510" xmlns="http://www.w3.org/2000/svg"><title>SmK</title><g fill="#000" fill-rule="evenodd"><g stroke="#4F99FF" stroke-width="14"><path d="M413.82 308.99c48.09 49.689 64.246 108.734 67.781 176.802M453.023 319.689c-51.678-50.99-121.848-82.04-186.891-82.868M453.023 176.809c-51.678 50.99-121.848 82.04-186.891 82.868M396.195 201.915c47.016-46.726 62.7-101.102 64.79-164.334M271.326 499.008V1"/></g><g stroke="#00CE38"><path d="M203 227.5c31-17 39.486-55.46 39.486-58.082s.224 121.865 0 146.516" stroke-width="9"/><path stroke-width="9" d="M129.5 264V147.84l79 80.417"/><path d="M126.6 244v139" stroke-width="15"/></g><g stroke="#FF2A2A" stroke-width="16"><path d="M205.685 470.428c27.318-28.289 35.452-63.353 34.315-85.928-1.137-22.575-9.05-51.08-42.929-85.097M30.69 376c0 30 9.362 61.5 34.362 88.5S120.11 501 147.73 501M122 11c39.326 0 67.416 20 82.865 36.5 15.45 16.5 33.24 40.5 34.176 88.5M67.784 211.574c-21.214-21.213-36.867-50.107-38.28-86.877-1.415-36.77 13.12-64.74 32.652-84.271"/></g></g></svg>