<?xml version="1.0" encoding="UTF-8"?>
<svg width="250px" height="250px" viewBox="0 0 250 250" version="1.1" xmlns="http://www.w3.org/2000/svg" xmlns:xlink="http://www.w3.org/1999/xlink">
    <!-- Generator: Sketch 46 (44423) - http://www.bohemiancoding.com/sketch -->
    <title>Twitter_Logo_Blue</title>
    <desc>Created with Sketch.</desc>
    <defs></defs>
    <g id="Page-1" stroke="none" stroke-width="1" fill="none" fill-rule="evenodd">
        <g id="Twitter_Logo_Blue" fill-rule="nonzero" fill="#1DA1F2">
            <path d="M78.62,225 C172.96,225 224.56,148.048027 224.56,81.3156222 C224.56,79.1299342 224.56,76.9540915 224.41,74.7880943 C234.448314,67.6394259 243.113555,58.788064 250,48.6484463 C240.638791,52.732353 230.708293,55.4105778 220.54,56.5937179 C231.24744,50.282613 239.261235,40.3563394 243.09,28.6621995 C233.021575,34.544411 222.006461,38.6899003 210.52,40.9197745 C194.620828,24.2750143 169.357194,20.2011507 148.895493,30.9825725 C128.433792,41.7639943 117.86275,64.7194143 123.11,86.9767513 C81.8689574,84.9412016 43.4447578,65.7630069 17.4,34.2150286 C3.78622756,57.2892464 10.7398788,86.8079953 33.28,101.626769 C25.117412,101.388583 17.1327937,99.2206725 10,95.3059951 C10,95.5127493 10,95.7293491 10,95.9459488 C10.0066813,119.98451 27.2175149,140.688905 51.15,145.44883 C43.598696,147.476401 35.6758059,147.772791 27.99,146.315229 C34.7094793,166.88652 53.9657456,180.978902 75.91,181.384693 C57.7473504,195.438391 35.3105951,203.067582 12.21,203.044665 C8.12903569,203.036951 4.05204065,202.79368 0,202.316102 C23.4563595,217.136215 50.749134,224.997213 78.62,224.960618" id="Shape"></path>
        </g>
    </g>
</svg>